G04 MADE WITH FRITZING*
G04 WWW.FRITZING.ORG*
G04 DOUBLE SIDED*
G04 HOLES PLATED*
G04 CONTOUR ON CENTER OF CONTOUR VECTOR*
%ASAXBY*%
%FSLAX23Y23*%
%MOIN*%
%OFA0B0*%
%SFA1.0B1.0*%
%ADD10C,0.088000*%
%ADD11C,0.085000*%
%ADD12C,0.033622*%
%ADD13C,0.049370*%
%ADD14R,0.088000X0.088000*%
%ADD15R,0.085000X0.085000*%
%ADD16R,0.090000X0.036000*%
%ADD17R,0.065118X0.049370*%
%ADD18R,0.147795X0.072992*%
%ADD19R,0.088736X0.059208*%
%ADD20R,0.088736X0.059222*%
%ADD21R,0.057244X0.053307*%
%ADD22R,0.053307X0.057244*%
%LNMASK1*%
G90*
G70*
G54D10*
X110Y143D03*
X110Y243D03*
X110Y343D03*
X110Y143D03*
X110Y243D03*
X110Y343D03*
X110Y1528D03*
X110Y1628D03*
X110Y1728D03*
X110Y1528D03*
X110Y1628D03*
X110Y1728D03*
X110Y863D03*
X110Y963D03*
X110Y1063D03*
X110Y863D03*
X110Y963D03*
X110Y1063D03*
G54D11*
X904Y176D03*
X904Y76D03*
X804Y176D03*
X804Y76D03*
X704Y176D03*
X704Y76D03*
X604Y176D03*
X604Y76D03*
X504Y176D03*
X504Y76D03*
G54D12*
X937Y1284D03*
X311Y1316D03*
G54D13*
X531Y603D03*
X834Y875D03*
G54D12*
X571Y1367D03*
X720Y1367D03*
X563Y1265D03*
X720Y1265D03*
X681Y1091D03*
X563Y1091D03*
X583Y1470D03*
X670Y1540D03*
X554Y945D03*
X693Y945D03*
X622Y1639D03*
G54D13*
X303Y1627D03*
G54D12*
X299Y1765D03*
G54D14*
X110Y143D03*
X110Y143D03*
X110Y1528D03*
X110Y1528D03*
X110Y863D03*
X110Y863D03*
G54D15*
X904Y176D03*
G54D16*
X512Y1467D03*
X512Y1417D03*
X512Y1367D03*
X512Y1317D03*
X512Y1267D03*
X512Y1217D03*
X512Y1167D03*
X773Y1167D03*
X773Y1217D03*
X773Y1267D03*
X773Y1317D03*
X773Y1367D03*
X773Y1417D03*
X773Y1467D03*
G54D17*
X708Y1719D03*
X622Y1682D03*
X622Y1757D03*
G54D18*
X535Y875D03*
X748Y875D03*
X535Y544D03*
X748Y544D03*
G54D19*
X901Y296D03*
G54D20*
X901Y424D03*
G54D19*
X350Y198D03*
G54D20*
X350Y70D03*
G54D21*
X342Y1316D03*
X409Y1316D03*
X870Y1316D03*
X937Y1316D03*
X342Y1765D03*
X409Y1765D03*
X342Y1674D03*
X409Y1674D03*
G54D22*
X189Y544D03*
X189Y611D03*
X260Y544D03*
X260Y611D03*
X905Y1402D03*
X905Y1469D03*
G54D21*
X342Y1564D03*
X409Y1564D03*
X342Y1485D03*
X409Y1485D03*
X342Y1402D03*
X409Y1402D03*
X342Y1056D03*
X409Y1056D03*
X342Y1229D03*
X409Y1229D03*
G54D22*
X905Y1151D03*
X905Y1217D03*
G54D21*
X760Y1091D03*
X827Y1091D03*
X342Y1143D03*
X409Y1143D03*
X760Y1540D03*
X827Y1540D03*
G04 End of Mask1*
M02*