; NON-PLATED HOLES START AT T1
; THROUGH (PLATED) HOLES START AT T100
M48
INCH
T100C0.015748
T101C0.007874
T102C0.035000
T103C0.038000
%
T100
X008344Y008749
X003031Y016272
X005313Y006032
T101
X006697Y015399
X007203Y013670
X006933Y009454
X006809Y010914
X002990Y017646
X009368Y012843
X007203Y012646
X005828Y014695
X005706Y013670
X005544Y009454
X005628Y012646
X003108Y013158
X006218Y016387
X005628Y010914
T102
X008037Y000757
X009037Y000757
X008037Y001757
X009037Y001757
X005037Y000757
X006037Y000757
X007037Y000757
X005037Y001757
X006037Y001757
X007037Y001757
T103
X001100Y017284
X001100Y003434
X001100Y010631
X001100Y015284
X001100Y008631
X001100Y001434
X001100Y016284
X001100Y009631
X001100Y002434
T00
M30
