G04 MADE WITH FRITZING*
G04 WWW.FRITZING.ORG*
G04 DOUBLE SIDED*
G04 HOLES PLATED*
G04 CONTOUR ON CENTER OF CONTOUR VECTOR*
%ASAXBY*%
%FSLAX23Y23*%
%MOIN*%
%OFA0B0*%
%SFA1.0B1.0*%
%ADD10C,0.075000*%
%ADD11C,0.078000*%
%ADD12C,0.023622*%
%ADD13C,0.039370*%
%ADD14R,0.078000X0.078000*%
%ADD15R,0.075000X0.075000*%
%ADD16R,0.080000X0.026000*%
%ADD17R,0.055118X0.039370*%
%ADD18R,0.137795X0.062992*%
%ADD19R,0.078736X0.049208*%
%ADD20R,0.078736X0.049222*%
%ADD21R,0.047244X0.043307*%
%ADD22R,0.043307X0.047244*%
%ADD23C,0.024000*%
%ADD24C,0.048000*%
%ADD25C,0.016000*%
%ADD26C,0.012000*%
%ADD27C,0.008000*%
%LNCOPPER1*%
G90*
G70*
G54D10*
X850Y1837D03*
X790Y1663D03*
X110Y1402D03*
X890Y810D03*
X251Y894D03*
X731Y1009D03*
X548Y755D03*
X309Y444D03*
G54D11*
X110Y143D03*
X110Y243D03*
X110Y343D03*
X110Y143D03*
X110Y243D03*
X110Y343D03*
X110Y1528D03*
X110Y1628D03*
X110Y1728D03*
X110Y1528D03*
X110Y1628D03*
X110Y1728D03*
X110Y863D03*
X110Y963D03*
X110Y1063D03*
X110Y863D03*
X110Y963D03*
X110Y1063D03*
G54D10*
X904Y176D03*
X904Y76D03*
X804Y176D03*
X804Y76D03*
X704Y176D03*
X704Y76D03*
X604Y176D03*
X604Y76D03*
X504Y176D03*
X504Y76D03*
G54D12*
X937Y1284D03*
X311Y1316D03*
G54D13*
X531Y603D03*
X834Y875D03*
G54D12*
X571Y1367D03*
X720Y1367D03*
X563Y1265D03*
X720Y1265D03*
X681Y1091D03*
X563Y1091D03*
X583Y1470D03*
X670Y1540D03*
X554Y945D03*
X693Y945D03*
X622Y1639D03*
G54D13*
X303Y1627D03*
G54D12*
X299Y1765D03*
G54D14*
X110Y143D03*
X110Y143D03*
X110Y1528D03*
X110Y1528D03*
X110Y863D03*
X110Y863D03*
G54D15*
X904Y176D03*
G54D16*
X512Y1467D03*
X512Y1417D03*
X512Y1367D03*
X512Y1317D03*
X512Y1267D03*
X512Y1217D03*
X512Y1167D03*
X773Y1167D03*
X773Y1217D03*
X773Y1267D03*
X773Y1317D03*
X773Y1367D03*
X773Y1417D03*
X773Y1467D03*
G54D17*
X708Y1719D03*
X622Y1682D03*
X622Y1757D03*
G54D18*
X535Y875D03*
X748Y875D03*
X535Y544D03*
X748Y544D03*
G54D19*
X901Y296D03*
G54D20*
X901Y424D03*
G54D19*
X350Y198D03*
G54D20*
X350Y70D03*
G54D21*
X342Y1316D03*
X409Y1316D03*
X870Y1316D03*
X937Y1316D03*
X342Y1765D03*
X409Y1765D03*
X342Y1674D03*
X409Y1674D03*
G54D22*
X189Y544D03*
X189Y611D03*
X260Y544D03*
X260Y611D03*
X905Y1402D03*
X905Y1469D03*
G54D21*
X342Y1564D03*
X409Y1564D03*
X342Y1485D03*
X409Y1485D03*
X342Y1402D03*
X409Y1402D03*
X342Y1056D03*
X409Y1056D03*
X342Y1229D03*
X409Y1229D03*
G54D22*
X905Y1151D03*
X905Y1217D03*
G54D21*
X760Y1091D03*
X827Y1091D03*
X342Y1143D03*
X409Y1143D03*
X760Y1540D03*
X827Y1540D03*
G54D23*
X604Y147D02*
X604Y104D01*
D02*
X704Y104D02*
X704Y147D01*
D02*
X804Y104D02*
X804Y147D01*
D02*
X675Y76D02*
X632Y76D01*
D02*
X675Y176D02*
X632Y176D01*
D02*
X732Y176D02*
X775Y176D01*
D02*
X732Y76D02*
X775Y76D01*
D02*
X904Y104D02*
X904Y147D01*
D02*
X504Y104D02*
X504Y147D01*
G54D24*
D02*
X902Y277D02*
X903Y215D01*
D02*
X384Y71D02*
X464Y74D01*
D02*
X788Y533D02*
X748Y544D01*
D02*
X881Y443D02*
X788Y533D01*
G54D25*
D02*
X645Y1284D02*
X673Y1316D01*
D02*
X641Y642D02*
X645Y1284D01*
D02*
X673Y1316D02*
X738Y1317D01*
D02*
X720Y570D02*
X641Y642D01*
G54D24*
D02*
X406Y269D02*
X406Y742D01*
D02*
X406Y742D02*
X510Y849D01*
D02*
X365Y217D02*
X406Y269D01*
G54D25*
D02*
X606Y910D02*
X606Y1316D01*
D02*
X586Y879D02*
X606Y910D01*
D02*
X606Y1316D02*
X546Y1317D01*
D02*
X535Y875D02*
X586Y879D01*
G54D24*
D02*
X603Y501D02*
X576Y518D01*
D02*
X604Y215D02*
X603Y501D01*
G54D26*
D02*
X807Y1317D02*
X852Y1316D01*
G54D23*
D02*
X937Y1299D02*
X937Y1300D01*
G54D26*
D02*
X477Y1317D02*
X427Y1316D01*
D02*
X324Y1316D02*
X320Y1316D01*
G54D23*
D02*
X534Y570D02*
X533Y584D01*
D02*
X811Y875D02*
X815Y875D01*
G54D26*
D02*
X109Y1295D02*
X213Y1402D01*
D02*
X213Y1402D02*
X324Y1402D01*
G54D27*
D02*
X355Y1072D02*
X397Y1127D01*
G54D26*
D02*
X110Y1088D02*
X109Y1295D01*
D02*
X153Y1718D02*
X134Y1722D01*
D02*
X212Y1431D02*
X180Y1462D01*
D02*
X271Y1430D02*
X212Y1431D01*
D02*
X180Y1683D02*
X153Y1718D01*
D02*
X324Y1471D02*
X271Y1430D01*
D02*
X180Y1462D02*
X180Y1683D01*
D02*
X546Y1367D02*
X561Y1367D01*
G54D27*
D02*
X738Y1367D02*
X730Y1367D01*
G54D26*
D02*
X553Y1265D02*
X546Y1266D01*
G54D27*
D02*
X730Y1265D02*
X738Y1266D01*
G54D23*
D02*
X409Y1159D02*
X409Y1213D01*
G54D26*
D02*
X433Y1218D02*
X477Y1218D01*
D02*
X427Y1221D02*
X433Y1218D01*
G54D27*
D02*
X512Y1092D02*
X512Y1160D01*
D02*
X476Y1056D02*
X512Y1092D01*
D02*
X427Y1056D02*
X476Y1056D01*
G54D26*
D02*
X889Y1217D02*
X807Y1217D01*
G54D23*
D02*
X409Y1419D02*
X409Y1469D01*
G54D26*
D02*
X433Y1418D02*
X477Y1418D01*
D02*
X427Y1414D02*
X433Y1418D01*
G54D27*
D02*
X511Y1513D02*
X512Y1475D01*
D02*
X452Y1564D02*
X511Y1513D01*
D02*
X427Y1564D02*
X452Y1564D01*
D02*
X396Y1501D02*
X356Y1548D01*
G54D26*
D02*
X149Y978D02*
X133Y972D01*
D02*
X173Y1135D02*
X170Y997D01*
D02*
X170Y997D02*
X149Y978D01*
D02*
X276Y1226D02*
X173Y1135D01*
D02*
X324Y1228D02*
X276Y1226D01*
D02*
X319Y1167D02*
X256Y1167D01*
D02*
X205Y1119D02*
X205Y954D01*
D02*
X205Y954D02*
X128Y880D01*
D02*
X256Y1167D02*
X205Y1119D01*
D02*
X327Y1159D02*
X319Y1167D01*
G54D27*
D02*
X679Y1540D02*
X742Y1540D01*
D02*
X546Y1468D02*
X573Y1469D01*
D02*
X512Y1092D02*
X553Y1091D01*
D02*
X690Y1091D02*
X742Y1091D01*
D02*
X512Y1160D02*
X512Y1092D01*
G54D26*
D02*
X889Y1166D02*
X807Y1167D01*
D02*
X889Y1166D02*
X889Y1166D01*
D02*
X898Y1466D02*
X905Y1469D01*
D02*
X807Y1467D02*
X898Y1466D01*
D02*
X906Y1415D02*
X807Y1417D01*
D02*
X905Y1402D02*
X906Y1415D01*
G54D27*
D02*
X713Y1418D02*
X738Y1418D01*
D02*
X721Y1497D02*
X705Y1481D01*
D02*
X803Y1497D02*
X721Y1497D01*
D02*
X705Y1481D02*
X705Y1426D01*
D02*
X705Y1426D02*
X713Y1419D01*
D02*
X818Y1524D02*
X803Y1497D01*
D02*
X712Y1135D02*
X689Y1154D01*
D02*
X795Y1135D02*
X712Y1135D01*
D02*
X689Y1154D02*
X689Y1190D01*
D02*
X689Y1190D02*
X716Y1218D01*
D02*
X716Y1218D02*
X738Y1218D01*
D02*
X815Y1108D02*
X795Y1135D01*
G54D26*
D02*
X703Y945D02*
X815Y945D01*
D02*
X904Y1040D02*
X905Y1132D01*
D02*
X425Y945D02*
X545Y945D01*
D02*
X264Y792D02*
X425Y945D01*
D02*
X190Y214D02*
X190Y273D01*
D02*
X190Y273D02*
X240Y323D01*
D02*
X243Y512D02*
X250Y526D01*
D02*
X240Y323D02*
X243Y512D01*
D02*
X815Y945D02*
X904Y1040D01*
D02*
X260Y629D02*
X264Y792D01*
D02*
X128Y160D02*
X190Y214D01*
D02*
X204Y521D02*
X204Y333D01*
D02*
X204Y333D02*
X128Y260D01*
D02*
X201Y526D02*
X204Y521D01*
D02*
X953Y1634D02*
X953Y1536D01*
D02*
X32Y760D02*
X40Y1781D01*
D02*
X40Y1781D02*
X79Y1833D01*
D02*
X79Y1833D02*
X753Y1833D01*
D02*
X753Y1833D02*
X953Y1634D01*
D02*
X953Y1536D02*
X918Y1487D01*
D02*
X173Y626D02*
X32Y760D01*
G54D25*
D02*
X429Y1678D02*
X427Y1678D01*
D02*
X511Y1678D02*
X429Y1678D01*
D02*
X630Y1560D02*
X511Y1678D01*
D02*
X630Y1344D02*
X630Y1560D01*
D02*
X606Y1316D02*
X630Y1344D01*
D02*
X546Y1317D02*
X606Y1316D01*
G54D23*
D02*
X622Y1668D02*
X622Y1654D01*
G54D25*
D02*
X354Y1690D02*
X397Y1749D01*
G54D23*
D02*
X329Y1658D02*
X315Y1642D01*
D02*
X441Y1753D02*
X606Y1753D01*
D02*
X606Y1753D02*
X622Y1757D01*
D02*
X427Y1758D02*
X441Y1753D01*
D02*
X324Y1765D02*
X314Y1765D01*
G36*
X40Y1909D02*
X40Y1849D01*
X758Y1849D01*
X758Y1847D01*
X762Y1847D01*
X762Y1845D01*
X764Y1845D01*
X764Y1843D01*
X766Y1843D01*
X766Y1841D01*
X768Y1841D01*
X768Y1839D01*
X770Y1839D01*
X770Y1837D01*
X772Y1837D01*
X772Y1835D01*
X774Y1835D01*
X774Y1833D01*
X776Y1833D01*
X776Y1831D01*
X778Y1831D01*
X778Y1829D01*
X780Y1829D01*
X780Y1827D01*
X782Y1827D01*
X782Y1825D01*
X784Y1825D01*
X784Y1823D01*
X786Y1823D01*
X786Y1821D01*
X788Y1821D01*
X788Y1819D01*
X790Y1819D01*
X790Y1817D01*
X792Y1817D01*
X792Y1815D01*
X794Y1815D01*
X794Y1813D01*
X796Y1813D01*
X796Y1811D01*
X798Y1811D01*
X798Y1809D01*
X800Y1809D01*
X800Y1807D01*
X802Y1807D01*
X802Y1805D01*
X804Y1805D01*
X804Y1803D01*
X806Y1803D01*
X806Y1801D01*
X808Y1801D01*
X808Y1799D01*
X810Y1799D01*
X810Y1797D01*
X812Y1797D01*
X812Y1795D01*
X814Y1795D01*
X814Y1793D01*
X816Y1793D01*
X816Y1791D01*
X818Y1791D01*
X818Y1789D01*
X820Y1789D01*
X820Y1787D01*
X822Y1787D01*
X822Y1785D01*
X824Y1785D01*
X824Y1783D01*
X826Y1783D01*
X826Y1781D01*
X828Y1781D01*
X828Y1779D01*
X830Y1779D01*
X830Y1777D01*
X832Y1777D01*
X832Y1775D01*
X834Y1775D01*
X834Y1773D01*
X836Y1773D01*
X836Y1771D01*
X838Y1771D01*
X838Y1769D01*
X840Y1769D01*
X840Y1767D01*
X842Y1767D01*
X842Y1765D01*
X844Y1765D01*
X844Y1763D01*
X846Y1763D01*
X846Y1761D01*
X848Y1761D01*
X848Y1759D01*
X850Y1759D01*
X850Y1757D01*
X852Y1757D01*
X852Y1755D01*
X854Y1755D01*
X854Y1753D01*
X856Y1753D01*
X856Y1751D01*
X858Y1751D01*
X858Y1749D01*
X860Y1749D01*
X860Y1747D01*
X862Y1747D01*
X862Y1745D01*
X864Y1745D01*
X864Y1743D01*
X866Y1743D01*
X866Y1741D01*
X868Y1741D01*
X868Y1739D01*
X870Y1739D01*
X870Y1737D01*
X872Y1737D01*
X872Y1735D01*
X874Y1735D01*
X874Y1733D01*
X876Y1733D01*
X876Y1731D01*
X878Y1731D01*
X878Y1729D01*
X882Y1729D01*
X882Y1727D01*
X884Y1727D01*
X884Y1725D01*
X886Y1725D01*
X886Y1723D01*
X888Y1723D01*
X888Y1721D01*
X890Y1721D01*
X890Y1719D01*
X892Y1719D01*
X892Y1717D01*
X894Y1717D01*
X894Y1715D01*
X896Y1715D01*
X896Y1713D01*
X898Y1713D01*
X898Y1711D01*
X900Y1711D01*
X900Y1709D01*
X902Y1709D01*
X902Y1707D01*
X904Y1707D01*
X904Y1705D01*
X906Y1705D01*
X906Y1703D01*
X908Y1703D01*
X908Y1701D01*
X910Y1701D01*
X910Y1699D01*
X912Y1699D01*
X912Y1697D01*
X914Y1697D01*
X914Y1695D01*
X916Y1695D01*
X916Y1693D01*
X918Y1693D01*
X918Y1691D01*
X920Y1691D01*
X920Y1689D01*
X922Y1689D01*
X922Y1687D01*
X924Y1687D01*
X924Y1685D01*
X926Y1685D01*
X926Y1683D01*
X928Y1683D01*
X928Y1681D01*
X930Y1681D01*
X930Y1679D01*
X932Y1679D01*
X932Y1677D01*
X934Y1677D01*
X934Y1675D01*
X936Y1675D01*
X936Y1673D01*
X938Y1673D01*
X938Y1671D01*
X940Y1671D01*
X940Y1669D01*
X942Y1669D01*
X942Y1667D01*
X962Y1667D01*
X962Y1909D01*
X40Y1909D01*
G37*
D02*
G36*
X40Y1849D02*
X40Y1833D01*
X60Y1833D01*
X60Y1837D01*
X62Y1837D01*
X62Y1839D01*
X64Y1839D01*
X64Y1841D01*
X66Y1841D01*
X66Y1843D01*
X68Y1843D01*
X68Y1845D01*
X70Y1845D01*
X70Y1847D01*
X74Y1847D01*
X74Y1849D01*
X40Y1849D01*
G37*
D02*
G36*
X86Y1817D02*
X86Y1815D01*
X84Y1815D01*
X84Y1813D01*
X82Y1813D01*
X82Y1809D01*
X80Y1809D01*
X80Y1807D01*
X78Y1807D01*
X78Y1805D01*
X76Y1805D01*
X76Y1801D01*
X74Y1801D01*
X74Y1799D01*
X72Y1799D01*
X72Y1797D01*
X442Y1797D01*
X442Y1787D01*
X660Y1787D01*
X660Y1749D01*
X746Y1749D01*
X746Y1689D01*
X660Y1689D01*
X660Y1653D01*
X644Y1653D01*
X644Y1633D01*
X642Y1633D01*
X642Y1629D01*
X640Y1629D01*
X640Y1625D01*
X638Y1625D01*
X638Y1623D01*
X636Y1623D01*
X636Y1621D01*
X632Y1621D01*
X632Y1619D01*
X628Y1619D01*
X628Y1617D01*
X618Y1617D01*
X618Y1597D01*
X620Y1597D01*
X620Y1595D01*
X622Y1595D01*
X622Y1593D01*
X624Y1593D01*
X624Y1591D01*
X626Y1591D01*
X626Y1589D01*
X628Y1589D01*
X628Y1587D01*
X630Y1587D01*
X630Y1585D01*
X632Y1585D01*
X632Y1583D01*
X634Y1583D01*
X634Y1581D01*
X636Y1581D01*
X636Y1579D01*
X638Y1579D01*
X638Y1577D01*
X640Y1577D01*
X640Y1575D01*
X642Y1575D01*
X642Y1573D01*
X860Y1573D01*
X860Y1509D01*
X824Y1509D01*
X824Y1505D01*
X822Y1505D01*
X822Y1483D01*
X874Y1483D01*
X874Y1503D01*
X910Y1503D01*
X910Y1505D01*
X912Y1505D01*
X912Y1509D01*
X914Y1509D01*
X914Y1511D01*
X916Y1511D01*
X916Y1513D01*
X918Y1513D01*
X918Y1517D01*
X920Y1517D01*
X920Y1519D01*
X922Y1519D01*
X922Y1523D01*
X924Y1523D01*
X924Y1525D01*
X926Y1525D01*
X926Y1527D01*
X928Y1527D01*
X928Y1531D01*
X930Y1531D01*
X930Y1533D01*
X932Y1533D01*
X932Y1537D01*
X934Y1537D01*
X934Y1539D01*
X936Y1539D01*
X936Y1629D01*
X934Y1629D01*
X934Y1631D01*
X932Y1631D01*
X932Y1633D01*
X930Y1633D01*
X930Y1635D01*
X928Y1635D01*
X928Y1637D01*
X926Y1637D01*
X926Y1639D01*
X924Y1639D01*
X924Y1641D01*
X922Y1641D01*
X922Y1643D01*
X920Y1643D01*
X920Y1645D01*
X918Y1645D01*
X918Y1647D01*
X916Y1647D01*
X916Y1649D01*
X914Y1649D01*
X914Y1651D01*
X912Y1651D01*
X912Y1653D01*
X910Y1653D01*
X910Y1655D01*
X908Y1655D01*
X908Y1657D01*
X906Y1657D01*
X906Y1659D01*
X904Y1659D01*
X904Y1661D01*
X902Y1661D01*
X902Y1663D01*
X900Y1663D01*
X900Y1665D01*
X898Y1665D01*
X898Y1667D01*
X896Y1667D01*
X896Y1669D01*
X894Y1669D01*
X894Y1671D01*
X892Y1671D01*
X892Y1673D01*
X890Y1673D01*
X890Y1675D01*
X888Y1675D01*
X888Y1677D01*
X886Y1677D01*
X886Y1679D01*
X884Y1679D01*
X884Y1681D01*
X882Y1681D01*
X882Y1683D01*
X880Y1683D01*
X880Y1685D01*
X878Y1685D01*
X878Y1687D01*
X876Y1687D01*
X876Y1689D01*
X874Y1689D01*
X874Y1691D01*
X872Y1691D01*
X872Y1693D01*
X870Y1693D01*
X870Y1695D01*
X868Y1695D01*
X868Y1697D01*
X866Y1697D01*
X866Y1699D01*
X864Y1699D01*
X864Y1701D01*
X862Y1701D01*
X862Y1703D01*
X860Y1703D01*
X860Y1705D01*
X858Y1705D01*
X858Y1707D01*
X856Y1707D01*
X856Y1709D01*
X854Y1709D01*
X854Y1711D01*
X852Y1711D01*
X852Y1713D01*
X850Y1713D01*
X850Y1715D01*
X848Y1715D01*
X848Y1717D01*
X846Y1717D01*
X846Y1719D01*
X844Y1719D01*
X844Y1721D01*
X842Y1721D01*
X842Y1723D01*
X840Y1723D01*
X840Y1725D01*
X838Y1725D01*
X838Y1727D01*
X836Y1727D01*
X836Y1729D01*
X834Y1729D01*
X834Y1731D01*
X832Y1731D01*
X832Y1733D01*
X830Y1733D01*
X830Y1735D01*
X828Y1735D01*
X828Y1737D01*
X826Y1737D01*
X826Y1739D01*
X824Y1739D01*
X824Y1741D01*
X822Y1741D01*
X822Y1743D01*
X820Y1743D01*
X820Y1745D01*
X818Y1745D01*
X818Y1747D01*
X816Y1747D01*
X816Y1749D01*
X814Y1749D01*
X814Y1751D01*
X812Y1751D01*
X812Y1753D01*
X810Y1753D01*
X810Y1755D01*
X808Y1755D01*
X808Y1757D01*
X806Y1757D01*
X806Y1759D01*
X804Y1759D01*
X804Y1761D01*
X802Y1761D01*
X802Y1763D01*
X800Y1763D01*
X800Y1765D01*
X798Y1765D01*
X798Y1767D01*
X796Y1767D01*
X796Y1769D01*
X794Y1769D01*
X794Y1771D01*
X792Y1771D01*
X792Y1773D01*
X790Y1773D01*
X790Y1775D01*
X788Y1775D01*
X788Y1777D01*
X786Y1777D01*
X786Y1779D01*
X784Y1779D01*
X784Y1781D01*
X782Y1781D01*
X782Y1783D01*
X780Y1783D01*
X780Y1785D01*
X778Y1785D01*
X778Y1787D01*
X774Y1787D01*
X774Y1789D01*
X772Y1789D01*
X772Y1791D01*
X770Y1791D01*
X770Y1793D01*
X768Y1793D01*
X768Y1795D01*
X766Y1795D01*
X766Y1797D01*
X764Y1797D01*
X764Y1799D01*
X762Y1799D01*
X762Y1801D01*
X760Y1801D01*
X760Y1803D01*
X758Y1803D01*
X758Y1805D01*
X756Y1805D01*
X756Y1807D01*
X754Y1807D01*
X754Y1809D01*
X752Y1809D01*
X752Y1811D01*
X750Y1811D01*
X750Y1813D01*
X748Y1813D01*
X748Y1815D01*
X746Y1815D01*
X746Y1817D01*
X86Y1817D01*
G37*
D02*
G36*
X70Y1797D02*
X70Y1793D01*
X68Y1793D01*
X68Y1791D01*
X66Y1791D01*
X66Y1789D01*
X64Y1789D01*
X64Y1785D01*
X62Y1785D01*
X62Y1783D01*
X60Y1783D01*
X60Y1781D01*
X58Y1781D01*
X58Y1777D01*
X122Y1777D01*
X122Y1775D01*
X128Y1775D01*
X128Y1773D01*
X132Y1773D01*
X132Y1771D01*
X136Y1771D01*
X136Y1769D01*
X138Y1769D01*
X138Y1767D01*
X142Y1767D01*
X142Y1765D01*
X144Y1765D01*
X144Y1763D01*
X146Y1763D01*
X146Y1761D01*
X148Y1761D01*
X148Y1757D01*
X150Y1757D01*
X150Y1755D01*
X152Y1755D01*
X152Y1751D01*
X154Y1751D01*
X154Y1749D01*
X156Y1749D01*
X156Y1741D01*
X158Y1741D01*
X158Y1733D01*
X160Y1733D01*
X160Y1731D01*
X162Y1731D01*
X162Y1729D01*
X164Y1729D01*
X164Y1727D01*
X166Y1727D01*
X166Y1725D01*
X168Y1725D01*
X168Y1723D01*
X170Y1723D01*
X170Y1721D01*
X172Y1721D01*
X172Y1717D01*
X174Y1717D01*
X174Y1715D01*
X176Y1715D01*
X176Y1713D01*
X178Y1713D01*
X178Y1711D01*
X180Y1711D01*
X180Y1707D01*
X182Y1707D01*
X182Y1705D01*
X184Y1705D01*
X184Y1703D01*
X186Y1703D01*
X186Y1701D01*
X188Y1701D01*
X188Y1697D01*
X190Y1697D01*
X190Y1695D01*
X192Y1695D01*
X192Y1693D01*
X194Y1693D01*
X194Y1689D01*
X196Y1689D01*
X196Y1469D01*
X198Y1469D01*
X198Y1467D01*
X200Y1467D01*
X200Y1465D01*
X202Y1465D01*
X202Y1463D01*
X204Y1463D01*
X204Y1461D01*
X206Y1461D01*
X206Y1459D01*
X208Y1459D01*
X208Y1457D01*
X210Y1457D01*
X210Y1455D01*
X212Y1455D01*
X212Y1453D01*
X214Y1453D01*
X214Y1451D01*
X216Y1451D01*
X216Y1449D01*
X218Y1449D01*
X218Y1447D01*
X268Y1447D01*
X268Y1449D01*
X270Y1449D01*
X270Y1451D01*
X272Y1451D01*
X272Y1453D01*
X276Y1453D01*
X276Y1455D01*
X278Y1455D01*
X278Y1457D01*
X280Y1457D01*
X280Y1459D01*
X284Y1459D01*
X284Y1461D01*
X286Y1461D01*
X286Y1463D01*
X288Y1463D01*
X288Y1465D01*
X292Y1465D01*
X292Y1467D01*
X294Y1467D01*
X294Y1469D01*
X296Y1469D01*
X296Y1471D01*
X298Y1471D01*
X298Y1473D01*
X302Y1473D01*
X302Y1475D01*
X304Y1475D01*
X304Y1477D01*
X306Y1477D01*
X306Y1479D01*
X308Y1479D01*
X308Y1597D01*
X300Y1597D01*
X300Y1599D01*
X292Y1599D01*
X292Y1601D01*
X288Y1601D01*
X288Y1603D01*
X286Y1603D01*
X286Y1605D01*
X282Y1605D01*
X282Y1607D01*
X280Y1607D01*
X280Y1611D01*
X278Y1611D01*
X278Y1613D01*
X276Y1613D01*
X276Y1619D01*
X274Y1619D01*
X274Y1637D01*
X276Y1637D01*
X276Y1641D01*
X278Y1641D01*
X278Y1645D01*
X280Y1645D01*
X280Y1647D01*
X282Y1647D01*
X282Y1649D01*
X284Y1649D01*
X284Y1651D01*
X286Y1651D01*
X286Y1653D01*
X290Y1653D01*
X290Y1655D01*
X296Y1655D01*
X296Y1657D01*
X300Y1657D01*
X300Y1659D01*
X302Y1659D01*
X302Y1661D01*
X304Y1661D01*
X304Y1663D01*
X306Y1663D01*
X306Y1667D01*
X308Y1667D01*
X308Y1705D01*
X344Y1705D01*
X344Y1709D01*
X346Y1709D01*
X346Y1711D01*
X348Y1711D01*
X348Y1713D01*
X350Y1713D01*
X350Y1733D01*
X308Y1733D01*
X308Y1743D01*
X294Y1743D01*
X294Y1745D01*
X288Y1745D01*
X288Y1747D01*
X286Y1747D01*
X286Y1749D01*
X284Y1749D01*
X284Y1751D01*
X282Y1751D01*
X282Y1753D01*
X280Y1753D01*
X280Y1757D01*
X278Y1757D01*
X278Y1773D01*
X280Y1773D01*
X280Y1777D01*
X282Y1777D01*
X282Y1779D01*
X284Y1779D01*
X284Y1781D01*
X286Y1781D01*
X286Y1783D01*
X288Y1783D01*
X288Y1785D01*
X294Y1785D01*
X294Y1787D01*
X308Y1787D01*
X308Y1795D01*
X310Y1795D01*
X310Y1797D01*
X70Y1797D01*
G37*
D02*
G36*
X442Y1787D02*
X442Y1775D01*
X584Y1775D01*
X584Y1787D01*
X442Y1787D01*
G37*
D02*
G36*
X56Y1777D02*
X56Y1763D01*
X76Y1763D01*
X76Y1765D01*
X78Y1765D01*
X78Y1767D01*
X82Y1767D01*
X82Y1769D01*
X84Y1769D01*
X84Y1771D01*
X88Y1771D01*
X88Y1773D01*
X92Y1773D01*
X92Y1775D01*
X98Y1775D01*
X98Y1777D01*
X56Y1777D01*
G37*
D02*
G36*
X642Y1573D02*
X642Y1571D01*
X644Y1571D01*
X644Y1569D01*
X646Y1569D01*
X646Y1565D01*
X648Y1565D01*
X648Y1561D01*
X678Y1561D01*
X678Y1559D01*
X682Y1559D01*
X682Y1557D01*
X684Y1557D01*
X684Y1555D01*
X726Y1555D01*
X726Y1573D01*
X642Y1573D01*
G37*
D02*
G36*
X442Y1661D02*
X442Y1643D01*
X344Y1643D01*
X344Y1641D01*
X342Y1641D01*
X342Y1639D01*
X340Y1639D01*
X340Y1637D01*
X338Y1637D01*
X338Y1633D01*
X336Y1633D01*
X336Y1631D01*
X334Y1631D01*
X334Y1629D01*
X332Y1629D01*
X332Y1617D01*
X330Y1617D01*
X330Y1595D01*
X442Y1595D01*
X442Y1577D01*
X460Y1577D01*
X460Y1575D01*
X462Y1575D01*
X462Y1573D01*
X464Y1573D01*
X464Y1571D01*
X466Y1571D01*
X466Y1569D01*
X470Y1569D01*
X470Y1567D01*
X472Y1567D01*
X472Y1565D01*
X474Y1565D01*
X474Y1563D01*
X476Y1563D01*
X476Y1561D01*
X478Y1561D01*
X478Y1559D01*
X480Y1559D01*
X480Y1557D01*
X482Y1557D01*
X482Y1555D01*
X486Y1555D01*
X486Y1553D01*
X488Y1553D01*
X488Y1551D01*
X490Y1551D01*
X490Y1549D01*
X492Y1549D01*
X492Y1547D01*
X494Y1547D01*
X494Y1545D01*
X496Y1545D01*
X496Y1543D01*
X500Y1543D01*
X500Y1541D01*
X502Y1541D01*
X502Y1539D01*
X504Y1539D01*
X504Y1537D01*
X506Y1537D01*
X506Y1535D01*
X508Y1535D01*
X508Y1533D01*
X510Y1533D01*
X510Y1531D01*
X512Y1531D01*
X512Y1529D01*
X516Y1529D01*
X516Y1527D01*
X518Y1527D01*
X518Y1525D01*
X520Y1525D01*
X520Y1523D01*
X522Y1523D01*
X522Y1521D01*
X524Y1521D01*
X524Y1513D01*
X526Y1513D01*
X526Y1491D01*
X590Y1491D01*
X590Y1489D01*
X612Y1489D01*
X612Y1553D01*
X610Y1553D01*
X610Y1555D01*
X608Y1555D01*
X608Y1557D01*
X606Y1557D01*
X606Y1559D01*
X604Y1559D01*
X604Y1561D01*
X602Y1561D01*
X602Y1563D01*
X600Y1563D01*
X600Y1565D01*
X598Y1565D01*
X598Y1567D01*
X596Y1567D01*
X596Y1569D01*
X594Y1569D01*
X594Y1571D01*
X592Y1571D01*
X592Y1573D01*
X590Y1573D01*
X590Y1575D01*
X588Y1575D01*
X588Y1577D01*
X586Y1577D01*
X586Y1579D01*
X584Y1579D01*
X584Y1581D01*
X582Y1581D01*
X582Y1583D01*
X580Y1583D01*
X580Y1585D01*
X578Y1585D01*
X578Y1587D01*
X576Y1587D01*
X576Y1589D01*
X574Y1589D01*
X574Y1591D01*
X572Y1591D01*
X572Y1593D01*
X570Y1593D01*
X570Y1595D01*
X568Y1595D01*
X568Y1597D01*
X566Y1597D01*
X566Y1599D01*
X564Y1599D01*
X564Y1601D01*
X562Y1601D01*
X562Y1603D01*
X560Y1603D01*
X560Y1605D01*
X558Y1605D01*
X558Y1607D01*
X556Y1607D01*
X556Y1609D01*
X554Y1609D01*
X554Y1611D01*
X552Y1611D01*
X552Y1613D01*
X550Y1613D01*
X550Y1615D01*
X548Y1615D01*
X548Y1617D01*
X546Y1617D01*
X546Y1619D01*
X544Y1619D01*
X544Y1621D01*
X542Y1621D01*
X542Y1623D01*
X540Y1623D01*
X540Y1625D01*
X538Y1625D01*
X538Y1627D01*
X536Y1627D01*
X536Y1629D01*
X534Y1629D01*
X534Y1631D01*
X532Y1631D01*
X532Y1633D01*
X530Y1633D01*
X530Y1635D01*
X528Y1635D01*
X528Y1637D01*
X526Y1637D01*
X526Y1639D01*
X524Y1639D01*
X524Y1641D01*
X522Y1641D01*
X522Y1643D01*
X520Y1643D01*
X520Y1645D01*
X518Y1645D01*
X518Y1647D01*
X516Y1647D01*
X516Y1649D01*
X514Y1649D01*
X514Y1651D01*
X512Y1651D01*
X512Y1653D01*
X510Y1653D01*
X510Y1655D01*
X508Y1655D01*
X508Y1657D01*
X506Y1657D01*
X506Y1659D01*
X504Y1659D01*
X504Y1661D01*
X442Y1661D01*
G37*
D02*
G36*
X442Y1537D02*
X442Y1433D01*
X462Y1433D01*
X462Y1491D01*
X494Y1491D01*
X494Y1511D01*
X490Y1511D01*
X490Y1513D01*
X488Y1513D01*
X488Y1515D01*
X486Y1515D01*
X486Y1517D01*
X484Y1517D01*
X484Y1519D01*
X482Y1519D01*
X482Y1521D01*
X480Y1521D01*
X480Y1523D01*
X478Y1523D01*
X478Y1525D01*
X474Y1525D01*
X474Y1527D01*
X472Y1527D01*
X472Y1529D01*
X470Y1529D01*
X470Y1531D01*
X468Y1531D01*
X468Y1533D01*
X466Y1533D01*
X466Y1535D01*
X464Y1535D01*
X464Y1537D01*
X442Y1537D01*
G37*
D02*
G36*
X686Y1527D02*
X686Y1525D01*
X684Y1525D01*
X684Y1523D01*
X682Y1523D01*
X682Y1521D01*
X678Y1521D01*
X678Y1519D01*
X648Y1519D01*
X648Y1339D01*
X646Y1339D01*
X646Y1335D01*
X644Y1335D01*
X644Y1331D01*
X664Y1331D01*
X664Y1333D01*
X668Y1333D01*
X668Y1335D01*
X704Y1335D01*
X704Y1355D01*
X702Y1355D01*
X702Y1357D01*
X700Y1357D01*
X700Y1363D01*
X698Y1363D01*
X698Y1371D01*
X700Y1371D01*
X700Y1377D01*
X702Y1377D01*
X702Y1381D01*
X704Y1381D01*
X704Y1383D01*
X706Y1383D01*
X706Y1385D01*
X710Y1385D01*
X710Y1405D01*
X706Y1405D01*
X706Y1407D01*
X704Y1407D01*
X704Y1409D01*
X702Y1409D01*
X702Y1411D01*
X700Y1411D01*
X700Y1413D01*
X698Y1413D01*
X698Y1415D01*
X696Y1415D01*
X696Y1417D01*
X694Y1417D01*
X694Y1419D01*
X692Y1419D01*
X692Y1423D01*
X690Y1423D01*
X690Y1485D01*
X692Y1485D01*
X692Y1489D01*
X694Y1489D01*
X694Y1491D01*
X696Y1491D01*
X696Y1493D01*
X698Y1493D01*
X698Y1495D01*
X700Y1495D01*
X700Y1497D01*
X702Y1497D01*
X702Y1499D01*
X704Y1499D01*
X704Y1501D01*
X706Y1501D01*
X706Y1503D01*
X708Y1503D01*
X708Y1505D01*
X710Y1505D01*
X710Y1507D01*
X712Y1507D01*
X712Y1527D01*
X686Y1527D01*
G37*
D02*
G36*
X54Y1479D02*
X54Y1419D01*
X52Y1419D01*
X52Y1143D01*
X50Y1143D01*
X50Y1089D01*
X70Y1089D01*
X70Y1093D01*
X72Y1093D01*
X72Y1095D01*
X74Y1095D01*
X74Y1097D01*
X76Y1097D01*
X76Y1099D01*
X78Y1099D01*
X78Y1101D01*
X80Y1101D01*
X80Y1103D01*
X84Y1103D01*
X84Y1105D01*
X86Y1105D01*
X86Y1107D01*
X90Y1107D01*
X90Y1109D01*
X94Y1109D01*
X94Y1303D01*
X96Y1303D01*
X96Y1305D01*
X98Y1305D01*
X98Y1307D01*
X100Y1307D01*
X100Y1309D01*
X102Y1309D01*
X102Y1311D01*
X104Y1311D01*
X104Y1315D01*
X106Y1315D01*
X106Y1317D01*
X108Y1317D01*
X108Y1319D01*
X110Y1319D01*
X110Y1321D01*
X112Y1321D01*
X112Y1323D01*
X114Y1323D01*
X114Y1325D01*
X116Y1325D01*
X116Y1327D01*
X118Y1327D01*
X118Y1329D01*
X120Y1329D01*
X120Y1331D01*
X122Y1331D01*
X122Y1333D01*
X124Y1333D01*
X124Y1335D01*
X126Y1335D01*
X126Y1337D01*
X128Y1337D01*
X128Y1339D01*
X130Y1339D01*
X130Y1341D01*
X132Y1341D01*
X132Y1343D01*
X134Y1343D01*
X134Y1345D01*
X136Y1345D01*
X136Y1347D01*
X138Y1347D01*
X138Y1349D01*
X140Y1349D01*
X140Y1351D01*
X142Y1351D01*
X142Y1353D01*
X144Y1353D01*
X144Y1355D01*
X146Y1355D01*
X146Y1357D01*
X148Y1357D01*
X148Y1359D01*
X150Y1359D01*
X150Y1361D01*
X152Y1361D01*
X152Y1363D01*
X154Y1363D01*
X154Y1365D01*
X156Y1365D01*
X156Y1367D01*
X158Y1367D01*
X158Y1369D01*
X160Y1369D01*
X160Y1371D01*
X162Y1371D01*
X162Y1373D01*
X164Y1373D01*
X164Y1375D01*
X166Y1375D01*
X166Y1377D01*
X168Y1377D01*
X168Y1381D01*
X170Y1381D01*
X170Y1383D01*
X172Y1383D01*
X172Y1385D01*
X174Y1385D01*
X174Y1387D01*
X176Y1387D01*
X176Y1389D01*
X178Y1389D01*
X178Y1391D01*
X180Y1391D01*
X180Y1393D01*
X182Y1393D01*
X182Y1395D01*
X184Y1395D01*
X184Y1397D01*
X186Y1397D01*
X186Y1399D01*
X188Y1399D01*
X188Y1401D01*
X190Y1401D01*
X190Y1403D01*
X192Y1403D01*
X192Y1405D01*
X194Y1405D01*
X194Y1427D01*
X192Y1427D01*
X192Y1429D01*
X190Y1429D01*
X190Y1431D01*
X188Y1431D01*
X188Y1433D01*
X186Y1433D01*
X186Y1435D01*
X184Y1435D01*
X184Y1437D01*
X182Y1437D01*
X182Y1439D01*
X180Y1439D01*
X180Y1441D01*
X178Y1441D01*
X178Y1443D01*
X176Y1443D01*
X176Y1445D01*
X174Y1445D01*
X174Y1447D01*
X172Y1447D01*
X172Y1449D01*
X170Y1449D01*
X170Y1451D01*
X168Y1451D01*
X168Y1453D01*
X166Y1453D01*
X166Y1459D01*
X164Y1459D01*
X164Y1479D01*
X54Y1479D01*
G37*
D02*
G36*
X442Y1401D02*
X442Y1371D01*
X462Y1371D01*
X462Y1401D01*
X442Y1401D01*
G37*
D02*
G36*
X220Y1387D02*
X220Y1385D01*
X218Y1385D01*
X218Y1383D01*
X216Y1383D01*
X216Y1381D01*
X214Y1381D01*
X214Y1379D01*
X212Y1379D01*
X212Y1377D01*
X210Y1377D01*
X210Y1375D01*
X208Y1375D01*
X208Y1373D01*
X206Y1373D01*
X206Y1371D01*
X308Y1371D01*
X308Y1387D01*
X220Y1387D01*
G37*
D02*
G36*
X204Y1371D02*
X204Y1369D01*
X462Y1369D01*
X462Y1371D01*
X204Y1371D01*
G37*
D02*
G36*
X204Y1371D02*
X204Y1369D01*
X462Y1369D01*
X462Y1371D01*
X204Y1371D01*
G37*
D02*
G36*
X202Y1369D02*
X202Y1367D01*
X200Y1367D01*
X200Y1365D01*
X198Y1365D01*
X198Y1363D01*
X196Y1363D01*
X196Y1361D01*
X194Y1361D01*
X194Y1359D01*
X192Y1359D01*
X192Y1357D01*
X190Y1357D01*
X190Y1355D01*
X188Y1355D01*
X188Y1353D01*
X186Y1353D01*
X186Y1351D01*
X184Y1351D01*
X184Y1349D01*
X182Y1349D01*
X182Y1347D01*
X442Y1347D01*
X442Y1333D01*
X462Y1333D01*
X462Y1369D01*
X202Y1369D01*
G37*
D02*
G36*
X180Y1347D02*
X180Y1345D01*
X178Y1345D01*
X178Y1343D01*
X176Y1343D01*
X176Y1341D01*
X174Y1341D01*
X174Y1339D01*
X172Y1339D01*
X172Y1337D01*
X170Y1337D01*
X170Y1335D01*
X168Y1335D01*
X168Y1331D01*
X166Y1331D01*
X166Y1329D01*
X164Y1329D01*
X164Y1327D01*
X162Y1327D01*
X162Y1325D01*
X160Y1325D01*
X160Y1323D01*
X158Y1323D01*
X158Y1321D01*
X156Y1321D01*
X156Y1319D01*
X154Y1319D01*
X154Y1317D01*
X152Y1317D01*
X152Y1315D01*
X150Y1315D01*
X150Y1313D01*
X148Y1313D01*
X148Y1311D01*
X146Y1311D01*
X146Y1309D01*
X144Y1309D01*
X144Y1307D01*
X142Y1307D01*
X142Y1305D01*
X140Y1305D01*
X140Y1303D01*
X138Y1303D01*
X138Y1301D01*
X136Y1301D01*
X136Y1299D01*
X134Y1299D01*
X134Y1297D01*
X132Y1297D01*
X132Y1295D01*
X130Y1295D01*
X130Y1293D01*
X128Y1293D01*
X128Y1291D01*
X126Y1291D01*
X126Y1285D01*
X308Y1285D01*
X308Y1295D01*
X302Y1295D01*
X302Y1297D01*
X298Y1297D01*
X298Y1299D01*
X296Y1299D01*
X296Y1301D01*
X294Y1301D01*
X294Y1303D01*
X292Y1303D01*
X292Y1307D01*
X290Y1307D01*
X290Y1325D01*
X292Y1325D01*
X292Y1329D01*
X294Y1329D01*
X294Y1331D01*
X296Y1331D01*
X296Y1333D01*
X298Y1333D01*
X298Y1335D01*
X302Y1335D01*
X302Y1337D01*
X308Y1337D01*
X308Y1347D01*
X180Y1347D01*
G37*
D02*
G36*
X442Y1301D02*
X442Y1285D01*
X462Y1285D01*
X462Y1301D01*
X442Y1301D01*
G37*
D02*
G36*
X126Y1285D02*
X126Y1283D01*
X462Y1283D01*
X462Y1285D01*
X126Y1285D01*
G37*
D02*
G36*
X126Y1285D02*
X126Y1283D01*
X462Y1283D01*
X462Y1285D01*
X126Y1285D01*
G37*
D02*
G36*
X126Y1283D02*
X126Y1261D01*
X442Y1261D01*
X442Y1233D01*
X462Y1233D01*
X462Y1283D01*
X126Y1283D01*
G37*
D02*
G36*
X126Y1261D02*
X126Y1109D01*
X130Y1109D01*
X130Y1107D01*
X134Y1107D01*
X134Y1105D01*
X156Y1105D01*
X156Y1135D01*
X158Y1135D01*
X158Y1143D01*
X160Y1143D01*
X160Y1145D01*
X162Y1145D01*
X162Y1147D01*
X164Y1147D01*
X164Y1149D01*
X166Y1149D01*
X166Y1151D01*
X168Y1151D01*
X168Y1153D01*
X170Y1153D01*
X170Y1155D01*
X172Y1155D01*
X172Y1157D01*
X174Y1157D01*
X174Y1159D01*
X176Y1159D01*
X176Y1161D01*
X180Y1161D01*
X180Y1163D01*
X182Y1163D01*
X182Y1165D01*
X184Y1165D01*
X184Y1167D01*
X186Y1167D01*
X186Y1169D01*
X188Y1169D01*
X188Y1171D01*
X190Y1171D01*
X190Y1173D01*
X192Y1173D01*
X192Y1175D01*
X196Y1175D01*
X196Y1177D01*
X198Y1177D01*
X198Y1179D01*
X200Y1179D01*
X200Y1181D01*
X202Y1181D01*
X202Y1183D01*
X204Y1183D01*
X204Y1185D01*
X206Y1185D01*
X206Y1187D01*
X208Y1187D01*
X208Y1189D01*
X212Y1189D01*
X212Y1191D01*
X214Y1191D01*
X214Y1193D01*
X216Y1193D01*
X216Y1195D01*
X218Y1195D01*
X218Y1197D01*
X220Y1197D01*
X220Y1199D01*
X222Y1199D01*
X222Y1201D01*
X224Y1201D01*
X224Y1203D01*
X226Y1203D01*
X226Y1205D01*
X230Y1205D01*
X230Y1207D01*
X232Y1207D01*
X232Y1209D01*
X234Y1209D01*
X234Y1211D01*
X236Y1211D01*
X236Y1213D01*
X238Y1213D01*
X238Y1215D01*
X240Y1215D01*
X240Y1217D01*
X242Y1217D01*
X242Y1219D01*
X246Y1219D01*
X246Y1221D01*
X248Y1221D01*
X248Y1223D01*
X250Y1223D01*
X250Y1225D01*
X252Y1225D01*
X252Y1227D01*
X254Y1227D01*
X254Y1229D01*
X256Y1229D01*
X256Y1231D01*
X258Y1231D01*
X258Y1233D01*
X262Y1233D01*
X262Y1235D01*
X264Y1235D01*
X264Y1237D01*
X266Y1237D01*
X266Y1239D01*
X268Y1239D01*
X268Y1241D01*
X278Y1241D01*
X278Y1243D01*
X308Y1243D01*
X308Y1261D01*
X126Y1261D01*
G37*
D02*
G36*
X938Y1263D02*
X938Y1119D01*
X936Y1119D01*
X936Y1117D01*
X922Y1117D01*
X922Y1109D01*
X920Y1109D01*
X920Y1033D01*
X918Y1033D01*
X918Y1031D01*
X916Y1031D01*
X916Y1029D01*
X914Y1029D01*
X914Y1025D01*
X912Y1025D01*
X912Y1023D01*
X910Y1023D01*
X910Y1021D01*
X908Y1021D01*
X908Y1019D01*
X906Y1019D01*
X906Y1017D01*
X904Y1017D01*
X904Y1015D01*
X902Y1015D01*
X902Y1013D01*
X900Y1013D01*
X900Y1011D01*
X898Y1011D01*
X898Y1009D01*
X896Y1009D01*
X896Y1007D01*
X894Y1007D01*
X894Y1005D01*
X892Y1005D01*
X892Y1003D01*
X890Y1003D01*
X890Y1001D01*
X888Y1001D01*
X888Y999D01*
X886Y999D01*
X886Y997D01*
X884Y997D01*
X884Y995D01*
X882Y995D01*
X882Y993D01*
X880Y993D01*
X880Y989D01*
X878Y989D01*
X878Y987D01*
X876Y987D01*
X876Y985D01*
X874Y985D01*
X874Y983D01*
X872Y983D01*
X872Y981D01*
X870Y981D01*
X870Y979D01*
X868Y979D01*
X868Y977D01*
X866Y977D01*
X866Y975D01*
X864Y975D01*
X864Y973D01*
X862Y973D01*
X862Y971D01*
X860Y971D01*
X860Y969D01*
X858Y969D01*
X858Y967D01*
X856Y967D01*
X856Y965D01*
X854Y965D01*
X854Y963D01*
X852Y963D01*
X852Y961D01*
X850Y961D01*
X850Y959D01*
X848Y959D01*
X848Y957D01*
X846Y957D01*
X846Y953D01*
X844Y953D01*
X844Y951D01*
X842Y951D01*
X842Y949D01*
X840Y949D01*
X840Y947D01*
X838Y947D01*
X838Y945D01*
X836Y945D01*
X836Y943D01*
X834Y943D01*
X834Y941D01*
X832Y941D01*
X832Y939D01*
X830Y939D01*
X830Y937D01*
X828Y937D01*
X828Y935D01*
X826Y935D01*
X826Y905D01*
X840Y905D01*
X840Y903D01*
X846Y903D01*
X846Y901D01*
X850Y901D01*
X850Y899D01*
X854Y899D01*
X854Y897D01*
X856Y897D01*
X856Y895D01*
X858Y895D01*
X858Y891D01*
X860Y891D01*
X860Y889D01*
X862Y889D01*
X862Y883D01*
X864Y883D01*
X864Y867D01*
X862Y867D01*
X862Y863D01*
X860Y863D01*
X860Y859D01*
X858Y859D01*
X858Y857D01*
X856Y857D01*
X856Y853D01*
X852Y853D01*
X852Y851D01*
X850Y851D01*
X850Y849D01*
X846Y849D01*
X846Y847D01*
X840Y847D01*
X840Y845D01*
X826Y845D01*
X826Y833D01*
X660Y833D01*
X660Y649D01*
X662Y649D01*
X662Y647D01*
X664Y647D01*
X664Y645D01*
X666Y645D01*
X666Y643D01*
X668Y643D01*
X668Y641D01*
X670Y641D01*
X670Y639D01*
X672Y639D01*
X672Y637D01*
X674Y637D01*
X674Y635D01*
X676Y635D01*
X676Y633D01*
X678Y633D01*
X678Y631D01*
X682Y631D01*
X682Y629D01*
X684Y629D01*
X684Y627D01*
X686Y627D01*
X686Y625D01*
X688Y625D01*
X688Y623D01*
X690Y623D01*
X690Y621D01*
X692Y621D01*
X692Y619D01*
X694Y619D01*
X694Y617D01*
X696Y617D01*
X696Y615D01*
X698Y615D01*
X698Y613D01*
X700Y613D01*
X700Y611D01*
X702Y611D01*
X702Y609D01*
X706Y609D01*
X706Y607D01*
X708Y607D01*
X708Y605D01*
X710Y605D01*
X710Y603D01*
X712Y603D01*
X712Y601D01*
X714Y601D01*
X714Y599D01*
X716Y599D01*
X716Y597D01*
X718Y597D01*
X718Y595D01*
X720Y595D01*
X720Y593D01*
X722Y593D01*
X722Y591D01*
X724Y591D01*
X724Y589D01*
X726Y589D01*
X726Y587D01*
X730Y587D01*
X730Y585D01*
X826Y585D01*
X826Y543D01*
X828Y543D01*
X828Y541D01*
X830Y541D01*
X830Y539D01*
X832Y539D01*
X832Y537D01*
X834Y537D01*
X834Y535D01*
X836Y535D01*
X836Y533D01*
X838Y533D01*
X838Y531D01*
X840Y531D01*
X840Y529D01*
X842Y529D01*
X842Y527D01*
X844Y527D01*
X844Y525D01*
X846Y525D01*
X846Y523D01*
X848Y523D01*
X848Y521D01*
X850Y521D01*
X850Y519D01*
X852Y519D01*
X852Y517D01*
X854Y517D01*
X854Y515D01*
X856Y515D01*
X856Y513D01*
X858Y513D01*
X858Y511D01*
X860Y511D01*
X860Y509D01*
X862Y509D01*
X862Y507D01*
X866Y507D01*
X866Y505D01*
X868Y505D01*
X868Y503D01*
X870Y503D01*
X870Y501D01*
X872Y501D01*
X872Y499D01*
X874Y499D01*
X874Y497D01*
X876Y497D01*
X876Y495D01*
X878Y495D01*
X878Y493D01*
X880Y493D01*
X880Y491D01*
X882Y491D01*
X882Y489D01*
X884Y489D01*
X884Y487D01*
X886Y487D01*
X886Y485D01*
X888Y485D01*
X888Y483D01*
X890Y483D01*
X890Y481D01*
X892Y481D01*
X892Y479D01*
X894Y479D01*
X894Y477D01*
X896Y477D01*
X896Y475D01*
X898Y475D01*
X898Y473D01*
X900Y473D01*
X900Y471D01*
X902Y471D01*
X902Y469D01*
X904Y469D01*
X904Y467D01*
X906Y467D01*
X906Y465D01*
X908Y465D01*
X908Y463D01*
X910Y463D01*
X910Y459D01*
X962Y459D01*
X962Y1263D01*
X938Y1263D01*
G37*
D02*
G36*
X260Y1151D02*
X260Y1149D01*
X258Y1149D01*
X258Y1147D01*
X256Y1147D01*
X256Y1145D01*
X254Y1145D01*
X254Y1143D01*
X252Y1143D01*
X252Y1141D01*
X250Y1141D01*
X250Y1139D01*
X248Y1139D01*
X248Y1137D01*
X246Y1137D01*
X246Y1135D01*
X244Y1135D01*
X244Y1133D01*
X242Y1133D01*
X242Y1131D01*
X240Y1131D01*
X240Y1129D01*
X238Y1129D01*
X238Y1127D01*
X236Y1127D01*
X236Y1125D01*
X232Y1125D01*
X232Y1123D01*
X230Y1123D01*
X230Y1121D01*
X228Y1121D01*
X228Y1119D01*
X226Y1119D01*
X226Y1117D01*
X224Y1117D01*
X224Y1115D01*
X222Y1115D01*
X222Y1113D01*
X220Y1113D01*
X220Y1025D01*
X308Y1025D01*
X308Y1087D01*
X350Y1087D01*
X350Y1091D01*
X352Y1091D01*
X352Y1111D01*
X308Y1111D01*
X308Y1151D01*
X260Y1151D01*
G37*
D02*
G36*
X516Y1077D02*
X516Y1075D01*
X514Y1075D01*
X514Y1073D01*
X512Y1073D01*
X512Y1071D01*
X510Y1071D01*
X510Y1069D01*
X562Y1069D01*
X562Y1071D01*
X554Y1071D01*
X554Y1073D01*
X550Y1073D01*
X550Y1075D01*
X548Y1075D01*
X548Y1077D01*
X516Y1077D01*
G37*
D02*
G36*
X564Y1071D02*
X564Y1069D01*
X588Y1069D01*
X588Y1071D01*
X564Y1071D01*
G37*
D02*
G36*
X508Y1069D02*
X508Y1067D01*
X588Y1067D01*
X588Y1069D01*
X508Y1069D01*
G37*
D02*
G36*
X508Y1069D02*
X508Y1067D01*
X588Y1067D01*
X588Y1069D01*
X508Y1069D01*
G37*
D02*
G36*
X506Y1067D02*
X506Y1065D01*
X504Y1065D01*
X504Y1063D01*
X502Y1063D01*
X502Y1061D01*
X500Y1061D01*
X500Y1059D01*
X498Y1059D01*
X498Y1057D01*
X496Y1057D01*
X496Y1055D01*
X494Y1055D01*
X494Y1053D01*
X492Y1053D01*
X492Y1051D01*
X490Y1051D01*
X490Y1049D01*
X488Y1049D01*
X488Y1047D01*
X486Y1047D01*
X486Y1045D01*
X482Y1045D01*
X482Y1043D01*
X442Y1043D01*
X442Y1025D01*
X588Y1025D01*
X588Y1067D01*
X506Y1067D01*
G37*
D02*
G36*
X220Y1025D02*
X220Y1023D01*
X588Y1023D01*
X588Y1025D01*
X220Y1025D01*
G37*
D02*
G36*
X220Y1025D02*
X220Y1023D01*
X588Y1023D01*
X588Y1025D01*
X220Y1025D01*
G37*
D02*
G36*
X220Y1023D02*
X220Y967D01*
X562Y967D01*
X562Y965D01*
X566Y965D01*
X566Y963D01*
X568Y963D01*
X568Y961D01*
X588Y961D01*
X588Y1023D01*
X220Y1023D01*
G37*
D02*
G36*
X220Y967D02*
X220Y947D01*
X218Y947D01*
X218Y945D01*
X216Y945D01*
X216Y943D01*
X214Y943D01*
X214Y941D01*
X212Y941D01*
X212Y939D01*
X210Y939D01*
X210Y937D01*
X208Y937D01*
X208Y935D01*
X206Y935D01*
X206Y933D01*
X204Y933D01*
X204Y931D01*
X202Y931D01*
X202Y929D01*
X200Y929D01*
X200Y927D01*
X198Y927D01*
X198Y925D01*
X196Y925D01*
X196Y923D01*
X194Y923D01*
X194Y921D01*
X192Y921D01*
X192Y919D01*
X190Y919D01*
X190Y917D01*
X188Y917D01*
X188Y915D01*
X186Y915D01*
X186Y913D01*
X184Y913D01*
X184Y911D01*
X182Y911D01*
X182Y909D01*
X180Y909D01*
X180Y907D01*
X178Y907D01*
X178Y905D01*
X176Y905D01*
X176Y903D01*
X174Y903D01*
X174Y901D01*
X172Y901D01*
X172Y899D01*
X170Y899D01*
X170Y897D01*
X168Y897D01*
X168Y895D01*
X166Y895D01*
X166Y893D01*
X162Y893D01*
X162Y891D01*
X160Y891D01*
X160Y815D01*
X48Y815D01*
X48Y767D01*
X50Y767D01*
X50Y765D01*
X52Y765D01*
X52Y763D01*
X54Y763D01*
X54Y761D01*
X56Y761D01*
X56Y759D01*
X58Y759D01*
X58Y757D01*
X60Y757D01*
X60Y755D01*
X62Y755D01*
X62Y753D01*
X64Y753D01*
X64Y751D01*
X66Y751D01*
X66Y749D01*
X68Y749D01*
X68Y747D01*
X70Y747D01*
X70Y745D01*
X72Y745D01*
X72Y743D01*
X74Y743D01*
X74Y741D01*
X76Y741D01*
X76Y739D01*
X80Y739D01*
X80Y737D01*
X82Y737D01*
X82Y735D01*
X84Y735D01*
X84Y733D01*
X86Y733D01*
X86Y731D01*
X88Y731D01*
X88Y729D01*
X90Y729D01*
X90Y727D01*
X92Y727D01*
X92Y725D01*
X94Y725D01*
X94Y723D01*
X96Y723D01*
X96Y721D01*
X98Y721D01*
X98Y719D01*
X100Y719D01*
X100Y717D01*
X102Y717D01*
X102Y715D01*
X104Y715D01*
X104Y713D01*
X106Y713D01*
X106Y711D01*
X108Y711D01*
X108Y709D01*
X110Y709D01*
X110Y707D01*
X112Y707D01*
X112Y705D01*
X114Y705D01*
X114Y703D01*
X116Y703D01*
X116Y701D01*
X118Y701D01*
X118Y699D01*
X122Y699D01*
X122Y697D01*
X124Y697D01*
X124Y695D01*
X126Y695D01*
X126Y693D01*
X128Y693D01*
X128Y691D01*
X130Y691D01*
X130Y689D01*
X132Y689D01*
X132Y687D01*
X134Y687D01*
X134Y685D01*
X136Y685D01*
X136Y683D01*
X138Y683D01*
X138Y681D01*
X140Y681D01*
X140Y679D01*
X142Y679D01*
X142Y677D01*
X144Y677D01*
X144Y675D01*
X146Y675D01*
X146Y673D01*
X148Y673D01*
X148Y671D01*
X150Y671D01*
X150Y669D01*
X152Y669D01*
X152Y667D01*
X154Y667D01*
X154Y665D01*
X156Y665D01*
X156Y663D01*
X158Y663D01*
X158Y661D01*
X160Y661D01*
X160Y659D01*
X164Y659D01*
X164Y657D01*
X166Y657D01*
X166Y655D01*
X168Y655D01*
X168Y653D01*
X170Y653D01*
X170Y651D01*
X172Y651D01*
X172Y649D01*
X174Y649D01*
X174Y647D01*
X176Y647D01*
X176Y645D01*
X244Y645D01*
X244Y671D01*
X246Y671D01*
X246Y761D01*
X248Y761D01*
X248Y799D01*
X250Y799D01*
X250Y801D01*
X252Y801D01*
X252Y803D01*
X254Y803D01*
X254Y805D01*
X256Y805D01*
X256Y807D01*
X258Y807D01*
X258Y809D01*
X260Y809D01*
X260Y811D01*
X262Y811D01*
X262Y813D01*
X264Y813D01*
X264Y815D01*
X266Y815D01*
X266Y817D01*
X268Y817D01*
X268Y819D01*
X270Y819D01*
X270Y821D01*
X272Y821D01*
X272Y823D01*
X274Y823D01*
X274Y825D01*
X276Y825D01*
X276Y827D01*
X278Y827D01*
X278Y829D01*
X280Y829D01*
X280Y831D01*
X282Y831D01*
X282Y833D01*
X284Y833D01*
X284Y835D01*
X286Y835D01*
X286Y837D01*
X288Y837D01*
X288Y839D01*
X290Y839D01*
X290Y841D01*
X292Y841D01*
X292Y843D01*
X296Y843D01*
X296Y845D01*
X298Y845D01*
X298Y847D01*
X300Y847D01*
X300Y849D01*
X302Y849D01*
X302Y851D01*
X304Y851D01*
X304Y853D01*
X306Y853D01*
X306Y855D01*
X308Y855D01*
X308Y857D01*
X310Y857D01*
X310Y859D01*
X312Y859D01*
X312Y861D01*
X314Y861D01*
X314Y863D01*
X316Y863D01*
X316Y865D01*
X318Y865D01*
X318Y867D01*
X320Y867D01*
X320Y869D01*
X322Y869D01*
X322Y871D01*
X324Y871D01*
X324Y873D01*
X326Y873D01*
X326Y875D01*
X328Y875D01*
X328Y877D01*
X330Y877D01*
X330Y879D01*
X332Y879D01*
X332Y881D01*
X334Y881D01*
X334Y883D01*
X336Y883D01*
X336Y885D01*
X340Y885D01*
X340Y887D01*
X342Y887D01*
X342Y889D01*
X344Y889D01*
X344Y891D01*
X346Y891D01*
X346Y893D01*
X348Y893D01*
X348Y895D01*
X350Y895D01*
X350Y897D01*
X352Y897D01*
X352Y899D01*
X354Y899D01*
X354Y901D01*
X356Y901D01*
X356Y903D01*
X358Y903D01*
X358Y905D01*
X360Y905D01*
X360Y907D01*
X362Y907D01*
X362Y909D01*
X364Y909D01*
X364Y911D01*
X366Y911D01*
X366Y913D01*
X368Y913D01*
X368Y915D01*
X370Y915D01*
X370Y917D01*
X372Y917D01*
X372Y919D01*
X374Y919D01*
X374Y921D01*
X376Y921D01*
X376Y923D01*
X378Y923D01*
X378Y925D01*
X382Y925D01*
X382Y927D01*
X384Y927D01*
X384Y929D01*
X386Y929D01*
X386Y931D01*
X388Y931D01*
X388Y933D01*
X390Y933D01*
X390Y935D01*
X392Y935D01*
X392Y937D01*
X394Y937D01*
X394Y939D01*
X396Y939D01*
X396Y941D01*
X398Y941D01*
X398Y943D01*
X400Y943D01*
X400Y945D01*
X402Y945D01*
X402Y947D01*
X404Y947D01*
X404Y949D01*
X406Y949D01*
X406Y951D01*
X408Y951D01*
X408Y953D01*
X410Y953D01*
X410Y955D01*
X412Y955D01*
X412Y957D01*
X414Y957D01*
X414Y959D01*
X418Y959D01*
X418Y961D01*
X540Y961D01*
X540Y963D01*
X542Y963D01*
X542Y965D01*
X546Y965D01*
X546Y967D01*
X220Y967D01*
G37*
D02*
G36*
X860Y1117D02*
X860Y1059D01*
X888Y1059D01*
X888Y1117D01*
X860Y1117D01*
G37*
D02*
G36*
X696Y1077D02*
X696Y1075D01*
X694Y1075D01*
X694Y1073D01*
X690Y1073D01*
X690Y1071D01*
X682Y1071D01*
X682Y1069D01*
X662Y1069D01*
X662Y1059D01*
X728Y1059D01*
X728Y1061D01*
X726Y1061D01*
X726Y1077D01*
X696Y1077D01*
G37*
D02*
G36*
X662Y1059D02*
X662Y1057D01*
X888Y1057D01*
X888Y1059D01*
X662Y1059D01*
G37*
D02*
G36*
X662Y1059D02*
X662Y1057D01*
X888Y1057D01*
X888Y1059D01*
X662Y1059D01*
G37*
D02*
G36*
X662Y1057D02*
X662Y967D01*
X702Y967D01*
X702Y965D01*
X704Y965D01*
X704Y963D01*
X708Y963D01*
X708Y961D01*
X808Y961D01*
X808Y963D01*
X810Y963D01*
X810Y965D01*
X812Y965D01*
X812Y967D01*
X814Y967D01*
X814Y969D01*
X816Y969D01*
X816Y971D01*
X818Y971D01*
X818Y973D01*
X820Y973D01*
X820Y975D01*
X822Y975D01*
X822Y977D01*
X824Y977D01*
X824Y979D01*
X826Y979D01*
X826Y981D01*
X828Y981D01*
X828Y983D01*
X830Y983D01*
X830Y985D01*
X832Y985D01*
X832Y987D01*
X834Y987D01*
X834Y989D01*
X836Y989D01*
X836Y993D01*
X838Y993D01*
X838Y995D01*
X840Y995D01*
X840Y997D01*
X842Y997D01*
X842Y999D01*
X844Y999D01*
X844Y1001D01*
X846Y1001D01*
X846Y1003D01*
X848Y1003D01*
X848Y1005D01*
X850Y1005D01*
X850Y1007D01*
X852Y1007D01*
X852Y1009D01*
X854Y1009D01*
X854Y1011D01*
X856Y1011D01*
X856Y1013D01*
X858Y1013D01*
X858Y1015D01*
X860Y1015D01*
X860Y1017D01*
X862Y1017D01*
X862Y1019D01*
X864Y1019D01*
X864Y1021D01*
X866Y1021D01*
X866Y1023D01*
X868Y1023D01*
X868Y1025D01*
X870Y1025D01*
X870Y1029D01*
X872Y1029D01*
X872Y1031D01*
X874Y1031D01*
X874Y1033D01*
X876Y1033D01*
X876Y1035D01*
X878Y1035D01*
X878Y1037D01*
X880Y1037D01*
X880Y1039D01*
X882Y1039D01*
X882Y1041D01*
X884Y1041D01*
X884Y1043D01*
X886Y1043D01*
X886Y1045D01*
X888Y1045D01*
X888Y1057D01*
X662Y1057D01*
G37*
D02*
G36*
X662Y967D02*
X662Y963D01*
X682Y963D01*
X682Y965D01*
X686Y965D01*
X686Y967D01*
X662Y967D01*
G37*
D02*
G36*
X540Y833D02*
X540Y831D01*
X538Y831D01*
X538Y829D01*
X536Y829D01*
X536Y827D01*
X534Y827D01*
X534Y823D01*
X532Y823D01*
X532Y821D01*
X530Y821D01*
X530Y819D01*
X528Y819D01*
X528Y817D01*
X526Y817D01*
X526Y815D01*
X524Y815D01*
X524Y813D01*
X522Y813D01*
X522Y811D01*
X520Y811D01*
X520Y809D01*
X518Y809D01*
X518Y807D01*
X516Y807D01*
X516Y805D01*
X514Y805D01*
X514Y803D01*
X512Y803D01*
X512Y801D01*
X510Y801D01*
X510Y799D01*
X508Y799D01*
X508Y797D01*
X506Y797D01*
X506Y795D01*
X504Y795D01*
X504Y793D01*
X502Y793D01*
X502Y791D01*
X500Y791D01*
X500Y789D01*
X498Y789D01*
X498Y787D01*
X496Y787D01*
X496Y785D01*
X494Y785D01*
X494Y783D01*
X492Y783D01*
X492Y781D01*
X490Y781D01*
X490Y779D01*
X488Y779D01*
X488Y777D01*
X486Y777D01*
X486Y775D01*
X484Y775D01*
X484Y773D01*
X482Y773D01*
X482Y771D01*
X480Y771D01*
X480Y769D01*
X478Y769D01*
X478Y767D01*
X476Y767D01*
X476Y765D01*
X474Y765D01*
X474Y763D01*
X472Y763D01*
X472Y761D01*
X470Y761D01*
X470Y759D01*
X468Y759D01*
X468Y757D01*
X466Y757D01*
X466Y753D01*
X464Y753D01*
X464Y751D01*
X462Y751D01*
X462Y749D01*
X460Y749D01*
X460Y747D01*
X458Y747D01*
X458Y745D01*
X456Y745D01*
X456Y743D01*
X454Y743D01*
X454Y741D01*
X452Y741D01*
X452Y739D01*
X450Y739D01*
X450Y737D01*
X448Y737D01*
X448Y735D01*
X446Y735D01*
X446Y733D01*
X444Y733D01*
X444Y731D01*
X442Y731D01*
X442Y729D01*
X440Y729D01*
X440Y633D01*
X538Y633D01*
X538Y631D01*
X544Y631D01*
X544Y629D01*
X548Y629D01*
X548Y627D01*
X550Y627D01*
X550Y625D01*
X552Y625D01*
X552Y623D01*
X554Y623D01*
X554Y621D01*
X556Y621D01*
X556Y617D01*
X558Y617D01*
X558Y613D01*
X560Y613D01*
X560Y585D01*
X614Y585D01*
X614Y533D01*
X618Y533D01*
X618Y531D01*
X620Y531D01*
X620Y529D01*
X624Y529D01*
X624Y527D01*
X626Y527D01*
X626Y525D01*
X628Y525D01*
X628Y523D01*
X630Y523D01*
X630Y519D01*
X632Y519D01*
X632Y517D01*
X634Y517D01*
X634Y511D01*
X636Y511D01*
X636Y389D01*
X638Y389D01*
X638Y223D01*
X814Y223D01*
X814Y221D01*
X822Y221D01*
X822Y219D01*
X826Y219D01*
X826Y217D01*
X828Y217D01*
X828Y215D01*
X832Y215D01*
X832Y213D01*
X834Y213D01*
X834Y211D01*
X836Y211D01*
X836Y209D01*
X856Y209D01*
X856Y223D01*
X868Y223D01*
X868Y261D01*
X852Y261D01*
X852Y331D01*
X962Y331D01*
X962Y389D01*
X852Y389D01*
X852Y425D01*
X850Y425D01*
X850Y427D01*
X848Y427D01*
X848Y429D01*
X846Y429D01*
X846Y431D01*
X844Y431D01*
X844Y433D01*
X842Y433D01*
X842Y435D01*
X840Y435D01*
X840Y437D01*
X838Y437D01*
X838Y439D01*
X836Y439D01*
X836Y441D01*
X834Y441D01*
X834Y443D01*
X832Y443D01*
X832Y445D01*
X830Y445D01*
X830Y447D01*
X828Y447D01*
X828Y449D01*
X826Y449D01*
X826Y451D01*
X824Y451D01*
X824Y453D01*
X822Y453D01*
X822Y455D01*
X818Y455D01*
X818Y457D01*
X816Y457D01*
X816Y459D01*
X814Y459D01*
X814Y461D01*
X812Y461D01*
X812Y463D01*
X810Y463D01*
X810Y465D01*
X808Y465D01*
X808Y467D01*
X806Y467D01*
X806Y469D01*
X804Y469D01*
X804Y471D01*
X802Y471D01*
X802Y473D01*
X800Y473D01*
X800Y475D01*
X798Y475D01*
X798Y477D01*
X796Y477D01*
X796Y479D01*
X794Y479D01*
X794Y481D01*
X792Y481D01*
X792Y483D01*
X790Y483D01*
X790Y485D01*
X788Y485D01*
X788Y487D01*
X786Y487D01*
X786Y489D01*
X784Y489D01*
X784Y491D01*
X782Y491D01*
X782Y493D01*
X780Y493D01*
X780Y495D01*
X776Y495D01*
X776Y497D01*
X774Y497D01*
X774Y499D01*
X772Y499D01*
X772Y501D01*
X770Y501D01*
X770Y503D01*
X668Y503D01*
X668Y595D01*
X664Y595D01*
X664Y597D01*
X662Y597D01*
X662Y599D01*
X660Y599D01*
X660Y601D01*
X658Y601D01*
X658Y603D01*
X656Y603D01*
X656Y605D01*
X654Y605D01*
X654Y607D01*
X652Y607D01*
X652Y609D01*
X650Y609D01*
X650Y611D01*
X648Y611D01*
X648Y613D01*
X646Y613D01*
X646Y615D01*
X644Y615D01*
X644Y617D01*
X640Y617D01*
X640Y619D01*
X638Y619D01*
X638Y621D01*
X636Y621D01*
X636Y623D01*
X634Y623D01*
X634Y625D01*
X632Y625D01*
X632Y627D01*
X630Y627D01*
X630Y629D01*
X628Y629D01*
X628Y631D01*
X626Y631D01*
X626Y635D01*
X624Y635D01*
X624Y833D01*
X540Y833D01*
G37*
D02*
G36*
X440Y633D02*
X440Y585D01*
X502Y585D01*
X502Y611D01*
X504Y611D01*
X504Y617D01*
X506Y617D01*
X506Y621D01*
X508Y621D01*
X508Y623D01*
X510Y623D01*
X510Y625D01*
X512Y625D01*
X512Y627D01*
X514Y627D01*
X514Y629D01*
X518Y629D01*
X518Y631D01*
X524Y631D01*
X524Y633D01*
X440Y633D01*
G37*
D02*
G36*
X638Y223D02*
X638Y207D01*
X640Y207D01*
X640Y205D01*
X642Y205D01*
X642Y203D01*
X644Y203D01*
X644Y199D01*
X664Y199D01*
X664Y203D01*
X666Y203D01*
X666Y205D01*
X668Y205D01*
X668Y209D01*
X670Y209D01*
X670Y211D01*
X674Y211D01*
X674Y213D01*
X676Y213D01*
X676Y215D01*
X678Y215D01*
X678Y217D01*
X682Y217D01*
X682Y219D01*
X686Y219D01*
X686Y221D01*
X694Y221D01*
X694Y223D01*
X638Y223D01*
G37*
D02*
G36*
X714Y223D02*
X714Y221D01*
X722Y221D01*
X722Y219D01*
X726Y219D01*
X726Y217D01*
X728Y217D01*
X728Y215D01*
X732Y215D01*
X732Y213D01*
X734Y213D01*
X734Y211D01*
X736Y211D01*
X736Y209D01*
X738Y209D01*
X738Y207D01*
X740Y207D01*
X740Y205D01*
X742Y205D01*
X742Y203D01*
X744Y203D01*
X744Y199D01*
X764Y199D01*
X764Y203D01*
X766Y203D01*
X766Y205D01*
X768Y205D01*
X768Y209D01*
X770Y209D01*
X770Y211D01*
X774Y211D01*
X774Y213D01*
X776Y213D01*
X776Y215D01*
X778Y215D01*
X778Y217D01*
X782Y217D01*
X782Y219D01*
X786Y219D01*
X786Y221D01*
X794Y221D01*
X794Y223D01*
X714Y223D01*
G37*
D02*
G36*
X430Y929D02*
X430Y927D01*
X428Y927D01*
X428Y925D01*
X426Y925D01*
X426Y923D01*
X424Y923D01*
X424Y921D01*
X422Y921D01*
X422Y919D01*
X420Y919D01*
X420Y917D01*
X416Y917D01*
X416Y915D01*
X414Y915D01*
X414Y913D01*
X412Y913D01*
X412Y911D01*
X410Y911D01*
X410Y909D01*
X408Y909D01*
X408Y907D01*
X406Y907D01*
X406Y905D01*
X404Y905D01*
X404Y903D01*
X402Y903D01*
X402Y901D01*
X400Y901D01*
X400Y899D01*
X398Y899D01*
X398Y897D01*
X396Y897D01*
X396Y895D01*
X394Y895D01*
X394Y893D01*
X392Y893D01*
X392Y891D01*
X390Y891D01*
X390Y889D01*
X388Y889D01*
X388Y887D01*
X386Y887D01*
X386Y885D01*
X384Y885D01*
X384Y883D01*
X382Y883D01*
X382Y881D01*
X380Y881D01*
X380Y879D01*
X378Y879D01*
X378Y877D01*
X374Y877D01*
X374Y875D01*
X372Y875D01*
X372Y873D01*
X370Y873D01*
X370Y871D01*
X368Y871D01*
X368Y869D01*
X366Y869D01*
X366Y867D01*
X364Y867D01*
X364Y865D01*
X362Y865D01*
X362Y863D01*
X360Y863D01*
X360Y861D01*
X358Y861D01*
X358Y859D01*
X356Y859D01*
X356Y857D01*
X354Y857D01*
X354Y855D01*
X352Y855D01*
X352Y853D01*
X350Y853D01*
X350Y851D01*
X348Y851D01*
X348Y849D01*
X346Y849D01*
X346Y847D01*
X344Y847D01*
X344Y845D01*
X342Y845D01*
X342Y843D01*
X340Y843D01*
X340Y841D01*
X338Y841D01*
X338Y839D01*
X336Y839D01*
X336Y837D01*
X334Y837D01*
X334Y835D01*
X330Y835D01*
X330Y833D01*
X328Y833D01*
X328Y831D01*
X326Y831D01*
X326Y829D01*
X324Y829D01*
X324Y827D01*
X322Y827D01*
X322Y825D01*
X320Y825D01*
X320Y823D01*
X318Y823D01*
X318Y821D01*
X316Y821D01*
X316Y819D01*
X314Y819D01*
X314Y817D01*
X312Y817D01*
X312Y815D01*
X310Y815D01*
X310Y813D01*
X308Y813D01*
X308Y811D01*
X306Y811D01*
X306Y809D01*
X304Y809D01*
X304Y807D01*
X302Y807D01*
X302Y805D01*
X300Y805D01*
X300Y803D01*
X298Y803D01*
X298Y801D01*
X296Y801D01*
X296Y799D01*
X294Y799D01*
X294Y797D01*
X292Y797D01*
X292Y795D01*
X290Y795D01*
X290Y793D01*
X286Y793D01*
X286Y791D01*
X284Y791D01*
X284Y789D01*
X282Y789D01*
X282Y787D01*
X280Y787D01*
X280Y761D01*
X278Y761D01*
X278Y671D01*
X276Y671D01*
X276Y645D01*
X292Y645D01*
X292Y511D01*
X260Y511D01*
X260Y495D01*
X258Y495D01*
X258Y393D01*
X256Y393D01*
X256Y319D01*
X254Y319D01*
X254Y315D01*
X252Y315D01*
X252Y313D01*
X250Y313D01*
X250Y311D01*
X248Y311D01*
X248Y309D01*
X246Y309D01*
X246Y307D01*
X244Y307D01*
X244Y305D01*
X242Y305D01*
X242Y303D01*
X240Y303D01*
X240Y301D01*
X238Y301D01*
X238Y299D01*
X236Y299D01*
X236Y297D01*
X234Y297D01*
X234Y295D01*
X232Y295D01*
X232Y293D01*
X230Y293D01*
X230Y291D01*
X228Y291D01*
X228Y289D01*
X226Y289D01*
X226Y287D01*
X224Y287D01*
X224Y285D01*
X222Y285D01*
X222Y283D01*
X220Y283D01*
X220Y281D01*
X218Y281D01*
X218Y279D01*
X216Y279D01*
X216Y277D01*
X214Y277D01*
X214Y275D01*
X212Y275D01*
X212Y273D01*
X210Y273D01*
X210Y271D01*
X208Y271D01*
X208Y269D01*
X206Y269D01*
X206Y209D01*
X204Y209D01*
X204Y205D01*
X202Y205D01*
X202Y203D01*
X200Y203D01*
X200Y201D01*
X198Y201D01*
X198Y199D01*
X196Y199D01*
X196Y197D01*
X194Y197D01*
X194Y195D01*
X190Y195D01*
X190Y193D01*
X188Y193D01*
X188Y191D01*
X186Y191D01*
X186Y189D01*
X184Y189D01*
X184Y187D01*
X182Y187D01*
X182Y185D01*
X180Y185D01*
X180Y183D01*
X178Y183D01*
X178Y181D01*
X176Y181D01*
X176Y179D01*
X172Y179D01*
X172Y177D01*
X170Y177D01*
X170Y175D01*
X168Y175D01*
X168Y173D01*
X166Y173D01*
X166Y171D01*
X164Y171D01*
X164Y169D01*
X162Y169D01*
X162Y167D01*
X160Y167D01*
X160Y163D01*
X302Y163D01*
X302Y165D01*
X300Y165D01*
X300Y231D01*
X302Y231D01*
X302Y233D01*
X336Y233D01*
X336Y235D01*
X338Y235D01*
X338Y239D01*
X340Y239D01*
X340Y241D01*
X342Y241D01*
X342Y243D01*
X344Y243D01*
X344Y247D01*
X346Y247D01*
X346Y249D01*
X348Y249D01*
X348Y251D01*
X350Y251D01*
X350Y253D01*
X352Y253D01*
X352Y257D01*
X354Y257D01*
X354Y259D01*
X356Y259D01*
X356Y261D01*
X358Y261D01*
X358Y263D01*
X360Y263D01*
X360Y267D01*
X362Y267D01*
X362Y269D01*
X364Y269D01*
X364Y271D01*
X366Y271D01*
X366Y275D01*
X368Y275D01*
X368Y277D01*
X370Y277D01*
X370Y279D01*
X372Y279D01*
X372Y749D01*
X374Y749D01*
X374Y755D01*
X376Y755D01*
X376Y759D01*
X378Y759D01*
X378Y763D01*
X380Y763D01*
X380Y765D01*
X382Y765D01*
X382Y767D01*
X384Y767D01*
X384Y769D01*
X386Y769D01*
X386Y771D01*
X388Y771D01*
X388Y773D01*
X390Y773D01*
X390Y775D01*
X392Y775D01*
X392Y777D01*
X394Y777D01*
X394Y779D01*
X396Y779D01*
X396Y781D01*
X398Y781D01*
X398Y783D01*
X400Y783D01*
X400Y785D01*
X402Y785D01*
X402Y787D01*
X404Y787D01*
X404Y789D01*
X406Y789D01*
X406Y791D01*
X408Y791D01*
X408Y793D01*
X410Y793D01*
X410Y795D01*
X412Y795D01*
X412Y799D01*
X414Y799D01*
X414Y801D01*
X416Y801D01*
X416Y803D01*
X418Y803D01*
X418Y805D01*
X420Y805D01*
X420Y807D01*
X422Y807D01*
X422Y809D01*
X424Y809D01*
X424Y811D01*
X426Y811D01*
X426Y813D01*
X428Y813D01*
X428Y815D01*
X430Y815D01*
X430Y817D01*
X432Y817D01*
X432Y819D01*
X434Y819D01*
X434Y821D01*
X436Y821D01*
X436Y823D01*
X438Y823D01*
X438Y825D01*
X440Y825D01*
X440Y827D01*
X442Y827D01*
X442Y829D01*
X444Y829D01*
X444Y831D01*
X446Y831D01*
X446Y833D01*
X448Y833D01*
X448Y835D01*
X450Y835D01*
X450Y837D01*
X452Y837D01*
X452Y839D01*
X454Y839D01*
X454Y841D01*
X456Y841D01*
X456Y929D01*
X430Y929D01*
G37*
D02*
G36*
X40Y713D02*
X40Y393D01*
X116Y393D01*
X116Y391D01*
X124Y391D01*
X124Y389D01*
X130Y389D01*
X130Y387D01*
X134Y387D01*
X134Y385D01*
X138Y385D01*
X138Y383D01*
X140Y383D01*
X140Y381D01*
X142Y381D01*
X142Y379D01*
X144Y379D01*
X144Y377D01*
X146Y377D01*
X146Y375D01*
X148Y375D01*
X148Y373D01*
X150Y373D01*
X150Y371D01*
X152Y371D01*
X152Y367D01*
X154Y367D01*
X154Y363D01*
X156Y363D01*
X156Y357D01*
X158Y357D01*
X158Y345D01*
X160Y345D01*
X160Y343D01*
X158Y343D01*
X158Y331D01*
X156Y331D01*
X156Y327D01*
X176Y327D01*
X176Y329D01*
X178Y329D01*
X178Y331D01*
X180Y331D01*
X180Y333D01*
X182Y333D01*
X182Y335D01*
X184Y335D01*
X184Y337D01*
X186Y337D01*
X186Y339D01*
X188Y339D01*
X188Y511D01*
X158Y511D01*
X158Y619D01*
X156Y619D01*
X156Y621D01*
X154Y621D01*
X154Y623D01*
X152Y623D01*
X152Y625D01*
X150Y625D01*
X150Y627D01*
X148Y627D01*
X148Y629D01*
X146Y629D01*
X146Y631D01*
X144Y631D01*
X144Y633D01*
X142Y633D01*
X142Y635D01*
X140Y635D01*
X140Y637D01*
X138Y637D01*
X138Y639D01*
X136Y639D01*
X136Y641D01*
X134Y641D01*
X134Y643D01*
X132Y643D01*
X132Y645D01*
X130Y645D01*
X130Y647D01*
X128Y647D01*
X128Y649D01*
X124Y649D01*
X124Y651D01*
X122Y651D01*
X122Y653D01*
X120Y653D01*
X120Y655D01*
X118Y655D01*
X118Y657D01*
X116Y657D01*
X116Y659D01*
X114Y659D01*
X114Y661D01*
X112Y661D01*
X112Y663D01*
X110Y663D01*
X110Y665D01*
X108Y665D01*
X108Y667D01*
X106Y667D01*
X106Y669D01*
X104Y669D01*
X104Y671D01*
X102Y671D01*
X102Y673D01*
X100Y673D01*
X100Y675D01*
X98Y675D01*
X98Y677D01*
X96Y677D01*
X96Y679D01*
X94Y679D01*
X94Y681D01*
X92Y681D01*
X92Y683D01*
X90Y683D01*
X90Y685D01*
X88Y685D01*
X88Y687D01*
X86Y687D01*
X86Y689D01*
X84Y689D01*
X84Y691D01*
X80Y691D01*
X80Y693D01*
X78Y693D01*
X78Y695D01*
X76Y695D01*
X76Y697D01*
X74Y697D01*
X74Y699D01*
X72Y699D01*
X72Y701D01*
X70Y701D01*
X70Y703D01*
X68Y703D01*
X68Y705D01*
X66Y705D01*
X66Y707D01*
X64Y707D01*
X64Y709D01*
X62Y709D01*
X62Y711D01*
X60Y711D01*
X60Y713D01*
X40Y713D01*
G37*
D02*
G36*
X440Y503D02*
X440Y259D01*
X438Y259D01*
X438Y255D01*
X436Y255D01*
X436Y251D01*
X434Y251D01*
X434Y247D01*
X432Y247D01*
X432Y245D01*
X430Y245D01*
X430Y243D01*
X428Y243D01*
X428Y241D01*
X426Y241D01*
X426Y237D01*
X424Y237D01*
X424Y235D01*
X422Y235D01*
X422Y233D01*
X420Y233D01*
X420Y231D01*
X418Y231D01*
X418Y227D01*
X416Y227D01*
X416Y225D01*
X414Y225D01*
X414Y223D01*
X514Y223D01*
X514Y221D01*
X522Y221D01*
X522Y219D01*
X526Y219D01*
X526Y217D01*
X528Y217D01*
X528Y215D01*
X532Y215D01*
X532Y213D01*
X534Y213D01*
X534Y211D01*
X536Y211D01*
X536Y209D01*
X538Y209D01*
X538Y207D01*
X540Y207D01*
X540Y205D01*
X542Y205D01*
X542Y203D01*
X544Y203D01*
X544Y199D01*
X564Y199D01*
X564Y203D01*
X566Y203D01*
X566Y205D01*
X568Y205D01*
X568Y209D01*
X570Y209D01*
X570Y385D01*
X568Y385D01*
X568Y483D01*
X566Y483D01*
X566Y485D01*
X564Y485D01*
X564Y487D01*
X560Y487D01*
X560Y489D01*
X558Y489D01*
X558Y491D01*
X554Y491D01*
X554Y493D01*
X552Y493D01*
X552Y495D01*
X550Y495D01*
X550Y497D01*
X548Y497D01*
X548Y501D01*
X546Y501D01*
X546Y503D01*
X440Y503D01*
G37*
D02*
G36*
X40Y393D02*
X40Y95D01*
X62Y95D01*
X62Y193D01*
X72Y193D01*
X72Y215D01*
X70Y215D01*
X70Y217D01*
X68Y217D01*
X68Y221D01*
X66Y221D01*
X66Y225D01*
X64Y225D01*
X64Y231D01*
X62Y231D01*
X62Y257D01*
X64Y257D01*
X64Y263D01*
X66Y263D01*
X66Y267D01*
X68Y267D01*
X68Y271D01*
X70Y271D01*
X70Y273D01*
X72Y273D01*
X72Y275D01*
X74Y275D01*
X74Y277D01*
X76Y277D01*
X76Y279D01*
X78Y279D01*
X78Y281D01*
X80Y281D01*
X80Y283D01*
X82Y283D01*
X82Y305D01*
X80Y305D01*
X80Y307D01*
X76Y307D01*
X76Y309D01*
X74Y309D01*
X74Y311D01*
X72Y311D01*
X72Y315D01*
X70Y315D01*
X70Y317D01*
X68Y317D01*
X68Y321D01*
X66Y321D01*
X66Y325D01*
X64Y325D01*
X64Y331D01*
X62Y331D01*
X62Y357D01*
X64Y357D01*
X64Y363D01*
X66Y363D01*
X66Y367D01*
X68Y367D01*
X68Y371D01*
X70Y371D01*
X70Y373D01*
X72Y373D01*
X72Y375D01*
X74Y375D01*
X74Y377D01*
X76Y377D01*
X76Y379D01*
X78Y379D01*
X78Y381D01*
X80Y381D01*
X80Y383D01*
X82Y383D01*
X82Y385D01*
X86Y385D01*
X86Y387D01*
X90Y387D01*
X90Y389D01*
X96Y389D01*
X96Y391D01*
X104Y391D01*
X104Y393D01*
X40Y393D01*
G37*
D02*
G36*
X412Y223D02*
X412Y221D01*
X410Y221D01*
X410Y217D01*
X408Y217D01*
X408Y215D01*
X406Y215D01*
X406Y213D01*
X404Y213D01*
X404Y209D01*
X402Y209D01*
X402Y207D01*
X400Y207D01*
X400Y163D01*
X458Y163D01*
X458Y169D01*
X456Y169D01*
X456Y183D01*
X458Y183D01*
X458Y191D01*
X460Y191D01*
X460Y197D01*
X462Y197D01*
X462Y199D01*
X464Y199D01*
X464Y203D01*
X466Y203D01*
X466Y205D01*
X468Y205D01*
X468Y209D01*
X470Y209D01*
X470Y211D01*
X474Y211D01*
X474Y213D01*
X476Y213D01*
X476Y215D01*
X478Y215D01*
X478Y217D01*
X482Y217D01*
X482Y219D01*
X486Y219D01*
X486Y221D01*
X494Y221D01*
X494Y223D01*
X412Y223D01*
G37*
D02*
G36*
X160Y163D02*
X160Y161D01*
X458Y161D01*
X458Y163D01*
X160Y163D01*
G37*
D02*
G36*
X160Y163D02*
X160Y161D01*
X458Y161D01*
X458Y163D01*
X160Y163D01*
G37*
D02*
G36*
X160Y161D02*
X160Y95D01*
X300Y95D01*
X300Y103D01*
X302Y103D01*
X302Y105D01*
X402Y105D01*
X402Y107D01*
X454Y107D01*
X454Y109D01*
X470Y109D01*
X470Y111D01*
X474Y111D01*
X474Y113D01*
X476Y113D01*
X476Y115D01*
X478Y115D01*
X478Y137D01*
X476Y137D01*
X476Y139D01*
X474Y139D01*
X474Y141D01*
X470Y141D01*
X470Y143D01*
X468Y143D01*
X468Y147D01*
X466Y147D01*
X466Y149D01*
X464Y149D01*
X464Y151D01*
X462Y151D01*
X462Y155D01*
X460Y155D01*
X460Y161D01*
X160Y161D01*
G37*
D02*
G36*
X40Y95D02*
X40Y93D01*
X300Y93D01*
X300Y95D01*
X40Y95D01*
G37*
D02*
G36*
X40Y95D02*
X40Y93D01*
X300Y93D01*
X300Y95D01*
X40Y95D01*
G37*
D02*
G36*
X40Y93D02*
X40Y41D01*
X300Y41D01*
X300Y93D01*
X40Y93D01*
G37*
D02*
G04 End of Copper1*
M02*