G04 MADE WITH FRITZING*
G04 WWW.FRITZING.ORG*
G04 DOUBLE SIDED*
G04 HOLES PLATED*
G04 CONTOUR ON CENTER OF CONTOUR VECTOR*
%ASAXBY*%
%FSLAX23Y23*%
%MOIN*%
%OFA0B0*%
%SFA1.0B1.0*%
%ADD10C,0.088000*%
%ADD11C,0.085000*%
%ADD12C,0.033622*%
%ADD13C,0.049370*%
%ADD14R,0.088000X0.088000*%
%ADD15R,0.085000X0.085000*%
%LNMASK0*%
G90*
G70*
G54D10*
X110Y143D03*
X110Y243D03*
X110Y343D03*
X110Y143D03*
X110Y243D03*
X110Y343D03*
X110Y1528D03*
X110Y1628D03*
X110Y1728D03*
X110Y1528D03*
X110Y1628D03*
X110Y1728D03*
X110Y863D03*
X110Y963D03*
X110Y1063D03*
X110Y863D03*
X110Y963D03*
X110Y1063D03*
G54D11*
X904Y176D03*
X904Y76D03*
X804Y176D03*
X804Y76D03*
X704Y176D03*
X704Y76D03*
X604Y176D03*
X604Y76D03*
X504Y176D03*
X504Y76D03*
G54D12*
X937Y1284D03*
X311Y1316D03*
G54D13*
X531Y603D03*
X834Y875D03*
G54D12*
X571Y1367D03*
X720Y1367D03*
X563Y1265D03*
X720Y1265D03*
X681Y1091D03*
X563Y1091D03*
X583Y1470D03*
X670Y1540D03*
X554Y945D03*
X693Y945D03*
X622Y1639D03*
G54D13*
X303Y1627D03*
G54D12*
X299Y1765D03*
G54D14*
X110Y143D03*
X110Y143D03*
X110Y1528D03*
X110Y1528D03*
X110Y863D03*
X110Y863D03*
G54D15*
X904Y176D03*
G04 End of Mask0*
M02*