G04 MADE WITH FRITZING*
G04 WWW.FRITZING.ORG*
G04 DOUBLE SIDED*
G04 HOLES PLATED*
G04 CONTOUR ON CENTER OF CONTOUR VECTOR*
%ASAXBY*%
%FSLAX23Y23*%
%MOIN*%
%OFA0B0*%
%SFA1.0B1.0*%
%ADD10R,1.003937X1.948820X0.987937X1.932820*%
%ADD11C,0.008000*%
%ADD12R,0.001000X0.001000*%
%LNSILK0*%
G90*
G70*
G54D11*
X4Y1945D02*
X1000Y1945D01*
X1000Y4D01*
X4Y4D01*
X4Y1945D01*
D02*
G54D12*
X296Y1898D02*
X300Y1898D01*
X287Y1897D02*
X309Y1897D01*
X283Y1896D02*
X314Y1896D01*
X280Y1895D02*
X317Y1895D01*
X278Y1894D02*
X319Y1894D01*
X275Y1893D02*
X322Y1893D01*
X274Y1892D02*
X323Y1892D01*
X272Y1891D02*
X325Y1891D01*
X270Y1890D02*
X327Y1890D01*
X269Y1889D02*
X328Y1889D01*
X268Y1888D02*
X330Y1888D01*
X266Y1887D02*
X331Y1887D01*
X265Y1886D02*
X332Y1886D01*
X264Y1885D02*
X333Y1885D01*
X263Y1884D02*
X334Y1884D01*
X262Y1883D02*
X335Y1883D01*
X261Y1882D02*
X336Y1882D01*
X260Y1881D02*
X337Y1881D01*
X260Y1880D02*
X338Y1880D01*
X259Y1879D02*
X338Y1879D01*
X258Y1878D02*
X339Y1878D01*
X257Y1877D02*
X340Y1877D01*
X257Y1876D02*
X290Y1876D01*
X307Y1876D02*
X340Y1876D01*
X256Y1875D02*
X286Y1875D01*
X311Y1875D02*
X341Y1875D01*
X256Y1874D02*
X284Y1874D01*
X313Y1874D02*
X341Y1874D01*
X255Y1873D02*
X282Y1873D01*
X315Y1873D02*
X342Y1873D01*
X255Y1872D02*
X281Y1872D01*
X317Y1872D02*
X342Y1872D01*
X254Y1871D02*
X279Y1871D01*
X318Y1871D02*
X343Y1871D01*
X254Y1870D02*
X278Y1870D01*
X320Y1870D02*
X343Y1870D01*
X254Y1869D02*
X277Y1869D01*
X321Y1869D02*
X343Y1869D01*
X253Y1868D02*
X276Y1868D01*
X322Y1868D02*
X344Y1868D01*
X253Y1867D02*
X275Y1867D01*
X323Y1867D02*
X344Y1867D01*
X253Y1866D02*
X274Y1866D01*
X323Y1866D02*
X344Y1866D01*
X253Y1865D02*
X273Y1865D01*
X324Y1865D02*
X345Y1865D01*
X252Y1864D02*
X273Y1864D01*
X325Y1864D02*
X345Y1864D01*
X252Y1863D02*
X272Y1863D01*
X325Y1863D02*
X345Y1863D01*
X252Y1862D02*
X272Y1862D01*
X326Y1862D02*
X345Y1862D01*
X252Y1861D02*
X271Y1861D01*
X326Y1861D02*
X345Y1861D01*
X252Y1860D02*
X271Y1860D01*
X327Y1860D02*
X345Y1860D01*
X252Y1859D02*
X270Y1859D01*
X327Y1859D02*
X345Y1859D01*
X252Y1858D02*
X270Y1858D01*
X327Y1858D02*
X345Y1858D01*
X252Y1857D02*
X270Y1857D01*
X328Y1857D02*
X346Y1857D01*
X252Y1856D02*
X270Y1856D01*
X328Y1856D02*
X346Y1856D01*
X252Y1855D02*
X270Y1855D01*
X328Y1855D02*
X346Y1855D01*
X252Y1854D02*
X269Y1854D01*
X328Y1854D02*
X346Y1854D01*
X252Y1853D02*
X269Y1853D01*
X328Y1853D02*
X345Y1853D01*
X252Y1852D02*
X269Y1852D01*
X328Y1852D02*
X345Y1852D01*
X252Y1851D02*
X269Y1851D01*
X328Y1851D02*
X345Y1851D01*
X252Y1850D02*
X269Y1850D01*
X328Y1850D02*
X345Y1850D01*
X252Y1849D02*
X269Y1849D01*
X328Y1849D02*
X345Y1849D01*
X252Y1848D02*
X270Y1848D01*
X328Y1848D02*
X345Y1848D01*
X253Y1847D02*
X270Y1847D01*
X328Y1847D02*
X345Y1847D01*
X253Y1846D02*
X270Y1846D01*
X327Y1846D02*
X344Y1846D01*
X253Y1845D02*
X270Y1845D01*
X327Y1845D02*
X344Y1845D01*
X253Y1844D02*
X270Y1844D01*
X327Y1844D02*
X344Y1844D01*
X254Y1843D02*
X271Y1843D01*
X327Y1843D02*
X343Y1843D01*
X254Y1842D02*
X271Y1842D01*
X326Y1842D02*
X343Y1842D01*
X255Y1841D02*
X272Y1841D01*
X326Y1841D02*
X343Y1841D01*
X255Y1840D02*
X272Y1840D01*
X325Y1840D02*
X342Y1840D01*
X256Y1839D02*
X273Y1839D01*
X325Y1839D02*
X342Y1839D01*
X256Y1838D02*
X273Y1838D01*
X324Y1838D02*
X341Y1838D01*
X257Y1837D02*
X274Y1837D01*
X323Y1837D02*
X341Y1837D01*
X257Y1836D02*
X275Y1836D01*
X323Y1836D02*
X340Y1836D01*
X258Y1835D02*
X276Y1835D01*
X322Y1835D02*
X340Y1835D01*
X259Y1834D02*
X277Y1834D01*
X321Y1834D02*
X339Y1834D01*
X260Y1833D02*
X278Y1833D01*
X320Y1833D02*
X338Y1833D01*
X260Y1832D02*
X279Y1832D01*
X318Y1832D02*
X337Y1832D01*
X261Y1831D02*
X280Y1831D01*
X317Y1831D02*
X337Y1831D01*
X262Y1830D02*
X282Y1830D01*
X315Y1830D02*
X336Y1830D01*
X263Y1829D02*
X284Y1829D01*
X313Y1829D02*
X335Y1829D01*
X264Y1828D02*
X287Y1828D01*
X311Y1828D02*
X334Y1828D01*
X188Y1827D02*
X290Y1827D01*
X307Y1827D02*
X343Y1827D01*
X188Y1826D02*
X343Y1826D01*
X188Y1825D02*
X343Y1825D01*
X188Y1824D02*
X343Y1824D01*
X188Y1823D02*
X343Y1823D01*
X188Y1822D02*
X343Y1822D01*
X188Y1821D02*
X343Y1821D01*
X188Y1820D02*
X343Y1820D01*
X188Y1819D02*
X343Y1819D01*
X188Y1818D02*
X343Y1818D01*
X188Y1817D02*
X343Y1817D01*
X188Y1816D02*
X343Y1816D01*
X188Y1815D02*
X343Y1815D01*
X188Y1814D02*
X343Y1814D01*
X188Y1813D02*
X343Y1813D01*
X188Y1812D02*
X343Y1812D01*
X188Y1811D02*
X343Y1811D01*
X188Y1810D02*
X343Y1810D01*
X188Y1809D02*
X343Y1809D01*
X188Y1808D02*
X343Y1808D01*
X188Y1807D02*
X343Y1807D01*
X254Y1779D02*
X288Y1779D01*
X308Y1779D02*
X318Y1779D01*
X254Y1778D02*
X287Y1778D01*
X310Y1778D02*
X322Y1778D01*
X254Y1777D02*
X286Y1777D01*
X311Y1777D02*
X325Y1777D01*
X254Y1776D02*
X285Y1776D01*
X312Y1776D02*
X327Y1776D01*
X254Y1775D02*
X284Y1775D01*
X312Y1775D02*
X328Y1775D01*
X254Y1774D02*
X284Y1774D01*
X313Y1774D02*
X330Y1774D01*
X254Y1773D02*
X283Y1773D01*
X314Y1773D02*
X331Y1773D01*
X254Y1772D02*
X282Y1772D01*
X314Y1772D02*
X333Y1772D01*
X254Y1771D02*
X282Y1771D01*
X314Y1771D02*
X334Y1771D01*
X254Y1770D02*
X282Y1770D01*
X315Y1770D02*
X335Y1770D01*
X254Y1769D02*
X281Y1769D01*
X315Y1769D02*
X336Y1769D01*
X254Y1768D02*
X281Y1768D01*
X315Y1768D02*
X337Y1768D01*
X254Y1767D02*
X281Y1767D01*
X315Y1767D02*
X337Y1767D01*
X254Y1766D02*
X281Y1766D01*
X315Y1766D02*
X338Y1766D01*
X254Y1765D02*
X281Y1765D01*
X315Y1765D02*
X339Y1765D01*
X254Y1764D02*
X281Y1764D01*
X315Y1764D02*
X340Y1764D01*
X254Y1763D02*
X281Y1763D01*
X315Y1763D02*
X340Y1763D01*
X254Y1762D02*
X281Y1762D01*
X315Y1762D02*
X341Y1762D01*
X254Y1761D02*
X282Y1761D01*
X315Y1761D02*
X341Y1761D01*
X254Y1760D02*
X282Y1760D01*
X314Y1760D02*
X342Y1760D01*
X314Y1759D02*
X342Y1759D01*
X316Y1758D02*
X343Y1758D01*
X318Y1757D02*
X343Y1757D01*
X320Y1756D02*
X343Y1756D01*
X322Y1755D02*
X344Y1755D01*
X323Y1754D02*
X344Y1754D01*
X324Y1753D02*
X344Y1753D01*
X325Y1752D02*
X344Y1752D01*
X326Y1751D02*
X345Y1751D01*
X326Y1750D02*
X345Y1750D01*
X327Y1749D02*
X345Y1749D01*
X327Y1748D02*
X345Y1748D01*
X327Y1747D02*
X345Y1747D01*
X328Y1746D02*
X345Y1746D01*
X328Y1745D02*
X345Y1745D01*
X328Y1744D02*
X346Y1744D01*
X328Y1743D02*
X346Y1743D01*
X328Y1742D02*
X346Y1742D01*
X328Y1741D02*
X346Y1741D01*
X328Y1740D02*
X346Y1740D01*
X328Y1739D02*
X346Y1739D01*
X328Y1738D02*
X345Y1738D01*
X328Y1737D02*
X345Y1737D01*
X327Y1736D02*
X345Y1736D01*
X327Y1735D02*
X345Y1735D01*
X327Y1734D02*
X345Y1734D01*
X326Y1733D02*
X345Y1733D01*
X326Y1732D02*
X345Y1732D01*
X325Y1731D02*
X344Y1731D01*
X324Y1730D02*
X344Y1730D01*
X323Y1729D02*
X344Y1729D01*
X322Y1728D02*
X344Y1728D01*
X320Y1727D02*
X343Y1727D01*
X318Y1726D02*
X343Y1726D01*
X316Y1725D02*
X343Y1725D01*
X308Y1724D02*
X342Y1724D01*
X254Y1723D02*
X342Y1723D01*
X254Y1722D02*
X341Y1722D01*
X254Y1721D02*
X341Y1721D01*
X254Y1720D02*
X340Y1720D01*
X254Y1719D02*
X340Y1719D01*
X254Y1718D02*
X339Y1718D01*
X254Y1717D02*
X338Y1717D01*
X254Y1716D02*
X337Y1716D01*
X254Y1715D02*
X337Y1715D01*
X254Y1714D02*
X336Y1714D01*
X254Y1713D02*
X335Y1713D01*
X254Y1712D02*
X334Y1712D01*
X254Y1711D02*
X333Y1711D01*
X254Y1710D02*
X331Y1710D01*
X254Y1709D02*
X330Y1709D01*
X254Y1708D02*
X328Y1708D01*
X254Y1707D02*
X327Y1707D01*
X254Y1706D02*
X324Y1706D01*
X254Y1705D02*
X321Y1705D01*
X254Y1704D02*
X317Y1704D01*
X297Y1681D02*
X299Y1681D01*
X288Y1680D02*
X309Y1680D01*
X283Y1679D02*
X313Y1679D01*
X280Y1678D02*
X317Y1678D01*
X278Y1677D02*
X319Y1677D01*
X275Y1676D02*
X321Y1676D01*
X274Y1675D02*
X323Y1675D01*
X272Y1674D02*
X325Y1674D01*
X270Y1673D02*
X327Y1673D01*
X269Y1672D02*
X328Y1672D01*
X268Y1671D02*
X330Y1671D01*
X266Y1670D02*
X331Y1670D01*
X265Y1669D02*
X332Y1669D01*
X264Y1668D02*
X333Y1668D01*
X263Y1667D02*
X334Y1667D01*
X262Y1666D02*
X335Y1666D01*
X261Y1665D02*
X336Y1665D01*
X260Y1664D02*
X337Y1664D01*
X260Y1663D02*
X338Y1663D01*
X259Y1662D02*
X338Y1662D01*
X258Y1661D02*
X339Y1661D01*
X257Y1660D02*
X340Y1660D01*
X257Y1659D02*
X290Y1659D01*
X307Y1659D02*
X340Y1659D01*
X256Y1658D02*
X287Y1658D01*
X311Y1658D02*
X341Y1658D01*
X256Y1657D02*
X284Y1657D01*
X313Y1657D02*
X341Y1657D01*
X255Y1656D02*
X282Y1656D01*
X315Y1656D02*
X342Y1656D01*
X255Y1655D02*
X281Y1655D01*
X317Y1655D02*
X342Y1655D01*
X254Y1654D02*
X279Y1654D01*
X318Y1654D02*
X343Y1654D01*
X254Y1653D02*
X278Y1653D01*
X320Y1653D02*
X343Y1653D01*
X254Y1652D02*
X277Y1652D01*
X321Y1652D02*
X343Y1652D01*
X253Y1651D02*
X276Y1651D01*
X322Y1651D02*
X344Y1651D01*
X253Y1650D02*
X275Y1650D01*
X323Y1650D02*
X344Y1650D01*
X253Y1649D02*
X274Y1649D01*
X323Y1649D02*
X344Y1649D01*
X253Y1648D02*
X273Y1648D01*
X324Y1648D02*
X345Y1648D01*
X252Y1647D02*
X273Y1647D01*
X325Y1647D02*
X345Y1647D01*
X252Y1646D02*
X272Y1646D01*
X325Y1646D02*
X345Y1646D01*
X252Y1645D02*
X272Y1645D01*
X326Y1645D02*
X345Y1645D01*
X252Y1644D02*
X271Y1644D01*
X326Y1644D02*
X345Y1644D01*
X252Y1643D02*
X271Y1643D01*
X327Y1643D02*
X345Y1643D01*
X252Y1642D02*
X270Y1642D01*
X327Y1642D02*
X345Y1642D01*
X252Y1641D02*
X270Y1641D01*
X327Y1641D02*
X345Y1641D01*
X252Y1640D02*
X270Y1640D01*
X328Y1640D02*
X346Y1640D01*
X252Y1639D02*
X270Y1639D01*
X328Y1639D02*
X346Y1639D01*
X252Y1638D02*
X270Y1638D01*
X328Y1638D02*
X346Y1638D01*
X252Y1637D02*
X269Y1637D01*
X328Y1637D02*
X346Y1637D01*
X252Y1636D02*
X269Y1636D01*
X328Y1636D02*
X346Y1636D01*
X252Y1635D02*
X269Y1635D01*
X328Y1635D02*
X345Y1635D01*
X252Y1634D02*
X269Y1634D01*
X328Y1634D02*
X345Y1634D01*
X252Y1633D02*
X269Y1633D01*
X328Y1633D02*
X345Y1633D01*
X252Y1632D02*
X269Y1632D01*
X328Y1632D02*
X345Y1632D01*
X252Y1631D02*
X270Y1631D01*
X328Y1631D02*
X345Y1631D01*
X253Y1630D02*
X270Y1630D01*
X328Y1630D02*
X345Y1630D01*
X253Y1629D02*
X270Y1629D01*
X327Y1629D02*
X344Y1629D01*
X253Y1628D02*
X270Y1628D01*
X327Y1628D02*
X344Y1628D01*
X253Y1627D02*
X270Y1627D01*
X327Y1627D02*
X344Y1627D01*
X254Y1626D02*
X271Y1626D01*
X327Y1626D02*
X343Y1626D01*
X254Y1625D02*
X271Y1625D01*
X327Y1625D02*
X343Y1625D01*
X255Y1624D02*
X272Y1624D01*
X327Y1624D02*
X343Y1624D01*
X255Y1623D02*
X272Y1623D01*
X327Y1623D02*
X342Y1623D01*
X256Y1622D02*
X273Y1622D01*
X327Y1622D02*
X342Y1622D01*
X256Y1621D02*
X273Y1621D01*
X326Y1621D02*
X341Y1621D01*
X257Y1620D02*
X274Y1620D01*
X326Y1620D02*
X341Y1620D01*
X257Y1619D02*
X275Y1619D01*
X326Y1619D02*
X340Y1619D01*
X258Y1618D02*
X276Y1618D01*
X325Y1618D02*
X339Y1618D01*
X259Y1617D02*
X277Y1617D01*
X325Y1617D02*
X339Y1617D01*
X260Y1616D02*
X278Y1616D01*
X324Y1616D02*
X338Y1616D01*
X260Y1615D02*
X279Y1615D01*
X324Y1615D02*
X337Y1615D01*
X261Y1614D02*
X280Y1614D01*
X323Y1614D02*
X337Y1614D01*
X262Y1613D02*
X282Y1613D01*
X322Y1613D02*
X336Y1613D01*
X263Y1612D02*
X283Y1612D01*
X321Y1612D02*
X335Y1612D01*
X264Y1611D02*
X284Y1611D01*
X321Y1611D02*
X334Y1611D01*
X254Y1610D02*
X285Y1610D01*
X320Y1610D02*
X343Y1610D01*
X254Y1609D02*
X286Y1609D01*
X318Y1609D02*
X343Y1609D01*
X254Y1608D02*
X288Y1608D01*
X317Y1608D02*
X343Y1608D01*
X254Y1607D02*
X289Y1607D01*
X315Y1607D02*
X343Y1607D01*
X254Y1606D02*
X291Y1606D01*
X313Y1606D02*
X343Y1606D01*
X254Y1605D02*
X294Y1605D01*
X311Y1605D02*
X343Y1605D01*
X254Y1604D02*
X297Y1604D01*
X308Y1604D02*
X343Y1604D01*
X254Y1603D02*
X343Y1603D01*
X254Y1602D02*
X343Y1602D01*
X254Y1601D02*
X343Y1601D01*
X254Y1600D02*
X343Y1600D01*
X254Y1599D02*
X343Y1599D01*
X254Y1598D02*
X343Y1598D01*
X254Y1597D02*
X343Y1597D01*
X254Y1596D02*
X343Y1596D01*
X254Y1595D02*
X343Y1595D01*
X254Y1594D02*
X343Y1594D01*
X254Y1593D02*
X343Y1593D01*
X254Y1592D02*
X343Y1592D01*
X254Y1591D02*
X343Y1591D01*
X254Y1590D02*
X343Y1590D01*
X188Y1562D02*
X343Y1562D01*
X188Y1561D02*
X343Y1561D01*
X188Y1560D02*
X343Y1560D01*
X188Y1559D02*
X343Y1559D01*
X188Y1558D02*
X343Y1558D01*
X188Y1557D02*
X343Y1557D01*
X188Y1556D02*
X343Y1556D01*
X188Y1555D02*
X343Y1555D01*
X188Y1554D02*
X343Y1554D01*
X188Y1553D02*
X343Y1553D01*
X188Y1552D02*
X343Y1552D01*
X188Y1551D02*
X343Y1551D01*
X188Y1550D02*
X343Y1550D01*
X188Y1549D02*
X343Y1549D01*
X188Y1548D02*
X343Y1548D01*
X188Y1547D02*
X343Y1547D01*
X188Y1546D02*
X343Y1546D01*
X188Y1545D02*
X343Y1545D01*
X188Y1544D02*
X343Y1544D01*
X188Y1543D02*
X343Y1543D01*
X290Y1461D02*
X307Y1461D01*
X285Y1460D02*
X311Y1460D01*
X282Y1459D02*
X314Y1459D01*
X280Y1458D02*
X317Y1458D01*
X278Y1457D02*
X319Y1457D01*
X276Y1456D02*
X321Y1456D01*
X274Y1455D02*
X323Y1455D01*
X273Y1454D02*
X325Y1454D01*
X271Y1453D02*
X326Y1453D01*
X270Y1452D02*
X327Y1452D01*
X269Y1451D02*
X329Y1451D01*
X268Y1450D02*
X330Y1450D01*
X266Y1449D02*
X331Y1449D01*
X265Y1448D02*
X332Y1448D01*
X264Y1447D02*
X333Y1447D01*
X264Y1446D02*
X334Y1446D01*
X263Y1445D02*
X335Y1445D01*
X262Y1444D02*
X335Y1444D01*
X261Y1443D02*
X336Y1443D01*
X260Y1442D02*
X337Y1442D01*
X260Y1441D02*
X338Y1441D01*
X259Y1440D02*
X291Y1440D01*
X306Y1440D02*
X338Y1440D01*
X258Y1439D02*
X287Y1439D01*
X310Y1439D02*
X339Y1439D01*
X258Y1438D02*
X285Y1438D01*
X313Y1438D02*
X340Y1438D01*
X257Y1437D02*
X283Y1437D01*
X315Y1437D02*
X340Y1437D01*
X257Y1436D02*
X281Y1436D01*
X317Y1436D02*
X341Y1436D01*
X256Y1435D02*
X279Y1435D01*
X318Y1435D02*
X341Y1435D01*
X256Y1434D02*
X278Y1434D01*
X319Y1434D02*
X342Y1434D01*
X255Y1433D02*
X277Y1433D01*
X320Y1433D02*
X342Y1433D01*
X255Y1432D02*
X276Y1432D01*
X321Y1432D02*
X342Y1432D01*
X254Y1431D02*
X275Y1431D01*
X322Y1431D02*
X343Y1431D01*
X254Y1430D02*
X274Y1430D01*
X323Y1430D02*
X343Y1430D01*
X254Y1429D02*
X274Y1429D01*
X324Y1429D02*
X343Y1429D01*
X253Y1428D02*
X273Y1428D01*
X324Y1428D02*
X344Y1428D01*
X253Y1427D02*
X272Y1427D01*
X325Y1427D02*
X344Y1427D01*
X253Y1426D02*
X272Y1426D01*
X325Y1426D02*
X344Y1426D01*
X253Y1425D02*
X271Y1425D01*
X326Y1425D02*
X344Y1425D01*
X253Y1424D02*
X271Y1424D01*
X326Y1424D02*
X345Y1424D01*
X252Y1423D02*
X271Y1423D01*
X327Y1423D02*
X345Y1423D01*
X252Y1422D02*
X270Y1422D01*
X327Y1422D02*
X345Y1422D01*
X252Y1421D02*
X270Y1421D01*
X327Y1421D02*
X345Y1421D01*
X252Y1420D02*
X270Y1420D01*
X327Y1420D02*
X345Y1420D01*
X252Y1419D02*
X270Y1419D01*
X328Y1419D02*
X345Y1419D01*
X252Y1418D02*
X270Y1418D01*
X328Y1418D02*
X345Y1418D01*
X252Y1417D02*
X269Y1417D01*
X328Y1417D02*
X345Y1417D01*
X252Y1416D02*
X269Y1416D01*
X328Y1416D02*
X346Y1416D01*
X252Y1415D02*
X269Y1415D01*
X328Y1415D02*
X346Y1415D01*
X252Y1414D02*
X269Y1414D01*
X328Y1414D02*
X346Y1414D01*
X252Y1413D02*
X269Y1413D01*
X328Y1413D02*
X346Y1413D01*
X252Y1412D02*
X269Y1412D01*
X328Y1412D02*
X346Y1412D01*
X252Y1411D02*
X269Y1411D01*
X328Y1411D02*
X345Y1411D01*
X252Y1410D02*
X270Y1410D01*
X328Y1410D02*
X345Y1410D01*
X252Y1409D02*
X270Y1409D01*
X328Y1409D02*
X345Y1409D01*
X252Y1408D02*
X270Y1408D01*
X328Y1408D02*
X345Y1408D01*
X252Y1407D02*
X270Y1407D01*
X327Y1407D02*
X345Y1407D01*
X252Y1406D02*
X270Y1406D01*
X327Y1406D02*
X345Y1406D01*
X252Y1405D02*
X271Y1405D01*
X327Y1405D02*
X345Y1405D01*
X252Y1404D02*
X271Y1404D01*
X326Y1404D02*
X345Y1404D01*
X253Y1403D02*
X271Y1403D01*
X326Y1403D02*
X344Y1403D01*
X253Y1402D02*
X272Y1402D01*
X326Y1402D02*
X344Y1402D01*
X253Y1401D02*
X272Y1401D01*
X325Y1401D02*
X344Y1401D01*
X253Y1400D02*
X273Y1400D01*
X325Y1400D02*
X344Y1400D01*
X254Y1399D02*
X273Y1399D01*
X324Y1399D02*
X343Y1399D01*
X254Y1398D02*
X274Y1398D01*
X323Y1398D02*
X343Y1398D01*
X254Y1397D02*
X275Y1397D01*
X323Y1397D02*
X343Y1397D01*
X255Y1396D02*
X276Y1396D01*
X322Y1396D02*
X342Y1396D01*
X255Y1395D02*
X277Y1395D01*
X321Y1395D02*
X342Y1395D01*
X256Y1394D02*
X278Y1394D01*
X320Y1394D02*
X342Y1394D01*
X256Y1393D02*
X279Y1393D01*
X319Y1393D02*
X341Y1393D01*
X256Y1392D02*
X280Y1392D01*
X317Y1392D02*
X341Y1392D01*
X257Y1391D02*
X282Y1391D01*
X316Y1391D02*
X340Y1391D01*
X258Y1390D02*
X284Y1390D01*
X314Y1390D02*
X340Y1390D01*
X258Y1389D02*
X286Y1389D01*
X311Y1389D02*
X339Y1389D01*
X259Y1388D02*
X289Y1388D01*
X308Y1388D02*
X338Y1388D01*
X259Y1387D02*
X338Y1387D01*
X260Y1386D02*
X337Y1386D01*
X261Y1385D02*
X336Y1385D01*
X261Y1384D02*
X336Y1384D01*
X262Y1383D02*
X335Y1383D01*
X263Y1382D02*
X334Y1382D01*
X264Y1381D02*
X333Y1381D01*
X265Y1380D02*
X332Y1380D01*
X266Y1379D02*
X331Y1379D01*
X267Y1378D02*
X330Y1378D01*
X268Y1377D02*
X329Y1377D01*
X269Y1376D02*
X328Y1376D01*
X271Y1375D02*
X327Y1375D01*
X272Y1374D02*
X325Y1374D01*
X273Y1373D02*
X324Y1373D01*
X275Y1372D02*
X322Y1372D01*
X277Y1371D02*
X320Y1371D01*
X279Y1370D02*
X318Y1370D01*
X281Y1369D02*
X316Y1369D01*
X284Y1368D02*
X313Y1368D01*
X288Y1367D02*
X309Y1367D01*
X294Y1366D02*
X303Y1366D01*
X254Y1350D02*
X272Y1350D01*
X254Y1349D02*
X272Y1349D01*
X254Y1348D02*
X272Y1348D01*
X254Y1347D02*
X272Y1347D01*
X254Y1346D02*
X272Y1346D01*
X254Y1345D02*
X272Y1345D01*
X254Y1344D02*
X272Y1344D01*
X220Y1343D02*
X343Y1343D01*
X207Y1342D02*
X343Y1342D01*
X203Y1341D02*
X343Y1341D01*
X200Y1340D02*
X343Y1340D01*
X198Y1339D02*
X343Y1339D01*
X197Y1338D02*
X343Y1338D01*
X195Y1337D02*
X343Y1337D01*
X194Y1336D02*
X343Y1336D01*
X193Y1335D02*
X343Y1335D01*
X192Y1334D02*
X343Y1334D01*
X191Y1333D02*
X306Y1333D01*
X314Y1333D02*
X343Y1333D01*
X191Y1332D02*
X303Y1332D01*
X317Y1332D02*
X343Y1332D01*
X190Y1331D02*
X301Y1331D01*
X319Y1331D02*
X343Y1331D01*
X189Y1330D02*
X299Y1330D01*
X321Y1330D02*
X343Y1330D01*
X189Y1329D02*
X298Y1329D01*
X322Y1329D02*
X343Y1329D01*
X188Y1328D02*
X297Y1328D01*
X323Y1328D02*
X343Y1328D01*
X188Y1327D02*
X296Y1327D01*
X324Y1327D02*
X343Y1327D01*
X188Y1326D02*
X296Y1326D01*
X324Y1326D02*
X343Y1326D01*
X187Y1325D02*
X295Y1325D01*
X325Y1325D02*
X343Y1325D01*
X187Y1324D02*
X295Y1324D01*
X326Y1324D02*
X343Y1324D01*
X187Y1323D02*
X294Y1323D01*
X326Y1323D02*
X343Y1323D01*
X186Y1322D02*
X218Y1322D01*
X254Y1322D02*
X273Y1322D01*
X186Y1321D02*
X211Y1321D01*
X254Y1321D02*
X272Y1321D01*
X186Y1320D02*
X208Y1320D01*
X254Y1320D02*
X272Y1320D01*
X186Y1319D02*
X207Y1319D01*
X254Y1319D02*
X272Y1319D01*
X186Y1318D02*
X206Y1318D01*
X254Y1318D02*
X272Y1318D01*
X186Y1317D02*
X205Y1317D01*
X254Y1317D02*
X272Y1317D01*
X186Y1316D02*
X205Y1316D01*
X254Y1316D02*
X272Y1316D01*
X186Y1315D02*
X205Y1315D01*
X254Y1315D02*
X272Y1315D01*
X186Y1314D02*
X205Y1314D01*
X254Y1314D02*
X272Y1314D01*
X186Y1313D02*
X204Y1313D01*
X254Y1313D02*
X272Y1313D01*
X186Y1312D02*
X204Y1312D01*
X254Y1312D02*
X272Y1312D01*
X186Y1311D02*
X205Y1311D01*
X254Y1311D02*
X272Y1311D01*
X186Y1310D02*
X205Y1310D01*
X254Y1310D02*
X272Y1310D01*
X186Y1309D02*
X205Y1309D01*
X254Y1309D02*
X272Y1309D01*
X186Y1308D02*
X205Y1308D01*
X254Y1308D02*
X272Y1308D01*
X186Y1307D02*
X206Y1307D01*
X254Y1307D02*
X272Y1307D01*
X187Y1306D02*
X206Y1306D01*
X254Y1306D02*
X272Y1306D01*
X187Y1305D02*
X206Y1305D01*
X254Y1305D02*
X272Y1305D01*
X187Y1304D02*
X207Y1304D01*
X254Y1304D02*
X272Y1304D01*
X187Y1303D02*
X207Y1303D01*
X254Y1303D02*
X272Y1303D01*
X188Y1302D02*
X208Y1302D01*
X254Y1302D02*
X272Y1302D01*
X188Y1301D02*
X208Y1301D01*
X254Y1301D02*
X272Y1301D01*
X189Y1300D02*
X209Y1300D01*
X254Y1300D02*
X272Y1300D01*
X254Y1287D02*
X272Y1287D01*
X254Y1286D02*
X272Y1286D01*
X254Y1285D02*
X272Y1285D01*
X254Y1284D02*
X272Y1284D01*
X254Y1283D02*
X272Y1283D01*
X254Y1282D02*
X272Y1282D01*
X254Y1281D02*
X272Y1281D01*
X210Y1280D02*
X343Y1280D01*
X205Y1279D02*
X343Y1279D01*
X201Y1278D02*
X343Y1278D01*
X199Y1277D02*
X343Y1277D01*
X197Y1276D02*
X343Y1276D01*
X196Y1275D02*
X343Y1275D01*
X195Y1274D02*
X343Y1274D01*
X194Y1273D02*
X343Y1273D01*
X193Y1272D02*
X343Y1272D01*
X192Y1271D02*
X343Y1271D01*
X191Y1270D02*
X343Y1270D01*
X190Y1269D02*
X343Y1269D01*
X190Y1268D02*
X343Y1268D01*
X189Y1267D02*
X343Y1267D01*
X189Y1266D02*
X343Y1266D01*
X188Y1265D02*
X343Y1265D01*
X188Y1264D02*
X343Y1264D01*
X187Y1263D02*
X343Y1263D01*
X187Y1262D02*
X343Y1262D01*
X187Y1261D02*
X343Y1261D01*
X186Y1260D02*
X343Y1260D01*
X186Y1259D02*
X213Y1259D01*
X254Y1259D02*
X272Y1259D01*
X186Y1258D02*
X209Y1258D01*
X254Y1258D02*
X272Y1258D01*
X186Y1257D02*
X207Y1257D01*
X254Y1257D02*
X272Y1257D01*
X186Y1256D02*
X206Y1256D01*
X254Y1256D02*
X272Y1256D01*
X186Y1255D02*
X206Y1255D01*
X254Y1255D02*
X272Y1255D01*
X186Y1254D02*
X205Y1254D01*
X254Y1254D02*
X272Y1254D01*
X186Y1253D02*
X205Y1253D01*
X254Y1253D02*
X272Y1253D01*
X186Y1252D02*
X205Y1252D01*
X254Y1252D02*
X272Y1252D01*
X185Y1251D02*
X205Y1251D01*
X254Y1251D02*
X272Y1251D01*
X186Y1250D02*
X204Y1250D01*
X254Y1250D02*
X272Y1250D01*
X186Y1249D02*
X205Y1249D01*
X254Y1249D02*
X272Y1249D01*
X186Y1248D02*
X205Y1248D01*
X254Y1248D02*
X272Y1248D01*
X186Y1247D02*
X205Y1247D01*
X254Y1247D02*
X272Y1247D01*
X186Y1246D02*
X205Y1246D01*
X254Y1246D02*
X272Y1246D01*
X186Y1245D02*
X205Y1245D01*
X254Y1245D02*
X272Y1245D01*
X186Y1244D02*
X206Y1244D01*
X254Y1244D02*
X272Y1244D01*
X187Y1243D02*
X206Y1243D01*
X254Y1243D02*
X272Y1243D01*
X187Y1242D02*
X207Y1242D01*
X254Y1242D02*
X272Y1242D01*
X187Y1241D02*
X207Y1241D01*
X254Y1241D02*
X272Y1241D01*
X188Y1240D02*
X207Y1240D01*
X254Y1240D02*
X272Y1240D01*
X188Y1239D02*
X208Y1239D01*
X254Y1239D02*
X272Y1239D01*
X188Y1238D02*
X208Y1238D01*
X254Y1238D02*
X272Y1238D01*
X189Y1237D02*
X208Y1237D01*
X255Y1237D02*
X272Y1237D01*
X324Y1230D02*
X326Y1230D01*
X324Y1229D02*
X328Y1229D01*
X323Y1228D02*
X329Y1228D01*
X323Y1227D02*
X331Y1227D01*
X274Y1226D02*
X282Y1226D01*
X322Y1226D02*
X332Y1226D01*
X270Y1225D02*
X286Y1225D01*
X322Y1225D02*
X334Y1225D01*
X267Y1224D02*
X288Y1224D01*
X321Y1224D02*
X335Y1224D01*
X265Y1223D02*
X290Y1223D01*
X321Y1223D02*
X336Y1223D01*
X264Y1222D02*
X292Y1222D01*
X320Y1222D02*
X337Y1222D01*
X262Y1221D02*
X293Y1221D01*
X320Y1221D02*
X338Y1221D01*
X261Y1220D02*
X294Y1220D01*
X319Y1220D02*
X339Y1220D01*
X260Y1219D02*
X295Y1219D01*
X319Y1219D02*
X340Y1219D01*
X259Y1218D02*
X295Y1218D01*
X318Y1218D02*
X340Y1218D01*
X258Y1217D02*
X296Y1217D01*
X318Y1217D02*
X341Y1217D01*
X257Y1216D02*
X297Y1216D01*
X318Y1216D02*
X341Y1216D01*
X257Y1215D02*
X298Y1215D01*
X317Y1215D02*
X342Y1215D01*
X256Y1214D02*
X298Y1214D01*
X317Y1214D02*
X343Y1214D01*
X255Y1213D02*
X299Y1213D01*
X317Y1213D02*
X343Y1213D01*
X255Y1212D02*
X299Y1212D01*
X318Y1212D02*
X343Y1212D01*
X254Y1211D02*
X300Y1211D01*
X320Y1211D02*
X344Y1211D01*
X254Y1210D02*
X300Y1210D01*
X322Y1210D02*
X344Y1210D01*
X253Y1209D02*
X301Y1209D01*
X323Y1209D02*
X344Y1209D01*
X253Y1208D02*
X301Y1208D01*
X324Y1208D02*
X345Y1208D01*
X253Y1207D02*
X302Y1207D01*
X325Y1207D02*
X345Y1207D01*
X252Y1206D02*
X273Y1206D01*
X280Y1206D02*
X302Y1206D01*
X326Y1206D02*
X345Y1206D01*
X252Y1205D02*
X271Y1205D01*
X281Y1205D02*
X303Y1205D01*
X326Y1205D02*
X345Y1205D01*
X252Y1204D02*
X271Y1204D01*
X282Y1204D02*
X303Y1204D01*
X327Y1204D02*
X345Y1204D01*
X252Y1203D02*
X270Y1203D01*
X283Y1203D02*
X304Y1203D01*
X327Y1203D02*
X345Y1203D01*
X252Y1202D02*
X270Y1202D01*
X283Y1202D02*
X304Y1202D01*
X328Y1202D02*
X345Y1202D01*
X252Y1201D02*
X269Y1201D01*
X284Y1201D02*
X305Y1201D01*
X328Y1201D02*
X345Y1201D01*
X252Y1200D02*
X269Y1200D01*
X285Y1200D02*
X305Y1200D01*
X328Y1200D02*
X346Y1200D01*
X252Y1199D02*
X269Y1199D01*
X285Y1199D02*
X306Y1199D01*
X328Y1199D02*
X346Y1199D01*
X252Y1198D02*
X269Y1198D01*
X286Y1198D02*
X306Y1198D01*
X328Y1198D02*
X346Y1198D01*
X252Y1197D02*
X270Y1197D01*
X286Y1197D02*
X307Y1197D01*
X328Y1197D02*
X346Y1197D01*
X252Y1196D02*
X270Y1196D01*
X287Y1196D02*
X307Y1196D01*
X328Y1196D02*
X345Y1196D01*
X252Y1195D02*
X271Y1195D01*
X287Y1195D02*
X308Y1195D01*
X328Y1195D02*
X345Y1195D01*
X252Y1194D02*
X272Y1194D01*
X288Y1194D02*
X309Y1194D01*
X327Y1194D02*
X345Y1194D01*
X252Y1193D02*
X273Y1193D01*
X288Y1193D02*
X309Y1193D01*
X327Y1193D02*
X345Y1193D01*
X252Y1192D02*
X274Y1192D01*
X288Y1192D02*
X310Y1192D01*
X327Y1192D02*
X345Y1192D01*
X252Y1191D02*
X276Y1191D01*
X289Y1191D02*
X311Y1191D01*
X326Y1191D02*
X345Y1191D01*
X253Y1190D02*
X277Y1190D01*
X289Y1190D02*
X312Y1190D01*
X325Y1190D02*
X345Y1190D01*
X253Y1189D02*
X277Y1189D01*
X290Y1189D02*
X314Y1189D01*
X323Y1189D02*
X344Y1189D01*
X254Y1188D02*
X277Y1188D01*
X290Y1188D02*
X344Y1188D01*
X254Y1187D02*
X276Y1187D01*
X291Y1187D02*
X344Y1187D01*
X254Y1186D02*
X275Y1186D01*
X291Y1186D02*
X343Y1186D01*
X255Y1185D02*
X275Y1185D01*
X292Y1185D02*
X343Y1185D01*
X256Y1184D02*
X274Y1184D01*
X292Y1184D02*
X342Y1184D01*
X256Y1183D02*
X274Y1183D01*
X293Y1183D02*
X342Y1183D01*
X257Y1182D02*
X273Y1182D01*
X293Y1182D02*
X341Y1182D01*
X258Y1181D02*
X273Y1181D01*
X294Y1181D02*
X341Y1181D01*
X259Y1180D02*
X272Y1180D01*
X295Y1180D02*
X340Y1180D01*
X260Y1179D02*
X272Y1179D01*
X295Y1179D02*
X339Y1179D01*
X261Y1178D02*
X271Y1178D01*
X296Y1178D02*
X339Y1178D01*
X262Y1177D02*
X271Y1177D01*
X297Y1177D02*
X338Y1177D01*
X264Y1176D02*
X270Y1176D01*
X297Y1176D02*
X337Y1176D01*
X265Y1175D02*
X270Y1175D01*
X298Y1175D02*
X336Y1175D01*
X267Y1174D02*
X269Y1174D01*
X299Y1174D02*
X335Y1174D01*
X300Y1173D02*
X334Y1173D01*
X301Y1172D02*
X332Y1172D01*
X302Y1171D02*
X331Y1171D01*
X304Y1170D02*
X329Y1170D01*
X306Y1169D02*
X327Y1169D01*
X308Y1168D02*
X324Y1168D01*
X314Y1167D02*
X319Y1167D01*
X293Y1152D02*
X304Y1152D01*
X286Y1151D02*
X311Y1151D01*
X282Y1150D02*
X315Y1150D01*
X279Y1149D02*
X318Y1149D01*
X276Y1148D02*
X321Y1148D01*
X274Y1147D02*
X323Y1147D01*
X272Y1146D02*
X325Y1146D01*
X271Y1145D02*
X326Y1145D01*
X269Y1144D02*
X328Y1144D01*
X268Y1143D02*
X329Y1143D01*
X266Y1142D02*
X330Y1142D01*
X265Y1141D02*
X332Y1141D01*
X264Y1140D02*
X333Y1140D01*
X263Y1139D02*
X334Y1139D01*
X262Y1138D02*
X335Y1138D01*
X261Y1137D02*
X336Y1137D01*
X260Y1136D02*
X336Y1136D01*
X260Y1135D02*
X337Y1135D01*
X259Y1134D02*
X338Y1134D01*
X258Y1133D02*
X339Y1133D01*
X258Y1132D02*
X339Y1132D01*
X257Y1131D02*
X340Y1131D01*
X256Y1130D02*
X303Y1130D01*
X308Y1130D02*
X340Y1130D01*
X256Y1129D02*
X285Y1129D01*
X287Y1129D02*
X303Y1129D01*
X312Y1129D02*
X341Y1129D01*
X255Y1128D02*
X282Y1128D01*
X287Y1128D02*
X303Y1128D01*
X315Y1128D02*
X341Y1128D01*
X255Y1127D02*
X280Y1127D01*
X287Y1127D02*
X303Y1127D01*
X316Y1127D02*
X342Y1127D01*
X255Y1126D02*
X279Y1126D01*
X287Y1126D02*
X303Y1126D01*
X318Y1126D02*
X342Y1126D01*
X254Y1125D02*
X277Y1125D01*
X287Y1125D02*
X303Y1125D01*
X320Y1125D02*
X343Y1125D01*
X254Y1124D02*
X276Y1124D01*
X287Y1124D02*
X303Y1124D01*
X321Y1124D02*
X343Y1124D01*
X254Y1123D02*
X275Y1123D01*
X287Y1123D02*
X303Y1123D01*
X322Y1123D02*
X343Y1123D01*
X253Y1122D02*
X274Y1122D01*
X287Y1122D02*
X303Y1122D01*
X323Y1122D02*
X344Y1122D01*
X253Y1121D02*
X273Y1121D01*
X287Y1121D02*
X303Y1121D01*
X324Y1121D02*
X344Y1121D01*
X253Y1120D02*
X273Y1120D01*
X287Y1120D02*
X303Y1120D01*
X324Y1120D02*
X344Y1120D01*
X253Y1119D02*
X272Y1119D01*
X287Y1119D02*
X303Y1119D01*
X325Y1119D02*
X344Y1119D01*
X252Y1118D02*
X272Y1118D01*
X287Y1118D02*
X303Y1118D01*
X325Y1118D02*
X345Y1118D01*
X252Y1117D02*
X271Y1117D01*
X287Y1117D02*
X303Y1117D01*
X326Y1117D02*
X345Y1117D01*
X252Y1116D02*
X271Y1116D01*
X287Y1116D02*
X303Y1116D01*
X326Y1116D02*
X345Y1116D01*
X252Y1115D02*
X270Y1115D01*
X287Y1115D02*
X303Y1115D01*
X327Y1115D02*
X345Y1115D01*
X252Y1114D02*
X270Y1114D01*
X287Y1114D02*
X303Y1114D01*
X327Y1114D02*
X345Y1114D01*
X252Y1113D02*
X270Y1113D01*
X287Y1113D02*
X303Y1113D01*
X327Y1113D02*
X345Y1113D01*
X252Y1112D02*
X270Y1112D01*
X287Y1112D02*
X303Y1112D01*
X328Y1112D02*
X345Y1112D01*
X252Y1111D02*
X269Y1111D01*
X287Y1111D02*
X303Y1111D01*
X328Y1111D02*
X345Y1111D01*
X252Y1110D02*
X269Y1110D01*
X287Y1110D02*
X303Y1110D01*
X328Y1110D02*
X345Y1110D01*
X252Y1109D02*
X269Y1109D01*
X287Y1109D02*
X303Y1109D01*
X328Y1109D02*
X346Y1109D01*
X252Y1108D02*
X269Y1108D01*
X287Y1108D02*
X303Y1108D01*
X328Y1108D02*
X346Y1108D01*
X252Y1107D02*
X269Y1107D01*
X287Y1107D02*
X303Y1107D01*
X328Y1107D02*
X346Y1107D01*
X252Y1106D02*
X269Y1106D01*
X287Y1106D02*
X303Y1106D01*
X328Y1106D02*
X346Y1106D01*
X252Y1105D02*
X270Y1105D01*
X287Y1105D02*
X303Y1105D01*
X328Y1105D02*
X345Y1105D01*
X252Y1104D02*
X270Y1104D01*
X287Y1104D02*
X303Y1104D01*
X328Y1104D02*
X345Y1104D01*
X252Y1103D02*
X270Y1103D01*
X287Y1103D02*
X303Y1103D01*
X328Y1103D02*
X345Y1103D01*
X252Y1102D02*
X270Y1102D01*
X287Y1102D02*
X303Y1102D01*
X328Y1102D02*
X345Y1102D01*
X252Y1101D02*
X270Y1101D01*
X287Y1101D02*
X303Y1101D01*
X327Y1101D02*
X345Y1101D01*
X252Y1100D02*
X271Y1100D01*
X287Y1100D02*
X303Y1100D01*
X327Y1100D02*
X345Y1100D01*
X252Y1099D02*
X271Y1099D01*
X287Y1099D02*
X303Y1099D01*
X327Y1099D02*
X345Y1099D01*
X253Y1098D02*
X271Y1098D01*
X287Y1098D02*
X303Y1098D01*
X326Y1098D02*
X345Y1098D01*
X253Y1097D02*
X272Y1097D01*
X287Y1097D02*
X303Y1097D01*
X326Y1097D02*
X345Y1097D01*
X253Y1096D02*
X273Y1096D01*
X287Y1096D02*
X303Y1096D01*
X325Y1096D02*
X344Y1096D01*
X253Y1095D02*
X273Y1095D01*
X287Y1095D02*
X303Y1095D01*
X325Y1095D02*
X344Y1095D01*
X254Y1094D02*
X274Y1094D01*
X287Y1094D02*
X303Y1094D01*
X324Y1094D02*
X344Y1094D01*
X254Y1093D02*
X275Y1093D01*
X287Y1093D02*
X303Y1093D01*
X323Y1093D02*
X344Y1093D01*
X254Y1092D02*
X276Y1092D01*
X287Y1092D02*
X303Y1092D01*
X322Y1092D02*
X343Y1092D01*
X255Y1091D02*
X278Y1091D01*
X287Y1091D02*
X303Y1091D01*
X321Y1091D02*
X343Y1091D01*
X255Y1090D02*
X279Y1090D01*
X287Y1090D02*
X303Y1090D01*
X320Y1090D02*
X343Y1090D01*
X256Y1089D02*
X281Y1089D01*
X287Y1089D02*
X303Y1089D01*
X319Y1089D02*
X342Y1089D01*
X256Y1088D02*
X284Y1088D01*
X287Y1088D02*
X303Y1088D01*
X318Y1088D02*
X342Y1088D01*
X257Y1087D02*
X303Y1087D01*
X317Y1087D02*
X341Y1087D01*
X257Y1086D02*
X303Y1086D01*
X315Y1086D02*
X341Y1086D01*
X258Y1085D02*
X303Y1085D01*
X314Y1085D02*
X340Y1085D01*
X258Y1084D02*
X303Y1084D01*
X312Y1084D02*
X340Y1084D01*
X259Y1083D02*
X303Y1083D01*
X311Y1083D02*
X339Y1083D01*
X260Y1082D02*
X303Y1082D01*
X311Y1082D02*
X338Y1082D01*
X261Y1081D02*
X303Y1081D01*
X312Y1081D02*
X338Y1081D01*
X262Y1080D02*
X303Y1080D01*
X312Y1080D02*
X337Y1080D01*
X263Y1079D02*
X303Y1079D01*
X313Y1079D02*
X336Y1079D01*
X264Y1078D02*
X303Y1078D01*
X313Y1078D02*
X335Y1078D01*
X265Y1077D02*
X303Y1077D01*
X314Y1077D02*
X334Y1077D01*
X266Y1076D02*
X303Y1076D01*
X314Y1076D02*
X333Y1076D01*
X267Y1075D02*
X303Y1075D01*
X315Y1075D02*
X332Y1075D01*
X269Y1074D02*
X303Y1074D01*
X316Y1074D02*
X332Y1074D01*
X270Y1073D02*
X303Y1073D01*
X316Y1073D02*
X330Y1073D01*
X272Y1072D02*
X303Y1072D01*
X317Y1072D02*
X329Y1072D01*
X274Y1071D02*
X303Y1071D01*
X317Y1071D02*
X328Y1071D01*
X276Y1070D02*
X303Y1070D01*
X318Y1070D02*
X327Y1070D01*
X279Y1069D02*
X303Y1069D01*
X318Y1069D02*
X325Y1069D01*
X282Y1068D02*
X303Y1068D01*
X319Y1068D02*
X324Y1068D01*
X287Y1067D02*
X303Y1067D01*
X319Y1067D02*
X322Y1067D01*
X298Y1066D02*
X300Y1066D01*
X320Y1066D02*
X321Y1066D01*
X254Y1049D02*
X272Y1049D01*
X254Y1048D02*
X272Y1048D01*
X254Y1047D02*
X272Y1047D01*
X254Y1046D02*
X272Y1046D01*
X254Y1045D02*
X272Y1045D01*
X254Y1044D02*
X272Y1044D01*
X254Y1043D02*
X272Y1043D01*
X254Y1042D02*
X272Y1042D01*
X254Y1041D02*
X273Y1041D01*
X221Y1040D02*
X343Y1040D01*
X221Y1039D02*
X343Y1039D01*
X221Y1038D02*
X343Y1038D01*
X221Y1037D02*
X343Y1037D01*
X221Y1036D02*
X343Y1036D01*
X221Y1035D02*
X343Y1035D01*
X221Y1034D02*
X343Y1034D01*
X221Y1033D02*
X343Y1033D01*
X221Y1032D02*
X343Y1032D01*
X221Y1031D02*
X343Y1031D01*
X221Y1030D02*
X343Y1030D01*
X221Y1029D02*
X343Y1029D01*
X221Y1028D02*
X343Y1028D01*
X221Y1027D02*
X343Y1027D01*
X221Y1026D02*
X343Y1026D01*
X221Y1025D02*
X343Y1025D01*
X221Y1024D02*
X343Y1024D01*
X221Y1023D02*
X343Y1023D01*
X221Y1022D02*
X343Y1022D01*
X221Y1021D02*
X343Y1021D01*
X254Y1020D02*
X273Y1020D01*
X254Y1019D02*
X272Y1019D01*
X254Y1018D02*
X272Y1018D01*
X254Y1017D02*
X272Y1017D01*
X254Y1016D02*
X272Y1016D01*
X254Y1015D02*
X272Y1015D01*
X254Y1014D02*
X272Y1014D01*
X254Y1013D02*
X272Y1013D01*
X254Y1012D02*
X272Y1012D01*
X254Y1011D02*
X272Y1011D01*
X254Y1010D02*
X272Y1010D01*
X254Y1009D02*
X272Y1009D01*
X254Y1008D02*
X272Y1008D01*
X254Y1007D02*
X272Y1007D01*
X254Y1006D02*
X272Y1006D01*
X254Y1005D02*
X272Y1005D01*
X254Y1004D02*
X272Y1004D01*
X372Y1003D02*
X375Y1003D01*
X370Y1002D02*
X375Y1002D01*
X368Y1001D02*
X376Y1001D01*
X366Y1000D02*
X376Y1000D01*
X363Y999D02*
X377Y999D01*
X361Y998D02*
X377Y998D01*
X359Y997D02*
X378Y997D01*
X356Y996D02*
X378Y996D01*
X354Y995D02*
X378Y995D01*
X352Y994D02*
X379Y994D01*
X349Y993D02*
X379Y993D01*
X347Y992D02*
X380Y992D01*
X345Y991D02*
X380Y991D01*
X342Y990D02*
X381Y990D01*
X340Y989D02*
X381Y989D01*
X338Y988D02*
X382Y988D01*
X335Y987D02*
X381Y987D01*
X333Y986D02*
X379Y986D01*
X331Y985D02*
X377Y985D01*
X328Y984D02*
X375Y984D01*
X326Y983D02*
X372Y983D01*
X324Y982D02*
X370Y982D01*
X322Y981D02*
X368Y981D01*
X319Y980D02*
X365Y980D01*
X317Y979D02*
X363Y979D01*
X315Y978D02*
X361Y978D01*
X312Y977D02*
X358Y977D01*
X310Y976D02*
X356Y976D01*
X308Y975D02*
X354Y975D01*
X305Y974D02*
X351Y974D01*
X303Y973D02*
X349Y973D01*
X301Y972D02*
X347Y972D01*
X298Y971D02*
X344Y971D01*
X296Y970D02*
X342Y970D01*
X294Y969D02*
X340Y969D01*
X291Y968D02*
X338Y968D01*
X289Y967D02*
X335Y967D01*
X287Y966D02*
X333Y966D01*
X284Y965D02*
X331Y965D01*
X282Y964D02*
X328Y964D01*
X280Y963D02*
X326Y963D01*
X277Y962D02*
X324Y962D01*
X275Y961D02*
X321Y961D01*
X273Y960D02*
X319Y960D01*
X271Y959D02*
X317Y959D01*
X268Y958D02*
X314Y958D01*
X266Y957D02*
X312Y957D01*
X264Y956D02*
X310Y956D01*
X261Y955D02*
X307Y955D01*
X259Y954D02*
X305Y954D01*
X257Y953D02*
X303Y953D01*
X254Y952D02*
X301Y952D01*
X252Y951D02*
X298Y951D01*
X250Y950D02*
X296Y950D01*
X247Y949D02*
X294Y949D01*
X245Y948D02*
X291Y948D01*
X243Y947D02*
X289Y947D01*
X240Y946D02*
X287Y946D01*
X238Y945D02*
X284Y945D01*
X236Y944D02*
X282Y944D01*
X233Y943D02*
X280Y943D01*
X231Y942D02*
X277Y942D01*
X229Y941D02*
X275Y941D01*
X227Y940D02*
X273Y940D01*
X224Y939D02*
X270Y939D01*
X222Y938D02*
X268Y938D01*
X220Y937D02*
X266Y937D01*
X217Y936D02*
X264Y936D01*
X215Y935D02*
X261Y935D01*
X213Y934D02*
X259Y934D01*
X210Y933D02*
X257Y933D01*
X208Y932D02*
X254Y932D01*
X206Y931D02*
X252Y931D01*
X203Y930D02*
X250Y930D01*
X201Y929D02*
X247Y929D01*
X199Y928D02*
X245Y928D01*
X196Y927D02*
X243Y927D01*
X194Y926D02*
X240Y926D01*
X192Y925D02*
X238Y925D01*
X189Y924D02*
X236Y924D01*
X187Y923D02*
X233Y923D01*
X187Y922D02*
X231Y922D01*
X187Y921D02*
X229Y921D01*
X188Y920D02*
X227Y920D01*
X188Y919D02*
X224Y919D01*
X188Y918D02*
X222Y918D01*
X189Y917D02*
X220Y917D01*
X189Y916D02*
X217Y916D01*
X190Y915D02*
X215Y915D01*
X190Y914D02*
X213Y914D01*
X191Y913D02*
X210Y913D01*
X191Y912D02*
X208Y912D01*
X192Y911D02*
X206Y911D01*
X192Y910D02*
X203Y910D01*
X192Y909D02*
X201Y909D01*
X193Y908D02*
X199Y908D01*
X193Y907D02*
X196Y907D01*
X194Y906D02*
X194Y906D01*
X297Y896D02*
X300Y896D01*
X288Y895D02*
X309Y895D01*
X283Y894D02*
X313Y894D01*
X280Y893D02*
X317Y893D01*
X278Y892D02*
X319Y892D01*
X275Y891D02*
X321Y891D01*
X274Y890D02*
X323Y890D01*
X272Y889D02*
X325Y889D01*
X270Y888D02*
X327Y888D01*
X269Y887D02*
X328Y887D01*
X268Y886D02*
X330Y886D01*
X266Y885D02*
X331Y885D01*
X265Y884D02*
X332Y884D01*
X264Y883D02*
X333Y883D01*
X263Y882D02*
X334Y882D01*
X262Y881D02*
X335Y881D01*
X261Y880D02*
X336Y880D01*
X260Y879D02*
X337Y879D01*
X260Y878D02*
X338Y878D01*
X259Y877D02*
X338Y877D01*
X258Y876D02*
X339Y876D01*
X257Y875D02*
X340Y875D01*
X257Y874D02*
X290Y874D01*
X307Y874D02*
X340Y874D01*
X256Y873D02*
X287Y873D01*
X311Y873D02*
X341Y873D01*
X256Y872D02*
X284Y872D01*
X313Y872D02*
X341Y872D01*
X255Y871D02*
X282Y871D01*
X315Y871D02*
X342Y871D01*
X255Y870D02*
X281Y870D01*
X317Y870D02*
X342Y870D01*
X254Y869D02*
X279Y869D01*
X318Y869D02*
X343Y869D01*
X254Y868D02*
X278Y868D01*
X320Y868D02*
X343Y868D01*
X254Y867D02*
X277Y867D01*
X321Y867D02*
X343Y867D01*
X253Y866D02*
X276Y866D01*
X322Y866D02*
X344Y866D01*
X253Y865D02*
X275Y865D01*
X323Y865D02*
X344Y865D01*
X253Y864D02*
X274Y864D01*
X323Y864D02*
X344Y864D01*
X253Y863D02*
X273Y863D01*
X324Y863D02*
X345Y863D01*
X252Y862D02*
X273Y862D01*
X325Y862D02*
X345Y862D01*
X252Y861D02*
X272Y861D01*
X325Y861D02*
X345Y861D01*
X252Y860D02*
X272Y860D01*
X326Y860D02*
X345Y860D01*
X252Y859D02*
X271Y859D01*
X326Y859D02*
X345Y859D01*
X252Y858D02*
X271Y858D01*
X327Y858D02*
X345Y858D01*
X252Y857D02*
X270Y857D01*
X327Y857D02*
X345Y857D01*
X252Y856D02*
X270Y856D01*
X327Y856D02*
X345Y856D01*
X252Y855D02*
X270Y855D01*
X328Y855D02*
X346Y855D01*
X252Y854D02*
X270Y854D01*
X328Y854D02*
X346Y854D01*
X252Y853D02*
X270Y853D01*
X328Y853D02*
X346Y853D01*
X252Y852D02*
X269Y852D01*
X328Y852D02*
X346Y852D01*
X252Y851D02*
X269Y851D01*
X328Y851D02*
X346Y851D01*
X252Y850D02*
X269Y850D01*
X328Y850D02*
X345Y850D01*
X252Y849D02*
X269Y849D01*
X328Y849D02*
X345Y849D01*
X252Y848D02*
X269Y848D01*
X328Y848D02*
X345Y848D01*
X252Y847D02*
X269Y847D01*
X328Y847D02*
X345Y847D01*
X252Y846D02*
X270Y846D01*
X328Y846D02*
X345Y846D01*
X253Y845D02*
X270Y845D01*
X328Y845D02*
X345Y845D01*
X253Y844D02*
X270Y844D01*
X327Y844D02*
X344Y844D01*
X253Y843D02*
X270Y843D01*
X327Y843D02*
X344Y843D01*
X253Y842D02*
X270Y842D01*
X327Y842D02*
X344Y842D01*
X254Y841D02*
X271Y841D01*
X327Y841D02*
X343Y841D01*
X254Y840D02*
X271Y840D01*
X326Y840D02*
X343Y840D01*
X255Y839D02*
X272Y839D01*
X326Y839D02*
X343Y839D01*
X255Y838D02*
X272Y838D01*
X325Y838D02*
X342Y838D01*
X256Y837D02*
X273Y837D01*
X325Y837D02*
X342Y837D01*
X256Y836D02*
X273Y836D01*
X324Y836D02*
X341Y836D01*
X257Y835D02*
X274Y835D01*
X323Y835D02*
X341Y835D01*
X257Y834D02*
X275Y834D01*
X323Y834D02*
X340Y834D01*
X258Y833D02*
X276Y833D01*
X322Y833D02*
X339Y833D01*
X259Y832D02*
X277Y832D01*
X321Y832D02*
X339Y832D01*
X260Y831D02*
X278Y831D01*
X320Y831D02*
X338Y831D01*
X260Y830D02*
X279Y830D01*
X318Y830D02*
X337Y830D01*
X261Y829D02*
X280Y829D01*
X317Y829D02*
X337Y829D01*
X262Y828D02*
X282Y828D01*
X315Y828D02*
X336Y828D01*
X263Y827D02*
X284Y827D01*
X313Y827D02*
X335Y827D01*
X264Y826D02*
X286Y826D01*
X311Y826D02*
X334Y826D01*
X254Y825D02*
X290Y825D01*
X307Y825D02*
X343Y825D01*
X254Y824D02*
X343Y824D01*
X254Y823D02*
X343Y823D01*
X254Y822D02*
X343Y822D01*
X254Y821D02*
X343Y821D01*
X254Y820D02*
X343Y820D01*
X254Y819D02*
X343Y819D01*
X254Y818D02*
X343Y818D01*
X254Y817D02*
X343Y817D01*
X254Y816D02*
X343Y816D01*
X254Y815D02*
X343Y815D01*
X254Y814D02*
X343Y814D01*
X254Y813D02*
X343Y813D01*
X254Y812D02*
X343Y812D01*
X254Y811D02*
X343Y811D01*
X254Y810D02*
X343Y810D01*
X254Y809D02*
X343Y809D01*
X254Y808D02*
X343Y808D01*
X254Y807D02*
X343Y807D01*
X254Y806D02*
X343Y806D01*
X254Y805D02*
X343Y805D01*
X254Y786D02*
X272Y786D01*
X254Y785D02*
X272Y785D01*
X254Y784D02*
X272Y784D01*
X254Y783D02*
X272Y783D01*
X254Y782D02*
X272Y782D01*
X254Y781D02*
X272Y781D01*
X254Y780D02*
X272Y780D01*
X254Y779D02*
X272Y779D01*
X254Y778D02*
X272Y778D01*
X221Y777D02*
X343Y777D01*
X221Y776D02*
X343Y776D01*
X221Y775D02*
X343Y775D01*
X221Y774D02*
X343Y774D01*
X221Y773D02*
X343Y773D01*
X221Y772D02*
X343Y772D01*
X221Y771D02*
X343Y771D01*
X221Y770D02*
X343Y770D01*
X221Y769D02*
X343Y769D01*
X221Y768D02*
X343Y768D01*
X221Y767D02*
X343Y767D01*
X221Y766D02*
X343Y766D01*
X221Y765D02*
X343Y765D01*
X221Y764D02*
X343Y764D01*
X221Y763D02*
X343Y763D01*
X221Y762D02*
X343Y762D01*
X221Y761D02*
X343Y761D01*
X221Y760D02*
X343Y760D01*
X221Y759D02*
X343Y759D01*
X221Y758D02*
X343Y758D01*
X221Y757D02*
X343Y757D01*
X254Y756D02*
X272Y756D01*
X254Y755D02*
X272Y755D01*
X254Y754D02*
X272Y754D01*
X254Y753D02*
X272Y753D01*
X254Y752D02*
X272Y752D01*
X254Y751D02*
X272Y751D01*
X254Y750D02*
X272Y750D01*
X254Y749D02*
X272Y749D01*
X254Y748D02*
X272Y748D01*
X254Y747D02*
X272Y747D01*
X254Y746D02*
X272Y746D01*
X254Y745D02*
X272Y745D01*
X254Y744D02*
X272Y744D01*
X254Y743D02*
X272Y743D01*
X254Y742D02*
X272Y742D01*
X254Y741D02*
X272Y741D01*
X254Y734D02*
X272Y734D01*
X254Y733D02*
X272Y733D01*
X254Y732D02*
X272Y732D01*
X254Y731D02*
X272Y731D01*
X254Y730D02*
X272Y730D01*
X254Y729D02*
X272Y729D01*
X254Y728D02*
X272Y728D01*
X254Y727D02*
X272Y727D01*
X254Y726D02*
X272Y726D01*
X221Y725D02*
X343Y725D01*
X221Y724D02*
X343Y724D01*
X221Y723D02*
X343Y723D01*
X221Y722D02*
X343Y722D01*
X221Y721D02*
X343Y721D01*
X221Y720D02*
X343Y720D01*
X221Y719D02*
X343Y719D01*
X221Y718D02*
X343Y718D01*
X221Y717D02*
X343Y717D01*
X221Y716D02*
X343Y716D01*
X221Y715D02*
X343Y715D01*
X221Y714D02*
X343Y714D01*
X221Y713D02*
X343Y713D01*
X221Y712D02*
X343Y712D01*
X221Y711D02*
X343Y711D01*
X221Y710D02*
X343Y710D01*
X221Y709D02*
X343Y709D01*
X221Y708D02*
X343Y708D01*
X221Y707D02*
X343Y707D01*
X221Y706D02*
X343Y706D01*
X221Y705D02*
X343Y705D01*
X254Y704D02*
X272Y704D01*
X254Y703D02*
X272Y703D01*
X254Y702D02*
X272Y702D01*
X254Y701D02*
X272Y701D01*
X254Y700D02*
X272Y700D01*
X254Y699D02*
X272Y699D01*
X254Y698D02*
X272Y698D01*
X254Y697D02*
X272Y697D01*
X254Y696D02*
X272Y696D01*
X254Y695D02*
X272Y695D01*
X254Y694D02*
X272Y694D01*
X254Y693D02*
X272Y693D01*
X254Y692D02*
X272Y692D01*
X254Y691D02*
X272Y691D01*
X254Y690D02*
X272Y690D01*
X254Y689D02*
X272Y689D01*
X289Y676D02*
X309Y676D01*
X284Y675D02*
X313Y675D01*
X280Y674D02*
X317Y674D01*
X278Y673D02*
X319Y673D01*
X275Y672D02*
X322Y672D01*
X273Y671D02*
X324Y671D01*
X271Y670D02*
X325Y670D01*
X270Y669D02*
X327Y669D01*
X268Y668D02*
X328Y668D01*
X267Y667D02*
X330Y667D01*
X266Y666D02*
X331Y666D01*
X265Y665D02*
X332Y665D01*
X264Y664D02*
X333Y664D01*
X263Y663D02*
X334Y663D01*
X262Y662D02*
X335Y662D01*
X261Y661D02*
X336Y661D01*
X260Y660D02*
X337Y660D01*
X259Y659D02*
X338Y659D01*
X259Y658D02*
X338Y658D01*
X258Y657D02*
X339Y657D01*
X257Y656D02*
X340Y656D01*
X257Y655D02*
X340Y655D01*
X256Y654D02*
X303Y654D01*
X310Y654D02*
X341Y654D01*
X256Y653D02*
X284Y653D01*
X287Y653D02*
X303Y653D01*
X313Y653D02*
X341Y653D01*
X255Y652D02*
X281Y652D01*
X287Y652D02*
X303Y652D01*
X316Y652D02*
X342Y652D01*
X255Y651D02*
X279Y651D01*
X287Y651D02*
X303Y651D01*
X317Y651D02*
X342Y651D01*
X254Y650D02*
X278Y650D01*
X287Y650D02*
X303Y650D01*
X319Y650D02*
X343Y650D01*
X254Y649D02*
X277Y649D01*
X287Y649D02*
X303Y649D01*
X320Y649D02*
X343Y649D01*
X254Y648D02*
X276Y648D01*
X287Y648D02*
X303Y648D01*
X321Y648D02*
X343Y648D01*
X253Y647D02*
X275Y647D01*
X287Y647D02*
X303Y647D01*
X322Y647D02*
X344Y647D01*
X253Y646D02*
X274Y646D01*
X287Y646D02*
X303Y646D01*
X323Y646D02*
X344Y646D01*
X253Y645D02*
X273Y645D01*
X287Y645D02*
X303Y645D01*
X324Y645D02*
X344Y645D01*
X253Y644D02*
X272Y644D01*
X287Y644D02*
X303Y644D01*
X325Y644D02*
X344Y644D01*
X252Y643D02*
X272Y643D01*
X287Y643D02*
X303Y643D01*
X325Y643D02*
X345Y643D01*
X252Y642D02*
X271Y642D01*
X287Y642D02*
X303Y642D01*
X326Y642D02*
X345Y642D01*
X252Y641D02*
X271Y641D01*
X287Y641D02*
X303Y641D01*
X326Y641D02*
X345Y641D01*
X252Y640D02*
X271Y640D01*
X287Y640D02*
X303Y640D01*
X327Y640D02*
X345Y640D01*
X252Y639D02*
X270Y639D01*
X287Y639D02*
X303Y639D01*
X327Y639D02*
X345Y639D01*
X252Y638D02*
X270Y638D01*
X287Y638D02*
X303Y638D01*
X327Y638D02*
X345Y638D01*
X252Y637D02*
X270Y637D01*
X287Y637D02*
X303Y637D01*
X327Y637D02*
X345Y637D01*
X252Y636D02*
X270Y636D01*
X287Y636D02*
X303Y636D01*
X328Y636D02*
X345Y636D01*
X252Y635D02*
X269Y635D01*
X287Y635D02*
X303Y635D01*
X328Y635D02*
X345Y635D01*
X252Y634D02*
X269Y634D01*
X287Y634D02*
X303Y634D01*
X328Y634D02*
X346Y634D01*
X252Y633D02*
X269Y633D01*
X287Y633D02*
X303Y633D01*
X328Y633D02*
X346Y633D01*
X252Y632D02*
X269Y632D01*
X287Y632D02*
X303Y632D01*
X328Y632D02*
X346Y632D01*
X252Y631D02*
X269Y631D01*
X287Y631D02*
X303Y631D01*
X328Y631D02*
X346Y631D01*
X252Y630D02*
X269Y630D01*
X287Y630D02*
X303Y630D01*
X328Y630D02*
X345Y630D01*
X252Y629D02*
X270Y629D01*
X287Y629D02*
X303Y629D01*
X328Y629D02*
X345Y629D01*
X252Y628D02*
X270Y628D01*
X287Y628D02*
X303Y628D01*
X328Y628D02*
X345Y628D01*
X252Y627D02*
X270Y627D01*
X287Y627D02*
X303Y627D01*
X328Y627D02*
X345Y627D01*
X252Y626D02*
X270Y626D01*
X287Y626D02*
X303Y626D01*
X327Y626D02*
X345Y626D01*
X252Y625D02*
X270Y625D01*
X287Y625D02*
X303Y625D01*
X327Y625D02*
X345Y625D01*
X252Y624D02*
X271Y624D01*
X287Y624D02*
X303Y624D01*
X327Y624D02*
X345Y624D01*
X253Y623D02*
X271Y623D01*
X287Y623D02*
X303Y623D01*
X327Y623D02*
X345Y623D01*
X253Y622D02*
X272Y622D01*
X287Y622D02*
X303Y622D01*
X326Y622D02*
X345Y622D01*
X253Y621D02*
X272Y621D01*
X287Y621D02*
X303Y621D01*
X326Y621D02*
X344Y621D01*
X253Y620D02*
X273Y620D01*
X287Y620D02*
X303Y620D01*
X325Y620D02*
X344Y620D01*
X254Y619D02*
X274Y619D01*
X287Y619D02*
X303Y619D01*
X325Y619D02*
X344Y619D01*
X254Y618D02*
X275Y618D01*
X287Y618D02*
X303Y618D01*
X324Y618D02*
X344Y618D01*
X254Y617D02*
X276Y617D01*
X287Y617D02*
X303Y617D01*
X323Y617D02*
X343Y617D01*
X255Y616D02*
X277Y616D01*
X287Y616D02*
X303Y616D01*
X322Y616D02*
X343Y616D01*
X255Y615D02*
X278Y615D01*
X287Y615D02*
X303Y615D01*
X321Y615D02*
X343Y615D01*
X255Y614D02*
X280Y614D01*
X287Y614D02*
X303Y614D01*
X320Y614D02*
X342Y614D01*
X256Y613D02*
X283Y613D01*
X287Y613D02*
X303Y613D01*
X319Y613D02*
X342Y613D01*
X256Y612D02*
X303Y612D01*
X317Y612D02*
X341Y612D01*
X257Y611D02*
X303Y611D01*
X316Y611D02*
X341Y611D01*
X258Y610D02*
X303Y610D01*
X315Y610D02*
X340Y610D01*
X258Y609D02*
X303Y609D01*
X313Y609D02*
X340Y609D01*
X259Y608D02*
X303Y608D01*
X312Y608D02*
X339Y608D01*
X260Y607D02*
X303Y607D01*
X311Y607D02*
X339Y607D01*
X260Y606D02*
X303Y606D01*
X311Y606D02*
X338Y606D01*
X261Y605D02*
X303Y605D01*
X312Y605D02*
X337Y605D01*
X262Y604D02*
X303Y604D01*
X312Y604D02*
X337Y604D01*
X263Y603D02*
X303Y603D01*
X313Y603D02*
X336Y603D01*
X264Y602D02*
X303Y602D01*
X314Y602D02*
X335Y602D01*
X265Y601D02*
X303Y601D01*
X314Y601D02*
X334Y601D01*
X267Y600D02*
X303Y600D01*
X315Y600D02*
X333Y600D01*
X268Y599D02*
X303Y599D01*
X315Y599D02*
X332Y599D01*
X269Y598D02*
X303Y598D01*
X316Y598D02*
X331Y598D01*
X271Y597D02*
X303Y597D01*
X316Y597D02*
X330Y597D01*
X273Y596D02*
X303Y596D01*
X317Y596D02*
X328Y596D01*
X275Y595D02*
X303Y595D01*
X318Y595D02*
X327Y595D01*
X277Y594D02*
X303Y594D01*
X318Y594D02*
X326Y594D01*
X280Y593D02*
X303Y593D01*
X319Y593D02*
X324Y593D01*
X284Y592D02*
X303Y592D01*
X319Y592D02*
X323Y592D01*
X290Y591D02*
X303Y591D01*
X320Y591D02*
X321Y591D01*
X254Y567D02*
X343Y567D01*
X254Y566D02*
X343Y566D01*
X254Y565D02*
X343Y565D01*
X254Y564D02*
X343Y564D01*
X254Y563D02*
X343Y563D01*
X254Y562D02*
X343Y562D01*
X254Y561D02*
X343Y561D01*
X254Y560D02*
X343Y560D01*
X254Y559D02*
X343Y559D01*
X254Y558D02*
X343Y558D01*
X254Y557D02*
X343Y557D01*
X254Y556D02*
X343Y556D01*
X254Y555D02*
X343Y555D01*
X254Y554D02*
X343Y554D01*
X254Y553D02*
X343Y553D01*
X254Y552D02*
X343Y552D01*
X254Y551D02*
X343Y551D01*
X254Y550D02*
X343Y550D01*
X254Y549D02*
X343Y549D01*
X254Y548D02*
X343Y548D01*
X262Y547D02*
X299Y547D01*
X261Y546D02*
X286Y546D01*
X260Y545D02*
X282Y545D01*
X260Y544D02*
X278Y544D01*
X259Y543D02*
X276Y543D01*
X258Y542D02*
X275Y542D01*
X257Y541D02*
X274Y541D01*
X257Y540D02*
X273Y540D01*
X256Y539D02*
X272Y539D01*
X256Y538D02*
X272Y538D01*
X255Y537D02*
X271Y537D01*
X255Y536D02*
X271Y536D01*
X254Y535D02*
X270Y535D01*
X254Y534D02*
X270Y534D01*
X253Y533D02*
X270Y533D01*
X253Y532D02*
X270Y532D01*
X253Y531D02*
X269Y531D01*
X252Y530D02*
X269Y530D01*
X252Y529D02*
X269Y529D01*
X252Y528D02*
X269Y528D01*
X252Y527D02*
X269Y527D01*
X252Y526D02*
X269Y526D01*
X252Y525D02*
X269Y525D01*
X252Y524D02*
X269Y524D01*
X252Y523D02*
X270Y523D01*
X252Y522D02*
X270Y522D01*
X252Y521D02*
X270Y521D01*
X252Y520D02*
X271Y520D01*
X252Y519D02*
X271Y519D01*
X252Y518D02*
X272Y518D01*
X252Y517D02*
X272Y517D01*
X252Y516D02*
X273Y516D01*
X252Y515D02*
X274Y515D01*
X252Y514D02*
X276Y514D01*
X253Y513D02*
X279Y513D01*
X253Y512D02*
X283Y512D01*
X253Y511D02*
X343Y511D01*
X253Y510D02*
X343Y510D01*
X254Y509D02*
X343Y509D01*
X254Y508D02*
X343Y508D01*
X255Y507D02*
X343Y507D01*
X255Y506D02*
X343Y506D01*
X256Y505D02*
X343Y505D01*
X256Y504D02*
X343Y504D01*
X257Y503D02*
X343Y503D01*
X258Y502D02*
X343Y502D01*
X258Y501D02*
X343Y501D01*
X259Y500D02*
X343Y500D01*
X260Y499D02*
X343Y499D01*
X261Y498D02*
X343Y498D01*
X263Y497D02*
X343Y497D01*
X264Y496D02*
X343Y496D01*
X266Y495D02*
X343Y495D01*
X268Y494D02*
X343Y494D01*
X270Y493D02*
X343Y493D01*
X274Y492D02*
X343Y492D01*
X279Y491D02*
X343Y491D01*
X255Y464D02*
X306Y464D01*
X254Y463D02*
X318Y463D01*
X254Y462D02*
X322Y462D01*
X254Y461D02*
X325Y461D01*
X254Y460D02*
X327Y460D01*
X254Y459D02*
X329Y459D01*
X254Y458D02*
X330Y458D01*
X254Y457D02*
X331Y457D01*
X254Y456D02*
X333Y456D01*
X254Y455D02*
X334Y455D01*
X254Y454D02*
X335Y454D01*
X254Y453D02*
X336Y453D01*
X254Y452D02*
X337Y452D01*
X254Y451D02*
X337Y451D01*
X254Y450D02*
X338Y450D01*
X254Y449D02*
X339Y449D01*
X254Y448D02*
X340Y448D01*
X254Y447D02*
X340Y447D01*
X254Y446D02*
X341Y446D01*
X254Y445D02*
X341Y445D01*
X254Y444D02*
X342Y444D01*
X310Y443D02*
X342Y443D01*
X316Y442D02*
X343Y442D01*
X319Y441D02*
X343Y441D01*
X320Y440D02*
X343Y440D01*
X322Y439D02*
X344Y439D01*
X323Y438D02*
X344Y438D01*
X324Y437D02*
X344Y437D01*
X325Y436D02*
X344Y436D01*
X326Y435D02*
X345Y435D01*
X326Y434D02*
X345Y434D01*
X327Y433D02*
X345Y433D01*
X327Y432D02*
X345Y432D01*
X327Y431D02*
X345Y431D01*
X328Y430D02*
X345Y430D01*
X328Y429D02*
X345Y429D01*
X328Y428D02*
X346Y428D01*
X328Y427D02*
X346Y427D01*
X328Y426D02*
X346Y426D01*
X328Y425D02*
X346Y425D01*
X328Y424D02*
X346Y424D01*
X328Y423D02*
X346Y423D01*
X328Y422D02*
X345Y422D01*
X328Y421D02*
X345Y421D01*
X327Y420D02*
X345Y420D01*
X327Y419D02*
X345Y419D01*
X327Y418D02*
X345Y418D01*
X326Y417D02*
X345Y417D01*
X326Y416D02*
X345Y416D01*
X325Y415D02*
X344Y415D01*
X324Y414D02*
X344Y414D01*
X323Y413D02*
X344Y413D01*
X322Y412D02*
X344Y412D01*
X320Y411D02*
X343Y411D01*
X318Y410D02*
X343Y410D01*
X315Y409D02*
X343Y409D01*
X307Y408D02*
X342Y408D01*
X254Y407D02*
X342Y407D01*
X254Y406D02*
X341Y406D01*
X254Y405D02*
X341Y405D01*
X254Y404D02*
X340Y404D01*
X254Y403D02*
X340Y403D01*
X254Y402D02*
X339Y402D01*
X254Y401D02*
X338Y401D01*
X254Y400D02*
X337Y400D01*
X254Y399D02*
X337Y399D01*
X254Y398D02*
X336Y398D01*
X254Y397D02*
X335Y397D01*
X254Y396D02*
X334Y396D01*
X254Y395D02*
X333Y395D01*
X254Y394D02*
X331Y394D01*
X254Y393D02*
X330Y393D01*
X254Y392D02*
X328Y392D01*
X254Y391D02*
X327Y391D01*
X254Y390D02*
X324Y390D01*
X254Y389D02*
X321Y389D01*
X254Y388D02*
X316Y388D01*
X296Y365D02*
X300Y365D01*
X287Y364D02*
X309Y364D01*
X283Y363D02*
X314Y363D01*
X280Y362D02*
X317Y362D01*
X278Y361D02*
X319Y361D01*
X275Y360D02*
X322Y360D01*
X274Y359D02*
X323Y359D01*
X272Y358D02*
X325Y358D01*
X270Y357D02*
X327Y357D01*
X269Y356D02*
X328Y356D01*
X267Y355D02*
X330Y355D01*
X266Y354D02*
X331Y354D01*
X265Y353D02*
X332Y353D01*
X264Y352D02*
X333Y352D01*
X263Y351D02*
X334Y351D01*
X262Y350D02*
X335Y350D01*
X261Y349D02*
X336Y349D01*
X260Y348D02*
X337Y348D01*
X259Y347D02*
X338Y347D01*
X259Y346D02*
X338Y346D01*
X258Y345D02*
X339Y345D01*
X257Y344D02*
X340Y344D01*
X257Y343D02*
X290Y343D01*
X307Y343D02*
X340Y343D01*
X256Y342D02*
X286Y342D01*
X311Y342D02*
X341Y342D01*
X256Y341D02*
X284Y341D01*
X313Y341D02*
X341Y341D01*
X255Y340D02*
X282Y340D01*
X315Y340D02*
X342Y340D01*
X255Y339D02*
X281Y339D01*
X317Y339D02*
X342Y339D01*
X254Y338D02*
X279Y338D01*
X318Y338D02*
X343Y338D01*
X254Y337D02*
X278Y337D01*
X320Y337D02*
X343Y337D01*
X254Y336D02*
X277Y336D01*
X321Y336D02*
X343Y336D01*
X253Y335D02*
X276Y335D01*
X322Y335D02*
X344Y335D01*
X253Y334D02*
X275Y334D01*
X323Y334D02*
X344Y334D01*
X253Y333D02*
X274Y333D01*
X323Y333D02*
X344Y333D01*
X253Y332D02*
X273Y332D01*
X324Y332D02*
X345Y332D01*
X252Y331D02*
X273Y331D01*
X325Y331D02*
X345Y331D01*
X252Y330D02*
X272Y330D01*
X325Y330D02*
X345Y330D01*
X252Y329D02*
X272Y329D01*
X326Y329D02*
X345Y329D01*
X252Y328D02*
X271Y328D01*
X326Y328D02*
X345Y328D01*
X252Y327D02*
X271Y327D01*
X327Y327D02*
X345Y327D01*
X252Y326D02*
X270Y326D01*
X327Y326D02*
X345Y326D01*
X252Y325D02*
X270Y325D01*
X327Y325D02*
X345Y325D01*
X252Y324D02*
X270Y324D01*
X328Y324D02*
X346Y324D01*
X252Y323D02*
X270Y323D01*
X328Y323D02*
X346Y323D01*
X252Y322D02*
X270Y322D01*
X328Y322D02*
X346Y322D01*
X252Y321D02*
X269Y321D01*
X328Y321D02*
X346Y321D01*
X252Y320D02*
X269Y320D01*
X328Y320D02*
X345Y320D01*
X252Y319D02*
X269Y319D01*
X328Y319D02*
X345Y319D01*
X252Y318D02*
X269Y318D01*
X328Y318D02*
X345Y318D01*
X252Y317D02*
X269Y317D01*
X328Y317D02*
X345Y317D01*
X252Y316D02*
X269Y316D01*
X328Y316D02*
X345Y316D01*
X252Y315D02*
X270Y315D01*
X328Y315D02*
X345Y315D01*
X253Y314D02*
X270Y314D01*
X328Y314D02*
X345Y314D01*
X253Y313D02*
X270Y313D01*
X327Y313D02*
X344Y313D01*
X253Y312D02*
X270Y312D01*
X327Y312D02*
X344Y312D01*
X253Y311D02*
X270Y311D01*
X327Y311D02*
X344Y311D01*
X254Y310D02*
X271Y310D01*
X327Y310D02*
X343Y310D01*
X254Y309D02*
X271Y309D01*
X326Y309D02*
X343Y309D01*
X255Y308D02*
X272Y308D01*
X326Y308D02*
X343Y308D01*
X255Y307D02*
X272Y307D01*
X325Y307D02*
X342Y307D01*
X256Y306D02*
X273Y306D01*
X325Y306D02*
X342Y306D01*
X256Y305D02*
X273Y305D01*
X324Y305D02*
X341Y305D01*
X257Y304D02*
X274Y304D01*
X323Y304D02*
X341Y304D01*
X257Y303D02*
X275Y303D01*
X323Y303D02*
X340Y303D01*
X258Y302D02*
X276Y302D01*
X322Y302D02*
X339Y302D01*
X259Y301D02*
X277Y301D01*
X321Y301D02*
X339Y301D01*
X260Y300D02*
X278Y300D01*
X320Y300D02*
X338Y300D01*
X260Y299D02*
X279Y299D01*
X318Y299D02*
X337Y299D01*
X261Y298D02*
X280Y298D01*
X317Y298D02*
X337Y298D01*
X262Y297D02*
X282Y297D01*
X315Y297D02*
X336Y297D01*
X263Y296D02*
X284Y296D01*
X313Y296D02*
X335Y296D01*
X264Y295D02*
X287Y295D01*
X311Y295D02*
X334Y295D01*
X254Y294D02*
X290Y294D01*
X307Y294D02*
X343Y294D01*
X254Y293D02*
X343Y293D01*
X254Y292D02*
X343Y292D01*
X254Y291D02*
X343Y291D01*
X254Y290D02*
X343Y290D01*
X254Y289D02*
X343Y289D01*
X254Y288D02*
X343Y288D01*
X254Y287D02*
X343Y287D01*
X254Y286D02*
X343Y286D01*
X254Y285D02*
X343Y285D01*
X254Y284D02*
X343Y284D01*
X254Y283D02*
X343Y283D01*
X254Y282D02*
X343Y282D01*
X254Y281D02*
X343Y281D01*
X254Y280D02*
X343Y280D01*
X254Y279D02*
X343Y279D01*
X254Y278D02*
X343Y278D01*
X254Y277D02*
X343Y277D01*
X254Y276D02*
X343Y276D01*
X254Y275D02*
X343Y275D01*
X254Y274D02*
X343Y274D01*
X254Y255D02*
X272Y255D01*
X254Y254D02*
X272Y254D01*
X254Y253D02*
X272Y253D01*
X254Y252D02*
X272Y252D01*
X254Y251D02*
X272Y251D01*
X254Y250D02*
X272Y250D01*
X254Y249D02*
X272Y249D01*
X254Y248D02*
X272Y248D01*
X254Y247D02*
X272Y247D01*
X221Y246D02*
X343Y246D01*
X221Y245D02*
X343Y245D01*
X221Y244D02*
X343Y244D01*
X221Y243D02*
X343Y243D01*
X221Y242D02*
X343Y242D01*
X221Y241D02*
X343Y241D01*
X221Y240D02*
X343Y240D01*
X221Y239D02*
X343Y239D01*
X221Y238D02*
X343Y238D01*
X221Y237D02*
X343Y237D01*
X221Y236D02*
X343Y236D01*
X221Y235D02*
X343Y235D01*
X221Y234D02*
X343Y234D01*
X221Y233D02*
X343Y233D01*
X221Y232D02*
X343Y232D01*
X221Y231D02*
X343Y231D01*
X221Y230D02*
X343Y230D01*
X221Y229D02*
X343Y229D01*
X221Y228D02*
X343Y228D01*
X221Y227D02*
X343Y227D01*
X221Y226D02*
X343Y226D01*
X254Y225D02*
X272Y225D01*
X254Y224D02*
X272Y224D01*
X254Y223D02*
X272Y223D01*
X254Y222D02*
X272Y222D01*
X254Y221D02*
X272Y221D01*
X254Y220D02*
X272Y220D01*
X254Y219D02*
X272Y219D01*
X254Y218D02*
X272Y218D01*
X254Y217D02*
X272Y217D01*
X254Y216D02*
X272Y216D01*
X254Y215D02*
X272Y215D01*
X254Y214D02*
X272Y214D01*
X254Y213D02*
X272Y213D01*
X254Y212D02*
X272Y212D01*
X254Y211D02*
X272Y211D01*
X254Y210D02*
X272Y210D01*
X289Y197D02*
X308Y197D01*
X285Y196D02*
X312Y196D01*
X282Y195D02*
X315Y195D01*
X279Y194D02*
X318Y194D01*
X277Y193D02*
X320Y193D01*
X275Y192D02*
X322Y192D01*
X274Y191D02*
X323Y191D01*
X272Y190D02*
X325Y190D01*
X271Y189D02*
X326Y189D01*
X270Y188D02*
X328Y188D01*
X268Y187D02*
X329Y187D01*
X267Y186D02*
X330Y186D01*
X266Y185D02*
X331Y185D01*
X265Y184D02*
X332Y184D01*
X264Y183D02*
X333Y183D01*
X263Y182D02*
X334Y182D01*
X263Y181D02*
X335Y181D01*
X262Y180D02*
X336Y180D01*
X261Y179D02*
X336Y179D01*
X260Y178D02*
X337Y178D01*
X259Y177D02*
X338Y177D01*
X259Y176D02*
X291Y176D01*
X307Y176D02*
X338Y176D01*
X258Y175D02*
X287Y175D01*
X311Y175D02*
X339Y175D01*
X258Y174D02*
X284Y174D01*
X313Y174D02*
X340Y174D01*
X257Y173D02*
X282Y173D01*
X315Y173D02*
X340Y173D01*
X257Y172D02*
X281Y172D01*
X317Y172D02*
X341Y172D01*
X256Y171D02*
X279Y171D01*
X318Y171D02*
X341Y171D01*
X256Y170D02*
X278Y170D01*
X319Y170D02*
X342Y170D01*
X255Y169D02*
X277Y169D01*
X321Y169D02*
X342Y169D01*
X255Y168D02*
X276Y168D01*
X322Y168D02*
X342Y168D01*
X254Y167D02*
X275Y167D01*
X322Y167D02*
X343Y167D01*
X254Y166D02*
X274Y166D01*
X323Y166D02*
X343Y166D01*
X254Y165D02*
X274Y165D01*
X324Y165D02*
X344Y165D01*
X253Y164D02*
X273Y164D01*
X324Y164D02*
X344Y164D01*
X253Y163D02*
X272Y163D01*
X325Y163D02*
X344Y163D01*
X253Y162D02*
X272Y162D01*
X326Y162D02*
X344Y162D01*
X253Y161D02*
X271Y161D01*
X326Y161D02*
X345Y161D01*
X252Y160D02*
X271Y160D01*
X326Y160D02*
X345Y160D01*
X252Y159D02*
X271Y159D01*
X327Y159D02*
X345Y159D01*
X252Y158D02*
X270Y158D01*
X327Y158D02*
X345Y158D01*
X252Y157D02*
X270Y157D01*
X327Y157D02*
X345Y157D01*
X252Y156D02*
X270Y156D01*
X327Y156D02*
X345Y156D01*
X252Y155D02*
X270Y155D01*
X328Y155D02*
X345Y155D01*
X252Y154D02*
X270Y154D01*
X328Y154D02*
X345Y154D01*
X252Y153D02*
X269Y153D01*
X328Y153D02*
X345Y153D01*
X252Y152D02*
X269Y152D01*
X328Y152D02*
X346Y152D01*
X252Y151D02*
X269Y151D01*
X328Y151D02*
X346Y151D01*
X252Y150D02*
X269Y150D01*
X328Y150D02*
X346Y150D01*
X252Y149D02*
X269Y149D01*
X328Y149D02*
X346Y149D01*
X252Y148D02*
X269Y148D01*
X328Y148D02*
X346Y148D01*
X252Y147D02*
X269Y147D01*
X328Y147D02*
X345Y147D01*
X252Y146D02*
X270Y146D01*
X328Y146D02*
X345Y146D01*
X252Y145D02*
X270Y145D01*
X328Y145D02*
X345Y145D01*
X252Y144D02*
X270Y144D01*
X327Y144D02*
X345Y144D01*
X252Y143D02*
X270Y143D01*
X327Y143D02*
X345Y143D01*
X252Y142D02*
X270Y142D01*
X327Y142D02*
X345Y142D01*
X252Y141D02*
X271Y141D01*
X327Y141D02*
X345Y141D01*
X252Y140D02*
X271Y140D01*
X326Y140D02*
X345Y140D01*
X253Y139D02*
X271Y139D01*
X326Y139D02*
X344Y139D01*
X253Y138D02*
X272Y138D01*
X326Y138D02*
X344Y138D01*
X253Y137D02*
X272Y137D01*
X325Y137D02*
X344Y137D01*
X253Y136D02*
X273Y136D01*
X325Y136D02*
X344Y136D01*
X254Y135D02*
X273Y135D01*
X324Y135D02*
X343Y135D01*
X254Y134D02*
X274Y134D01*
X323Y134D02*
X343Y134D01*
X254Y133D02*
X275Y133D01*
X322Y133D02*
X343Y133D01*
X255Y132D02*
X276Y132D01*
X322Y132D02*
X342Y132D01*
X255Y131D02*
X277Y131D01*
X321Y131D02*
X342Y131D01*
X256Y130D02*
X278Y130D01*
X320Y130D02*
X342Y130D01*
X256Y129D02*
X279Y129D01*
X318Y129D02*
X341Y129D01*
X257Y128D02*
X280Y128D01*
X317Y128D02*
X341Y128D01*
X257Y127D02*
X282Y127D01*
X315Y127D02*
X340Y127D01*
X258Y126D02*
X284Y126D01*
X313Y126D02*
X340Y126D01*
X258Y125D02*
X286Y125D01*
X311Y125D02*
X339Y125D01*
X259Y124D02*
X290Y124D01*
X307Y124D02*
X338Y124D01*
X259Y123D02*
X338Y123D01*
X260Y122D02*
X337Y122D01*
X261Y121D02*
X336Y121D01*
X262Y120D02*
X336Y120D01*
X262Y119D02*
X335Y119D01*
X263Y118D02*
X334Y118D01*
X264Y117D02*
X333Y117D01*
X265Y116D02*
X332Y116D01*
X266Y115D02*
X331Y115D01*
X267Y114D02*
X330Y114D01*
X268Y113D02*
X329Y113D01*
X270Y112D02*
X328Y112D01*
X271Y111D02*
X326Y111D01*
X272Y110D02*
X325Y110D01*
X274Y109D02*
X323Y109D01*
X275Y108D02*
X322Y108D01*
X277Y107D02*
X320Y107D01*
X279Y106D02*
X318Y106D01*
X282Y105D02*
X316Y105D01*
X285Y104D02*
X313Y104D01*
X289Y103D02*
X309Y103D01*
X298Y102D02*
X300Y102D01*
X254Y79D02*
X343Y79D01*
X254Y78D02*
X343Y78D01*
X254Y77D02*
X343Y77D01*
X254Y76D02*
X343Y76D01*
X254Y75D02*
X343Y75D01*
X254Y74D02*
X343Y74D01*
X254Y73D02*
X343Y73D01*
X254Y72D02*
X343Y72D01*
X254Y71D02*
X343Y71D01*
X254Y70D02*
X343Y70D01*
X254Y69D02*
X343Y69D01*
X254Y68D02*
X343Y68D01*
X254Y67D02*
X343Y67D01*
X254Y66D02*
X343Y66D01*
X254Y65D02*
X343Y65D01*
X254Y64D02*
X343Y64D01*
X254Y63D02*
X343Y63D01*
X254Y62D02*
X343Y62D01*
X254Y61D02*
X343Y61D01*
X254Y60D02*
X343Y60D01*
X261Y59D02*
X296Y59D01*
X261Y58D02*
X285Y58D01*
X260Y57D02*
X282Y57D01*
X259Y56D02*
X279Y56D01*
X258Y55D02*
X278Y55D01*
X257Y54D02*
X276Y54D01*
X257Y53D02*
X275Y53D01*
X256Y52D02*
X274Y52D01*
X255Y51D02*
X273Y51D01*
X254Y50D02*
X273Y50D01*
X254Y49D02*
X272Y49D01*
X253Y48D02*
X272Y48D01*
X253Y47D02*
X271Y47D01*
X253Y46D02*
X271Y46D01*
X252Y45D02*
X271Y45D01*
X252Y44D02*
X271Y44D01*
X252Y43D02*
X271Y43D01*
X252Y42D02*
X271Y42D01*
X252Y41D02*
X271Y41D01*
X252Y40D02*
X271Y40D01*
X252Y39D02*
X271Y39D01*
X252Y38D02*
X271Y38D01*
X252Y37D02*
X272Y37D01*
X252Y36D02*
X272Y36D01*
X252Y35D02*
X272Y35D01*
X252Y34D02*
X273Y34D01*
X252Y33D02*
X273Y33D01*
X252Y32D02*
X274Y32D01*
X253Y31D02*
X275Y31D01*
X253Y30D02*
X274Y30D01*
X253Y29D02*
X272Y29D01*
X254Y28D02*
X270Y28D01*
X254Y27D02*
X268Y27D01*
X254Y26D02*
X266Y26D01*
X255Y25D02*
X264Y25D01*
X255Y24D02*
X262Y24D01*
X256Y23D02*
X260Y23D01*
X256Y22D02*
X258Y22D01*
D02*
G04 End of Silk0*
M02*