G04 MADE WITH FRITZING*
G04 WWW.FRITZING.ORG*
G04 DOUBLE SIDED*
G04 HOLES PLATED*
G04 CONTOUR ON CENTER OF CONTOUR VECTOR*
%ASAXBY*%
%FSLAX23Y23*%
%MOIN*%
%OFA0B0*%
%SFA1.0B1.0*%
%ADD10C,0.075000*%
%ADD11C,0.086614*%
%ADD12C,0.086555*%
%ADD13C,0.070232*%
%ADD14C,0.070866*%
%ADD15C,0.102677*%
%ADD16C,0.078000*%
%ADD17C,0.039370*%
%ADD18R,0.086614X0.086614*%
%ADD19R,0.078000X0.078000*%
%ADD20C,0.024000*%
%ADD21C,0.012000*%
%ADD22R,0.001000X0.001000*%
%LNCOPPER1*%
G90*
G70*
G54D10*
X189Y3843D03*
X309Y3451D03*
X317Y2804D03*
X89Y2028D03*
X482Y1159D03*
X465Y360D03*
X114Y1155D03*
G54D11*
X492Y885D03*
G54D12*
X164Y883D03*
G54D13*
X62Y883D03*
G54D11*
X492Y84D03*
G54D12*
X164Y81D03*
G54D13*
X62Y81D03*
G54D11*
X492Y1283D03*
G54D12*
X164Y1281D03*
G54D13*
X62Y1281D03*
G54D11*
X492Y482D03*
G54D12*
X164Y479D03*
G54D13*
X62Y479D03*
G54D14*
X193Y1605D03*
X291Y1605D03*
X390Y1605D03*
G54D15*
X73Y1901D03*
X510Y1901D03*
G54D14*
X390Y1605D03*
X193Y1605D03*
G54D15*
X73Y1901D03*
X510Y1901D03*
G54D14*
X291Y1605D03*
X193Y2252D03*
X291Y2252D03*
X390Y2252D03*
G54D15*
X73Y2547D03*
X510Y2547D03*
G54D14*
X390Y2252D03*
X193Y2252D03*
G54D15*
X73Y2547D03*
X510Y2547D03*
G54D14*
X291Y2252D03*
X193Y2904D03*
X291Y2904D03*
X390Y2904D03*
G54D15*
X73Y3200D03*
X510Y3200D03*
G54D14*
X390Y2904D03*
X193Y2904D03*
G54D15*
X73Y3200D03*
X510Y3200D03*
G54D14*
X291Y2904D03*
X197Y3550D03*
X295Y3550D03*
X394Y3550D03*
G54D15*
X77Y3845D03*
X514Y3845D03*
G54D14*
X394Y3550D03*
X197Y3550D03*
G54D15*
X77Y3845D03*
X514Y3845D03*
G54D14*
X295Y3550D03*
G54D16*
X67Y1418D03*
X67Y1518D03*
X67Y1618D03*
X67Y1418D03*
X67Y1518D03*
X67Y1618D03*
X67Y2803D03*
X67Y2903D03*
X67Y3003D03*
X67Y2803D03*
X67Y2903D03*
X67Y3003D03*
X67Y2138D03*
X67Y2238D03*
X67Y2338D03*
X67Y2138D03*
X67Y2238D03*
X67Y2338D03*
G54D17*
X468Y2681D03*
X354Y1488D03*
G54D18*
X492Y885D03*
X492Y84D03*
X492Y1283D03*
X492Y482D03*
G54D19*
X67Y1418D03*
X67Y1418D03*
X67Y2803D03*
X67Y2803D03*
X67Y2138D03*
X67Y2138D03*
G54D20*
X98Y1281D02*
X122Y1281D01*
D02*
X98Y479D02*
X122Y479D01*
G54D21*
D02*
X492Y1681D02*
X492Y1320D01*
D02*
X422Y2862D02*
X425Y2331D01*
D02*
X406Y1584D02*
X416Y1570D01*
D02*
X416Y1570D02*
X421Y555D01*
D02*
X421Y555D02*
X466Y508D01*
D02*
X430Y1739D02*
X492Y1681D01*
D02*
X425Y1981D02*
X430Y1739D01*
D02*
X496Y2093D02*
X425Y1981D01*
D02*
X496Y2259D02*
X496Y2093D01*
D02*
X425Y2331D02*
X496Y2259D01*
D02*
X406Y2883D02*
X422Y2862D01*
D02*
X319Y1513D02*
X103Y1513D01*
D02*
X103Y1513D02*
X91Y1514D01*
D02*
X343Y1496D02*
X319Y1513D01*
D02*
X114Y1453D02*
X87Y1433D01*
D02*
X312Y1453D02*
X114Y1453D01*
D02*
X390Y1370D02*
X312Y1453D01*
D02*
X394Y155D02*
X390Y1370D01*
D02*
X462Y105D02*
X394Y155D01*
D02*
X292Y1621D02*
X292Y1632D01*
D02*
X157Y1745D02*
X292Y1621D01*
D02*
X153Y2075D02*
X157Y1745D01*
D02*
X87Y2124D02*
X153Y2075D01*
D02*
X88Y2225D02*
X161Y2181D01*
D02*
X241Y2181D02*
X275Y2230D01*
D02*
X161Y2181D02*
X241Y2181D01*
D02*
X153Y3086D02*
X84Y3020D01*
D02*
X153Y3410D02*
X153Y3086D01*
D02*
X276Y3531D02*
X153Y3410D01*
D02*
X153Y2418D02*
X153Y2748D01*
D02*
X153Y2748D02*
X295Y2886D01*
D02*
X295Y2886D02*
X296Y2878D01*
D02*
X85Y2355D02*
X153Y2418D01*
G54D20*
D02*
X492Y2969D02*
X443Y3015D01*
D02*
X492Y2713D02*
X492Y2969D01*
D02*
X479Y2697D02*
X492Y2713D01*
D02*
X62Y919D02*
X62Y1245D01*
D02*
X62Y846D02*
X62Y516D01*
D02*
X62Y443D02*
X62Y117D01*
D02*
X85Y1604D02*
X160Y1605D01*
D02*
X90Y1600D02*
X85Y1604D01*
D02*
X188Y2886D02*
X185Y2872D01*
D02*
X105Y2804D02*
X188Y2886D01*
D02*
X97Y2804D02*
X105Y2804D01*
D02*
X430Y3033D02*
X443Y3015D01*
D02*
X430Y3508D02*
X430Y3033D01*
D02*
X443Y3015D02*
X185Y3017D01*
D02*
X185Y3017D02*
X88Y2924D01*
D02*
X415Y3525D02*
X430Y3508D01*
G36*
X128Y3897D02*
X128Y3877D01*
X130Y3877D01*
X130Y3873D01*
X132Y3873D01*
X132Y3869D01*
X134Y3869D01*
X134Y3863D01*
X136Y3863D01*
X136Y3855D01*
X138Y3855D01*
X138Y3835D01*
X136Y3835D01*
X136Y3827D01*
X134Y3827D01*
X134Y3821D01*
X132Y3821D01*
X132Y3817D01*
X130Y3817D01*
X130Y3813D01*
X128Y3813D01*
X128Y3811D01*
X126Y3811D01*
X126Y3807D01*
X124Y3807D01*
X124Y3805D01*
X122Y3805D01*
X122Y3803D01*
X120Y3803D01*
X120Y3801D01*
X118Y3801D01*
X118Y3799D01*
X116Y3799D01*
X116Y3797D01*
X114Y3797D01*
X114Y3795D01*
X110Y3795D01*
X110Y3793D01*
X108Y3793D01*
X108Y3791D01*
X104Y3791D01*
X104Y3789D01*
X100Y3789D01*
X100Y3787D01*
X92Y3787D01*
X92Y3785D01*
X82Y3785D01*
X82Y3783D01*
X508Y3783D01*
X508Y3785D01*
X498Y3785D01*
X498Y3787D01*
X492Y3787D01*
X492Y3789D01*
X486Y3789D01*
X486Y3791D01*
X482Y3791D01*
X482Y3793D01*
X480Y3793D01*
X480Y3795D01*
X476Y3795D01*
X476Y3797D01*
X474Y3797D01*
X474Y3799D01*
X472Y3799D01*
X472Y3801D01*
X470Y3801D01*
X470Y3803D01*
X468Y3803D01*
X468Y3805D01*
X466Y3805D01*
X466Y3807D01*
X464Y3807D01*
X464Y3811D01*
X462Y3811D01*
X462Y3813D01*
X460Y3813D01*
X460Y3817D01*
X458Y3817D01*
X458Y3821D01*
X456Y3821D01*
X456Y3827D01*
X454Y3827D01*
X454Y3837D01*
X452Y3837D01*
X452Y3853D01*
X454Y3853D01*
X454Y3863D01*
X456Y3863D01*
X456Y3869D01*
X458Y3869D01*
X458Y3873D01*
X460Y3873D01*
X460Y3877D01*
X462Y3877D01*
X462Y3897D01*
X128Y3897D01*
G37*
D02*
G36*
X40Y3787D02*
X40Y3783D01*
X70Y3783D01*
X70Y3785D01*
X60Y3785D01*
X60Y3787D01*
X40Y3787D01*
G37*
D02*
G36*
X40Y3783D02*
X40Y3781D01*
X530Y3781D01*
X530Y3783D01*
X40Y3783D01*
G37*
D02*
G36*
X40Y3783D02*
X40Y3781D01*
X530Y3781D01*
X530Y3783D01*
X40Y3783D01*
G37*
D02*
G36*
X40Y3781D02*
X40Y3595D01*
X404Y3595D01*
X404Y3593D01*
X410Y3593D01*
X410Y3591D01*
X414Y3591D01*
X414Y3589D01*
X418Y3589D01*
X418Y3587D01*
X420Y3587D01*
X420Y3585D01*
X424Y3585D01*
X424Y3583D01*
X426Y3583D01*
X426Y3581D01*
X428Y3581D01*
X428Y3577D01*
X430Y3577D01*
X430Y3575D01*
X432Y3575D01*
X432Y3571D01*
X434Y3571D01*
X434Y3569D01*
X436Y3569D01*
X436Y3561D01*
X438Y3561D01*
X438Y3531D01*
X440Y3531D01*
X440Y3529D01*
X442Y3529D01*
X442Y3527D01*
X444Y3527D01*
X444Y3523D01*
X446Y3523D01*
X446Y3521D01*
X448Y3521D01*
X448Y3519D01*
X450Y3519D01*
X450Y3513D01*
X452Y3513D01*
X452Y3247D01*
X472Y3247D01*
X472Y3249D01*
X474Y3249D01*
X474Y3251D01*
X478Y3251D01*
X478Y3253D01*
X482Y3253D01*
X482Y3255D01*
X486Y3255D01*
X486Y3257D01*
X492Y3257D01*
X492Y3259D01*
X500Y3259D01*
X500Y3261D01*
X530Y3261D01*
X530Y3781D01*
X40Y3781D01*
G37*
D02*
G36*
X40Y3595D02*
X40Y3261D01*
X82Y3261D01*
X82Y3259D01*
X92Y3259D01*
X92Y3257D01*
X96Y3257D01*
X96Y3255D01*
X100Y3255D01*
X100Y3253D01*
X104Y3253D01*
X104Y3251D01*
X108Y3251D01*
X108Y3249D01*
X110Y3249D01*
X110Y3247D01*
X112Y3247D01*
X112Y3245D01*
X114Y3245D01*
X114Y3243D01*
X116Y3243D01*
X116Y3241D01*
X118Y3241D01*
X118Y3239D01*
X138Y3239D01*
X138Y3417D01*
X140Y3417D01*
X140Y3419D01*
X142Y3419D01*
X142Y3423D01*
X144Y3423D01*
X144Y3425D01*
X146Y3425D01*
X146Y3427D01*
X148Y3427D01*
X148Y3429D01*
X150Y3429D01*
X150Y3431D01*
X152Y3431D01*
X152Y3433D01*
X154Y3433D01*
X154Y3435D01*
X156Y3435D01*
X156Y3437D01*
X160Y3437D01*
X160Y3439D01*
X162Y3439D01*
X162Y3441D01*
X164Y3441D01*
X164Y3443D01*
X166Y3443D01*
X166Y3445D01*
X168Y3445D01*
X168Y3447D01*
X170Y3447D01*
X170Y3449D01*
X172Y3449D01*
X172Y3451D01*
X174Y3451D01*
X174Y3453D01*
X176Y3453D01*
X176Y3455D01*
X178Y3455D01*
X178Y3457D01*
X180Y3457D01*
X180Y3459D01*
X182Y3459D01*
X182Y3461D01*
X184Y3461D01*
X184Y3463D01*
X186Y3463D01*
X186Y3465D01*
X188Y3465D01*
X188Y3467D01*
X190Y3467D01*
X190Y3469D01*
X192Y3469D01*
X192Y3471D01*
X194Y3471D01*
X194Y3473D01*
X196Y3473D01*
X196Y3475D01*
X198Y3475D01*
X198Y3477D01*
X200Y3477D01*
X200Y3479D01*
X202Y3479D01*
X202Y3481D01*
X204Y3481D01*
X204Y3483D01*
X206Y3483D01*
X206Y3485D01*
X208Y3485D01*
X208Y3487D01*
X210Y3487D01*
X210Y3505D01*
X186Y3505D01*
X186Y3507D01*
X178Y3507D01*
X178Y3509D01*
X176Y3509D01*
X176Y3511D01*
X172Y3511D01*
X172Y3513D01*
X168Y3513D01*
X168Y3515D01*
X166Y3515D01*
X166Y3517D01*
X164Y3517D01*
X164Y3519D01*
X162Y3519D01*
X162Y3521D01*
X160Y3521D01*
X160Y3525D01*
X158Y3525D01*
X158Y3529D01*
X156Y3529D01*
X156Y3531D01*
X154Y3531D01*
X154Y3537D01*
X152Y3537D01*
X152Y3561D01*
X154Y3561D01*
X154Y3567D01*
X156Y3567D01*
X156Y3571D01*
X158Y3571D01*
X158Y3575D01*
X160Y3575D01*
X160Y3577D01*
X162Y3577D01*
X162Y3579D01*
X164Y3579D01*
X164Y3583D01*
X168Y3583D01*
X168Y3585D01*
X170Y3585D01*
X170Y3587D01*
X172Y3587D01*
X172Y3589D01*
X176Y3589D01*
X176Y3591D01*
X180Y3591D01*
X180Y3593D01*
X186Y3593D01*
X186Y3595D01*
X40Y3595D01*
G37*
D02*
G36*
X206Y3595D02*
X206Y3593D01*
X214Y3593D01*
X214Y3591D01*
X218Y3591D01*
X218Y3589D01*
X220Y3589D01*
X220Y3587D01*
X224Y3587D01*
X224Y3585D01*
X226Y3585D01*
X226Y3583D01*
X228Y3583D01*
X228Y3581D01*
X230Y3581D01*
X230Y3579D01*
X232Y3579D01*
X232Y3577D01*
X234Y3577D01*
X234Y3573D01*
X236Y3573D01*
X236Y3571D01*
X256Y3571D01*
X256Y3575D01*
X258Y3575D01*
X258Y3577D01*
X260Y3577D01*
X260Y3579D01*
X262Y3579D01*
X262Y3581D01*
X264Y3581D01*
X264Y3583D01*
X266Y3583D01*
X266Y3585D01*
X268Y3585D01*
X268Y3587D01*
X270Y3587D01*
X270Y3589D01*
X274Y3589D01*
X274Y3591D01*
X278Y3591D01*
X278Y3593D01*
X286Y3593D01*
X286Y3595D01*
X206Y3595D01*
G37*
D02*
G36*
X304Y3595D02*
X304Y3593D01*
X312Y3593D01*
X312Y3591D01*
X316Y3591D01*
X316Y3589D01*
X320Y3589D01*
X320Y3587D01*
X322Y3587D01*
X322Y3585D01*
X324Y3585D01*
X324Y3583D01*
X326Y3583D01*
X326Y3581D01*
X328Y3581D01*
X328Y3579D01*
X330Y3579D01*
X330Y3577D01*
X332Y3577D01*
X332Y3575D01*
X334Y3575D01*
X334Y3571D01*
X354Y3571D01*
X354Y3573D01*
X356Y3573D01*
X356Y3577D01*
X358Y3577D01*
X358Y3579D01*
X360Y3579D01*
X360Y3581D01*
X362Y3581D01*
X362Y3583D01*
X364Y3583D01*
X364Y3585D01*
X366Y3585D01*
X366Y3587D01*
X370Y3587D01*
X370Y3589D01*
X372Y3589D01*
X372Y3591D01*
X378Y3591D01*
X378Y3593D01*
X384Y3593D01*
X384Y3595D01*
X304Y3595D01*
G37*
D02*
G36*
X40Y3261D02*
X40Y3259D01*
X62Y3259D01*
X62Y3261D01*
X40Y3261D01*
G37*
D02*
G36*
X334Y3529D02*
X334Y3525D01*
X332Y3525D01*
X332Y3523D01*
X330Y3523D01*
X330Y3519D01*
X328Y3519D01*
X328Y3517D01*
X326Y3517D01*
X326Y3515D01*
X322Y3515D01*
X322Y3513D01*
X320Y3513D01*
X320Y3511D01*
X316Y3511D01*
X316Y3509D01*
X312Y3509D01*
X312Y3507D01*
X306Y3507D01*
X306Y3505D01*
X272Y3505D01*
X272Y3503D01*
X270Y3503D01*
X270Y3501D01*
X268Y3501D01*
X268Y3499D01*
X266Y3499D01*
X266Y3497D01*
X264Y3497D01*
X264Y3495D01*
X262Y3495D01*
X262Y3493D01*
X260Y3493D01*
X260Y3491D01*
X258Y3491D01*
X258Y3489D01*
X256Y3489D01*
X256Y3487D01*
X254Y3487D01*
X254Y3485D01*
X252Y3485D01*
X252Y3483D01*
X250Y3483D01*
X250Y3481D01*
X248Y3481D01*
X248Y3479D01*
X246Y3479D01*
X246Y3477D01*
X244Y3477D01*
X244Y3475D01*
X242Y3475D01*
X242Y3473D01*
X240Y3473D01*
X240Y3471D01*
X238Y3471D01*
X238Y3469D01*
X234Y3469D01*
X234Y3467D01*
X232Y3467D01*
X232Y3465D01*
X230Y3465D01*
X230Y3463D01*
X228Y3463D01*
X228Y3461D01*
X226Y3461D01*
X226Y3459D01*
X224Y3459D01*
X224Y3457D01*
X222Y3457D01*
X222Y3455D01*
X220Y3455D01*
X220Y3453D01*
X218Y3453D01*
X218Y3451D01*
X216Y3451D01*
X216Y3449D01*
X214Y3449D01*
X214Y3447D01*
X212Y3447D01*
X212Y3445D01*
X210Y3445D01*
X210Y3443D01*
X208Y3443D01*
X208Y3441D01*
X206Y3441D01*
X206Y3439D01*
X204Y3439D01*
X204Y3437D01*
X202Y3437D01*
X202Y3435D01*
X200Y3435D01*
X200Y3433D01*
X198Y3433D01*
X198Y3431D01*
X196Y3431D01*
X196Y3429D01*
X194Y3429D01*
X194Y3427D01*
X192Y3427D01*
X192Y3425D01*
X190Y3425D01*
X190Y3423D01*
X188Y3423D01*
X188Y3421D01*
X186Y3421D01*
X186Y3419D01*
X184Y3419D01*
X184Y3417D01*
X182Y3417D01*
X182Y3415D01*
X180Y3415D01*
X180Y3413D01*
X178Y3413D01*
X178Y3411D01*
X176Y3411D01*
X176Y3409D01*
X174Y3409D01*
X174Y3407D01*
X172Y3407D01*
X172Y3405D01*
X170Y3405D01*
X170Y3083D01*
X168Y3083D01*
X168Y3077D01*
X166Y3077D01*
X166Y3075D01*
X164Y3075D01*
X164Y3073D01*
X162Y3073D01*
X162Y3071D01*
X160Y3071D01*
X160Y3069D01*
X158Y3069D01*
X158Y3067D01*
X156Y3067D01*
X156Y3065D01*
X154Y3065D01*
X154Y3063D01*
X152Y3063D01*
X152Y3061D01*
X150Y3061D01*
X150Y3059D01*
X148Y3059D01*
X148Y3057D01*
X144Y3057D01*
X144Y3055D01*
X142Y3055D01*
X142Y3053D01*
X140Y3053D01*
X140Y3051D01*
X138Y3051D01*
X138Y3049D01*
X136Y3049D01*
X136Y3047D01*
X134Y3047D01*
X134Y3045D01*
X132Y3045D01*
X132Y3043D01*
X130Y3043D01*
X130Y3041D01*
X128Y3041D01*
X128Y3039D01*
X302Y3039D01*
X302Y3037D01*
X408Y3037D01*
X408Y3501D01*
X406Y3501D01*
X406Y3503D01*
X404Y3503D01*
X404Y3505D01*
X382Y3505D01*
X382Y3507D01*
X376Y3507D01*
X376Y3509D01*
X372Y3509D01*
X372Y3511D01*
X368Y3511D01*
X368Y3513D01*
X366Y3513D01*
X366Y3515D01*
X364Y3515D01*
X364Y3517D01*
X362Y3517D01*
X362Y3519D01*
X360Y3519D01*
X360Y3521D01*
X358Y3521D01*
X358Y3523D01*
X356Y3523D01*
X356Y3525D01*
X354Y3525D01*
X354Y3529D01*
X334Y3529D01*
G37*
D02*
G36*
X126Y3039D02*
X126Y3037D01*
X124Y3037D01*
X124Y3035D01*
X122Y3035D01*
X122Y3033D01*
X120Y3033D01*
X120Y3031D01*
X118Y3031D01*
X118Y3029D01*
X116Y3029D01*
X116Y2999D01*
X136Y2999D01*
X136Y3001D01*
X138Y3001D01*
X138Y3003D01*
X140Y3003D01*
X140Y3005D01*
X142Y3005D01*
X142Y3007D01*
X144Y3007D01*
X144Y3009D01*
X146Y3009D01*
X146Y3011D01*
X148Y3011D01*
X148Y3013D01*
X150Y3013D01*
X150Y3015D01*
X152Y3015D01*
X152Y3017D01*
X154Y3017D01*
X154Y3019D01*
X156Y3019D01*
X156Y3021D01*
X158Y3021D01*
X158Y3023D01*
X160Y3023D01*
X160Y3025D01*
X162Y3025D01*
X162Y3027D01*
X164Y3027D01*
X164Y3029D01*
X166Y3029D01*
X166Y3031D01*
X170Y3031D01*
X170Y3033D01*
X172Y3033D01*
X172Y3035D01*
X174Y3035D01*
X174Y3037D01*
X178Y3037D01*
X178Y3039D01*
X126Y3039D01*
G37*
D02*
G36*
X192Y2995D02*
X192Y2993D01*
X190Y2993D01*
X190Y2991D01*
X188Y2991D01*
X188Y2989D01*
X186Y2989D01*
X186Y2987D01*
X184Y2987D01*
X184Y2985D01*
X182Y2985D01*
X182Y2983D01*
X180Y2983D01*
X180Y2981D01*
X178Y2981D01*
X178Y2979D01*
X176Y2979D01*
X176Y2977D01*
X174Y2977D01*
X174Y2975D01*
X172Y2975D01*
X172Y2973D01*
X170Y2973D01*
X170Y2971D01*
X168Y2971D01*
X168Y2969D01*
X166Y2969D01*
X166Y2967D01*
X164Y2967D01*
X164Y2965D01*
X162Y2965D01*
X162Y2963D01*
X160Y2963D01*
X160Y2961D01*
X158Y2961D01*
X158Y2959D01*
X156Y2959D01*
X156Y2957D01*
X154Y2957D01*
X154Y2955D01*
X152Y2955D01*
X152Y2953D01*
X150Y2953D01*
X150Y2951D01*
X148Y2951D01*
X148Y2949D01*
X402Y2949D01*
X402Y2947D01*
X408Y2947D01*
X408Y2945D01*
X412Y2945D01*
X412Y2943D01*
X414Y2943D01*
X414Y2941D01*
X418Y2941D01*
X418Y2939D01*
X420Y2939D01*
X420Y2937D01*
X422Y2937D01*
X422Y2935D01*
X424Y2935D01*
X424Y2933D01*
X426Y2933D01*
X426Y2929D01*
X428Y2929D01*
X428Y2927D01*
X430Y2927D01*
X430Y2923D01*
X432Y2923D01*
X432Y2917D01*
X434Y2917D01*
X434Y2871D01*
X436Y2871D01*
X436Y2867D01*
X438Y2867D01*
X438Y2709D01*
X462Y2709D01*
X462Y2711D01*
X464Y2711D01*
X464Y2715D01*
X466Y2715D01*
X466Y2717D01*
X468Y2717D01*
X468Y2719D01*
X470Y2719D01*
X470Y2959D01*
X468Y2959D01*
X468Y2961D01*
X466Y2961D01*
X466Y2963D01*
X464Y2963D01*
X464Y2965D01*
X462Y2965D01*
X462Y2967D01*
X460Y2967D01*
X460Y2969D01*
X458Y2969D01*
X458Y2971D01*
X456Y2971D01*
X456Y2973D01*
X454Y2973D01*
X454Y2975D01*
X452Y2975D01*
X452Y2977D01*
X450Y2977D01*
X450Y2979D01*
X448Y2979D01*
X448Y2981D01*
X446Y2981D01*
X446Y2983D01*
X444Y2983D01*
X444Y2985D01*
X442Y2985D01*
X442Y2987D01*
X440Y2987D01*
X440Y2989D01*
X438Y2989D01*
X438Y2991D01*
X436Y2991D01*
X436Y2993D01*
X302Y2993D01*
X302Y2995D01*
X192Y2995D01*
G37*
D02*
G36*
X146Y2949D02*
X146Y2947D01*
X142Y2947D01*
X142Y2945D01*
X140Y2945D01*
X140Y2943D01*
X138Y2943D01*
X138Y2941D01*
X136Y2941D01*
X136Y2939D01*
X134Y2939D01*
X134Y2937D01*
X132Y2937D01*
X132Y2935D01*
X130Y2935D01*
X130Y2933D01*
X128Y2933D01*
X128Y2931D01*
X126Y2931D01*
X126Y2929D01*
X124Y2929D01*
X124Y2927D01*
X122Y2927D01*
X122Y2925D01*
X120Y2925D01*
X120Y2923D01*
X118Y2923D01*
X118Y2921D01*
X116Y2921D01*
X116Y2895D01*
X114Y2895D01*
X114Y2889D01*
X112Y2889D01*
X112Y2883D01*
X110Y2883D01*
X110Y2879D01*
X108Y2879D01*
X108Y2875D01*
X106Y2875D01*
X106Y2873D01*
X104Y2873D01*
X104Y2859D01*
X184Y2859D01*
X184Y2861D01*
X176Y2861D01*
X176Y2863D01*
X172Y2863D01*
X172Y2865D01*
X168Y2865D01*
X168Y2867D01*
X166Y2867D01*
X166Y2869D01*
X164Y2869D01*
X164Y2871D01*
X160Y2871D01*
X160Y2875D01*
X158Y2875D01*
X158Y2877D01*
X156Y2877D01*
X156Y2879D01*
X154Y2879D01*
X154Y2883D01*
X152Y2883D01*
X152Y2887D01*
X150Y2887D01*
X150Y2893D01*
X148Y2893D01*
X148Y2915D01*
X150Y2915D01*
X150Y2923D01*
X152Y2923D01*
X152Y2925D01*
X154Y2925D01*
X154Y2929D01*
X156Y2929D01*
X156Y2931D01*
X158Y2931D01*
X158Y2935D01*
X160Y2935D01*
X160Y2937D01*
X162Y2937D01*
X162Y2939D01*
X164Y2939D01*
X164Y2941D01*
X168Y2941D01*
X168Y2943D01*
X172Y2943D01*
X172Y2945D01*
X174Y2945D01*
X174Y2947D01*
X182Y2947D01*
X182Y2949D01*
X146Y2949D01*
G37*
D02*
G36*
X204Y2949D02*
X204Y2947D01*
X210Y2947D01*
X210Y2945D01*
X214Y2945D01*
X214Y2943D01*
X218Y2943D01*
X218Y2941D01*
X220Y2941D01*
X220Y2939D01*
X222Y2939D01*
X222Y2937D01*
X226Y2937D01*
X226Y2933D01*
X228Y2933D01*
X228Y2931D01*
X230Y2931D01*
X230Y2929D01*
X232Y2929D01*
X232Y2925D01*
X252Y2925D01*
X252Y2929D01*
X254Y2929D01*
X254Y2931D01*
X256Y2931D01*
X256Y2933D01*
X258Y2933D01*
X258Y2937D01*
X260Y2937D01*
X260Y2939D01*
X264Y2939D01*
X264Y2941D01*
X266Y2941D01*
X266Y2943D01*
X270Y2943D01*
X270Y2945D01*
X274Y2945D01*
X274Y2947D01*
X280Y2947D01*
X280Y2949D01*
X204Y2949D01*
G37*
D02*
G36*
X302Y2949D02*
X302Y2947D01*
X310Y2947D01*
X310Y2945D01*
X312Y2945D01*
X312Y2943D01*
X316Y2943D01*
X316Y2941D01*
X318Y2941D01*
X318Y2939D01*
X322Y2939D01*
X322Y2937D01*
X324Y2937D01*
X324Y2935D01*
X326Y2935D01*
X326Y2931D01*
X328Y2931D01*
X328Y2929D01*
X330Y2929D01*
X330Y2925D01*
X350Y2925D01*
X350Y2927D01*
X352Y2927D01*
X352Y2931D01*
X354Y2931D01*
X354Y2933D01*
X356Y2933D01*
X356Y2935D01*
X358Y2935D01*
X358Y2937D01*
X360Y2937D01*
X360Y2939D01*
X362Y2939D01*
X362Y2941D01*
X364Y2941D01*
X364Y2943D01*
X368Y2943D01*
X368Y2945D01*
X372Y2945D01*
X372Y2947D01*
X378Y2947D01*
X378Y2949D01*
X302Y2949D01*
G37*
D02*
G36*
X230Y2881D02*
X230Y2877D01*
X228Y2877D01*
X228Y2875D01*
X226Y2875D01*
X226Y2873D01*
X224Y2873D01*
X224Y2871D01*
X222Y2871D01*
X222Y2869D01*
X220Y2869D01*
X220Y2867D01*
X216Y2867D01*
X216Y2865D01*
X214Y2865D01*
X214Y2863D01*
X208Y2863D01*
X208Y2861D01*
X202Y2861D01*
X202Y2859D01*
X244Y2859D01*
X244Y2861D01*
X248Y2861D01*
X248Y2863D01*
X250Y2863D01*
X250Y2881D01*
X230Y2881D01*
G37*
D02*
G36*
X104Y2859D02*
X104Y2857D01*
X242Y2857D01*
X242Y2859D01*
X104Y2859D01*
G37*
D02*
G36*
X104Y2859D02*
X104Y2857D01*
X242Y2857D01*
X242Y2859D01*
X104Y2859D01*
G37*
D02*
G36*
X104Y2857D02*
X104Y2853D01*
X116Y2853D01*
X116Y2755D01*
X40Y2755D01*
X40Y2609D01*
X78Y2609D01*
X78Y2607D01*
X90Y2607D01*
X90Y2605D01*
X96Y2605D01*
X96Y2603D01*
X100Y2603D01*
X100Y2601D01*
X104Y2601D01*
X104Y2599D01*
X106Y2599D01*
X106Y2597D01*
X110Y2597D01*
X110Y2595D01*
X112Y2595D01*
X112Y2593D01*
X114Y2593D01*
X114Y2591D01*
X116Y2591D01*
X116Y2589D01*
X118Y2589D01*
X118Y2587D01*
X138Y2587D01*
X138Y2755D01*
X140Y2755D01*
X140Y2759D01*
X142Y2759D01*
X142Y2761D01*
X144Y2761D01*
X144Y2763D01*
X146Y2763D01*
X146Y2765D01*
X148Y2765D01*
X148Y2767D01*
X150Y2767D01*
X150Y2769D01*
X152Y2769D01*
X152Y2771D01*
X154Y2771D01*
X154Y2773D01*
X158Y2773D01*
X158Y2775D01*
X160Y2775D01*
X160Y2777D01*
X162Y2777D01*
X162Y2779D01*
X164Y2779D01*
X164Y2781D01*
X166Y2781D01*
X166Y2783D01*
X168Y2783D01*
X168Y2785D01*
X170Y2785D01*
X170Y2787D01*
X172Y2787D01*
X172Y2789D01*
X174Y2789D01*
X174Y2791D01*
X176Y2791D01*
X176Y2793D01*
X178Y2793D01*
X178Y2795D01*
X180Y2795D01*
X180Y2797D01*
X182Y2797D01*
X182Y2799D01*
X184Y2799D01*
X184Y2801D01*
X186Y2801D01*
X186Y2803D01*
X188Y2803D01*
X188Y2805D01*
X190Y2805D01*
X190Y2807D01*
X192Y2807D01*
X192Y2809D01*
X194Y2809D01*
X194Y2811D01*
X196Y2811D01*
X196Y2813D01*
X198Y2813D01*
X198Y2815D01*
X200Y2815D01*
X200Y2817D01*
X202Y2817D01*
X202Y2819D01*
X204Y2819D01*
X204Y2821D01*
X206Y2821D01*
X206Y2823D01*
X208Y2823D01*
X208Y2825D01*
X210Y2825D01*
X210Y2827D01*
X212Y2827D01*
X212Y2829D01*
X214Y2829D01*
X214Y2831D01*
X216Y2831D01*
X216Y2833D01*
X218Y2833D01*
X218Y2835D01*
X220Y2835D01*
X220Y2837D01*
X222Y2837D01*
X222Y2839D01*
X224Y2839D01*
X224Y2841D01*
X226Y2841D01*
X226Y2843D01*
X228Y2843D01*
X228Y2845D01*
X230Y2845D01*
X230Y2847D01*
X232Y2847D01*
X232Y2849D01*
X234Y2849D01*
X234Y2851D01*
X236Y2851D01*
X236Y2853D01*
X238Y2853D01*
X238Y2855D01*
X240Y2855D01*
X240Y2857D01*
X104Y2857D01*
G37*
D02*
G36*
X40Y2609D02*
X40Y2607D01*
X66Y2607D01*
X66Y2609D01*
X40Y2609D01*
G37*
D02*
G36*
X440Y2513D02*
X440Y2337D01*
X442Y2337D01*
X442Y2335D01*
X444Y2335D01*
X444Y2333D01*
X446Y2333D01*
X446Y2331D01*
X448Y2331D01*
X448Y2329D01*
X450Y2329D01*
X450Y2327D01*
X452Y2327D01*
X452Y2325D01*
X454Y2325D01*
X454Y2323D01*
X456Y2323D01*
X456Y2321D01*
X458Y2321D01*
X458Y2319D01*
X460Y2319D01*
X460Y2317D01*
X462Y2317D01*
X462Y2315D01*
X464Y2315D01*
X464Y2313D01*
X466Y2313D01*
X466Y2311D01*
X468Y2311D01*
X468Y2309D01*
X470Y2309D01*
X470Y2307D01*
X472Y2307D01*
X472Y2305D01*
X474Y2305D01*
X474Y2303D01*
X476Y2303D01*
X476Y2301D01*
X478Y2301D01*
X478Y2299D01*
X480Y2299D01*
X480Y2297D01*
X482Y2297D01*
X482Y2295D01*
X484Y2295D01*
X484Y2293D01*
X486Y2293D01*
X486Y2291D01*
X488Y2291D01*
X488Y2289D01*
X490Y2289D01*
X490Y2287D01*
X492Y2287D01*
X492Y2285D01*
X494Y2285D01*
X494Y2283D01*
X496Y2283D01*
X496Y2281D01*
X498Y2281D01*
X498Y2279D01*
X500Y2279D01*
X500Y2277D01*
X502Y2277D01*
X502Y2275D01*
X504Y2275D01*
X504Y2273D01*
X506Y2273D01*
X506Y2271D01*
X508Y2271D01*
X508Y2269D01*
X510Y2269D01*
X510Y2265D01*
X530Y2265D01*
X530Y2485D01*
X504Y2485D01*
X504Y2487D01*
X494Y2487D01*
X494Y2489D01*
X488Y2489D01*
X488Y2491D01*
X482Y2491D01*
X482Y2493D01*
X480Y2493D01*
X480Y2495D01*
X476Y2495D01*
X476Y2497D01*
X474Y2497D01*
X474Y2499D01*
X470Y2499D01*
X470Y2501D01*
X468Y2501D01*
X468Y2503D01*
X466Y2503D01*
X466Y2505D01*
X464Y2505D01*
X464Y2507D01*
X462Y2507D01*
X462Y2509D01*
X460Y2509D01*
X460Y2513D01*
X440Y2513D01*
G37*
D02*
G36*
X118Y2507D02*
X118Y2505D01*
X116Y2505D01*
X116Y2503D01*
X114Y2503D01*
X114Y2501D01*
X112Y2501D01*
X112Y2499D01*
X110Y2499D01*
X110Y2497D01*
X106Y2497D01*
X106Y2495D01*
X104Y2495D01*
X104Y2493D01*
X100Y2493D01*
X100Y2491D01*
X96Y2491D01*
X96Y2489D01*
X88Y2489D01*
X88Y2487D01*
X78Y2487D01*
X78Y2485D01*
X138Y2485D01*
X138Y2507D01*
X118Y2507D01*
G37*
D02*
G36*
X40Y2487D02*
X40Y2485D01*
X68Y2485D01*
X68Y2487D01*
X40Y2487D01*
G37*
D02*
G36*
X40Y2485D02*
X40Y2483D01*
X138Y2483D01*
X138Y2485D01*
X40Y2485D01*
G37*
D02*
G36*
X40Y2485D02*
X40Y2483D01*
X138Y2483D01*
X138Y2485D01*
X40Y2485D01*
G37*
D02*
G36*
X40Y2483D02*
X40Y2387D01*
X76Y2387D01*
X76Y2385D01*
X96Y2385D01*
X96Y2387D01*
X98Y2387D01*
X98Y2389D01*
X100Y2389D01*
X100Y2391D01*
X102Y2391D01*
X102Y2393D01*
X104Y2393D01*
X104Y2395D01*
X106Y2395D01*
X106Y2397D01*
X108Y2397D01*
X108Y2399D01*
X110Y2399D01*
X110Y2401D01*
X112Y2401D01*
X112Y2403D01*
X114Y2403D01*
X114Y2405D01*
X116Y2405D01*
X116Y2407D01*
X120Y2407D01*
X120Y2409D01*
X122Y2409D01*
X122Y2411D01*
X124Y2411D01*
X124Y2413D01*
X126Y2413D01*
X126Y2415D01*
X128Y2415D01*
X128Y2417D01*
X130Y2417D01*
X130Y2419D01*
X132Y2419D01*
X132Y2421D01*
X134Y2421D01*
X134Y2423D01*
X136Y2423D01*
X136Y2425D01*
X138Y2425D01*
X138Y2483D01*
X40Y2483D01*
G37*
D02*
G36*
X330Y2883D02*
X330Y2879D01*
X328Y2879D01*
X328Y2877D01*
X326Y2877D01*
X326Y2875D01*
X324Y2875D01*
X324Y2871D01*
X320Y2871D01*
X320Y2869D01*
X318Y2869D01*
X318Y2867D01*
X316Y2867D01*
X316Y2865D01*
X312Y2865D01*
X312Y2863D01*
X308Y2863D01*
X308Y2861D01*
X300Y2861D01*
X300Y2859D01*
X288Y2859D01*
X288Y2857D01*
X286Y2857D01*
X286Y2855D01*
X284Y2855D01*
X284Y2853D01*
X282Y2853D01*
X282Y2851D01*
X280Y2851D01*
X280Y2849D01*
X278Y2849D01*
X278Y2847D01*
X276Y2847D01*
X276Y2845D01*
X274Y2845D01*
X274Y2843D01*
X272Y2843D01*
X272Y2841D01*
X270Y2841D01*
X270Y2839D01*
X268Y2839D01*
X268Y2837D01*
X266Y2837D01*
X266Y2835D01*
X264Y2835D01*
X264Y2833D01*
X262Y2833D01*
X262Y2831D01*
X260Y2831D01*
X260Y2829D01*
X258Y2829D01*
X258Y2827D01*
X256Y2827D01*
X256Y2825D01*
X254Y2825D01*
X254Y2823D01*
X252Y2823D01*
X252Y2821D01*
X250Y2821D01*
X250Y2819D01*
X248Y2819D01*
X248Y2817D01*
X246Y2817D01*
X246Y2815D01*
X244Y2815D01*
X244Y2813D01*
X242Y2813D01*
X242Y2811D01*
X240Y2811D01*
X240Y2809D01*
X238Y2809D01*
X238Y2807D01*
X236Y2807D01*
X236Y2805D01*
X234Y2805D01*
X234Y2803D01*
X232Y2803D01*
X232Y2801D01*
X230Y2801D01*
X230Y2799D01*
X228Y2799D01*
X228Y2797D01*
X226Y2797D01*
X226Y2795D01*
X224Y2795D01*
X224Y2793D01*
X222Y2793D01*
X222Y2791D01*
X220Y2791D01*
X220Y2789D01*
X218Y2789D01*
X218Y2787D01*
X216Y2787D01*
X216Y2785D01*
X214Y2785D01*
X214Y2783D01*
X212Y2783D01*
X212Y2781D01*
X208Y2781D01*
X208Y2779D01*
X206Y2779D01*
X206Y2777D01*
X204Y2777D01*
X204Y2775D01*
X202Y2775D01*
X202Y2773D01*
X200Y2773D01*
X200Y2771D01*
X198Y2771D01*
X198Y2769D01*
X196Y2769D01*
X196Y2767D01*
X194Y2767D01*
X194Y2765D01*
X192Y2765D01*
X192Y2763D01*
X190Y2763D01*
X190Y2761D01*
X188Y2761D01*
X188Y2759D01*
X186Y2759D01*
X186Y2757D01*
X184Y2757D01*
X184Y2755D01*
X182Y2755D01*
X182Y2753D01*
X180Y2753D01*
X180Y2751D01*
X178Y2751D01*
X178Y2749D01*
X176Y2749D01*
X176Y2747D01*
X174Y2747D01*
X174Y2745D01*
X172Y2745D01*
X172Y2743D01*
X170Y2743D01*
X170Y2415D01*
X168Y2415D01*
X168Y2409D01*
X166Y2409D01*
X166Y2407D01*
X164Y2407D01*
X164Y2405D01*
X162Y2405D01*
X162Y2403D01*
X160Y2403D01*
X160Y2401D01*
X158Y2401D01*
X158Y2399D01*
X156Y2399D01*
X156Y2397D01*
X154Y2397D01*
X154Y2395D01*
X152Y2395D01*
X152Y2393D01*
X148Y2393D01*
X148Y2391D01*
X146Y2391D01*
X146Y2389D01*
X144Y2389D01*
X144Y2387D01*
X142Y2387D01*
X142Y2385D01*
X140Y2385D01*
X140Y2383D01*
X138Y2383D01*
X138Y2381D01*
X136Y2381D01*
X136Y2379D01*
X134Y2379D01*
X134Y2377D01*
X132Y2377D01*
X132Y2375D01*
X130Y2375D01*
X130Y2373D01*
X128Y2373D01*
X128Y2371D01*
X126Y2371D01*
X126Y2369D01*
X122Y2369D01*
X122Y2367D01*
X120Y2367D01*
X120Y2365D01*
X118Y2365D01*
X118Y2363D01*
X116Y2363D01*
X116Y2331D01*
X114Y2331D01*
X114Y2323D01*
X112Y2323D01*
X112Y2317D01*
X110Y2317D01*
X110Y2313D01*
X108Y2313D01*
X108Y2311D01*
X106Y2311D01*
X106Y2307D01*
X104Y2307D01*
X104Y2305D01*
X102Y2305D01*
X102Y2303D01*
X100Y2303D01*
X100Y2301D01*
X98Y2301D01*
X98Y2299D01*
X94Y2299D01*
X94Y2297D01*
X400Y2297D01*
X400Y2295D01*
X406Y2295D01*
X406Y2293D01*
X410Y2293D01*
X410Y2291D01*
X414Y2291D01*
X414Y2289D01*
X416Y2289D01*
X416Y2287D01*
X420Y2287D01*
X420Y2285D01*
X422Y2285D01*
X422Y2283D01*
X424Y2283D01*
X424Y2279D01*
X426Y2279D01*
X426Y2277D01*
X428Y2277D01*
X428Y2273D01*
X430Y2273D01*
X430Y2271D01*
X432Y2271D01*
X432Y2265D01*
X434Y2265D01*
X434Y2239D01*
X432Y2239D01*
X432Y2233D01*
X430Y2233D01*
X430Y2229D01*
X428Y2229D01*
X428Y2227D01*
X426Y2227D01*
X426Y2223D01*
X424Y2223D01*
X424Y2221D01*
X422Y2221D01*
X422Y2219D01*
X420Y2219D01*
X420Y2217D01*
X418Y2217D01*
X418Y2215D01*
X414Y2215D01*
X414Y2213D01*
X412Y2213D01*
X412Y2211D01*
X408Y2211D01*
X408Y2209D01*
X400Y2209D01*
X400Y2207D01*
X480Y2207D01*
X480Y2253D01*
X478Y2253D01*
X478Y2255D01*
X476Y2255D01*
X476Y2257D01*
X474Y2257D01*
X474Y2259D01*
X472Y2259D01*
X472Y2261D01*
X470Y2261D01*
X470Y2263D01*
X468Y2263D01*
X468Y2265D01*
X466Y2265D01*
X466Y2267D01*
X464Y2267D01*
X464Y2269D01*
X462Y2269D01*
X462Y2271D01*
X460Y2271D01*
X460Y2273D01*
X458Y2273D01*
X458Y2275D01*
X456Y2275D01*
X456Y2277D01*
X454Y2277D01*
X454Y2279D01*
X452Y2279D01*
X452Y2281D01*
X450Y2281D01*
X450Y2283D01*
X448Y2283D01*
X448Y2285D01*
X446Y2285D01*
X446Y2287D01*
X444Y2287D01*
X444Y2289D01*
X442Y2289D01*
X442Y2291D01*
X440Y2291D01*
X440Y2293D01*
X438Y2293D01*
X438Y2295D01*
X436Y2295D01*
X436Y2297D01*
X434Y2297D01*
X434Y2299D01*
X432Y2299D01*
X432Y2301D01*
X430Y2301D01*
X430Y2303D01*
X428Y2303D01*
X428Y2305D01*
X426Y2305D01*
X426Y2307D01*
X424Y2307D01*
X424Y2309D01*
X422Y2309D01*
X422Y2311D01*
X420Y2311D01*
X420Y2313D01*
X418Y2313D01*
X418Y2315D01*
X416Y2315D01*
X416Y2317D01*
X414Y2317D01*
X414Y2321D01*
X412Y2321D01*
X412Y2323D01*
X410Y2323D01*
X410Y2329D01*
X408Y2329D01*
X408Y2641D01*
X406Y2641D01*
X406Y2857D01*
X404Y2857D01*
X404Y2859D01*
X380Y2859D01*
X380Y2861D01*
X374Y2861D01*
X374Y2863D01*
X370Y2863D01*
X370Y2865D01*
X366Y2865D01*
X366Y2867D01*
X362Y2867D01*
X362Y2869D01*
X360Y2869D01*
X360Y2871D01*
X358Y2871D01*
X358Y2873D01*
X356Y2873D01*
X356Y2875D01*
X354Y2875D01*
X354Y2877D01*
X352Y2877D01*
X352Y2881D01*
X350Y2881D01*
X350Y2883D01*
X330Y2883D01*
G37*
D02*
G36*
X94Y2297D02*
X94Y2277D01*
X98Y2277D01*
X98Y2275D01*
X100Y2275D01*
X100Y2273D01*
X102Y2273D01*
X102Y2271D01*
X104Y2271D01*
X104Y2269D01*
X106Y2269D01*
X106Y2265D01*
X108Y2265D01*
X108Y2263D01*
X110Y2263D01*
X110Y2259D01*
X112Y2259D01*
X112Y2253D01*
X114Y2253D01*
X114Y2245D01*
X116Y2245D01*
X116Y2227D01*
X118Y2227D01*
X118Y2225D01*
X122Y2225D01*
X122Y2223D01*
X124Y2223D01*
X124Y2221D01*
X128Y2221D01*
X128Y2219D01*
X132Y2219D01*
X132Y2217D01*
X134Y2217D01*
X134Y2215D01*
X138Y2215D01*
X138Y2213D01*
X160Y2213D01*
X160Y2221D01*
X158Y2221D01*
X158Y2225D01*
X156Y2225D01*
X156Y2227D01*
X154Y2227D01*
X154Y2231D01*
X152Y2231D01*
X152Y2233D01*
X150Y2233D01*
X150Y2241D01*
X148Y2241D01*
X148Y2263D01*
X150Y2263D01*
X150Y2269D01*
X152Y2269D01*
X152Y2273D01*
X154Y2273D01*
X154Y2277D01*
X156Y2277D01*
X156Y2279D01*
X158Y2279D01*
X158Y2281D01*
X160Y2281D01*
X160Y2285D01*
X164Y2285D01*
X164Y2287D01*
X166Y2287D01*
X166Y2289D01*
X168Y2289D01*
X168Y2291D01*
X172Y2291D01*
X172Y2293D01*
X176Y2293D01*
X176Y2295D01*
X182Y2295D01*
X182Y2297D01*
X94Y2297D01*
G37*
D02*
G36*
X202Y2297D02*
X202Y2295D01*
X210Y2295D01*
X210Y2293D01*
X214Y2293D01*
X214Y2291D01*
X216Y2291D01*
X216Y2289D01*
X220Y2289D01*
X220Y2287D01*
X222Y2287D01*
X222Y2285D01*
X224Y2285D01*
X224Y2283D01*
X226Y2283D01*
X226Y2281D01*
X228Y2281D01*
X228Y2279D01*
X230Y2279D01*
X230Y2275D01*
X232Y2275D01*
X232Y2273D01*
X252Y2273D01*
X252Y2277D01*
X254Y2277D01*
X254Y2279D01*
X256Y2279D01*
X256Y2281D01*
X258Y2281D01*
X258Y2283D01*
X260Y2283D01*
X260Y2285D01*
X262Y2285D01*
X262Y2287D01*
X264Y2287D01*
X264Y2289D01*
X266Y2289D01*
X266Y2291D01*
X270Y2291D01*
X270Y2293D01*
X274Y2293D01*
X274Y2295D01*
X282Y2295D01*
X282Y2297D01*
X202Y2297D01*
G37*
D02*
G36*
X300Y2297D02*
X300Y2295D01*
X308Y2295D01*
X308Y2293D01*
X312Y2293D01*
X312Y2291D01*
X316Y2291D01*
X316Y2289D01*
X318Y2289D01*
X318Y2287D01*
X320Y2287D01*
X320Y2285D01*
X324Y2285D01*
X324Y2281D01*
X326Y2281D01*
X326Y2279D01*
X328Y2279D01*
X328Y2277D01*
X330Y2277D01*
X330Y2273D01*
X350Y2273D01*
X350Y2275D01*
X352Y2275D01*
X352Y2279D01*
X354Y2279D01*
X354Y2281D01*
X356Y2281D01*
X356Y2283D01*
X358Y2283D01*
X358Y2285D01*
X360Y2285D01*
X360Y2287D01*
X362Y2287D01*
X362Y2289D01*
X366Y2289D01*
X366Y2291D01*
X368Y2291D01*
X368Y2293D01*
X374Y2293D01*
X374Y2295D01*
X380Y2295D01*
X380Y2297D01*
X300Y2297D01*
G37*
D02*
G36*
X330Y2231D02*
X330Y2227D01*
X328Y2227D01*
X328Y2225D01*
X326Y2225D01*
X326Y2221D01*
X324Y2221D01*
X324Y2219D01*
X322Y2219D01*
X322Y2217D01*
X318Y2217D01*
X318Y2215D01*
X316Y2215D01*
X316Y2213D01*
X312Y2213D01*
X312Y2211D01*
X308Y2211D01*
X308Y2209D01*
X302Y2209D01*
X302Y2207D01*
X378Y2207D01*
X378Y2209D01*
X372Y2209D01*
X372Y2211D01*
X368Y2211D01*
X368Y2213D01*
X364Y2213D01*
X364Y2215D01*
X362Y2215D01*
X362Y2217D01*
X360Y2217D01*
X360Y2219D01*
X358Y2219D01*
X358Y2221D01*
X356Y2221D01*
X356Y2223D01*
X354Y2223D01*
X354Y2225D01*
X352Y2225D01*
X352Y2229D01*
X350Y2229D01*
X350Y2231D01*
X330Y2231D01*
G37*
D02*
G36*
X278Y2207D02*
X278Y2205D01*
X480Y2205D01*
X480Y2207D01*
X278Y2207D01*
G37*
D02*
G36*
X278Y2207D02*
X278Y2205D01*
X480Y2205D01*
X480Y2207D01*
X278Y2207D01*
G37*
D02*
G36*
X276Y2205D02*
X276Y2201D01*
X274Y2201D01*
X274Y2199D01*
X272Y2199D01*
X272Y2197D01*
X270Y2197D01*
X270Y2193D01*
X268Y2193D01*
X268Y2191D01*
X266Y2191D01*
X266Y2187D01*
X264Y2187D01*
X264Y2185D01*
X262Y2185D01*
X262Y2183D01*
X260Y2183D01*
X260Y2179D01*
X258Y2179D01*
X258Y2177D01*
X256Y2177D01*
X256Y2173D01*
X254Y2173D01*
X254Y2171D01*
X252Y2171D01*
X252Y2169D01*
X250Y2169D01*
X250Y2167D01*
X244Y2167D01*
X244Y2165D01*
X480Y2165D01*
X480Y2205D01*
X276Y2205D01*
G37*
D02*
G36*
X116Y2179D02*
X116Y2165D01*
X158Y2165D01*
X158Y2167D01*
X152Y2167D01*
X152Y2169D01*
X150Y2169D01*
X150Y2171D01*
X146Y2171D01*
X146Y2173D01*
X142Y2173D01*
X142Y2175D01*
X140Y2175D01*
X140Y2177D01*
X136Y2177D01*
X136Y2179D01*
X116Y2179D01*
G37*
D02*
G36*
X116Y2165D02*
X116Y2163D01*
X480Y2163D01*
X480Y2165D01*
X116Y2165D01*
G37*
D02*
G36*
X116Y2165D02*
X116Y2163D01*
X480Y2163D01*
X480Y2165D01*
X116Y2165D01*
G37*
D02*
G36*
X116Y2163D02*
X116Y2121D01*
X118Y2121D01*
X118Y2119D01*
X122Y2119D01*
X122Y2117D01*
X124Y2117D01*
X124Y2115D01*
X128Y2115D01*
X128Y2113D01*
X130Y2113D01*
X130Y2111D01*
X132Y2111D01*
X132Y2109D01*
X136Y2109D01*
X136Y2107D01*
X138Y2107D01*
X138Y2105D01*
X140Y2105D01*
X140Y2103D01*
X144Y2103D01*
X144Y2101D01*
X146Y2101D01*
X146Y2099D01*
X150Y2099D01*
X150Y2097D01*
X152Y2097D01*
X152Y2095D01*
X154Y2095D01*
X154Y2093D01*
X158Y2093D01*
X158Y2091D01*
X160Y2091D01*
X160Y2089D01*
X162Y2089D01*
X162Y2087D01*
X166Y2087D01*
X166Y2083D01*
X168Y2083D01*
X168Y2079D01*
X170Y2079D01*
X170Y1913D01*
X172Y1913D01*
X172Y1751D01*
X174Y1751D01*
X174Y1749D01*
X176Y1749D01*
X176Y1747D01*
X180Y1747D01*
X180Y1745D01*
X182Y1745D01*
X182Y1743D01*
X184Y1743D01*
X184Y1741D01*
X186Y1741D01*
X186Y1739D01*
X188Y1739D01*
X188Y1737D01*
X190Y1737D01*
X190Y1735D01*
X192Y1735D01*
X192Y1733D01*
X194Y1733D01*
X194Y1731D01*
X196Y1731D01*
X196Y1729D01*
X198Y1729D01*
X198Y1727D01*
X202Y1727D01*
X202Y1725D01*
X204Y1725D01*
X204Y1723D01*
X206Y1723D01*
X206Y1721D01*
X208Y1721D01*
X208Y1719D01*
X210Y1719D01*
X210Y1717D01*
X212Y1717D01*
X212Y1715D01*
X214Y1715D01*
X214Y1713D01*
X216Y1713D01*
X216Y1711D01*
X218Y1711D01*
X218Y1709D01*
X220Y1709D01*
X220Y1707D01*
X222Y1707D01*
X222Y1705D01*
X226Y1705D01*
X226Y1703D01*
X228Y1703D01*
X228Y1701D01*
X230Y1701D01*
X230Y1699D01*
X232Y1699D01*
X232Y1697D01*
X234Y1697D01*
X234Y1695D01*
X236Y1695D01*
X236Y1693D01*
X238Y1693D01*
X238Y1691D01*
X240Y1691D01*
X240Y1689D01*
X242Y1689D01*
X242Y1687D01*
X244Y1687D01*
X244Y1685D01*
X248Y1685D01*
X248Y1683D01*
X250Y1683D01*
X250Y1681D01*
X252Y1681D01*
X252Y1679D01*
X254Y1679D01*
X254Y1677D01*
X256Y1677D01*
X256Y1675D01*
X258Y1675D01*
X258Y1673D01*
X260Y1673D01*
X260Y1671D01*
X262Y1671D01*
X262Y1669D01*
X264Y1669D01*
X264Y1667D01*
X266Y1667D01*
X266Y1665D01*
X268Y1665D01*
X268Y1663D01*
X272Y1663D01*
X272Y1661D01*
X274Y1661D01*
X274Y1659D01*
X276Y1659D01*
X276Y1657D01*
X278Y1657D01*
X278Y1655D01*
X280Y1655D01*
X280Y1653D01*
X282Y1653D01*
X282Y1651D01*
X396Y1651D01*
X396Y1649D01*
X404Y1649D01*
X404Y1647D01*
X410Y1647D01*
X410Y1645D01*
X412Y1645D01*
X412Y1643D01*
X416Y1643D01*
X416Y1641D01*
X418Y1641D01*
X418Y1639D01*
X420Y1639D01*
X420Y1637D01*
X422Y1637D01*
X422Y1635D01*
X424Y1635D01*
X424Y1633D01*
X426Y1633D01*
X426Y1631D01*
X428Y1631D01*
X428Y1627D01*
X430Y1627D01*
X430Y1623D01*
X432Y1623D01*
X432Y1617D01*
X434Y1617D01*
X434Y1593D01*
X432Y1593D01*
X432Y1413D01*
X434Y1413D01*
X434Y1337D01*
X476Y1337D01*
X476Y1675D01*
X474Y1675D01*
X474Y1677D01*
X472Y1677D01*
X472Y1679D01*
X470Y1679D01*
X470Y1681D01*
X468Y1681D01*
X468Y1683D01*
X466Y1683D01*
X466Y1685D01*
X464Y1685D01*
X464Y1687D01*
X462Y1687D01*
X462Y1689D01*
X460Y1689D01*
X460Y1691D01*
X456Y1691D01*
X456Y1693D01*
X454Y1693D01*
X454Y1695D01*
X452Y1695D01*
X452Y1697D01*
X450Y1697D01*
X450Y1699D01*
X448Y1699D01*
X448Y1701D01*
X446Y1701D01*
X446Y1703D01*
X444Y1703D01*
X444Y1705D01*
X442Y1705D01*
X442Y1707D01*
X440Y1707D01*
X440Y1709D01*
X438Y1709D01*
X438Y1711D01*
X436Y1711D01*
X436Y1713D01*
X434Y1713D01*
X434Y1715D01*
X432Y1715D01*
X432Y1717D01*
X428Y1717D01*
X428Y1719D01*
X426Y1719D01*
X426Y1721D01*
X424Y1721D01*
X424Y1723D01*
X422Y1723D01*
X422Y1725D01*
X420Y1725D01*
X420Y1727D01*
X418Y1727D01*
X418Y1729D01*
X416Y1729D01*
X416Y1733D01*
X414Y1733D01*
X414Y1773D01*
X412Y1773D01*
X412Y1881D01*
X410Y1881D01*
X410Y1989D01*
X412Y1989D01*
X412Y1993D01*
X414Y1993D01*
X414Y1995D01*
X416Y1995D01*
X416Y1999D01*
X418Y1999D01*
X418Y2001D01*
X420Y2001D01*
X420Y2005D01*
X422Y2005D01*
X422Y2007D01*
X424Y2007D01*
X424Y2011D01*
X426Y2011D01*
X426Y2013D01*
X428Y2013D01*
X428Y2017D01*
X430Y2017D01*
X430Y2021D01*
X432Y2021D01*
X432Y2023D01*
X434Y2023D01*
X434Y2027D01*
X436Y2027D01*
X436Y2029D01*
X438Y2029D01*
X438Y2033D01*
X440Y2033D01*
X440Y2035D01*
X442Y2035D01*
X442Y2039D01*
X444Y2039D01*
X444Y2043D01*
X446Y2043D01*
X446Y2045D01*
X448Y2045D01*
X448Y2049D01*
X450Y2049D01*
X450Y2051D01*
X452Y2051D01*
X452Y2055D01*
X454Y2055D01*
X454Y2057D01*
X456Y2057D01*
X456Y2061D01*
X458Y2061D01*
X458Y2063D01*
X460Y2063D01*
X460Y2067D01*
X462Y2067D01*
X462Y2071D01*
X464Y2071D01*
X464Y2073D01*
X466Y2073D01*
X466Y2077D01*
X468Y2077D01*
X468Y2079D01*
X470Y2079D01*
X470Y2083D01*
X472Y2083D01*
X472Y2085D01*
X474Y2085D01*
X474Y2089D01*
X476Y2089D01*
X476Y2093D01*
X478Y2093D01*
X478Y2095D01*
X480Y2095D01*
X480Y2163D01*
X116Y2163D01*
G37*
D02*
G36*
X298Y1651D02*
X298Y1649D01*
X306Y1649D01*
X306Y1647D01*
X310Y1647D01*
X310Y1645D01*
X314Y1645D01*
X314Y1643D01*
X318Y1643D01*
X318Y1641D01*
X320Y1641D01*
X320Y1639D01*
X322Y1639D01*
X322Y1637D01*
X324Y1637D01*
X324Y1635D01*
X326Y1635D01*
X326Y1633D01*
X328Y1633D01*
X328Y1631D01*
X330Y1631D01*
X330Y1627D01*
X350Y1627D01*
X350Y1629D01*
X352Y1629D01*
X352Y1631D01*
X354Y1631D01*
X354Y1635D01*
X356Y1635D01*
X356Y1637D01*
X358Y1637D01*
X358Y1639D01*
X360Y1639D01*
X360Y1641D01*
X364Y1641D01*
X364Y1643D01*
X366Y1643D01*
X366Y1645D01*
X370Y1645D01*
X370Y1647D01*
X374Y1647D01*
X374Y1649D01*
X382Y1649D01*
X382Y1651D01*
X298Y1651D01*
G37*
D02*
G36*
X40Y2089D02*
X40Y1961D01*
X88Y1961D01*
X88Y1959D01*
X94Y1959D01*
X94Y1957D01*
X98Y1957D01*
X98Y1955D01*
X102Y1955D01*
X102Y1953D01*
X106Y1953D01*
X106Y1951D01*
X108Y1951D01*
X108Y1949D01*
X112Y1949D01*
X112Y1947D01*
X114Y1947D01*
X114Y1945D01*
X116Y1945D01*
X116Y1943D01*
X118Y1943D01*
X118Y1941D01*
X138Y1941D01*
X138Y2067D01*
X136Y2067D01*
X136Y2069D01*
X134Y2069D01*
X134Y2071D01*
X130Y2071D01*
X130Y2073D01*
X128Y2073D01*
X128Y2075D01*
X124Y2075D01*
X124Y2077D01*
X122Y2077D01*
X122Y2079D01*
X120Y2079D01*
X120Y2081D01*
X116Y2081D01*
X116Y2083D01*
X114Y2083D01*
X114Y2085D01*
X112Y2085D01*
X112Y2087D01*
X108Y2087D01*
X108Y2089D01*
X40Y2089D01*
G37*
D02*
G36*
X444Y1861D02*
X444Y1773D01*
X446Y1773D01*
X446Y1745D01*
X448Y1745D01*
X448Y1743D01*
X450Y1743D01*
X450Y1741D01*
X452Y1741D01*
X452Y1739D01*
X454Y1739D01*
X454Y1737D01*
X456Y1737D01*
X456Y1735D01*
X458Y1735D01*
X458Y1733D01*
X460Y1733D01*
X460Y1731D01*
X464Y1731D01*
X464Y1729D01*
X466Y1729D01*
X466Y1727D01*
X468Y1727D01*
X468Y1725D01*
X470Y1725D01*
X470Y1723D01*
X472Y1723D01*
X472Y1721D01*
X474Y1721D01*
X474Y1719D01*
X476Y1719D01*
X476Y1717D01*
X478Y1717D01*
X478Y1715D01*
X480Y1715D01*
X480Y1713D01*
X482Y1713D01*
X482Y1711D01*
X484Y1711D01*
X484Y1709D01*
X486Y1709D01*
X486Y1707D01*
X488Y1707D01*
X488Y1705D01*
X492Y1705D01*
X492Y1703D01*
X494Y1703D01*
X494Y1701D01*
X496Y1701D01*
X496Y1699D01*
X498Y1699D01*
X498Y1697D01*
X500Y1697D01*
X500Y1695D01*
X502Y1695D01*
X502Y1693D01*
X504Y1693D01*
X504Y1691D01*
X506Y1691D01*
X506Y1687D01*
X508Y1687D01*
X508Y1337D01*
X530Y1337D01*
X530Y1839D01*
X500Y1839D01*
X500Y1841D01*
X492Y1841D01*
X492Y1843D01*
X486Y1843D01*
X486Y1845D01*
X482Y1845D01*
X482Y1847D01*
X478Y1847D01*
X478Y1849D01*
X476Y1849D01*
X476Y1851D01*
X472Y1851D01*
X472Y1853D01*
X470Y1853D01*
X470Y1855D01*
X468Y1855D01*
X468Y1857D01*
X466Y1857D01*
X466Y1859D01*
X464Y1859D01*
X464Y1861D01*
X444Y1861D01*
G37*
D02*
G36*
X120Y1863D02*
X120Y1861D01*
X118Y1861D01*
X118Y1859D01*
X116Y1859D01*
X116Y1857D01*
X114Y1857D01*
X114Y1855D01*
X112Y1855D01*
X112Y1853D01*
X110Y1853D01*
X110Y1851D01*
X108Y1851D01*
X108Y1849D01*
X104Y1849D01*
X104Y1847D01*
X100Y1847D01*
X100Y1845D01*
X96Y1845D01*
X96Y1843D01*
X90Y1843D01*
X90Y1841D01*
X82Y1841D01*
X82Y1839D01*
X140Y1839D01*
X140Y1863D01*
X120Y1863D01*
G37*
D02*
G36*
X40Y1841D02*
X40Y1839D01*
X64Y1839D01*
X64Y1841D01*
X40Y1841D01*
G37*
D02*
G36*
X40Y1839D02*
X40Y1837D01*
X140Y1837D01*
X140Y1839D01*
X40Y1839D01*
G37*
D02*
G36*
X40Y1839D02*
X40Y1837D01*
X140Y1837D01*
X140Y1839D01*
X40Y1839D01*
G37*
D02*
G36*
X40Y1837D02*
X40Y1667D01*
X78Y1667D01*
X78Y1665D01*
X84Y1665D01*
X84Y1663D01*
X88Y1663D01*
X88Y1661D01*
X92Y1661D01*
X92Y1659D01*
X96Y1659D01*
X96Y1657D01*
X98Y1657D01*
X98Y1655D01*
X100Y1655D01*
X100Y1653D01*
X102Y1653D01*
X102Y1651D01*
X200Y1651D01*
X200Y1649D01*
X208Y1649D01*
X208Y1647D01*
X212Y1647D01*
X212Y1645D01*
X216Y1645D01*
X216Y1643D01*
X220Y1643D01*
X220Y1641D01*
X222Y1641D01*
X222Y1639D01*
X224Y1639D01*
X224Y1637D01*
X226Y1637D01*
X226Y1635D01*
X228Y1635D01*
X228Y1633D01*
X248Y1633D01*
X248Y1641D01*
X246Y1641D01*
X246Y1643D01*
X244Y1643D01*
X244Y1645D01*
X242Y1645D01*
X242Y1647D01*
X240Y1647D01*
X240Y1649D01*
X236Y1649D01*
X236Y1651D01*
X234Y1651D01*
X234Y1653D01*
X232Y1653D01*
X232Y1655D01*
X230Y1655D01*
X230Y1657D01*
X228Y1657D01*
X228Y1659D01*
X226Y1659D01*
X226Y1661D01*
X224Y1661D01*
X224Y1663D01*
X222Y1663D01*
X222Y1665D01*
X220Y1665D01*
X220Y1667D01*
X218Y1667D01*
X218Y1669D01*
X214Y1669D01*
X214Y1671D01*
X212Y1671D01*
X212Y1673D01*
X210Y1673D01*
X210Y1675D01*
X208Y1675D01*
X208Y1677D01*
X206Y1677D01*
X206Y1679D01*
X204Y1679D01*
X204Y1681D01*
X202Y1681D01*
X202Y1683D01*
X200Y1683D01*
X200Y1685D01*
X198Y1685D01*
X198Y1687D01*
X196Y1687D01*
X196Y1689D01*
X194Y1689D01*
X194Y1691D01*
X190Y1691D01*
X190Y1693D01*
X188Y1693D01*
X188Y1695D01*
X186Y1695D01*
X186Y1697D01*
X184Y1697D01*
X184Y1699D01*
X182Y1699D01*
X182Y1701D01*
X180Y1701D01*
X180Y1703D01*
X178Y1703D01*
X178Y1705D01*
X176Y1705D01*
X176Y1707D01*
X174Y1707D01*
X174Y1709D01*
X172Y1709D01*
X172Y1711D01*
X168Y1711D01*
X168Y1713D01*
X166Y1713D01*
X166Y1715D01*
X164Y1715D01*
X164Y1717D01*
X162Y1717D01*
X162Y1719D01*
X160Y1719D01*
X160Y1721D01*
X158Y1721D01*
X158Y1723D01*
X156Y1723D01*
X156Y1725D01*
X154Y1725D01*
X154Y1727D01*
X152Y1727D01*
X152Y1729D01*
X150Y1729D01*
X150Y1731D01*
X148Y1731D01*
X148Y1733D01*
X146Y1733D01*
X146Y1735D01*
X144Y1735D01*
X144Y1737D01*
X142Y1737D01*
X142Y1741D01*
X140Y1741D01*
X140Y1837D01*
X40Y1837D01*
G37*
D02*
G36*
X104Y1651D02*
X104Y1649D01*
X106Y1649D01*
X106Y1645D01*
X108Y1645D01*
X108Y1643D01*
X110Y1643D01*
X110Y1639D01*
X112Y1639D01*
X112Y1633D01*
X114Y1633D01*
X114Y1625D01*
X116Y1625D01*
X116Y1611D01*
X114Y1611D01*
X114Y1603D01*
X112Y1603D01*
X112Y1597D01*
X110Y1597D01*
X110Y1595D01*
X108Y1595D01*
X108Y1591D01*
X106Y1591D01*
X106Y1589D01*
X104Y1589D01*
X104Y1585D01*
X102Y1585D01*
X102Y1583D01*
X100Y1583D01*
X100Y1581D01*
X96Y1581D01*
X96Y1579D01*
X94Y1579D01*
X94Y1559D01*
X190Y1559D01*
X190Y1561D01*
X180Y1561D01*
X180Y1563D01*
X174Y1563D01*
X174Y1565D01*
X170Y1565D01*
X170Y1567D01*
X166Y1567D01*
X166Y1569D01*
X164Y1569D01*
X164Y1571D01*
X162Y1571D01*
X162Y1573D01*
X160Y1573D01*
X160Y1575D01*
X158Y1575D01*
X158Y1577D01*
X156Y1577D01*
X156Y1581D01*
X154Y1581D01*
X154Y1583D01*
X152Y1583D01*
X152Y1587D01*
X150Y1587D01*
X150Y1593D01*
X148Y1593D01*
X148Y1617D01*
X150Y1617D01*
X150Y1623D01*
X152Y1623D01*
X152Y1627D01*
X154Y1627D01*
X154Y1631D01*
X156Y1631D01*
X156Y1633D01*
X158Y1633D01*
X158Y1635D01*
X160Y1635D01*
X160Y1637D01*
X162Y1637D01*
X162Y1639D01*
X164Y1639D01*
X164Y1641D01*
X166Y1641D01*
X166Y1643D01*
X170Y1643D01*
X170Y1645D01*
X172Y1645D01*
X172Y1647D01*
X178Y1647D01*
X178Y1649D01*
X186Y1649D01*
X186Y1651D01*
X104Y1651D01*
G37*
D02*
G36*
X232Y1585D02*
X232Y1581D01*
X230Y1581D01*
X230Y1579D01*
X228Y1579D01*
X228Y1575D01*
X226Y1575D01*
X226Y1573D01*
X224Y1573D01*
X224Y1571D01*
X220Y1571D01*
X220Y1569D01*
X218Y1569D01*
X218Y1567D01*
X216Y1567D01*
X216Y1565D01*
X212Y1565D01*
X212Y1563D01*
X206Y1563D01*
X206Y1561D01*
X196Y1561D01*
X196Y1559D01*
X288Y1559D01*
X288Y1561D01*
X278Y1561D01*
X278Y1563D01*
X272Y1563D01*
X272Y1565D01*
X268Y1565D01*
X268Y1567D01*
X266Y1567D01*
X266Y1569D01*
X262Y1569D01*
X262Y1571D01*
X260Y1571D01*
X260Y1573D01*
X258Y1573D01*
X258Y1575D01*
X256Y1575D01*
X256Y1579D01*
X254Y1579D01*
X254Y1581D01*
X252Y1581D01*
X252Y1585D01*
X232Y1585D01*
G37*
D02*
G36*
X330Y1583D02*
X330Y1581D01*
X328Y1581D01*
X328Y1577D01*
X326Y1577D01*
X326Y1575D01*
X324Y1575D01*
X324Y1573D01*
X322Y1573D01*
X322Y1571D01*
X320Y1571D01*
X320Y1569D01*
X316Y1569D01*
X316Y1567D01*
X314Y1567D01*
X314Y1565D01*
X310Y1565D01*
X310Y1563D01*
X304Y1563D01*
X304Y1561D01*
X294Y1561D01*
X294Y1559D01*
X386Y1559D01*
X386Y1561D01*
X376Y1561D01*
X376Y1563D01*
X370Y1563D01*
X370Y1565D01*
X368Y1565D01*
X368Y1567D01*
X364Y1567D01*
X364Y1569D01*
X362Y1569D01*
X362Y1571D01*
X358Y1571D01*
X358Y1573D01*
X356Y1573D01*
X356Y1577D01*
X354Y1577D01*
X354Y1579D01*
X352Y1579D01*
X352Y1581D01*
X350Y1581D01*
X350Y1583D01*
X330Y1583D01*
G37*
D02*
G36*
X96Y1559D02*
X96Y1557D01*
X400Y1557D01*
X400Y1559D01*
X96Y1559D01*
G37*
D02*
G36*
X96Y1559D02*
X96Y1557D01*
X400Y1557D01*
X400Y1559D01*
X96Y1559D01*
G37*
D02*
G36*
X96Y1559D02*
X96Y1557D01*
X400Y1557D01*
X400Y1559D01*
X96Y1559D01*
G37*
D02*
G36*
X98Y1557D02*
X98Y1555D01*
X100Y1555D01*
X100Y1553D01*
X102Y1553D01*
X102Y1551D01*
X104Y1551D01*
X104Y1549D01*
X106Y1549D01*
X106Y1545D01*
X108Y1545D01*
X108Y1543D01*
X110Y1543D01*
X110Y1539D01*
X112Y1539D01*
X112Y1533D01*
X114Y1533D01*
X114Y1529D01*
X322Y1529D01*
X322Y1527D01*
X328Y1527D01*
X328Y1525D01*
X330Y1525D01*
X330Y1523D01*
X334Y1523D01*
X334Y1521D01*
X336Y1521D01*
X336Y1519D01*
X338Y1519D01*
X338Y1517D01*
X364Y1517D01*
X364Y1515D01*
X368Y1515D01*
X368Y1513D01*
X372Y1513D01*
X372Y1511D01*
X374Y1511D01*
X374Y1509D01*
X376Y1509D01*
X376Y1507D01*
X378Y1507D01*
X378Y1505D01*
X380Y1505D01*
X380Y1501D01*
X400Y1501D01*
X400Y1557D01*
X98Y1557D01*
G37*
D02*
G36*
X434Y1231D02*
X434Y957D01*
X436Y957D01*
X436Y939D01*
X530Y939D01*
X530Y1231D01*
X434Y1231D01*
G37*
D02*
G36*
X436Y831D02*
X436Y561D01*
X438Y561D01*
X438Y559D01*
X440Y559D01*
X440Y557D01*
X442Y557D01*
X442Y555D01*
X444Y555D01*
X444Y553D01*
X446Y553D01*
X446Y551D01*
X448Y551D01*
X448Y549D01*
X450Y549D01*
X450Y547D01*
X452Y547D01*
X452Y545D01*
X454Y545D01*
X454Y543D01*
X456Y543D01*
X456Y541D01*
X458Y541D01*
X458Y539D01*
X460Y539D01*
X460Y537D01*
X462Y537D01*
X462Y535D01*
X530Y535D01*
X530Y831D01*
X436Y831D01*
G37*
D02*
G36*
X408Y525D02*
X408Y447D01*
X410Y447D01*
X410Y163D01*
X412Y163D01*
X412Y161D01*
X414Y161D01*
X414Y159D01*
X416Y159D01*
X416Y157D01*
X420Y157D01*
X420Y155D01*
X422Y155D01*
X422Y153D01*
X426Y153D01*
X426Y151D01*
X428Y151D01*
X428Y149D01*
X430Y149D01*
X430Y147D01*
X434Y147D01*
X434Y145D01*
X436Y145D01*
X436Y143D01*
X438Y143D01*
X438Y141D01*
X442Y141D01*
X442Y139D01*
X444Y139D01*
X444Y137D01*
X530Y137D01*
X530Y429D01*
X438Y429D01*
X438Y515D01*
X436Y515D01*
X436Y517D01*
X434Y517D01*
X434Y519D01*
X432Y519D01*
X432Y521D01*
X430Y521D01*
X430Y523D01*
X428Y523D01*
X428Y525D01*
X408Y525D01*
G37*
D02*
G36*
X118Y1437D02*
X118Y1435D01*
X116Y1435D01*
X116Y1369D01*
X40Y1369D01*
X40Y1337D01*
X300Y1337D01*
X300Y1335D01*
X308Y1335D01*
X308Y1333D01*
X312Y1333D01*
X312Y1331D01*
X316Y1331D01*
X316Y1329D01*
X320Y1329D01*
X320Y1327D01*
X324Y1327D01*
X324Y1325D01*
X326Y1325D01*
X326Y1323D01*
X328Y1323D01*
X328Y1321D01*
X330Y1321D01*
X330Y1319D01*
X332Y1319D01*
X332Y1317D01*
X334Y1317D01*
X334Y1313D01*
X336Y1313D01*
X336Y1311D01*
X338Y1311D01*
X338Y1307D01*
X340Y1307D01*
X340Y1301D01*
X342Y1301D01*
X342Y1295D01*
X344Y1295D01*
X344Y1273D01*
X342Y1273D01*
X342Y1265D01*
X340Y1265D01*
X340Y1261D01*
X338Y1261D01*
X338Y1257D01*
X336Y1257D01*
X336Y1253D01*
X334Y1253D01*
X334Y1251D01*
X332Y1251D01*
X332Y1249D01*
X330Y1249D01*
X330Y1247D01*
X328Y1247D01*
X328Y1245D01*
X326Y1245D01*
X326Y1243D01*
X324Y1243D01*
X324Y1241D01*
X322Y1241D01*
X322Y1239D01*
X318Y1239D01*
X318Y1237D01*
X314Y1237D01*
X314Y1235D01*
X310Y1235D01*
X310Y1233D01*
X304Y1233D01*
X304Y1231D01*
X374Y1231D01*
X374Y1365D01*
X372Y1365D01*
X372Y1367D01*
X370Y1367D01*
X370Y1369D01*
X368Y1369D01*
X368Y1371D01*
X366Y1371D01*
X366Y1373D01*
X364Y1373D01*
X364Y1375D01*
X362Y1375D01*
X362Y1377D01*
X360Y1377D01*
X360Y1379D01*
X358Y1379D01*
X358Y1381D01*
X356Y1381D01*
X356Y1383D01*
X354Y1383D01*
X354Y1385D01*
X352Y1385D01*
X352Y1387D01*
X350Y1387D01*
X350Y1389D01*
X348Y1389D01*
X348Y1393D01*
X346Y1393D01*
X346Y1395D01*
X344Y1395D01*
X344Y1397D01*
X342Y1397D01*
X342Y1399D01*
X340Y1399D01*
X340Y1401D01*
X338Y1401D01*
X338Y1403D01*
X336Y1403D01*
X336Y1405D01*
X334Y1405D01*
X334Y1407D01*
X332Y1407D01*
X332Y1409D01*
X330Y1409D01*
X330Y1411D01*
X328Y1411D01*
X328Y1413D01*
X326Y1413D01*
X326Y1415D01*
X324Y1415D01*
X324Y1417D01*
X322Y1417D01*
X322Y1419D01*
X320Y1419D01*
X320Y1421D01*
X318Y1421D01*
X318Y1423D01*
X316Y1423D01*
X316Y1425D01*
X314Y1425D01*
X314Y1429D01*
X312Y1429D01*
X312Y1431D01*
X310Y1431D01*
X310Y1433D01*
X308Y1433D01*
X308Y1435D01*
X306Y1435D01*
X306Y1437D01*
X118Y1437D01*
G37*
D02*
G36*
X40Y1337D02*
X40Y1331D01*
X170Y1331D01*
X170Y1329D01*
X180Y1329D01*
X180Y1327D01*
X184Y1327D01*
X184Y1325D01*
X188Y1325D01*
X188Y1323D01*
X192Y1323D01*
X192Y1321D01*
X194Y1321D01*
X194Y1319D01*
X198Y1319D01*
X198Y1317D01*
X200Y1317D01*
X200Y1315D01*
X202Y1315D01*
X202Y1311D01*
X204Y1311D01*
X204Y1309D01*
X206Y1309D01*
X206Y1307D01*
X208Y1307D01*
X208Y1303D01*
X210Y1303D01*
X210Y1299D01*
X212Y1299D01*
X212Y1291D01*
X214Y1291D01*
X214Y1269D01*
X212Y1269D01*
X212Y1263D01*
X210Y1263D01*
X210Y1259D01*
X208Y1259D01*
X208Y1255D01*
X206Y1255D01*
X206Y1253D01*
X204Y1253D01*
X204Y1249D01*
X202Y1249D01*
X202Y1247D01*
X200Y1247D01*
X200Y1245D01*
X198Y1245D01*
X198Y1243D01*
X194Y1243D01*
X194Y1241D01*
X192Y1241D01*
X192Y1239D01*
X188Y1239D01*
X188Y1237D01*
X186Y1237D01*
X186Y1235D01*
X180Y1235D01*
X180Y1233D01*
X172Y1233D01*
X172Y1231D01*
X278Y1231D01*
X278Y1233D01*
X272Y1233D01*
X272Y1235D01*
X268Y1235D01*
X268Y1237D01*
X264Y1237D01*
X264Y1239D01*
X260Y1239D01*
X260Y1241D01*
X258Y1241D01*
X258Y1243D01*
X256Y1243D01*
X256Y1245D01*
X254Y1245D01*
X254Y1247D01*
X252Y1247D01*
X252Y1249D01*
X250Y1249D01*
X250Y1251D01*
X248Y1251D01*
X248Y1255D01*
X246Y1255D01*
X246Y1257D01*
X244Y1257D01*
X244Y1261D01*
X242Y1261D01*
X242Y1267D01*
X240Y1267D01*
X240Y1273D01*
X238Y1273D01*
X238Y1295D01*
X240Y1295D01*
X240Y1301D01*
X242Y1301D01*
X242Y1305D01*
X244Y1305D01*
X244Y1309D01*
X246Y1309D01*
X246Y1313D01*
X248Y1313D01*
X248Y1315D01*
X250Y1315D01*
X250Y1319D01*
X252Y1319D01*
X252Y1321D01*
X254Y1321D01*
X254Y1323D01*
X256Y1323D01*
X256Y1325D01*
X260Y1325D01*
X260Y1327D01*
X262Y1327D01*
X262Y1329D01*
X266Y1329D01*
X266Y1331D01*
X270Y1331D01*
X270Y1333D01*
X274Y1333D01*
X274Y1335D01*
X282Y1335D01*
X282Y1337D01*
X40Y1337D01*
G37*
D02*
G36*
X40Y1331D02*
X40Y1321D01*
X70Y1321D01*
X70Y1319D01*
X78Y1319D01*
X78Y1317D01*
X82Y1317D01*
X82Y1315D01*
X84Y1315D01*
X84Y1313D01*
X88Y1313D01*
X88Y1311D01*
X90Y1311D01*
X90Y1309D01*
X92Y1309D01*
X92Y1307D01*
X94Y1307D01*
X94Y1305D01*
X96Y1305D01*
X96Y1301D01*
X98Y1301D01*
X98Y1297D01*
X118Y1297D01*
X118Y1301D01*
X120Y1301D01*
X120Y1305D01*
X122Y1305D01*
X122Y1309D01*
X124Y1309D01*
X124Y1311D01*
X126Y1311D01*
X126Y1313D01*
X128Y1313D01*
X128Y1315D01*
X130Y1315D01*
X130Y1317D01*
X132Y1317D01*
X132Y1319D01*
X134Y1319D01*
X134Y1321D01*
X136Y1321D01*
X136Y1323D01*
X140Y1323D01*
X140Y1325D01*
X144Y1325D01*
X144Y1327D01*
X148Y1327D01*
X148Y1329D01*
X158Y1329D01*
X158Y1331D01*
X40Y1331D01*
G37*
D02*
G36*
X98Y1265D02*
X98Y1261D01*
X96Y1261D01*
X96Y1257D01*
X94Y1257D01*
X94Y1255D01*
X92Y1255D01*
X92Y1253D01*
X90Y1253D01*
X90Y1251D01*
X88Y1251D01*
X88Y1249D01*
X86Y1249D01*
X86Y1247D01*
X82Y1247D01*
X82Y1245D01*
X78Y1245D01*
X78Y1243D01*
X72Y1243D01*
X72Y1241D01*
X40Y1241D01*
X40Y1231D01*
X156Y1231D01*
X156Y1233D01*
X148Y1233D01*
X148Y1235D01*
X144Y1235D01*
X144Y1237D01*
X140Y1237D01*
X140Y1239D01*
X136Y1239D01*
X136Y1241D01*
X134Y1241D01*
X134Y1243D01*
X132Y1243D01*
X132Y1245D01*
X128Y1245D01*
X128Y1249D01*
X126Y1249D01*
X126Y1251D01*
X124Y1251D01*
X124Y1253D01*
X122Y1253D01*
X122Y1257D01*
X120Y1257D01*
X120Y1261D01*
X118Y1261D01*
X118Y1265D01*
X98Y1265D01*
G37*
D02*
G36*
X40Y1231D02*
X40Y1229D01*
X374Y1229D01*
X374Y1231D01*
X40Y1231D01*
G37*
D02*
G36*
X40Y1231D02*
X40Y1229D01*
X374Y1229D01*
X374Y1231D01*
X40Y1231D01*
G37*
D02*
G36*
X40Y1231D02*
X40Y1229D01*
X374Y1229D01*
X374Y1231D01*
X40Y1231D01*
G37*
D02*
G36*
X40Y1229D02*
X40Y939D01*
X302Y939D01*
X302Y937D01*
X308Y937D01*
X308Y935D01*
X314Y935D01*
X314Y933D01*
X318Y933D01*
X318Y931D01*
X320Y931D01*
X320Y929D01*
X324Y929D01*
X324Y927D01*
X326Y927D01*
X326Y925D01*
X328Y925D01*
X328Y923D01*
X330Y923D01*
X330Y921D01*
X332Y921D01*
X332Y919D01*
X334Y919D01*
X334Y917D01*
X336Y917D01*
X336Y913D01*
X338Y913D01*
X338Y909D01*
X340Y909D01*
X340Y905D01*
X342Y905D01*
X342Y897D01*
X344Y897D01*
X344Y875D01*
X342Y875D01*
X342Y867D01*
X340Y867D01*
X340Y863D01*
X338Y863D01*
X338Y859D01*
X336Y859D01*
X336Y855D01*
X334Y855D01*
X334Y853D01*
X332Y853D01*
X332Y851D01*
X330Y851D01*
X330Y849D01*
X328Y849D01*
X328Y847D01*
X326Y847D01*
X326Y845D01*
X324Y845D01*
X324Y843D01*
X320Y843D01*
X320Y841D01*
X318Y841D01*
X318Y839D01*
X314Y839D01*
X314Y837D01*
X308Y837D01*
X308Y835D01*
X302Y835D01*
X302Y833D01*
X376Y833D01*
X376Y993D01*
X374Y993D01*
X374Y1229D01*
X40Y1229D01*
G37*
D02*
G36*
X40Y939D02*
X40Y933D01*
X166Y933D01*
X166Y931D01*
X178Y931D01*
X178Y929D01*
X184Y929D01*
X184Y927D01*
X188Y927D01*
X188Y925D01*
X192Y925D01*
X192Y923D01*
X194Y923D01*
X194Y921D01*
X196Y921D01*
X196Y919D01*
X200Y919D01*
X200Y915D01*
X202Y915D01*
X202Y913D01*
X204Y913D01*
X204Y911D01*
X206Y911D01*
X206Y907D01*
X208Y907D01*
X208Y905D01*
X210Y905D01*
X210Y901D01*
X212Y901D01*
X212Y893D01*
X214Y893D01*
X214Y871D01*
X212Y871D01*
X212Y865D01*
X210Y865D01*
X210Y861D01*
X208Y861D01*
X208Y857D01*
X206Y857D01*
X206Y853D01*
X204Y853D01*
X204Y851D01*
X202Y851D01*
X202Y849D01*
X200Y849D01*
X200Y847D01*
X198Y847D01*
X198Y845D01*
X196Y845D01*
X196Y843D01*
X192Y843D01*
X192Y841D01*
X190Y841D01*
X190Y839D01*
X186Y839D01*
X186Y837D01*
X182Y837D01*
X182Y835D01*
X174Y835D01*
X174Y833D01*
X280Y833D01*
X280Y835D01*
X274Y835D01*
X274Y837D01*
X268Y837D01*
X268Y839D01*
X264Y839D01*
X264Y841D01*
X262Y841D01*
X262Y843D01*
X258Y843D01*
X258Y845D01*
X256Y845D01*
X256Y847D01*
X254Y847D01*
X254Y849D01*
X252Y849D01*
X252Y851D01*
X250Y851D01*
X250Y853D01*
X248Y853D01*
X248Y857D01*
X246Y857D01*
X246Y861D01*
X244Y861D01*
X244Y863D01*
X242Y863D01*
X242Y869D01*
X240Y869D01*
X240Y875D01*
X238Y875D01*
X238Y897D01*
X240Y897D01*
X240Y903D01*
X242Y903D01*
X242Y909D01*
X244Y909D01*
X244Y911D01*
X246Y911D01*
X246Y915D01*
X248Y915D01*
X248Y919D01*
X250Y919D01*
X250Y921D01*
X252Y921D01*
X252Y923D01*
X254Y923D01*
X254Y925D01*
X256Y925D01*
X256Y927D01*
X258Y927D01*
X258Y929D01*
X262Y929D01*
X262Y931D01*
X264Y931D01*
X264Y933D01*
X268Y933D01*
X268Y935D01*
X274Y935D01*
X274Y937D01*
X280Y937D01*
X280Y939D01*
X40Y939D01*
G37*
D02*
G36*
X40Y933D02*
X40Y923D01*
X68Y923D01*
X68Y921D01*
X76Y921D01*
X76Y919D01*
X80Y919D01*
X80Y917D01*
X84Y917D01*
X84Y915D01*
X86Y915D01*
X86Y913D01*
X90Y913D01*
X90Y911D01*
X92Y911D01*
X92Y909D01*
X94Y909D01*
X94Y905D01*
X96Y905D01*
X96Y903D01*
X98Y903D01*
X98Y899D01*
X118Y899D01*
X118Y903D01*
X120Y903D01*
X120Y907D01*
X122Y907D01*
X122Y911D01*
X124Y911D01*
X124Y913D01*
X126Y913D01*
X126Y915D01*
X128Y915D01*
X128Y917D01*
X130Y917D01*
X130Y919D01*
X132Y919D01*
X132Y921D01*
X134Y921D01*
X134Y923D01*
X138Y923D01*
X138Y925D01*
X140Y925D01*
X140Y927D01*
X144Y927D01*
X144Y929D01*
X150Y929D01*
X150Y931D01*
X164Y931D01*
X164Y933D01*
X40Y933D01*
G37*
D02*
G36*
X98Y867D02*
X98Y863D01*
X96Y863D01*
X96Y859D01*
X94Y859D01*
X94Y857D01*
X92Y857D01*
X92Y855D01*
X90Y855D01*
X90Y853D01*
X88Y853D01*
X88Y851D01*
X86Y851D01*
X86Y849D01*
X82Y849D01*
X82Y847D01*
X78Y847D01*
X78Y845D01*
X72Y845D01*
X72Y843D01*
X40Y843D01*
X40Y833D01*
X154Y833D01*
X154Y835D01*
X148Y835D01*
X148Y837D01*
X142Y837D01*
X142Y839D01*
X140Y839D01*
X140Y841D01*
X136Y841D01*
X136Y843D01*
X134Y843D01*
X134Y845D01*
X130Y845D01*
X130Y847D01*
X128Y847D01*
X128Y849D01*
X126Y849D01*
X126Y853D01*
X124Y853D01*
X124Y855D01*
X122Y855D01*
X122Y859D01*
X120Y859D01*
X120Y861D01*
X118Y861D01*
X118Y867D01*
X98Y867D01*
G37*
D02*
G36*
X40Y833D02*
X40Y831D01*
X376Y831D01*
X376Y833D01*
X40Y833D01*
G37*
D02*
G36*
X40Y833D02*
X40Y831D01*
X376Y831D01*
X376Y833D01*
X40Y833D01*
G37*
D02*
G36*
X40Y833D02*
X40Y831D01*
X376Y831D01*
X376Y833D01*
X40Y833D01*
G37*
D02*
G36*
X40Y831D02*
X40Y533D01*
X304Y533D01*
X304Y531D01*
X310Y531D01*
X310Y529D01*
X314Y529D01*
X314Y527D01*
X318Y527D01*
X318Y525D01*
X322Y525D01*
X322Y523D01*
X324Y523D01*
X324Y521D01*
X326Y521D01*
X326Y519D01*
X328Y519D01*
X328Y517D01*
X330Y517D01*
X330Y515D01*
X332Y515D01*
X332Y513D01*
X334Y513D01*
X334Y511D01*
X336Y511D01*
X336Y507D01*
X338Y507D01*
X338Y503D01*
X340Y503D01*
X340Y499D01*
X342Y499D01*
X342Y493D01*
X344Y493D01*
X344Y469D01*
X342Y469D01*
X342Y463D01*
X340Y463D01*
X340Y457D01*
X338Y457D01*
X338Y455D01*
X336Y455D01*
X336Y451D01*
X334Y451D01*
X334Y447D01*
X332Y447D01*
X332Y445D01*
X330Y445D01*
X330Y443D01*
X328Y443D01*
X328Y441D01*
X326Y441D01*
X326Y439D01*
X322Y439D01*
X322Y437D01*
X320Y437D01*
X320Y435D01*
X316Y435D01*
X316Y433D01*
X312Y433D01*
X312Y431D01*
X308Y431D01*
X308Y429D01*
X300Y429D01*
X300Y427D01*
X378Y427D01*
X378Y449D01*
X376Y449D01*
X376Y831D01*
X40Y831D01*
G37*
D02*
G36*
X40Y533D02*
X40Y529D01*
X174Y529D01*
X174Y527D01*
X180Y527D01*
X180Y525D01*
X186Y525D01*
X186Y523D01*
X190Y523D01*
X190Y521D01*
X192Y521D01*
X192Y519D01*
X196Y519D01*
X196Y517D01*
X198Y517D01*
X198Y515D01*
X200Y515D01*
X200Y513D01*
X202Y513D01*
X202Y511D01*
X204Y511D01*
X204Y507D01*
X206Y507D01*
X206Y505D01*
X208Y505D01*
X208Y501D01*
X210Y501D01*
X210Y497D01*
X212Y497D01*
X212Y491D01*
X214Y491D01*
X214Y469D01*
X212Y469D01*
X212Y461D01*
X210Y461D01*
X210Y457D01*
X208Y457D01*
X208Y453D01*
X206Y453D01*
X206Y451D01*
X204Y451D01*
X204Y449D01*
X202Y449D01*
X202Y445D01*
X200Y445D01*
X200Y443D01*
X196Y443D01*
X196Y441D01*
X194Y441D01*
X194Y439D01*
X192Y439D01*
X192Y437D01*
X188Y437D01*
X188Y435D01*
X184Y435D01*
X184Y433D01*
X178Y433D01*
X178Y431D01*
X168Y431D01*
X168Y429D01*
X274Y429D01*
X274Y431D01*
X270Y431D01*
X270Y433D01*
X266Y433D01*
X266Y435D01*
X262Y435D01*
X262Y437D01*
X260Y437D01*
X260Y439D01*
X256Y439D01*
X256Y441D01*
X254Y441D01*
X254Y443D01*
X252Y443D01*
X252Y445D01*
X250Y445D01*
X250Y449D01*
X248Y449D01*
X248Y451D01*
X246Y451D01*
X246Y455D01*
X244Y455D01*
X244Y459D01*
X242Y459D01*
X242Y463D01*
X240Y463D01*
X240Y471D01*
X238Y471D01*
X238Y491D01*
X240Y491D01*
X240Y497D01*
X242Y497D01*
X242Y503D01*
X244Y503D01*
X244Y507D01*
X246Y507D01*
X246Y511D01*
X248Y511D01*
X248Y513D01*
X250Y513D01*
X250Y515D01*
X252Y515D01*
X252Y517D01*
X254Y517D01*
X254Y519D01*
X256Y519D01*
X256Y521D01*
X258Y521D01*
X258Y523D01*
X260Y523D01*
X260Y525D01*
X264Y525D01*
X264Y527D01*
X268Y527D01*
X268Y529D01*
X272Y529D01*
X272Y531D01*
X278Y531D01*
X278Y533D01*
X40Y533D01*
G37*
D02*
G36*
X40Y529D02*
X40Y519D01*
X72Y519D01*
X72Y517D01*
X78Y517D01*
X78Y515D01*
X82Y515D01*
X82Y513D01*
X86Y513D01*
X86Y511D01*
X88Y511D01*
X88Y509D01*
X90Y509D01*
X90Y507D01*
X92Y507D01*
X92Y505D01*
X94Y505D01*
X94Y503D01*
X96Y503D01*
X96Y499D01*
X98Y499D01*
X98Y495D01*
X118Y495D01*
X118Y501D01*
X120Y501D01*
X120Y503D01*
X122Y503D01*
X122Y507D01*
X124Y507D01*
X124Y509D01*
X126Y509D01*
X126Y513D01*
X128Y513D01*
X128Y515D01*
X130Y515D01*
X130Y517D01*
X134Y517D01*
X134Y519D01*
X136Y519D01*
X136Y521D01*
X140Y521D01*
X140Y523D01*
X144Y523D01*
X144Y525D01*
X148Y525D01*
X148Y527D01*
X156Y527D01*
X156Y529D01*
X40Y529D01*
G37*
D02*
G36*
X98Y463D02*
X98Y459D01*
X96Y459D01*
X96Y457D01*
X94Y457D01*
X94Y453D01*
X92Y453D01*
X92Y451D01*
X90Y451D01*
X90Y449D01*
X88Y449D01*
X88Y447D01*
X84Y447D01*
X84Y445D01*
X80Y445D01*
X80Y443D01*
X76Y443D01*
X76Y441D01*
X70Y441D01*
X70Y439D01*
X40Y439D01*
X40Y429D01*
X160Y429D01*
X160Y431D01*
X150Y431D01*
X150Y433D01*
X144Y433D01*
X144Y435D01*
X140Y435D01*
X140Y437D01*
X136Y437D01*
X136Y439D01*
X134Y439D01*
X134Y441D01*
X132Y441D01*
X132Y443D01*
X130Y443D01*
X130Y445D01*
X128Y445D01*
X128Y447D01*
X126Y447D01*
X126Y449D01*
X124Y449D01*
X124Y451D01*
X122Y451D01*
X122Y455D01*
X120Y455D01*
X120Y459D01*
X118Y459D01*
X118Y463D01*
X98Y463D01*
G37*
D02*
G36*
X40Y429D02*
X40Y427D01*
X282Y427D01*
X282Y429D01*
X40Y429D01*
G37*
D02*
G36*
X40Y429D02*
X40Y427D01*
X282Y427D01*
X282Y429D01*
X40Y429D01*
G37*
D02*
G36*
X40Y427D02*
X40Y425D01*
X378Y425D01*
X378Y427D01*
X40Y427D01*
G37*
D02*
G36*
X40Y427D02*
X40Y425D01*
X378Y425D01*
X378Y427D01*
X40Y427D01*
G37*
D02*
G36*
X40Y425D02*
X40Y137D01*
X294Y137D01*
X294Y135D01*
X306Y135D01*
X306Y133D01*
X312Y133D01*
X312Y131D01*
X316Y131D01*
X316Y129D01*
X318Y129D01*
X318Y127D01*
X322Y127D01*
X322Y125D01*
X324Y125D01*
X324Y123D01*
X328Y123D01*
X328Y121D01*
X330Y121D01*
X330Y117D01*
X332Y117D01*
X332Y115D01*
X334Y115D01*
X334Y113D01*
X336Y113D01*
X336Y109D01*
X338Y109D01*
X338Y105D01*
X340Y105D01*
X340Y101D01*
X342Y101D01*
X342Y95D01*
X344Y95D01*
X344Y71D01*
X342Y71D01*
X342Y65D01*
X340Y65D01*
X340Y61D01*
X338Y61D01*
X338Y41D01*
X438Y41D01*
X438Y103D01*
X436Y103D01*
X436Y105D01*
X434Y105D01*
X434Y107D01*
X432Y107D01*
X432Y109D01*
X428Y109D01*
X428Y111D01*
X426Y111D01*
X426Y113D01*
X422Y113D01*
X422Y115D01*
X420Y115D01*
X420Y117D01*
X418Y117D01*
X418Y119D01*
X414Y119D01*
X414Y121D01*
X412Y121D01*
X412Y123D01*
X410Y123D01*
X410Y125D01*
X406Y125D01*
X406Y127D01*
X404Y127D01*
X404Y129D01*
X400Y129D01*
X400Y131D01*
X398Y131D01*
X398Y133D01*
X396Y133D01*
X396Y135D01*
X392Y135D01*
X392Y137D01*
X390Y137D01*
X390Y139D01*
X388Y139D01*
X388Y141D01*
X384Y141D01*
X384Y143D01*
X382Y143D01*
X382Y145D01*
X380Y145D01*
X380Y149D01*
X378Y149D01*
X378Y425D01*
X40Y425D01*
G37*
D02*
G36*
X40Y137D02*
X40Y131D01*
X172Y131D01*
X172Y129D01*
X180Y129D01*
X180Y127D01*
X184Y127D01*
X184Y125D01*
X188Y125D01*
X188Y123D01*
X192Y123D01*
X192Y121D01*
X194Y121D01*
X194Y119D01*
X198Y119D01*
X198Y117D01*
X200Y117D01*
X200Y115D01*
X202Y115D01*
X202Y111D01*
X204Y111D01*
X204Y109D01*
X206Y109D01*
X206Y107D01*
X208Y107D01*
X208Y103D01*
X210Y103D01*
X210Y99D01*
X212Y99D01*
X212Y91D01*
X214Y91D01*
X214Y71D01*
X212Y71D01*
X212Y63D01*
X210Y63D01*
X210Y41D01*
X244Y41D01*
X244Y61D01*
X242Y61D01*
X242Y65D01*
X240Y65D01*
X240Y73D01*
X238Y73D01*
X238Y93D01*
X240Y93D01*
X240Y101D01*
X242Y101D01*
X242Y105D01*
X244Y105D01*
X244Y109D01*
X246Y109D01*
X246Y113D01*
X248Y113D01*
X248Y115D01*
X250Y115D01*
X250Y117D01*
X252Y117D01*
X252Y119D01*
X254Y119D01*
X254Y121D01*
X256Y121D01*
X256Y123D01*
X258Y123D01*
X258Y125D01*
X260Y125D01*
X260Y127D01*
X264Y127D01*
X264Y129D01*
X268Y129D01*
X268Y131D01*
X272Y131D01*
X272Y133D01*
X276Y133D01*
X276Y135D01*
X288Y135D01*
X288Y137D01*
X40Y137D01*
G37*
D02*
G36*
X40Y131D02*
X40Y121D01*
X72Y121D01*
X72Y119D01*
X78Y119D01*
X78Y117D01*
X82Y117D01*
X82Y115D01*
X84Y115D01*
X84Y113D01*
X88Y113D01*
X88Y111D01*
X90Y111D01*
X90Y109D01*
X92Y109D01*
X92Y107D01*
X94Y107D01*
X94Y105D01*
X96Y105D01*
X96Y101D01*
X98Y101D01*
X98Y97D01*
X118Y97D01*
X118Y101D01*
X120Y101D01*
X120Y105D01*
X122Y105D01*
X122Y109D01*
X124Y109D01*
X124Y111D01*
X126Y111D01*
X126Y113D01*
X128Y113D01*
X128Y117D01*
X132Y117D01*
X132Y119D01*
X134Y119D01*
X134Y121D01*
X136Y121D01*
X136Y123D01*
X140Y123D01*
X140Y125D01*
X144Y125D01*
X144Y127D01*
X148Y127D01*
X148Y129D01*
X158Y129D01*
X158Y131D01*
X40Y131D01*
G37*
D02*
G36*
X43Y2787D02*
X88Y2787D01*
X88Y2755D01*
X43Y2755D01*
X43Y2787D01*
G37*
D02*
G36*
X20Y2828D02*
X46Y2828D01*
X46Y2783D01*
X20Y2783D01*
X20Y2828D01*
G37*
D02*
G36*
X175Y3599D02*
X216Y3599D01*
X216Y3573D01*
X175Y3573D01*
X175Y3599D01*
G37*
D02*
G36*
X148Y3572D02*
X174Y3572D01*
X174Y3531D01*
X148Y3531D01*
X148Y3572D01*
G37*
D02*
G36*
X171Y2301D02*
X212Y2301D01*
X212Y2275D01*
X171Y2275D01*
X171Y2301D01*
G37*
D02*
G36*
X18Y502D02*
X34Y502D01*
X34Y461D01*
X18Y461D01*
X18Y502D01*
G37*
D02*
G36*
X139Y533D02*
X188Y533D01*
X188Y513D01*
X139Y513D01*
X139Y533D01*
G37*
D02*
G36*
X139Y451D02*
X188Y451D01*
X188Y429D01*
X139Y429D01*
X139Y451D01*
G37*
D02*
G36*
X194Y506D02*
X214Y506D01*
X214Y457D01*
X194Y457D01*
X194Y506D01*
G37*
D02*
G36*
X18Y906D02*
X34Y906D01*
X34Y865D01*
X18Y865D01*
X18Y906D01*
G37*
D02*
G36*
X39Y59D02*
X80Y59D01*
X80Y41D01*
X39Y41D01*
X39Y59D01*
G37*
D02*
G36*
X18Y104D02*
X34Y104D01*
X34Y63D01*
X18Y63D01*
X18Y104D01*
G37*
D02*
G36*
X43Y1671D02*
X88Y1671D01*
X88Y1639D01*
X43Y1639D01*
X43Y1671D01*
G37*
D02*
G36*
X20Y1642D02*
X46Y1642D01*
X46Y1597D01*
X20Y1597D01*
X20Y1642D01*
G37*
D02*
G36*
X18Y1304D02*
X34Y1304D01*
X34Y1263D01*
X18Y1263D01*
X18Y1304D01*
G37*
D02*
G36*
X139Y1335D02*
X188Y1335D01*
X188Y1315D01*
X139Y1315D01*
X139Y1335D01*
G37*
D02*
G36*
X139Y1253D02*
X188Y1253D01*
X188Y1231D01*
X139Y1231D01*
X139Y1253D01*
G37*
D02*
G36*
X194Y1308D02*
X214Y1308D01*
X214Y1259D01*
X194Y1259D01*
X194Y1308D01*
G37*
D02*
G54D22*
D02*
G04 End of Copper1*
M02*