; NON-PLATED HOLES START AT T1
; THROUGH (PLATED) HOLES START AT T100
M48
INCH
T1C0.086614
T100C0.015748
T101C0.061867
T102C0.061825
T103C0.043307
T104C0.038000
T105C0.050165
T106C0.082677
%
T1
X002911Y012836
X002911Y004804
X002911Y008859
X002911Y000828
T100
X003541Y014883
X004683Y026812
T101
X004919Y004819
X004919Y012834
X004919Y008851
X004919Y000835
T102
X001642Y000810
X001642Y012808
X001642Y008825
X001642Y004793
T103
X003895Y016052
X003895Y022517
X001927Y029042
X002911Y029042
X001927Y016052
X001927Y022517
X003935Y035497
X002911Y016052
X002911Y022517
X001966Y035497
X003895Y029042
X002950Y035497
T104
X000667Y023379
X000667Y015182
X000667Y030033
X000667Y016182
X000667Y028033
X000667Y029033
X000667Y021379
X000667Y022379
X000667Y014182
T105
X000619Y004793
X000619Y000810
X000619Y012808
X000619Y008825
T106
X005096Y025470
X005096Y019005
X005096Y031995
X000765Y038450
X005135Y038450
X000726Y025470
X000726Y019005
X000726Y031995
T00
M30
