G04 MADE WITH FRITZING*
G04 WWW.FRITZING.ORG*
G04 DOUBLE SIDED*
G04 HOLES PLATED*
G04 CONTOUR ON CENTER OF CONTOUR VECTOR*
%ASAXBY*%
%FSLAX23Y23*%
%MOIN*%
%OFA0B0*%
%SFA1.0B1.0*%
%ADD10C,0.075000*%
%ADD11C,0.086614*%
%ADD12C,0.086555*%
%ADD13C,0.070232*%
%ADD14C,0.070866*%
%ADD15C,0.102677*%
%ADD16C,0.078000*%
%ADD17C,0.039370*%
%ADD18R,0.086614X0.086614*%
%ADD19R,0.078000X0.078000*%
%ADD20C,0.012000*%
%ADD21R,0.001000X0.001000*%
%LNCOPPER0*%
G90*
G70*
G54D10*
X189Y3843D03*
G54D11*
X492Y885D03*
G54D12*
X164Y883D03*
G54D13*
X62Y883D03*
G54D11*
X492Y84D03*
G54D12*
X164Y81D03*
G54D13*
X62Y81D03*
G54D11*
X492Y1283D03*
G54D12*
X164Y1281D03*
G54D13*
X62Y1281D03*
G54D11*
X492Y482D03*
G54D12*
X164Y479D03*
G54D13*
X62Y479D03*
G54D14*
X390Y1605D03*
X193Y1605D03*
G54D15*
X73Y1901D03*
X510Y1901D03*
G54D14*
X291Y1605D03*
X390Y2252D03*
X193Y2252D03*
G54D15*
X73Y2547D03*
X510Y2547D03*
G54D14*
X291Y2252D03*
X390Y2904D03*
X193Y2904D03*
G54D15*
X73Y3200D03*
X510Y3200D03*
G54D14*
X291Y2904D03*
X394Y3550D03*
X197Y3550D03*
G54D15*
X77Y3845D03*
X514Y3845D03*
G54D14*
X295Y3550D03*
G54D16*
X67Y1418D03*
X67Y1518D03*
X67Y1618D03*
X67Y1418D03*
X67Y1518D03*
X67Y1618D03*
X67Y2803D03*
X67Y2903D03*
X67Y3003D03*
X67Y2803D03*
X67Y2903D03*
X67Y3003D03*
X67Y2138D03*
X67Y2238D03*
X67Y2338D03*
X67Y2138D03*
X67Y2238D03*
X67Y2338D03*
G54D17*
X468Y2681D03*
X354Y1488D03*
G54D18*
X492Y885D03*
X492Y84D03*
X492Y1283D03*
X492Y482D03*
G54D19*
X67Y1418D03*
X67Y1418D03*
X67Y2803D03*
X67Y2803D03*
X67Y2138D03*
X67Y2138D03*
G54D20*
X394Y2595D02*
X460Y2671D01*
D02*
X390Y2279D02*
X394Y2595D01*
D02*
X390Y1448D02*
X363Y1478D01*
D02*
X390Y981D02*
X390Y1448D01*
D02*
X465Y910D02*
X390Y981D01*
G36*
X128Y3897D02*
X128Y3877D01*
X130Y3877D01*
X130Y3873D01*
X132Y3873D01*
X132Y3869D01*
X134Y3869D01*
X134Y3863D01*
X136Y3863D01*
X136Y3855D01*
X138Y3855D01*
X138Y3835D01*
X136Y3835D01*
X136Y3827D01*
X134Y3827D01*
X134Y3821D01*
X132Y3821D01*
X132Y3817D01*
X130Y3817D01*
X130Y3813D01*
X128Y3813D01*
X128Y3811D01*
X126Y3811D01*
X126Y3807D01*
X124Y3807D01*
X124Y3805D01*
X122Y3805D01*
X122Y3803D01*
X120Y3803D01*
X120Y3801D01*
X118Y3801D01*
X118Y3799D01*
X116Y3799D01*
X116Y3797D01*
X114Y3797D01*
X114Y3795D01*
X110Y3795D01*
X110Y3793D01*
X108Y3793D01*
X108Y3791D01*
X104Y3791D01*
X104Y3789D01*
X100Y3789D01*
X100Y3787D01*
X92Y3787D01*
X92Y3785D01*
X82Y3785D01*
X82Y3783D01*
X508Y3783D01*
X508Y3785D01*
X498Y3785D01*
X498Y3787D01*
X492Y3787D01*
X492Y3789D01*
X486Y3789D01*
X486Y3791D01*
X482Y3791D01*
X482Y3793D01*
X480Y3793D01*
X480Y3795D01*
X476Y3795D01*
X476Y3797D01*
X474Y3797D01*
X474Y3799D01*
X472Y3799D01*
X472Y3801D01*
X470Y3801D01*
X470Y3803D01*
X468Y3803D01*
X468Y3805D01*
X466Y3805D01*
X466Y3807D01*
X464Y3807D01*
X464Y3811D01*
X462Y3811D01*
X462Y3813D01*
X460Y3813D01*
X460Y3817D01*
X458Y3817D01*
X458Y3821D01*
X456Y3821D01*
X456Y3827D01*
X454Y3827D01*
X454Y3837D01*
X452Y3837D01*
X452Y3853D01*
X454Y3853D01*
X454Y3863D01*
X456Y3863D01*
X456Y3869D01*
X458Y3869D01*
X458Y3873D01*
X460Y3873D01*
X460Y3877D01*
X462Y3877D01*
X462Y3897D01*
X128Y3897D01*
G37*
D02*
G36*
X40Y3787D02*
X40Y3783D01*
X70Y3783D01*
X70Y3785D01*
X60Y3785D01*
X60Y3787D01*
X40Y3787D01*
G37*
D02*
G36*
X40Y3783D02*
X40Y3781D01*
X530Y3781D01*
X530Y3783D01*
X40Y3783D01*
G37*
D02*
G36*
X40Y3783D02*
X40Y3781D01*
X530Y3781D01*
X530Y3783D01*
X40Y3783D01*
G37*
D02*
G36*
X40Y3781D02*
X40Y3767D01*
X398Y3767D01*
X398Y3765D01*
X402Y3765D01*
X402Y3763D01*
X404Y3763D01*
X404Y3761D01*
X406Y3761D01*
X406Y3759D01*
X408Y3759D01*
X408Y3745D01*
X406Y3745D01*
X406Y3741D01*
X404Y3741D01*
X404Y3739D01*
X400Y3739D01*
X400Y3717D01*
X398Y3717D01*
X398Y3697D01*
X402Y3697D01*
X402Y3695D01*
X404Y3695D01*
X404Y3693D01*
X406Y3693D01*
X406Y3691D01*
X408Y3691D01*
X408Y3677D01*
X406Y3677D01*
X406Y3673D01*
X404Y3673D01*
X404Y3671D01*
X400Y3671D01*
X400Y3669D01*
X530Y3669D01*
X530Y3781D01*
X40Y3781D01*
G37*
D02*
G36*
X40Y3767D02*
X40Y3669D01*
X244Y3669D01*
X244Y3671D01*
X240Y3671D01*
X240Y3673D01*
X238Y3673D01*
X238Y3675D01*
X236Y3675D01*
X236Y3679D01*
X234Y3679D01*
X234Y3699D01*
X212Y3699D01*
X212Y3701D01*
X208Y3701D01*
X208Y3703D01*
X204Y3703D01*
X204Y3705D01*
X202Y3705D01*
X202Y3707D01*
X200Y3707D01*
X200Y3709D01*
X198Y3709D01*
X198Y3713D01*
X196Y3713D01*
X196Y3721D01*
X194Y3721D01*
X194Y3745D01*
X196Y3745D01*
X196Y3751D01*
X198Y3751D01*
X198Y3755D01*
X200Y3755D01*
X200Y3759D01*
X202Y3759D01*
X202Y3761D01*
X206Y3761D01*
X206Y3763D01*
X210Y3763D01*
X210Y3765D01*
X214Y3765D01*
X214Y3767D01*
X40Y3767D01*
G37*
D02*
G36*
X286Y3767D02*
X286Y3765D01*
X290Y3765D01*
X290Y3763D01*
X314Y3763D01*
X314Y3765D01*
X318Y3765D01*
X318Y3767D01*
X286Y3767D01*
G37*
D02*
G36*
X326Y3767D02*
X326Y3765D01*
X330Y3765D01*
X330Y3763D01*
X350Y3763D01*
X350Y3765D01*
X354Y3765D01*
X354Y3767D01*
X326Y3767D01*
G37*
D02*
G36*
X292Y3673D02*
X292Y3671D01*
X288Y3671D01*
X288Y3669D01*
X316Y3669D01*
X316Y3671D01*
X312Y3671D01*
X312Y3673D01*
X292Y3673D01*
G37*
D02*
G36*
X254Y3671D02*
X254Y3669D01*
X276Y3669D01*
X276Y3671D01*
X254Y3671D01*
G37*
D02*
G36*
X328Y3671D02*
X328Y3669D01*
X352Y3669D01*
X352Y3671D01*
X328Y3671D01*
G37*
D02*
G36*
X40Y3669D02*
X40Y3667D01*
X530Y3667D01*
X530Y3669D01*
X40Y3669D01*
G37*
D02*
G36*
X40Y3669D02*
X40Y3667D01*
X530Y3667D01*
X530Y3669D01*
X40Y3669D01*
G37*
D02*
G36*
X40Y3669D02*
X40Y3667D01*
X530Y3667D01*
X530Y3669D01*
X40Y3669D01*
G37*
D02*
G36*
X40Y3669D02*
X40Y3667D01*
X530Y3667D01*
X530Y3669D01*
X40Y3669D01*
G37*
D02*
G36*
X40Y3669D02*
X40Y3667D01*
X530Y3667D01*
X530Y3669D01*
X40Y3669D01*
G37*
D02*
G36*
X40Y3667D02*
X40Y3595D01*
X404Y3595D01*
X404Y3593D01*
X410Y3593D01*
X410Y3591D01*
X414Y3591D01*
X414Y3589D01*
X418Y3589D01*
X418Y3587D01*
X420Y3587D01*
X420Y3585D01*
X424Y3585D01*
X424Y3583D01*
X426Y3583D01*
X426Y3581D01*
X428Y3581D01*
X428Y3577D01*
X430Y3577D01*
X430Y3575D01*
X432Y3575D01*
X432Y3571D01*
X434Y3571D01*
X434Y3569D01*
X436Y3569D01*
X436Y3561D01*
X438Y3561D01*
X438Y3537D01*
X436Y3537D01*
X436Y3531D01*
X434Y3531D01*
X434Y3527D01*
X432Y3527D01*
X432Y3525D01*
X430Y3525D01*
X430Y3521D01*
X428Y3521D01*
X428Y3519D01*
X426Y3519D01*
X426Y3517D01*
X424Y3517D01*
X424Y3515D01*
X422Y3515D01*
X422Y3513D01*
X418Y3513D01*
X418Y3511D01*
X416Y3511D01*
X416Y3509D01*
X412Y3509D01*
X412Y3507D01*
X404Y3507D01*
X404Y3505D01*
X530Y3505D01*
X530Y3667D01*
X40Y3667D01*
G37*
D02*
G36*
X40Y3595D02*
X40Y3505D01*
X186Y3505D01*
X186Y3507D01*
X178Y3507D01*
X178Y3509D01*
X176Y3509D01*
X176Y3511D01*
X172Y3511D01*
X172Y3513D01*
X168Y3513D01*
X168Y3515D01*
X166Y3515D01*
X166Y3517D01*
X164Y3517D01*
X164Y3519D01*
X162Y3519D01*
X162Y3521D01*
X160Y3521D01*
X160Y3525D01*
X158Y3525D01*
X158Y3529D01*
X156Y3529D01*
X156Y3531D01*
X154Y3531D01*
X154Y3537D01*
X152Y3537D01*
X152Y3561D01*
X154Y3561D01*
X154Y3567D01*
X156Y3567D01*
X156Y3571D01*
X158Y3571D01*
X158Y3575D01*
X160Y3575D01*
X160Y3577D01*
X162Y3577D01*
X162Y3579D01*
X164Y3579D01*
X164Y3583D01*
X168Y3583D01*
X168Y3585D01*
X170Y3585D01*
X170Y3587D01*
X172Y3587D01*
X172Y3589D01*
X176Y3589D01*
X176Y3591D01*
X180Y3591D01*
X180Y3593D01*
X186Y3593D01*
X186Y3595D01*
X40Y3595D01*
G37*
D02*
G36*
X206Y3595D02*
X206Y3593D01*
X214Y3593D01*
X214Y3591D01*
X218Y3591D01*
X218Y3589D01*
X220Y3589D01*
X220Y3587D01*
X224Y3587D01*
X224Y3585D01*
X226Y3585D01*
X226Y3583D01*
X228Y3583D01*
X228Y3581D01*
X230Y3581D01*
X230Y3579D01*
X232Y3579D01*
X232Y3577D01*
X234Y3577D01*
X234Y3573D01*
X236Y3573D01*
X236Y3571D01*
X256Y3571D01*
X256Y3575D01*
X258Y3575D01*
X258Y3577D01*
X260Y3577D01*
X260Y3579D01*
X262Y3579D01*
X262Y3581D01*
X264Y3581D01*
X264Y3583D01*
X266Y3583D01*
X266Y3585D01*
X268Y3585D01*
X268Y3587D01*
X270Y3587D01*
X270Y3589D01*
X274Y3589D01*
X274Y3591D01*
X278Y3591D01*
X278Y3593D01*
X286Y3593D01*
X286Y3595D01*
X206Y3595D01*
G37*
D02*
G36*
X304Y3595D02*
X304Y3593D01*
X312Y3593D01*
X312Y3591D01*
X316Y3591D01*
X316Y3589D01*
X320Y3589D01*
X320Y3587D01*
X322Y3587D01*
X322Y3585D01*
X324Y3585D01*
X324Y3583D01*
X326Y3583D01*
X326Y3581D01*
X328Y3581D01*
X328Y3579D01*
X330Y3579D01*
X330Y3577D01*
X332Y3577D01*
X332Y3575D01*
X334Y3575D01*
X334Y3571D01*
X354Y3571D01*
X354Y3573D01*
X356Y3573D01*
X356Y3577D01*
X358Y3577D01*
X358Y3579D01*
X360Y3579D01*
X360Y3581D01*
X362Y3581D01*
X362Y3583D01*
X364Y3583D01*
X364Y3585D01*
X366Y3585D01*
X366Y3587D01*
X370Y3587D01*
X370Y3589D01*
X372Y3589D01*
X372Y3591D01*
X378Y3591D01*
X378Y3593D01*
X384Y3593D01*
X384Y3595D01*
X304Y3595D01*
G37*
D02*
G36*
X236Y3529D02*
X236Y3525D01*
X234Y3525D01*
X234Y3523D01*
X232Y3523D01*
X232Y3521D01*
X230Y3521D01*
X230Y3517D01*
X226Y3517D01*
X226Y3515D01*
X224Y3515D01*
X224Y3513D01*
X222Y3513D01*
X222Y3511D01*
X218Y3511D01*
X218Y3509D01*
X214Y3509D01*
X214Y3507D01*
X208Y3507D01*
X208Y3505D01*
X284Y3505D01*
X284Y3507D01*
X278Y3507D01*
X278Y3509D01*
X274Y3509D01*
X274Y3511D01*
X270Y3511D01*
X270Y3513D01*
X268Y3513D01*
X268Y3515D01*
X264Y3515D01*
X264Y3517D01*
X262Y3517D01*
X262Y3521D01*
X260Y3521D01*
X260Y3523D01*
X258Y3523D01*
X258Y3525D01*
X256Y3525D01*
X256Y3529D01*
X236Y3529D01*
G37*
D02*
G36*
X334Y3529D02*
X334Y3525D01*
X332Y3525D01*
X332Y3523D01*
X330Y3523D01*
X330Y3519D01*
X328Y3519D01*
X328Y3517D01*
X326Y3517D01*
X326Y3515D01*
X322Y3515D01*
X322Y3513D01*
X320Y3513D01*
X320Y3511D01*
X316Y3511D01*
X316Y3509D01*
X312Y3509D01*
X312Y3507D01*
X306Y3507D01*
X306Y3505D01*
X382Y3505D01*
X382Y3507D01*
X376Y3507D01*
X376Y3509D01*
X372Y3509D01*
X372Y3511D01*
X368Y3511D01*
X368Y3513D01*
X366Y3513D01*
X366Y3515D01*
X364Y3515D01*
X364Y3517D01*
X362Y3517D01*
X362Y3519D01*
X360Y3519D01*
X360Y3521D01*
X358Y3521D01*
X358Y3523D01*
X356Y3523D01*
X356Y3525D01*
X354Y3525D01*
X354Y3529D01*
X334Y3529D01*
G37*
D02*
G36*
X40Y3505D02*
X40Y3503D01*
X530Y3503D01*
X530Y3505D01*
X40Y3505D01*
G37*
D02*
G36*
X40Y3505D02*
X40Y3503D01*
X530Y3503D01*
X530Y3505D01*
X40Y3505D01*
G37*
D02*
G36*
X40Y3505D02*
X40Y3503D01*
X530Y3503D01*
X530Y3505D01*
X40Y3505D01*
G37*
D02*
G36*
X40Y3505D02*
X40Y3503D01*
X530Y3503D01*
X530Y3505D01*
X40Y3505D01*
G37*
D02*
G36*
X40Y3503D02*
X40Y3261D01*
X82Y3261D01*
X82Y3259D01*
X92Y3259D01*
X92Y3257D01*
X96Y3257D01*
X96Y3255D01*
X100Y3255D01*
X100Y3253D01*
X104Y3253D01*
X104Y3251D01*
X108Y3251D01*
X108Y3249D01*
X110Y3249D01*
X110Y3247D01*
X112Y3247D01*
X112Y3245D01*
X114Y3245D01*
X114Y3243D01*
X116Y3243D01*
X116Y3241D01*
X118Y3241D01*
X118Y3239D01*
X120Y3239D01*
X120Y3237D01*
X122Y3237D01*
X122Y3235D01*
X124Y3235D01*
X124Y3231D01*
X126Y3231D01*
X126Y3227D01*
X128Y3227D01*
X128Y3223D01*
X130Y3223D01*
X130Y3219D01*
X132Y3219D01*
X132Y3209D01*
X134Y3209D01*
X134Y3189D01*
X132Y3189D01*
X132Y3181D01*
X130Y3181D01*
X130Y3175D01*
X128Y3175D01*
X128Y3171D01*
X126Y3171D01*
X126Y3167D01*
X124Y3167D01*
X124Y3165D01*
X122Y3165D01*
X122Y3163D01*
X120Y3163D01*
X120Y3159D01*
X118Y3159D01*
X118Y3157D01*
X116Y3157D01*
X116Y3155D01*
X114Y3155D01*
X114Y3153D01*
X112Y3153D01*
X112Y3151D01*
X108Y3151D01*
X108Y3149D01*
X106Y3149D01*
X106Y3147D01*
X102Y3147D01*
X102Y3145D01*
X98Y3145D01*
X98Y3143D01*
X94Y3143D01*
X94Y3141D01*
X86Y3141D01*
X86Y3139D01*
X40Y3139D01*
X40Y3053D01*
X72Y3053D01*
X72Y3051D01*
X80Y3051D01*
X80Y3049D01*
X86Y3049D01*
X86Y3047D01*
X90Y3047D01*
X90Y3045D01*
X94Y3045D01*
X94Y3043D01*
X96Y3043D01*
X96Y3041D01*
X98Y3041D01*
X98Y3039D01*
X102Y3039D01*
X102Y3035D01*
X104Y3035D01*
X104Y3033D01*
X106Y3033D01*
X106Y3031D01*
X108Y3031D01*
X108Y3027D01*
X110Y3027D01*
X110Y3023D01*
X112Y3023D01*
X112Y3019D01*
X114Y3019D01*
X114Y3011D01*
X116Y3011D01*
X116Y2995D01*
X114Y2995D01*
X114Y2989D01*
X112Y2989D01*
X112Y2983D01*
X110Y2983D01*
X110Y2979D01*
X108Y2979D01*
X108Y2975D01*
X106Y2975D01*
X106Y2973D01*
X104Y2973D01*
X104Y2971D01*
X102Y2971D01*
X102Y2969D01*
X100Y2969D01*
X100Y2967D01*
X98Y2967D01*
X98Y2965D01*
X96Y2965D01*
X96Y2963D01*
X94Y2963D01*
X94Y2949D01*
X402Y2949D01*
X402Y2947D01*
X408Y2947D01*
X408Y2945D01*
X412Y2945D01*
X412Y2943D01*
X414Y2943D01*
X414Y2941D01*
X418Y2941D01*
X418Y2939D01*
X420Y2939D01*
X420Y2937D01*
X422Y2937D01*
X422Y2935D01*
X424Y2935D01*
X424Y2933D01*
X426Y2933D01*
X426Y2929D01*
X428Y2929D01*
X428Y2927D01*
X430Y2927D01*
X430Y2923D01*
X432Y2923D01*
X432Y2917D01*
X434Y2917D01*
X434Y2891D01*
X432Y2891D01*
X432Y2885D01*
X430Y2885D01*
X430Y2883D01*
X428Y2883D01*
X428Y2879D01*
X426Y2879D01*
X426Y2877D01*
X424Y2877D01*
X424Y2873D01*
X422Y2873D01*
X422Y2871D01*
X420Y2871D01*
X420Y2869D01*
X416Y2869D01*
X416Y2867D01*
X414Y2867D01*
X414Y2865D01*
X410Y2865D01*
X410Y2863D01*
X406Y2863D01*
X406Y2861D01*
X400Y2861D01*
X400Y2859D01*
X530Y2859D01*
X530Y3139D01*
X496Y3139D01*
X496Y3141D01*
X488Y3141D01*
X488Y3143D01*
X484Y3143D01*
X484Y3145D01*
X480Y3145D01*
X480Y3147D01*
X476Y3147D01*
X476Y3149D01*
X474Y3149D01*
X474Y3151D01*
X472Y3151D01*
X472Y3153D01*
X468Y3153D01*
X468Y3155D01*
X466Y3155D01*
X466Y3157D01*
X464Y3157D01*
X464Y3159D01*
X462Y3159D01*
X462Y3163D01*
X460Y3163D01*
X460Y3165D01*
X458Y3165D01*
X458Y3169D01*
X456Y3169D01*
X456Y3171D01*
X454Y3171D01*
X454Y3177D01*
X452Y3177D01*
X452Y3181D01*
X450Y3181D01*
X450Y3191D01*
X448Y3191D01*
X448Y3207D01*
X450Y3207D01*
X450Y3217D01*
X452Y3217D01*
X452Y3223D01*
X454Y3223D01*
X454Y3227D01*
X456Y3227D01*
X456Y3231D01*
X458Y3231D01*
X458Y3235D01*
X460Y3235D01*
X460Y3237D01*
X462Y3237D01*
X462Y3239D01*
X464Y3239D01*
X464Y3241D01*
X466Y3241D01*
X466Y3243D01*
X468Y3243D01*
X468Y3245D01*
X470Y3245D01*
X470Y3247D01*
X472Y3247D01*
X472Y3249D01*
X474Y3249D01*
X474Y3251D01*
X478Y3251D01*
X478Y3253D01*
X482Y3253D01*
X482Y3255D01*
X486Y3255D01*
X486Y3257D01*
X492Y3257D01*
X492Y3259D01*
X500Y3259D01*
X500Y3261D01*
X530Y3261D01*
X530Y3503D01*
X40Y3503D01*
G37*
D02*
G36*
X40Y3261D02*
X40Y3259D01*
X62Y3259D01*
X62Y3261D01*
X40Y3261D01*
G37*
D02*
G36*
X40Y3053D02*
X40Y3051D01*
X62Y3051D01*
X62Y3053D01*
X40Y3053D01*
G37*
D02*
G36*
X94Y2949D02*
X94Y2943D01*
X96Y2943D01*
X96Y2941D01*
X98Y2941D01*
X98Y2939D01*
X102Y2939D01*
X102Y2935D01*
X104Y2935D01*
X104Y2933D01*
X106Y2933D01*
X106Y2931D01*
X108Y2931D01*
X108Y2927D01*
X110Y2927D01*
X110Y2923D01*
X112Y2923D01*
X112Y2919D01*
X114Y2919D01*
X114Y2911D01*
X116Y2911D01*
X116Y2895D01*
X114Y2895D01*
X114Y2889D01*
X112Y2889D01*
X112Y2883D01*
X110Y2883D01*
X110Y2879D01*
X108Y2879D01*
X108Y2875D01*
X106Y2875D01*
X106Y2873D01*
X104Y2873D01*
X104Y2859D01*
X184Y2859D01*
X184Y2861D01*
X176Y2861D01*
X176Y2863D01*
X172Y2863D01*
X172Y2865D01*
X168Y2865D01*
X168Y2867D01*
X166Y2867D01*
X166Y2869D01*
X164Y2869D01*
X164Y2871D01*
X160Y2871D01*
X160Y2875D01*
X158Y2875D01*
X158Y2877D01*
X156Y2877D01*
X156Y2879D01*
X154Y2879D01*
X154Y2883D01*
X152Y2883D01*
X152Y2887D01*
X150Y2887D01*
X150Y2893D01*
X148Y2893D01*
X148Y2915D01*
X150Y2915D01*
X150Y2923D01*
X152Y2923D01*
X152Y2925D01*
X154Y2925D01*
X154Y2929D01*
X156Y2929D01*
X156Y2931D01*
X158Y2931D01*
X158Y2935D01*
X160Y2935D01*
X160Y2937D01*
X162Y2937D01*
X162Y2939D01*
X164Y2939D01*
X164Y2941D01*
X168Y2941D01*
X168Y2943D01*
X172Y2943D01*
X172Y2945D01*
X174Y2945D01*
X174Y2947D01*
X182Y2947D01*
X182Y2949D01*
X94Y2949D01*
G37*
D02*
G36*
X204Y2949D02*
X204Y2947D01*
X210Y2947D01*
X210Y2945D01*
X214Y2945D01*
X214Y2943D01*
X218Y2943D01*
X218Y2941D01*
X220Y2941D01*
X220Y2939D01*
X222Y2939D01*
X222Y2937D01*
X226Y2937D01*
X226Y2933D01*
X228Y2933D01*
X228Y2931D01*
X230Y2931D01*
X230Y2929D01*
X232Y2929D01*
X232Y2925D01*
X252Y2925D01*
X252Y2929D01*
X254Y2929D01*
X254Y2931D01*
X256Y2931D01*
X256Y2933D01*
X258Y2933D01*
X258Y2937D01*
X260Y2937D01*
X260Y2939D01*
X264Y2939D01*
X264Y2941D01*
X266Y2941D01*
X266Y2943D01*
X270Y2943D01*
X270Y2945D01*
X274Y2945D01*
X274Y2947D01*
X280Y2947D01*
X280Y2949D01*
X204Y2949D01*
G37*
D02*
G36*
X302Y2949D02*
X302Y2947D01*
X310Y2947D01*
X310Y2945D01*
X312Y2945D01*
X312Y2943D01*
X316Y2943D01*
X316Y2941D01*
X318Y2941D01*
X318Y2939D01*
X322Y2939D01*
X322Y2937D01*
X324Y2937D01*
X324Y2935D01*
X326Y2935D01*
X326Y2931D01*
X328Y2931D01*
X328Y2929D01*
X330Y2929D01*
X330Y2925D01*
X350Y2925D01*
X350Y2927D01*
X352Y2927D01*
X352Y2931D01*
X354Y2931D01*
X354Y2933D01*
X356Y2933D01*
X356Y2935D01*
X358Y2935D01*
X358Y2937D01*
X360Y2937D01*
X360Y2939D01*
X362Y2939D01*
X362Y2941D01*
X364Y2941D01*
X364Y2943D01*
X368Y2943D01*
X368Y2945D01*
X372Y2945D01*
X372Y2947D01*
X378Y2947D01*
X378Y2949D01*
X302Y2949D01*
G37*
D02*
G36*
X232Y2883D02*
X232Y2881D01*
X230Y2881D01*
X230Y2877D01*
X228Y2877D01*
X228Y2875D01*
X226Y2875D01*
X226Y2873D01*
X224Y2873D01*
X224Y2871D01*
X222Y2871D01*
X222Y2869D01*
X220Y2869D01*
X220Y2867D01*
X216Y2867D01*
X216Y2865D01*
X214Y2865D01*
X214Y2863D01*
X208Y2863D01*
X208Y2861D01*
X202Y2861D01*
X202Y2859D01*
X282Y2859D01*
X282Y2861D01*
X274Y2861D01*
X274Y2863D01*
X270Y2863D01*
X270Y2865D01*
X268Y2865D01*
X268Y2867D01*
X264Y2867D01*
X264Y2869D01*
X262Y2869D01*
X262Y2871D01*
X260Y2871D01*
X260Y2873D01*
X258Y2873D01*
X258Y2875D01*
X256Y2875D01*
X256Y2877D01*
X254Y2877D01*
X254Y2879D01*
X252Y2879D01*
X252Y2883D01*
X232Y2883D01*
G37*
D02*
G36*
X330Y2883D02*
X330Y2879D01*
X328Y2879D01*
X328Y2877D01*
X326Y2877D01*
X326Y2875D01*
X324Y2875D01*
X324Y2871D01*
X320Y2871D01*
X320Y2869D01*
X318Y2869D01*
X318Y2867D01*
X316Y2867D01*
X316Y2865D01*
X312Y2865D01*
X312Y2863D01*
X308Y2863D01*
X308Y2861D01*
X300Y2861D01*
X300Y2859D01*
X380Y2859D01*
X380Y2861D01*
X374Y2861D01*
X374Y2863D01*
X370Y2863D01*
X370Y2865D01*
X366Y2865D01*
X366Y2867D01*
X362Y2867D01*
X362Y2869D01*
X360Y2869D01*
X360Y2871D01*
X358Y2871D01*
X358Y2873D01*
X356Y2873D01*
X356Y2875D01*
X354Y2875D01*
X354Y2877D01*
X352Y2877D01*
X352Y2881D01*
X350Y2881D01*
X350Y2883D01*
X330Y2883D01*
G37*
D02*
G36*
X104Y2859D02*
X104Y2857D01*
X530Y2857D01*
X530Y2859D01*
X104Y2859D01*
G37*
D02*
G36*
X104Y2859D02*
X104Y2857D01*
X530Y2857D01*
X530Y2859D01*
X104Y2859D01*
G37*
D02*
G36*
X104Y2859D02*
X104Y2857D01*
X530Y2857D01*
X530Y2859D01*
X104Y2859D01*
G37*
D02*
G36*
X104Y2859D02*
X104Y2857D01*
X530Y2857D01*
X530Y2859D01*
X104Y2859D01*
G37*
D02*
G36*
X104Y2857D02*
X104Y2853D01*
X116Y2853D01*
X116Y2755D01*
X40Y2755D01*
X40Y2711D01*
X476Y2711D01*
X476Y2709D01*
X480Y2709D01*
X480Y2707D01*
X484Y2707D01*
X484Y2705D01*
X488Y2705D01*
X488Y2703D01*
X490Y2703D01*
X490Y2701D01*
X492Y2701D01*
X492Y2697D01*
X494Y2697D01*
X494Y2695D01*
X496Y2695D01*
X496Y2689D01*
X498Y2689D01*
X498Y2675D01*
X496Y2675D01*
X496Y2669D01*
X494Y2669D01*
X494Y2665D01*
X492Y2665D01*
X492Y2663D01*
X490Y2663D01*
X490Y2661D01*
X488Y2661D01*
X488Y2659D01*
X486Y2659D01*
X486Y2657D01*
X484Y2657D01*
X484Y2655D01*
X480Y2655D01*
X480Y2653D01*
X472Y2653D01*
X472Y2651D01*
X462Y2651D01*
X462Y2649D01*
X460Y2649D01*
X460Y2645D01*
X458Y2645D01*
X458Y2643D01*
X456Y2643D01*
X456Y2641D01*
X454Y2641D01*
X454Y2639D01*
X452Y2639D01*
X452Y2637D01*
X450Y2637D01*
X450Y2635D01*
X448Y2635D01*
X448Y2631D01*
X446Y2631D01*
X446Y2629D01*
X444Y2629D01*
X444Y2627D01*
X442Y2627D01*
X442Y2625D01*
X440Y2625D01*
X440Y2623D01*
X438Y2623D01*
X438Y2621D01*
X436Y2621D01*
X436Y2617D01*
X434Y2617D01*
X434Y2615D01*
X432Y2615D01*
X432Y2613D01*
X430Y2613D01*
X430Y2611D01*
X428Y2611D01*
X428Y2609D01*
X426Y2609D01*
X426Y2607D01*
X424Y2607D01*
X424Y2603D01*
X422Y2603D01*
X422Y2601D01*
X420Y2601D01*
X420Y2599D01*
X418Y2599D01*
X418Y2597D01*
X416Y2597D01*
X416Y2595D01*
X414Y2595D01*
X414Y2593D01*
X412Y2593D01*
X412Y2589D01*
X410Y2589D01*
X410Y2511D01*
X408Y2511D01*
X408Y2359D01*
X406Y2359D01*
X406Y2293D01*
X410Y2293D01*
X410Y2291D01*
X414Y2291D01*
X414Y2289D01*
X416Y2289D01*
X416Y2287D01*
X420Y2287D01*
X420Y2285D01*
X422Y2285D01*
X422Y2283D01*
X424Y2283D01*
X424Y2279D01*
X426Y2279D01*
X426Y2277D01*
X428Y2277D01*
X428Y2273D01*
X430Y2273D01*
X430Y2271D01*
X432Y2271D01*
X432Y2265D01*
X434Y2265D01*
X434Y2239D01*
X432Y2239D01*
X432Y2233D01*
X430Y2233D01*
X430Y2229D01*
X428Y2229D01*
X428Y2227D01*
X426Y2227D01*
X426Y2223D01*
X424Y2223D01*
X424Y2221D01*
X422Y2221D01*
X422Y2219D01*
X420Y2219D01*
X420Y2217D01*
X418Y2217D01*
X418Y2215D01*
X414Y2215D01*
X414Y2213D01*
X412Y2213D01*
X412Y2211D01*
X408Y2211D01*
X408Y2209D01*
X400Y2209D01*
X400Y2207D01*
X530Y2207D01*
X530Y2485D01*
X504Y2485D01*
X504Y2487D01*
X494Y2487D01*
X494Y2489D01*
X488Y2489D01*
X488Y2491D01*
X482Y2491D01*
X482Y2493D01*
X480Y2493D01*
X480Y2495D01*
X476Y2495D01*
X476Y2497D01*
X474Y2497D01*
X474Y2499D01*
X470Y2499D01*
X470Y2501D01*
X468Y2501D01*
X468Y2503D01*
X466Y2503D01*
X466Y2505D01*
X464Y2505D01*
X464Y2507D01*
X462Y2507D01*
X462Y2509D01*
X460Y2509D01*
X460Y2513D01*
X458Y2513D01*
X458Y2515D01*
X456Y2515D01*
X456Y2519D01*
X454Y2519D01*
X454Y2523D01*
X452Y2523D01*
X452Y2529D01*
X450Y2529D01*
X450Y2539D01*
X448Y2539D01*
X448Y2555D01*
X450Y2555D01*
X450Y2565D01*
X452Y2565D01*
X452Y2571D01*
X454Y2571D01*
X454Y2575D01*
X456Y2575D01*
X456Y2579D01*
X458Y2579D01*
X458Y2581D01*
X460Y2581D01*
X460Y2585D01*
X462Y2585D01*
X462Y2587D01*
X464Y2587D01*
X464Y2589D01*
X466Y2589D01*
X466Y2591D01*
X468Y2591D01*
X468Y2593D01*
X470Y2593D01*
X470Y2595D01*
X472Y2595D01*
X472Y2597D01*
X476Y2597D01*
X476Y2599D01*
X478Y2599D01*
X478Y2601D01*
X482Y2601D01*
X482Y2603D01*
X486Y2603D01*
X486Y2605D01*
X494Y2605D01*
X494Y2607D01*
X504Y2607D01*
X504Y2609D01*
X530Y2609D01*
X530Y2857D01*
X104Y2857D01*
G37*
D02*
G36*
X40Y2711D02*
X40Y2609D01*
X78Y2609D01*
X78Y2607D01*
X90Y2607D01*
X90Y2605D01*
X96Y2605D01*
X96Y2603D01*
X100Y2603D01*
X100Y2601D01*
X104Y2601D01*
X104Y2599D01*
X106Y2599D01*
X106Y2597D01*
X110Y2597D01*
X110Y2595D01*
X112Y2595D01*
X112Y2593D01*
X114Y2593D01*
X114Y2591D01*
X116Y2591D01*
X116Y2589D01*
X118Y2589D01*
X118Y2587D01*
X120Y2587D01*
X120Y2585D01*
X122Y2585D01*
X122Y2581D01*
X124Y2581D01*
X124Y2579D01*
X126Y2579D01*
X126Y2575D01*
X128Y2575D01*
X128Y2571D01*
X130Y2571D01*
X130Y2565D01*
X132Y2565D01*
X132Y2557D01*
X134Y2557D01*
X134Y2537D01*
X132Y2537D01*
X132Y2529D01*
X130Y2529D01*
X130Y2523D01*
X128Y2523D01*
X128Y2519D01*
X126Y2519D01*
X126Y2515D01*
X124Y2515D01*
X124Y2513D01*
X122Y2513D01*
X122Y2509D01*
X120Y2509D01*
X120Y2507D01*
X118Y2507D01*
X118Y2505D01*
X116Y2505D01*
X116Y2503D01*
X114Y2503D01*
X114Y2501D01*
X112Y2501D01*
X112Y2499D01*
X110Y2499D01*
X110Y2497D01*
X106Y2497D01*
X106Y2495D01*
X104Y2495D01*
X104Y2493D01*
X100Y2493D01*
X100Y2491D01*
X96Y2491D01*
X96Y2489D01*
X88Y2489D01*
X88Y2487D01*
X78Y2487D01*
X78Y2485D01*
X376Y2485D01*
X376Y2513D01*
X378Y2513D01*
X378Y2599D01*
X380Y2599D01*
X380Y2603D01*
X382Y2603D01*
X382Y2607D01*
X384Y2607D01*
X384Y2609D01*
X386Y2609D01*
X386Y2611D01*
X388Y2611D01*
X388Y2613D01*
X390Y2613D01*
X390Y2615D01*
X392Y2615D01*
X392Y2619D01*
X394Y2619D01*
X394Y2621D01*
X396Y2621D01*
X396Y2623D01*
X398Y2623D01*
X398Y2625D01*
X400Y2625D01*
X400Y2627D01*
X402Y2627D01*
X402Y2629D01*
X404Y2629D01*
X404Y2633D01*
X406Y2633D01*
X406Y2635D01*
X408Y2635D01*
X408Y2637D01*
X410Y2637D01*
X410Y2639D01*
X412Y2639D01*
X412Y2641D01*
X414Y2641D01*
X414Y2643D01*
X416Y2643D01*
X416Y2647D01*
X418Y2647D01*
X418Y2649D01*
X420Y2649D01*
X420Y2651D01*
X422Y2651D01*
X422Y2653D01*
X424Y2653D01*
X424Y2655D01*
X426Y2655D01*
X426Y2657D01*
X428Y2657D01*
X428Y2661D01*
X430Y2661D01*
X430Y2663D01*
X432Y2663D01*
X432Y2665D01*
X434Y2665D01*
X434Y2667D01*
X436Y2667D01*
X436Y2669D01*
X438Y2669D01*
X438Y2685D01*
X440Y2685D01*
X440Y2693D01*
X442Y2693D01*
X442Y2697D01*
X444Y2697D01*
X444Y2699D01*
X446Y2699D01*
X446Y2701D01*
X448Y2701D01*
X448Y2703D01*
X450Y2703D01*
X450Y2705D01*
X452Y2705D01*
X452Y2707D01*
X456Y2707D01*
X456Y2709D01*
X462Y2709D01*
X462Y2711D01*
X40Y2711D01*
G37*
D02*
G36*
X40Y2609D02*
X40Y2607D01*
X66Y2607D01*
X66Y2609D01*
X40Y2609D01*
G37*
D02*
G36*
X40Y2487D02*
X40Y2485D01*
X68Y2485D01*
X68Y2487D01*
X40Y2487D01*
G37*
D02*
G36*
X40Y2485D02*
X40Y2483D01*
X376Y2483D01*
X376Y2485D01*
X40Y2485D01*
G37*
D02*
G36*
X40Y2485D02*
X40Y2483D01*
X376Y2483D01*
X376Y2485D01*
X40Y2485D01*
G37*
D02*
G36*
X40Y2483D02*
X40Y2387D01*
X76Y2387D01*
X76Y2385D01*
X82Y2385D01*
X82Y2383D01*
X88Y2383D01*
X88Y2381D01*
X92Y2381D01*
X92Y2379D01*
X94Y2379D01*
X94Y2377D01*
X98Y2377D01*
X98Y2375D01*
X100Y2375D01*
X100Y2373D01*
X102Y2373D01*
X102Y2371D01*
X104Y2371D01*
X104Y2369D01*
X106Y2369D01*
X106Y2365D01*
X108Y2365D01*
X108Y2363D01*
X110Y2363D01*
X110Y2359D01*
X112Y2359D01*
X112Y2353D01*
X114Y2353D01*
X114Y2345D01*
X116Y2345D01*
X116Y2331D01*
X114Y2331D01*
X114Y2323D01*
X112Y2323D01*
X112Y2317D01*
X110Y2317D01*
X110Y2313D01*
X108Y2313D01*
X108Y2311D01*
X106Y2311D01*
X106Y2307D01*
X104Y2307D01*
X104Y2305D01*
X102Y2305D01*
X102Y2303D01*
X100Y2303D01*
X100Y2301D01*
X98Y2301D01*
X98Y2299D01*
X94Y2299D01*
X94Y2297D01*
X300Y2297D01*
X300Y2295D01*
X308Y2295D01*
X308Y2293D01*
X312Y2293D01*
X312Y2291D01*
X316Y2291D01*
X316Y2289D01*
X318Y2289D01*
X318Y2287D01*
X320Y2287D01*
X320Y2285D01*
X324Y2285D01*
X324Y2281D01*
X326Y2281D01*
X326Y2279D01*
X328Y2279D01*
X328Y2277D01*
X330Y2277D01*
X330Y2273D01*
X350Y2273D01*
X350Y2275D01*
X352Y2275D01*
X352Y2279D01*
X354Y2279D01*
X354Y2281D01*
X356Y2281D01*
X356Y2283D01*
X358Y2283D01*
X358Y2285D01*
X360Y2285D01*
X360Y2287D01*
X362Y2287D01*
X362Y2289D01*
X366Y2289D01*
X366Y2291D01*
X368Y2291D01*
X368Y2293D01*
X374Y2293D01*
X374Y2361D01*
X376Y2361D01*
X376Y2483D01*
X40Y2483D01*
G37*
D02*
G36*
X94Y2297D02*
X94Y2277D01*
X98Y2277D01*
X98Y2275D01*
X100Y2275D01*
X100Y2273D01*
X102Y2273D01*
X102Y2271D01*
X104Y2271D01*
X104Y2269D01*
X106Y2269D01*
X106Y2265D01*
X108Y2265D01*
X108Y2263D01*
X110Y2263D01*
X110Y2259D01*
X112Y2259D01*
X112Y2253D01*
X114Y2253D01*
X114Y2245D01*
X116Y2245D01*
X116Y2231D01*
X114Y2231D01*
X114Y2223D01*
X112Y2223D01*
X112Y2217D01*
X110Y2217D01*
X110Y2213D01*
X108Y2213D01*
X108Y2211D01*
X106Y2211D01*
X106Y2207D01*
X182Y2207D01*
X182Y2209D01*
X174Y2209D01*
X174Y2211D01*
X172Y2211D01*
X172Y2213D01*
X168Y2213D01*
X168Y2215D01*
X166Y2215D01*
X166Y2217D01*
X162Y2217D01*
X162Y2219D01*
X160Y2219D01*
X160Y2221D01*
X158Y2221D01*
X158Y2225D01*
X156Y2225D01*
X156Y2227D01*
X154Y2227D01*
X154Y2231D01*
X152Y2231D01*
X152Y2233D01*
X150Y2233D01*
X150Y2241D01*
X148Y2241D01*
X148Y2263D01*
X150Y2263D01*
X150Y2269D01*
X152Y2269D01*
X152Y2273D01*
X154Y2273D01*
X154Y2277D01*
X156Y2277D01*
X156Y2279D01*
X158Y2279D01*
X158Y2281D01*
X160Y2281D01*
X160Y2285D01*
X164Y2285D01*
X164Y2287D01*
X166Y2287D01*
X166Y2289D01*
X168Y2289D01*
X168Y2291D01*
X172Y2291D01*
X172Y2293D01*
X176Y2293D01*
X176Y2295D01*
X182Y2295D01*
X182Y2297D01*
X94Y2297D01*
G37*
D02*
G36*
X202Y2297D02*
X202Y2295D01*
X210Y2295D01*
X210Y2293D01*
X214Y2293D01*
X214Y2291D01*
X216Y2291D01*
X216Y2289D01*
X220Y2289D01*
X220Y2287D01*
X222Y2287D01*
X222Y2285D01*
X224Y2285D01*
X224Y2283D01*
X226Y2283D01*
X226Y2281D01*
X228Y2281D01*
X228Y2279D01*
X230Y2279D01*
X230Y2275D01*
X232Y2275D01*
X232Y2273D01*
X252Y2273D01*
X252Y2277D01*
X254Y2277D01*
X254Y2279D01*
X256Y2279D01*
X256Y2281D01*
X258Y2281D01*
X258Y2283D01*
X260Y2283D01*
X260Y2285D01*
X262Y2285D01*
X262Y2287D01*
X264Y2287D01*
X264Y2289D01*
X266Y2289D01*
X266Y2291D01*
X270Y2291D01*
X270Y2293D01*
X274Y2293D01*
X274Y2295D01*
X282Y2295D01*
X282Y2297D01*
X202Y2297D01*
G37*
D02*
G36*
X232Y2231D02*
X232Y2227D01*
X230Y2227D01*
X230Y2225D01*
X228Y2225D01*
X228Y2223D01*
X226Y2223D01*
X226Y2219D01*
X222Y2219D01*
X222Y2217D01*
X220Y2217D01*
X220Y2215D01*
X218Y2215D01*
X218Y2213D01*
X214Y2213D01*
X214Y2211D01*
X210Y2211D01*
X210Y2209D01*
X204Y2209D01*
X204Y2207D01*
X280Y2207D01*
X280Y2209D01*
X274Y2209D01*
X274Y2211D01*
X270Y2211D01*
X270Y2213D01*
X266Y2213D01*
X266Y2215D01*
X264Y2215D01*
X264Y2217D01*
X262Y2217D01*
X262Y2219D01*
X258Y2219D01*
X258Y2223D01*
X256Y2223D01*
X256Y2225D01*
X254Y2225D01*
X254Y2227D01*
X252Y2227D01*
X252Y2231D01*
X232Y2231D01*
G37*
D02*
G36*
X330Y2231D02*
X330Y2227D01*
X328Y2227D01*
X328Y2225D01*
X326Y2225D01*
X326Y2221D01*
X324Y2221D01*
X324Y2219D01*
X322Y2219D01*
X322Y2217D01*
X318Y2217D01*
X318Y2215D01*
X316Y2215D01*
X316Y2213D01*
X312Y2213D01*
X312Y2211D01*
X308Y2211D01*
X308Y2209D01*
X302Y2209D01*
X302Y2207D01*
X378Y2207D01*
X378Y2209D01*
X372Y2209D01*
X372Y2211D01*
X368Y2211D01*
X368Y2213D01*
X364Y2213D01*
X364Y2215D01*
X362Y2215D01*
X362Y2217D01*
X360Y2217D01*
X360Y2219D01*
X358Y2219D01*
X358Y2221D01*
X356Y2221D01*
X356Y2223D01*
X354Y2223D01*
X354Y2225D01*
X352Y2225D01*
X352Y2229D01*
X350Y2229D01*
X350Y2231D01*
X330Y2231D01*
G37*
D02*
G36*
X104Y2207D02*
X104Y2205D01*
X530Y2205D01*
X530Y2207D01*
X104Y2207D01*
G37*
D02*
G36*
X104Y2207D02*
X104Y2205D01*
X530Y2205D01*
X530Y2207D01*
X104Y2207D01*
G37*
D02*
G36*
X104Y2207D02*
X104Y2205D01*
X530Y2205D01*
X530Y2207D01*
X104Y2207D01*
G37*
D02*
G36*
X104Y2207D02*
X104Y2205D01*
X530Y2205D01*
X530Y2207D01*
X104Y2207D01*
G37*
D02*
G36*
X104Y2205D02*
X104Y2187D01*
X116Y2187D01*
X116Y2089D01*
X40Y2089D01*
X40Y1961D01*
X88Y1961D01*
X88Y1959D01*
X94Y1959D01*
X94Y1957D01*
X98Y1957D01*
X98Y1955D01*
X102Y1955D01*
X102Y1953D01*
X106Y1953D01*
X106Y1951D01*
X108Y1951D01*
X108Y1949D01*
X112Y1949D01*
X112Y1947D01*
X114Y1947D01*
X114Y1945D01*
X116Y1945D01*
X116Y1943D01*
X118Y1943D01*
X118Y1941D01*
X120Y1941D01*
X120Y1939D01*
X122Y1939D01*
X122Y1935D01*
X124Y1935D01*
X124Y1933D01*
X126Y1933D01*
X126Y1929D01*
X128Y1929D01*
X128Y1925D01*
X130Y1925D01*
X130Y1919D01*
X132Y1919D01*
X132Y1911D01*
X134Y1911D01*
X134Y1891D01*
X132Y1891D01*
X132Y1881D01*
X130Y1881D01*
X130Y1877D01*
X128Y1877D01*
X128Y1873D01*
X126Y1873D01*
X126Y1869D01*
X124Y1869D01*
X124Y1865D01*
X122Y1865D01*
X122Y1863D01*
X120Y1863D01*
X120Y1861D01*
X118Y1861D01*
X118Y1859D01*
X116Y1859D01*
X116Y1857D01*
X114Y1857D01*
X114Y1855D01*
X112Y1855D01*
X112Y1853D01*
X110Y1853D01*
X110Y1851D01*
X108Y1851D01*
X108Y1849D01*
X104Y1849D01*
X104Y1847D01*
X100Y1847D01*
X100Y1845D01*
X96Y1845D01*
X96Y1843D01*
X90Y1843D01*
X90Y1841D01*
X82Y1841D01*
X82Y1839D01*
X500Y1839D01*
X500Y1841D01*
X492Y1841D01*
X492Y1843D01*
X486Y1843D01*
X486Y1845D01*
X482Y1845D01*
X482Y1847D01*
X478Y1847D01*
X478Y1849D01*
X476Y1849D01*
X476Y1851D01*
X472Y1851D01*
X472Y1853D01*
X470Y1853D01*
X470Y1855D01*
X468Y1855D01*
X468Y1857D01*
X466Y1857D01*
X466Y1859D01*
X464Y1859D01*
X464Y1861D01*
X462Y1861D01*
X462Y1863D01*
X460Y1863D01*
X460Y1867D01*
X458Y1867D01*
X458Y1869D01*
X456Y1869D01*
X456Y1873D01*
X454Y1873D01*
X454Y1877D01*
X452Y1877D01*
X452Y1883D01*
X450Y1883D01*
X450Y1893D01*
X448Y1893D01*
X448Y1909D01*
X450Y1909D01*
X450Y1919D01*
X452Y1919D01*
X452Y1925D01*
X454Y1925D01*
X454Y1929D01*
X456Y1929D01*
X456Y1931D01*
X458Y1931D01*
X458Y1935D01*
X460Y1935D01*
X460Y1937D01*
X462Y1937D01*
X462Y1941D01*
X464Y1941D01*
X464Y1943D01*
X466Y1943D01*
X466Y1945D01*
X468Y1945D01*
X468Y1947D01*
X470Y1947D01*
X470Y1949D01*
X474Y1949D01*
X474Y1951D01*
X476Y1951D01*
X476Y1953D01*
X480Y1953D01*
X480Y1955D01*
X484Y1955D01*
X484Y1957D01*
X488Y1957D01*
X488Y1959D01*
X496Y1959D01*
X496Y1961D01*
X530Y1961D01*
X530Y2205D01*
X104Y2205D01*
G37*
D02*
G36*
X40Y1841D02*
X40Y1839D01*
X64Y1839D01*
X64Y1841D01*
X40Y1841D01*
G37*
D02*
G36*
X40Y1839D02*
X40Y1837D01*
X530Y1837D01*
X530Y1839D01*
X40Y1839D01*
G37*
D02*
G36*
X40Y1839D02*
X40Y1837D01*
X530Y1837D01*
X530Y1839D01*
X40Y1839D01*
G37*
D02*
G36*
X40Y1837D02*
X40Y1667D01*
X78Y1667D01*
X78Y1665D01*
X84Y1665D01*
X84Y1663D01*
X88Y1663D01*
X88Y1661D01*
X92Y1661D01*
X92Y1659D01*
X96Y1659D01*
X96Y1657D01*
X98Y1657D01*
X98Y1655D01*
X100Y1655D01*
X100Y1653D01*
X102Y1653D01*
X102Y1651D01*
X396Y1651D01*
X396Y1649D01*
X404Y1649D01*
X404Y1647D01*
X410Y1647D01*
X410Y1645D01*
X412Y1645D01*
X412Y1643D01*
X416Y1643D01*
X416Y1641D01*
X418Y1641D01*
X418Y1639D01*
X420Y1639D01*
X420Y1637D01*
X422Y1637D01*
X422Y1635D01*
X424Y1635D01*
X424Y1633D01*
X426Y1633D01*
X426Y1631D01*
X428Y1631D01*
X428Y1627D01*
X430Y1627D01*
X430Y1623D01*
X432Y1623D01*
X432Y1617D01*
X434Y1617D01*
X434Y1593D01*
X432Y1593D01*
X432Y1587D01*
X430Y1587D01*
X430Y1583D01*
X428Y1583D01*
X428Y1579D01*
X426Y1579D01*
X426Y1577D01*
X424Y1577D01*
X424Y1575D01*
X422Y1575D01*
X422Y1573D01*
X420Y1573D01*
X420Y1571D01*
X418Y1571D01*
X418Y1569D01*
X416Y1569D01*
X416Y1567D01*
X412Y1567D01*
X412Y1565D01*
X408Y1565D01*
X408Y1563D01*
X402Y1563D01*
X402Y1561D01*
X392Y1561D01*
X392Y1559D01*
X530Y1559D01*
X530Y1837D01*
X40Y1837D01*
G37*
D02*
G36*
X104Y1651D02*
X104Y1649D01*
X106Y1649D01*
X106Y1645D01*
X108Y1645D01*
X108Y1643D01*
X110Y1643D01*
X110Y1639D01*
X112Y1639D01*
X112Y1633D01*
X114Y1633D01*
X114Y1625D01*
X116Y1625D01*
X116Y1611D01*
X114Y1611D01*
X114Y1603D01*
X112Y1603D01*
X112Y1597D01*
X110Y1597D01*
X110Y1595D01*
X108Y1595D01*
X108Y1591D01*
X106Y1591D01*
X106Y1589D01*
X104Y1589D01*
X104Y1585D01*
X102Y1585D01*
X102Y1583D01*
X100Y1583D01*
X100Y1581D01*
X96Y1581D01*
X96Y1579D01*
X94Y1579D01*
X94Y1559D01*
X190Y1559D01*
X190Y1561D01*
X180Y1561D01*
X180Y1563D01*
X174Y1563D01*
X174Y1565D01*
X170Y1565D01*
X170Y1567D01*
X166Y1567D01*
X166Y1569D01*
X164Y1569D01*
X164Y1571D01*
X162Y1571D01*
X162Y1573D01*
X160Y1573D01*
X160Y1575D01*
X158Y1575D01*
X158Y1577D01*
X156Y1577D01*
X156Y1581D01*
X154Y1581D01*
X154Y1583D01*
X152Y1583D01*
X152Y1587D01*
X150Y1587D01*
X150Y1593D01*
X148Y1593D01*
X148Y1617D01*
X150Y1617D01*
X150Y1623D01*
X152Y1623D01*
X152Y1627D01*
X154Y1627D01*
X154Y1631D01*
X156Y1631D01*
X156Y1633D01*
X158Y1633D01*
X158Y1635D01*
X160Y1635D01*
X160Y1637D01*
X162Y1637D01*
X162Y1639D01*
X164Y1639D01*
X164Y1641D01*
X166Y1641D01*
X166Y1643D01*
X170Y1643D01*
X170Y1645D01*
X172Y1645D01*
X172Y1647D01*
X178Y1647D01*
X178Y1649D01*
X186Y1649D01*
X186Y1651D01*
X104Y1651D01*
G37*
D02*
G36*
X200Y1651D02*
X200Y1649D01*
X208Y1649D01*
X208Y1647D01*
X212Y1647D01*
X212Y1645D01*
X216Y1645D01*
X216Y1643D01*
X220Y1643D01*
X220Y1641D01*
X222Y1641D01*
X222Y1639D01*
X224Y1639D01*
X224Y1637D01*
X226Y1637D01*
X226Y1635D01*
X228Y1635D01*
X228Y1633D01*
X230Y1633D01*
X230Y1629D01*
X232Y1629D01*
X232Y1627D01*
X252Y1627D01*
X252Y1629D01*
X254Y1629D01*
X254Y1633D01*
X256Y1633D01*
X256Y1635D01*
X258Y1635D01*
X258Y1637D01*
X260Y1637D01*
X260Y1639D01*
X262Y1639D01*
X262Y1641D01*
X264Y1641D01*
X264Y1643D01*
X268Y1643D01*
X268Y1645D01*
X272Y1645D01*
X272Y1647D01*
X276Y1647D01*
X276Y1649D01*
X284Y1649D01*
X284Y1651D01*
X200Y1651D01*
G37*
D02*
G36*
X298Y1651D02*
X298Y1649D01*
X306Y1649D01*
X306Y1647D01*
X310Y1647D01*
X310Y1645D01*
X314Y1645D01*
X314Y1643D01*
X318Y1643D01*
X318Y1641D01*
X320Y1641D01*
X320Y1639D01*
X322Y1639D01*
X322Y1637D01*
X324Y1637D01*
X324Y1635D01*
X326Y1635D01*
X326Y1633D01*
X328Y1633D01*
X328Y1631D01*
X330Y1631D01*
X330Y1627D01*
X350Y1627D01*
X350Y1629D01*
X352Y1629D01*
X352Y1631D01*
X354Y1631D01*
X354Y1635D01*
X356Y1635D01*
X356Y1637D01*
X358Y1637D01*
X358Y1639D01*
X360Y1639D01*
X360Y1641D01*
X364Y1641D01*
X364Y1643D01*
X366Y1643D01*
X366Y1645D01*
X370Y1645D01*
X370Y1647D01*
X374Y1647D01*
X374Y1649D01*
X382Y1649D01*
X382Y1651D01*
X298Y1651D01*
G37*
D02*
G36*
X232Y1585D02*
X232Y1581D01*
X230Y1581D01*
X230Y1579D01*
X228Y1579D01*
X228Y1575D01*
X226Y1575D01*
X226Y1573D01*
X224Y1573D01*
X224Y1571D01*
X220Y1571D01*
X220Y1569D01*
X218Y1569D01*
X218Y1567D01*
X216Y1567D01*
X216Y1565D01*
X212Y1565D01*
X212Y1563D01*
X206Y1563D01*
X206Y1561D01*
X196Y1561D01*
X196Y1559D01*
X288Y1559D01*
X288Y1561D01*
X278Y1561D01*
X278Y1563D01*
X272Y1563D01*
X272Y1565D01*
X268Y1565D01*
X268Y1567D01*
X266Y1567D01*
X266Y1569D01*
X262Y1569D01*
X262Y1571D01*
X260Y1571D01*
X260Y1573D01*
X258Y1573D01*
X258Y1575D01*
X256Y1575D01*
X256Y1579D01*
X254Y1579D01*
X254Y1581D01*
X252Y1581D01*
X252Y1585D01*
X232Y1585D01*
G37*
D02*
G36*
X330Y1583D02*
X330Y1581D01*
X328Y1581D01*
X328Y1577D01*
X326Y1577D01*
X326Y1575D01*
X324Y1575D01*
X324Y1573D01*
X322Y1573D01*
X322Y1571D01*
X320Y1571D01*
X320Y1569D01*
X316Y1569D01*
X316Y1567D01*
X314Y1567D01*
X314Y1565D01*
X310Y1565D01*
X310Y1563D01*
X304Y1563D01*
X304Y1561D01*
X294Y1561D01*
X294Y1559D01*
X386Y1559D01*
X386Y1561D01*
X376Y1561D01*
X376Y1563D01*
X370Y1563D01*
X370Y1565D01*
X368Y1565D01*
X368Y1567D01*
X364Y1567D01*
X364Y1569D01*
X362Y1569D01*
X362Y1571D01*
X358Y1571D01*
X358Y1573D01*
X356Y1573D01*
X356Y1577D01*
X354Y1577D01*
X354Y1579D01*
X352Y1579D01*
X352Y1581D01*
X350Y1581D01*
X350Y1583D01*
X330Y1583D01*
G37*
D02*
G36*
X96Y1559D02*
X96Y1557D01*
X530Y1557D01*
X530Y1559D01*
X96Y1559D01*
G37*
D02*
G36*
X96Y1559D02*
X96Y1557D01*
X530Y1557D01*
X530Y1559D01*
X96Y1559D01*
G37*
D02*
G36*
X96Y1559D02*
X96Y1557D01*
X530Y1557D01*
X530Y1559D01*
X96Y1559D01*
G37*
D02*
G36*
X96Y1559D02*
X96Y1557D01*
X530Y1557D01*
X530Y1559D01*
X96Y1559D01*
G37*
D02*
G36*
X98Y1557D02*
X98Y1555D01*
X100Y1555D01*
X100Y1553D01*
X102Y1553D01*
X102Y1551D01*
X104Y1551D01*
X104Y1549D01*
X106Y1549D01*
X106Y1545D01*
X108Y1545D01*
X108Y1543D01*
X110Y1543D01*
X110Y1539D01*
X112Y1539D01*
X112Y1533D01*
X114Y1533D01*
X114Y1525D01*
X116Y1525D01*
X116Y1517D01*
X364Y1517D01*
X364Y1515D01*
X368Y1515D01*
X368Y1513D01*
X372Y1513D01*
X372Y1511D01*
X374Y1511D01*
X374Y1509D01*
X376Y1509D01*
X376Y1507D01*
X378Y1507D01*
X378Y1505D01*
X380Y1505D01*
X380Y1501D01*
X382Y1501D01*
X382Y1495D01*
X384Y1495D01*
X384Y1477D01*
X386Y1477D01*
X386Y1475D01*
X388Y1475D01*
X388Y1473D01*
X390Y1473D01*
X390Y1471D01*
X392Y1471D01*
X392Y1469D01*
X394Y1469D01*
X394Y1467D01*
X396Y1467D01*
X396Y1463D01*
X398Y1463D01*
X398Y1461D01*
X400Y1461D01*
X400Y1459D01*
X402Y1459D01*
X402Y1457D01*
X404Y1457D01*
X404Y1453D01*
X406Y1453D01*
X406Y987D01*
X408Y987D01*
X408Y985D01*
X410Y985D01*
X410Y983D01*
X412Y983D01*
X412Y981D01*
X414Y981D01*
X414Y979D01*
X416Y979D01*
X416Y977D01*
X418Y977D01*
X418Y975D01*
X420Y975D01*
X420Y973D01*
X422Y973D01*
X422Y971D01*
X426Y971D01*
X426Y969D01*
X428Y969D01*
X428Y967D01*
X430Y967D01*
X430Y965D01*
X432Y965D01*
X432Y963D01*
X434Y963D01*
X434Y961D01*
X436Y961D01*
X436Y959D01*
X438Y959D01*
X438Y957D01*
X440Y957D01*
X440Y955D01*
X442Y955D01*
X442Y953D01*
X444Y953D01*
X444Y951D01*
X446Y951D01*
X446Y949D01*
X448Y949D01*
X448Y947D01*
X450Y947D01*
X450Y945D01*
X452Y945D01*
X452Y943D01*
X454Y943D01*
X454Y941D01*
X456Y941D01*
X456Y939D01*
X530Y939D01*
X530Y1231D01*
X438Y1231D01*
X438Y1337D01*
X530Y1337D01*
X530Y1557D01*
X98Y1557D01*
G37*
D02*
G36*
X116Y1517D02*
X116Y1511D01*
X114Y1511D01*
X114Y1503D01*
X112Y1503D01*
X112Y1497D01*
X110Y1497D01*
X110Y1495D01*
X108Y1495D01*
X108Y1491D01*
X106Y1491D01*
X106Y1489D01*
X104Y1489D01*
X104Y1467D01*
X116Y1467D01*
X116Y1369D01*
X40Y1369D01*
X40Y1337D01*
X300Y1337D01*
X300Y1335D01*
X308Y1335D01*
X308Y1333D01*
X312Y1333D01*
X312Y1331D01*
X316Y1331D01*
X316Y1329D01*
X320Y1329D01*
X320Y1327D01*
X324Y1327D01*
X324Y1325D01*
X326Y1325D01*
X326Y1323D01*
X328Y1323D01*
X328Y1321D01*
X330Y1321D01*
X330Y1319D01*
X332Y1319D01*
X332Y1317D01*
X334Y1317D01*
X334Y1313D01*
X336Y1313D01*
X336Y1311D01*
X338Y1311D01*
X338Y1307D01*
X340Y1307D01*
X340Y1301D01*
X342Y1301D01*
X342Y1295D01*
X344Y1295D01*
X344Y1273D01*
X342Y1273D01*
X342Y1265D01*
X340Y1265D01*
X340Y1261D01*
X338Y1261D01*
X338Y1257D01*
X336Y1257D01*
X336Y1253D01*
X334Y1253D01*
X334Y1251D01*
X332Y1251D01*
X332Y1249D01*
X330Y1249D01*
X330Y1247D01*
X328Y1247D01*
X328Y1245D01*
X326Y1245D01*
X326Y1243D01*
X324Y1243D01*
X324Y1241D01*
X322Y1241D01*
X322Y1239D01*
X318Y1239D01*
X318Y1237D01*
X314Y1237D01*
X314Y1235D01*
X310Y1235D01*
X310Y1233D01*
X304Y1233D01*
X304Y1231D01*
X374Y1231D01*
X374Y1443D01*
X372Y1443D01*
X372Y1445D01*
X370Y1445D01*
X370Y1447D01*
X368Y1447D01*
X368Y1449D01*
X366Y1449D01*
X366Y1451D01*
X364Y1451D01*
X364Y1455D01*
X362Y1455D01*
X362Y1457D01*
X360Y1457D01*
X360Y1459D01*
X346Y1459D01*
X346Y1461D01*
X340Y1461D01*
X340Y1463D01*
X338Y1463D01*
X338Y1465D01*
X334Y1465D01*
X334Y1467D01*
X332Y1467D01*
X332Y1471D01*
X330Y1471D01*
X330Y1473D01*
X328Y1473D01*
X328Y1477D01*
X326Y1477D01*
X326Y1483D01*
X324Y1483D01*
X324Y1493D01*
X326Y1493D01*
X326Y1501D01*
X328Y1501D01*
X328Y1503D01*
X330Y1503D01*
X330Y1507D01*
X332Y1507D01*
X332Y1509D01*
X334Y1509D01*
X334Y1511D01*
X336Y1511D01*
X336Y1513D01*
X340Y1513D01*
X340Y1515D01*
X344Y1515D01*
X344Y1517D01*
X116Y1517D01*
G37*
D02*
G36*
X40Y1337D02*
X40Y1331D01*
X170Y1331D01*
X170Y1329D01*
X180Y1329D01*
X180Y1327D01*
X184Y1327D01*
X184Y1325D01*
X188Y1325D01*
X188Y1323D01*
X192Y1323D01*
X192Y1321D01*
X194Y1321D01*
X194Y1319D01*
X198Y1319D01*
X198Y1317D01*
X200Y1317D01*
X200Y1315D01*
X202Y1315D01*
X202Y1311D01*
X204Y1311D01*
X204Y1309D01*
X206Y1309D01*
X206Y1307D01*
X208Y1307D01*
X208Y1303D01*
X210Y1303D01*
X210Y1299D01*
X212Y1299D01*
X212Y1291D01*
X214Y1291D01*
X214Y1269D01*
X212Y1269D01*
X212Y1263D01*
X210Y1263D01*
X210Y1259D01*
X208Y1259D01*
X208Y1255D01*
X206Y1255D01*
X206Y1253D01*
X204Y1253D01*
X204Y1249D01*
X202Y1249D01*
X202Y1247D01*
X200Y1247D01*
X200Y1245D01*
X198Y1245D01*
X198Y1243D01*
X194Y1243D01*
X194Y1241D01*
X192Y1241D01*
X192Y1239D01*
X188Y1239D01*
X188Y1237D01*
X186Y1237D01*
X186Y1235D01*
X180Y1235D01*
X180Y1233D01*
X172Y1233D01*
X172Y1231D01*
X278Y1231D01*
X278Y1233D01*
X272Y1233D01*
X272Y1235D01*
X268Y1235D01*
X268Y1237D01*
X264Y1237D01*
X264Y1239D01*
X260Y1239D01*
X260Y1241D01*
X258Y1241D01*
X258Y1243D01*
X256Y1243D01*
X256Y1245D01*
X254Y1245D01*
X254Y1247D01*
X252Y1247D01*
X252Y1249D01*
X250Y1249D01*
X250Y1251D01*
X248Y1251D01*
X248Y1255D01*
X246Y1255D01*
X246Y1257D01*
X244Y1257D01*
X244Y1261D01*
X242Y1261D01*
X242Y1267D01*
X240Y1267D01*
X240Y1273D01*
X238Y1273D01*
X238Y1295D01*
X240Y1295D01*
X240Y1301D01*
X242Y1301D01*
X242Y1305D01*
X244Y1305D01*
X244Y1309D01*
X246Y1309D01*
X246Y1313D01*
X248Y1313D01*
X248Y1315D01*
X250Y1315D01*
X250Y1319D01*
X252Y1319D01*
X252Y1321D01*
X254Y1321D01*
X254Y1323D01*
X256Y1323D01*
X256Y1325D01*
X260Y1325D01*
X260Y1327D01*
X262Y1327D01*
X262Y1329D01*
X266Y1329D01*
X266Y1331D01*
X270Y1331D01*
X270Y1333D01*
X274Y1333D01*
X274Y1335D01*
X282Y1335D01*
X282Y1337D01*
X40Y1337D01*
G37*
D02*
G36*
X40Y1331D02*
X40Y1321D01*
X70Y1321D01*
X70Y1319D01*
X78Y1319D01*
X78Y1317D01*
X82Y1317D01*
X82Y1315D01*
X84Y1315D01*
X84Y1313D01*
X88Y1313D01*
X88Y1311D01*
X90Y1311D01*
X90Y1309D01*
X92Y1309D01*
X92Y1307D01*
X94Y1307D01*
X94Y1305D01*
X96Y1305D01*
X96Y1301D01*
X98Y1301D01*
X98Y1297D01*
X118Y1297D01*
X118Y1301D01*
X120Y1301D01*
X120Y1305D01*
X122Y1305D01*
X122Y1309D01*
X124Y1309D01*
X124Y1311D01*
X126Y1311D01*
X126Y1313D01*
X128Y1313D01*
X128Y1315D01*
X130Y1315D01*
X130Y1317D01*
X132Y1317D01*
X132Y1319D01*
X134Y1319D01*
X134Y1321D01*
X136Y1321D01*
X136Y1323D01*
X140Y1323D01*
X140Y1325D01*
X144Y1325D01*
X144Y1327D01*
X148Y1327D01*
X148Y1329D01*
X158Y1329D01*
X158Y1331D01*
X40Y1331D01*
G37*
D02*
G36*
X98Y1265D02*
X98Y1261D01*
X96Y1261D01*
X96Y1257D01*
X94Y1257D01*
X94Y1255D01*
X92Y1255D01*
X92Y1253D01*
X90Y1253D01*
X90Y1251D01*
X88Y1251D01*
X88Y1249D01*
X86Y1249D01*
X86Y1247D01*
X82Y1247D01*
X82Y1245D01*
X78Y1245D01*
X78Y1243D01*
X72Y1243D01*
X72Y1241D01*
X40Y1241D01*
X40Y1231D01*
X156Y1231D01*
X156Y1233D01*
X148Y1233D01*
X148Y1235D01*
X144Y1235D01*
X144Y1237D01*
X140Y1237D01*
X140Y1239D01*
X136Y1239D01*
X136Y1241D01*
X134Y1241D01*
X134Y1243D01*
X132Y1243D01*
X132Y1245D01*
X128Y1245D01*
X128Y1249D01*
X126Y1249D01*
X126Y1251D01*
X124Y1251D01*
X124Y1253D01*
X122Y1253D01*
X122Y1257D01*
X120Y1257D01*
X120Y1261D01*
X118Y1261D01*
X118Y1265D01*
X98Y1265D01*
G37*
D02*
G36*
X40Y1231D02*
X40Y1229D01*
X374Y1229D01*
X374Y1231D01*
X40Y1231D01*
G37*
D02*
G36*
X40Y1231D02*
X40Y1229D01*
X374Y1229D01*
X374Y1231D01*
X40Y1231D01*
G37*
D02*
G36*
X40Y1231D02*
X40Y1229D01*
X374Y1229D01*
X374Y1231D01*
X40Y1231D01*
G37*
D02*
G36*
X40Y1229D02*
X40Y939D01*
X302Y939D01*
X302Y937D01*
X308Y937D01*
X308Y935D01*
X314Y935D01*
X314Y933D01*
X318Y933D01*
X318Y931D01*
X320Y931D01*
X320Y929D01*
X324Y929D01*
X324Y927D01*
X326Y927D01*
X326Y925D01*
X328Y925D01*
X328Y923D01*
X330Y923D01*
X330Y921D01*
X332Y921D01*
X332Y919D01*
X334Y919D01*
X334Y917D01*
X336Y917D01*
X336Y913D01*
X338Y913D01*
X338Y909D01*
X340Y909D01*
X340Y905D01*
X342Y905D01*
X342Y897D01*
X344Y897D01*
X344Y875D01*
X342Y875D01*
X342Y867D01*
X340Y867D01*
X340Y863D01*
X338Y863D01*
X338Y859D01*
X336Y859D01*
X336Y855D01*
X334Y855D01*
X334Y853D01*
X332Y853D01*
X332Y851D01*
X330Y851D01*
X330Y849D01*
X328Y849D01*
X328Y847D01*
X326Y847D01*
X326Y845D01*
X324Y845D01*
X324Y843D01*
X320Y843D01*
X320Y841D01*
X318Y841D01*
X318Y839D01*
X314Y839D01*
X314Y837D01*
X308Y837D01*
X308Y835D01*
X302Y835D01*
X302Y833D01*
X438Y833D01*
X438Y915D01*
X436Y915D01*
X436Y917D01*
X434Y917D01*
X434Y919D01*
X432Y919D01*
X432Y921D01*
X430Y921D01*
X430Y923D01*
X428Y923D01*
X428Y925D01*
X426Y925D01*
X426Y927D01*
X424Y927D01*
X424Y929D01*
X420Y929D01*
X420Y931D01*
X418Y931D01*
X418Y933D01*
X416Y933D01*
X416Y935D01*
X414Y935D01*
X414Y937D01*
X412Y937D01*
X412Y939D01*
X410Y939D01*
X410Y941D01*
X408Y941D01*
X408Y943D01*
X406Y943D01*
X406Y945D01*
X404Y945D01*
X404Y947D01*
X402Y947D01*
X402Y949D01*
X400Y949D01*
X400Y951D01*
X398Y951D01*
X398Y953D01*
X396Y953D01*
X396Y955D01*
X394Y955D01*
X394Y957D01*
X392Y957D01*
X392Y959D01*
X390Y959D01*
X390Y961D01*
X386Y961D01*
X386Y963D01*
X384Y963D01*
X384Y965D01*
X382Y965D01*
X382Y967D01*
X380Y967D01*
X380Y969D01*
X378Y969D01*
X378Y971D01*
X376Y971D01*
X376Y975D01*
X374Y975D01*
X374Y1229D01*
X40Y1229D01*
G37*
D02*
G36*
X40Y939D02*
X40Y933D01*
X166Y933D01*
X166Y931D01*
X178Y931D01*
X178Y929D01*
X184Y929D01*
X184Y927D01*
X188Y927D01*
X188Y925D01*
X192Y925D01*
X192Y923D01*
X194Y923D01*
X194Y921D01*
X196Y921D01*
X196Y919D01*
X200Y919D01*
X200Y915D01*
X202Y915D01*
X202Y913D01*
X204Y913D01*
X204Y911D01*
X206Y911D01*
X206Y907D01*
X208Y907D01*
X208Y905D01*
X210Y905D01*
X210Y901D01*
X212Y901D01*
X212Y893D01*
X214Y893D01*
X214Y871D01*
X212Y871D01*
X212Y865D01*
X210Y865D01*
X210Y861D01*
X208Y861D01*
X208Y857D01*
X206Y857D01*
X206Y853D01*
X204Y853D01*
X204Y851D01*
X202Y851D01*
X202Y849D01*
X200Y849D01*
X200Y847D01*
X198Y847D01*
X198Y845D01*
X196Y845D01*
X196Y843D01*
X192Y843D01*
X192Y841D01*
X190Y841D01*
X190Y839D01*
X186Y839D01*
X186Y837D01*
X182Y837D01*
X182Y835D01*
X174Y835D01*
X174Y833D01*
X280Y833D01*
X280Y835D01*
X274Y835D01*
X274Y837D01*
X268Y837D01*
X268Y839D01*
X264Y839D01*
X264Y841D01*
X262Y841D01*
X262Y843D01*
X258Y843D01*
X258Y845D01*
X256Y845D01*
X256Y847D01*
X254Y847D01*
X254Y849D01*
X252Y849D01*
X252Y851D01*
X250Y851D01*
X250Y853D01*
X248Y853D01*
X248Y857D01*
X246Y857D01*
X246Y861D01*
X244Y861D01*
X244Y863D01*
X242Y863D01*
X242Y869D01*
X240Y869D01*
X240Y875D01*
X238Y875D01*
X238Y897D01*
X240Y897D01*
X240Y903D01*
X242Y903D01*
X242Y909D01*
X244Y909D01*
X244Y911D01*
X246Y911D01*
X246Y915D01*
X248Y915D01*
X248Y919D01*
X250Y919D01*
X250Y921D01*
X252Y921D01*
X252Y923D01*
X254Y923D01*
X254Y925D01*
X256Y925D01*
X256Y927D01*
X258Y927D01*
X258Y929D01*
X262Y929D01*
X262Y931D01*
X264Y931D01*
X264Y933D01*
X268Y933D01*
X268Y935D01*
X274Y935D01*
X274Y937D01*
X280Y937D01*
X280Y939D01*
X40Y939D01*
G37*
D02*
G36*
X40Y933D02*
X40Y923D01*
X68Y923D01*
X68Y921D01*
X76Y921D01*
X76Y919D01*
X80Y919D01*
X80Y917D01*
X84Y917D01*
X84Y915D01*
X86Y915D01*
X86Y913D01*
X90Y913D01*
X90Y911D01*
X92Y911D01*
X92Y909D01*
X94Y909D01*
X94Y905D01*
X96Y905D01*
X96Y903D01*
X98Y903D01*
X98Y899D01*
X118Y899D01*
X118Y903D01*
X120Y903D01*
X120Y907D01*
X122Y907D01*
X122Y911D01*
X124Y911D01*
X124Y913D01*
X126Y913D01*
X126Y915D01*
X128Y915D01*
X128Y917D01*
X130Y917D01*
X130Y919D01*
X132Y919D01*
X132Y921D01*
X134Y921D01*
X134Y923D01*
X138Y923D01*
X138Y925D01*
X140Y925D01*
X140Y927D01*
X144Y927D01*
X144Y929D01*
X150Y929D01*
X150Y931D01*
X164Y931D01*
X164Y933D01*
X40Y933D01*
G37*
D02*
G36*
X98Y867D02*
X98Y863D01*
X96Y863D01*
X96Y859D01*
X94Y859D01*
X94Y857D01*
X92Y857D01*
X92Y855D01*
X90Y855D01*
X90Y853D01*
X88Y853D01*
X88Y851D01*
X86Y851D01*
X86Y849D01*
X82Y849D01*
X82Y847D01*
X78Y847D01*
X78Y845D01*
X72Y845D01*
X72Y843D01*
X40Y843D01*
X40Y833D01*
X154Y833D01*
X154Y835D01*
X148Y835D01*
X148Y837D01*
X142Y837D01*
X142Y839D01*
X140Y839D01*
X140Y841D01*
X136Y841D01*
X136Y843D01*
X134Y843D01*
X134Y845D01*
X130Y845D01*
X130Y847D01*
X128Y847D01*
X128Y849D01*
X126Y849D01*
X126Y853D01*
X124Y853D01*
X124Y855D01*
X122Y855D01*
X122Y859D01*
X120Y859D01*
X120Y861D01*
X118Y861D01*
X118Y867D01*
X98Y867D01*
G37*
D02*
G36*
X40Y833D02*
X40Y831D01*
X440Y831D01*
X440Y833D01*
X40Y833D01*
G37*
D02*
G36*
X40Y833D02*
X40Y831D01*
X440Y831D01*
X440Y833D01*
X40Y833D01*
G37*
D02*
G36*
X40Y833D02*
X40Y831D01*
X440Y831D01*
X440Y833D01*
X40Y833D01*
G37*
D02*
G36*
X40Y831D02*
X40Y533D01*
X304Y533D01*
X304Y531D01*
X310Y531D01*
X310Y529D01*
X314Y529D01*
X314Y527D01*
X318Y527D01*
X318Y525D01*
X322Y525D01*
X322Y523D01*
X324Y523D01*
X324Y521D01*
X326Y521D01*
X326Y519D01*
X328Y519D01*
X328Y517D01*
X330Y517D01*
X330Y515D01*
X332Y515D01*
X332Y513D01*
X334Y513D01*
X334Y511D01*
X336Y511D01*
X336Y507D01*
X338Y507D01*
X338Y503D01*
X340Y503D01*
X340Y499D01*
X342Y499D01*
X342Y493D01*
X344Y493D01*
X344Y469D01*
X342Y469D01*
X342Y463D01*
X340Y463D01*
X340Y457D01*
X338Y457D01*
X338Y455D01*
X336Y455D01*
X336Y451D01*
X334Y451D01*
X334Y447D01*
X332Y447D01*
X332Y445D01*
X330Y445D01*
X330Y443D01*
X328Y443D01*
X328Y441D01*
X326Y441D01*
X326Y439D01*
X322Y439D01*
X322Y437D01*
X320Y437D01*
X320Y435D01*
X316Y435D01*
X316Y433D01*
X312Y433D01*
X312Y431D01*
X308Y431D01*
X308Y429D01*
X300Y429D01*
X300Y427D01*
X530Y427D01*
X530Y429D01*
X438Y429D01*
X438Y535D01*
X530Y535D01*
X530Y831D01*
X40Y831D01*
G37*
D02*
G36*
X40Y533D02*
X40Y529D01*
X174Y529D01*
X174Y527D01*
X180Y527D01*
X180Y525D01*
X186Y525D01*
X186Y523D01*
X190Y523D01*
X190Y521D01*
X192Y521D01*
X192Y519D01*
X196Y519D01*
X196Y517D01*
X198Y517D01*
X198Y515D01*
X200Y515D01*
X200Y513D01*
X202Y513D01*
X202Y511D01*
X204Y511D01*
X204Y507D01*
X206Y507D01*
X206Y505D01*
X208Y505D01*
X208Y501D01*
X210Y501D01*
X210Y497D01*
X212Y497D01*
X212Y491D01*
X214Y491D01*
X214Y469D01*
X212Y469D01*
X212Y461D01*
X210Y461D01*
X210Y457D01*
X208Y457D01*
X208Y453D01*
X206Y453D01*
X206Y451D01*
X204Y451D01*
X204Y449D01*
X202Y449D01*
X202Y445D01*
X200Y445D01*
X200Y443D01*
X196Y443D01*
X196Y441D01*
X194Y441D01*
X194Y439D01*
X192Y439D01*
X192Y437D01*
X188Y437D01*
X188Y435D01*
X184Y435D01*
X184Y433D01*
X178Y433D01*
X178Y431D01*
X168Y431D01*
X168Y429D01*
X274Y429D01*
X274Y431D01*
X270Y431D01*
X270Y433D01*
X266Y433D01*
X266Y435D01*
X262Y435D01*
X262Y437D01*
X260Y437D01*
X260Y439D01*
X256Y439D01*
X256Y441D01*
X254Y441D01*
X254Y443D01*
X252Y443D01*
X252Y445D01*
X250Y445D01*
X250Y449D01*
X248Y449D01*
X248Y451D01*
X246Y451D01*
X246Y455D01*
X244Y455D01*
X244Y459D01*
X242Y459D01*
X242Y463D01*
X240Y463D01*
X240Y471D01*
X238Y471D01*
X238Y491D01*
X240Y491D01*
X240Y497D01*
X242Y497D01*
X242Y503D01*
X244Y503D01*
X244Y507D01*
X246Y507D01*
X246Y511D01*
X248Y511D01*
X248Y513D01*
X250Y513D01*
X250Y515D01*
X252Y515D01*
X252Y517D01*
X254Y517D01*
X254Y519D01*
X256Y519D01*
X256Y521D01*
X258Y521D01*
X258Y523D01*
X260Y523D01*
X260Y525D01*
X264Y525D01*
X264Y527D01*
X268Y527D01*
X268Y529D01*
X272Y529D01*
X272Y531D01*
X278Y531D01*
X278Y533D01*
X40Y533D01*
G37*
D02*
G36*
X40Y529D02*
X40Y519D01*
X72Y519D01*
X72Y517D01*
X78Y517D01*
X78Y515D01*
X82Y515D01*
X82Y513D01*
X86Y513D01*
X86Y511D01*
X88Y511D01*
X88Y509D01*
X90Y509D01*
X90Y507D01*
X92Y507D01*
X92Y505D01*
X94Y505D01*
X94Y503D01*
X96Y503D01*
X96Y499D01*
X98Y499D01*
X98Y495D01*
X118Y495D01*
X118Y501D01*
X120Y501D01*
X120Y503D01*
X122Y503D01*
X122Y507D01*
X124Y507D01*
X124Y509D01*
X126Y509D01*
X126Y513D01*
X128Y513D01*
X128Y515D01*
X130Y515D01*
X130Y517D01*
X134Y517D01*
X134Y519D01*
X136Y519D01*
X136Y521D01*
X140Y521D01*
X140Y523D01*
X144Y523D01*
X144Y525D01*
X148Y525D01*
X148Y527D01*
X156Y527D01*
X156Y529D01*
X40Y529D01*
G37*
D02*
G36*
X98Y463D02*
X98Y459D01*
X96Y459D01*
X96Y457D01*
X94Y457D01*
X94Y453D01*
X92Y453D01*
X92Y451D01*
X90Y451D01*
X90Y449D01*
X88Y449D01*
X88Y447D01*
X84Y447D01*
X84Y445D01*
X80Y445D01*
X80Y443D01*
X76Y443D01*
X76Y441D01*
X70Y441D01*
X70Y439D01*
X40Y439D01*
X40Y429D01*
X160Y429D01*
X160Y431D01*
X150Y431D01*
X150Y433D01*
X144Y433D01*
X144Y435D01*
X140Y435D01*
X140Y437D01*
X136Y437D01*
X136Y439D01*
X134Y439D01*
X134Y441D01*
X132Y441D01*
X132Y443D01*
X130Y443D01*
X130Y445D01*
X128Y445D01*
X128Y447D01*
X126Y447D01*
X126Y449D01*
X124Y449D01*
X124Y451D01*
X122Y451D01*
X122Y455D01*
X120Y455D01*
X120Y459D01*
X118Y459D01*
X118Y463D01*
X98Y463D01*
G37*
D02*
G36*
X40Y429D02*
X40Y427D01*
X282Y427D01*
X282Y429D01*
X40Y429D01*
G37*
D02*
G36*
X40Y429D02*
X40Y427D01*
X282Y427D01*
X282Y429D01*
X40Y429D01*
G37*
D02*
G36*
X40Y427D02*
X40Y425D01*
X530Y425D01*
X530Y427D01*
X40Y427D01*
G37*
D02*
G36*
X40Y427D02*
X40Y425D01*
X530Y425D01*
X530Y427D01*
X40Y427D01*
G37*
D02*
G36*
X40Y425D02*
X40Y137D01*
X294Y137D01*
X294Y135D01*
X306Y135D01*
X306Y133D01*
X312Y133D01*
X312Y131D01*
X316Y131D01*
X316Y129D01*
X318Y129D01*
X318Y127D01*
X322Y127D01*
X322Y125D01*
X324Y125D01*
X324Y123D01*
X328Y123D01*
X328Y121D01*
X330Y121D01*
X330Y117D01*
X332Y117D01*
X332Y115D01*
X334Y115D01*
X334Y113D01*
X336Y113D01*
X336Y109D01*
X338Y109D01*
X338Y105D01*
X340Y105D01*
X340Y101D01*
X342Y101D01*
X342Y95D01*
X344Y95D01*
X344Y71D01*
X342Y71D01*
X342Y65D01*
X340Y65D01*
X340Y61D01*
X338Y61D01*
X338Y41D01*
X438Y41D01*
X438Y137D01*
X530Y137D01*
X530Y425D01*
X40Y425D01*
G37*
D02*
G36*
X40Y137D02*
X40Y131D01*
X172Y131D01*
X172Y129D01*
X180Y129D01*
X180Y127D01*
X184Y127D01*
X184Y125D01*
X188Y125D01*
X188Y123D01*
X192Y123D01*
X192Y121D01*
X194Y121D01*
X194Y119D01*
X198Y119D01*
X198Y117D01*
X200Y117D01*
X200Y115D01*
X202Y115D01*
X202Y111D01*
X204Y111D01*
X204Y109D01*
X206Y109D01*
X206Y107D01*
X208Y107D01*
X208Y103D01*
X210Y103D01*
X210Y99D01*
X212Y99D01*
X212Y91D01*
X214Y91D01*
X214Y71D01*
X212Y71D01*
X212Y63D01*
X210Y63D01*
X210Y41D01*
X244Y41D01*
X244Y61D01*
X242Y61D01*
X242Y65D01*
X240Y65D01*
X240Y73D01*
X238Y73D01*
X238Y93D01*
X240Y93D01*
X240Y101D01*
X242Y101D01*
X242Y105D01*
X244Y105D01*
X244Y109D01*
X246Y109D01*
X246Y113D01*
X248Y113D01*
X248Y115D01*
X250Y115D01*
X250Y117D01*
X252Y117D01*
X252Y119D01*
X254Y119D01*
X254Y121D01*
X256Y121D01*
X256Y123D01*
X258Y123D01*
X258Y125D01*
X260Y125D01*
X260Y127D01*
X264Y127D01*
X264Y129D01*
X268Y129D01*
X268Y131D01*
X272Y131D01*
X272Y133D01*
X276Y133D01*
X276Y135D01*
X288Y135D01*
X288Y137D01*
X40Y137D01*
G37*
D02*
G36*
X40Y131D02*
X40Y121D01*
X72Y121D01*
X72Y119D01*
X78Y119D01*
X78Y117D01*
X82Y117D01*
X82Y115D01*
X84Y115D01*
X84Y113D01*
X88Y113D01*
X88Y111D01*
X90Y111D01*
X90Y109D01*
X92Y109D01*
X92Y107D01*
X94Y107D01*
X94Y105D01*
X96Y105D01*
X96Y101D01*
X98Y101D01*
X98Y97D01*
X118Y97D01*
X118Y101D01*
X120Y101D01*
X120Y105D01*
X122Y105D01*
X122Y109D01*
X124Y109D01*
X124Y111D01*
X126Y111D01*
X126Y113D01*
X128Y113D01*
X128Y117D01*
X132Y117D01*
X132Y119D01*
X134Y119D01*
X134Y121D01*
X136Y121D01*
X136Y123D01*
X140Y123D01*
X140Y125D01*
X144Y125D01*
X144Y127D01*
X148Y127D01*
X148Y129D01*
X158Y129D01*
X158Y131D01*
X40Y131D01*
G37*
D02*
G36*
X43Y2787D02*
X88Y2787D01*
X88Y2755D01*
X43Y2755D01*
X43Y2787D01*
G37*
D02*
G36*
X20Y2828D02*
X46Y2828D01*
X46Y2783D01*
X20Y2783D01*
X20Y2828D01*
G37*
D02*
G36*
X84Y2828D02*
X116Y2828D01*
X116Y2783D01*
X84Y2783D01*
X84Y2828D01*
G37*
D02*
G36*
X175Y3599D02*
X216Y3599D01*
X216Y3573D01*
X175Y3573D01*
X175Y3599D01*
G37*
D02*
G36*
X175Y3531D02*
X216Y3531D01*
X216Y3505D01*
X175Y3505D01*
X175Y3531D01*
G37*
D02*
G36*
X148Y3572D02*
X174Y3572D01*
X174Y3531D01*
X148Y3531D01*
X148Y3572D01*
G37*
D02*
G36*
X171Y2301D02*
X212Y2301D01*
X212Y2275D01*
X171Y2275D01*
X171Y2301D01*
G37*
D02*
G36*
X171Y2233D02*
X212Y2233D01*
X212Y2207D01*
X171Y2207D01*
X171Y2233D01*
G37*
D02*
G36*
X171Y1655D02*
X212Y1655D01*
X212Y1629D01*
X171Y1629D01*
X171Y1655D01*
G37*
D02*
G36*
X171Y1587D02*
X212Y1587D01*
X212Y1559D01*
X171Y1559D01*
X171Y1587D01*
G37*
D02*
G36*
X39Y523D02*
X80Y523D01*
X80Y507D01*
X39Y507D01*
X39Y523D01*
G37*
D02*
G36*
X39Y457D02*
X80Y457D01*
X80Y439D01*
X39Y439D01*
X39Y457D01*
G37*
D02*
G36*
X18Y502D02*
X34Y502D01*
X34Y461D01*
X18Y461D01*
X18Y502D01*
G37*
D02*
G36*
X139Y533D02*
X188Y533D01*
X188Y513D01*
X139Y513D01*
X139Y533D01*
G37*
D02*
G36*
X139Y451D02*
X188Y451D01*
X188Y429D01*
X139Y429D01*
X139Y451D01*
G37*
D02*
G36*
X194Y506D02*
X214Y506D01*
X214Y457D01*
X194Y457D01*
X194Y506D01*
G37*
D02*
G36*
X39Y927D02*
X80Y927D01*
X80Y911D01*
X39Y911D01*
X39Y927D01*
G37*
D02*
G36*
X39Y861D02*
X80Y861D01*
X80Y843D01*
X39Y843D01*
X39Y861D01*
G37*
D02*
G36*
X18Y906D02*
X34Y906D01*
X34Y865D01*
X18Y865D01*
X18Y906D01*
G37*
D02*
G36*
X39Y125D02*
X80Y125D01*
X80Y109D01*
X39Y109D01*
X39Y125D01*
G37*
D02*
G36*
X39Y59D02*
X80Y59D01*
X80Y41D01*
X39Y41D01*
X39Y59D01*
G37*
D02*
G36*
X18Y104D02*
X34Y104D01*
X34Y63D01*
X18Y63D01*
X18Y104D01*
G37*
D02*
G36*
X43Y1671D02*
X88Y1671D01*
X88Y1639D01*
X43Y1639D01*
X43Y1671D01*
G37*
D02*
G36*
X20Y1642D02*
X46Y1642D01*
X46Y1597D01*
X20Y1597D01*
X20Y1642D01*
G37*
D02*
G36*
X39Y1259D02*
X80Y1259D01*
X80Y1241D01*
X39Y1241D01*
X39Y1259D01*
G37*
D02*
G36*
X18Y1304D02*
X34Y1304D01*
X34Y1263D01*
X18Y1263D01*
X18Y1304D01*
G37*
D02*
G36*
X171Y2953D02*
X212Y2953D01*
X212Y2927D01*
X171Y2927D01*
X171Y2953D01*
G37*
D02*
G36*
X171Y2885D02*
X212Y2885D01*
X212Y2859D01*
X171Y2859D01*
X171Y2885D01*
G37*
D02*
G36*
X139Y1335D02*
X188Y1335D01*
X188Y1315D01*
X139Y1315D01*
X139Y1335D01*
G37*
D02*
G36*
X139Y1253D02*
X188Y1253D01*
X188Y1231D01*
X139Y1231D01*
X139Y1253D01*
G37*
D02*
G36*
X194Y1308D02*
X214Y1308D01*
X214Y1259D01*
X194Y1259D01*
X194Y1308D01*
G37*
D02*
G54D21*
X218Y3757D02*
X253Y3757D01*
X281Y3757D02*
X281Y3757D01*
X320Y3757D02*
X321Y3757D01*
X357Y3757D02*
X393Y3757D01*
X214Y3756D02*
X253Y3756D01*
X278Y3756D02*
X284Y3756D01*
X318Y3756D02*
X323Y3756D01*
X354Y3756D02*
X395Y3756D01*
X212Y3755D02*
X253Y3755D01*
X278Y3755D02*
X285Y3755D01*
X317Y3755D02*
X324Y3755D01*
X353Y3755D02*
X396Y3755D01*
X210Y3754D02*
X253Y3754D01*
X277Y3754D02*
X285Y3754D01*
X317Y3754D02*
X325Y3754D01*
X352Y3754D02*
X397Y3754D01*
X209Y3753D02*
X253Y3753D01*
X277Y3753D02*
X285Y3753D01*
X316Y3753D02*
X325Y3753D01*
X351Y3753D02*
X397Y3753D01*
X208Y3752D02*
X253Y3752D01*
X276Y3752D02*
X286Y3752D01*
X316Y3752D02*
X325Y3752D01*
X350Y3752D02*
X397Y3752D01*
X207Y3751D02*
X253Y3751D01*
X276Y3751D02*
X286Y3751D01*
X316Y3751D02*
X325Y3751D01*
X350Y3751D02*
X397Y3751D01*
X207Y3750D02*
X253Y3750D01*
X276Y3750D02*
X286Y3750D01*
X316Y3750D02*
X325Y3750D01*
X349Y3750D02*
X397Y3750D01*
X206Y3749D02*
X253Y3749D01*
X276Y3749D02*
X286Y3749D01*
X316Y3749D02*
X325Y3749D01*
X349Y3749D02*
X396Y3749D01*
X206Y3748D02*
X253Y3748D01*
X276Y3748D02*
X286Y3748D01*
X316Y3748D02*
X325Y3748D01*
X349Y3748D02*
X395Y3748D01*
X205Y3747D02*
X218Y3747D01*
X244Y3747D02*
X253Y3747D01*
X276Y3747D02*
X286Y3747D01*
X316Y3747D02*
X325Y3747D01*
X349Y3747D02*
X358Y3747D01*
X205Y3746D02*
X216Y3746D01*
X244Y3746D02*
X253Y3746D01*
X276Y3746D02*
X286Y3746D01*
X316Y3746D02*
X325Y3746D01*
X349Y3746D02*
X358Y3746D01*
X205Y3745D02*
X215Y3745D01*
X244Y3745D02*
X253Y3745D01*
X276Y3745D02*
X286Y3745D01*
X316Y3745D02*
X325Y3745D01*
X349Y3745D02*
X358Y3745D01*
X204Y3744D02*
X214Y3744D01*
X244Y3744D02*
X253Y3744D01*
X276Y3744D02*
X286Y3744D01*
X316Y3744D02*
X325Y3744D01*
X349Y3744D02*
X358Y3744D01*
X204Y3743D02*
X214Y3743D01*
X244Y3743D02*
X253Y3743D01*
X276Y3743D02*
X286Y3743D01*
X316Y3743D02*
X325Y3743D01*
X349Y3743D02*
X358Y3743D01*
X204Y3742D02*
X213Y3742D01*
X244Y3742D02*
X253Y3742D01*
X276Y3742D02*
X286Y3742D01*
X316Y3742D02*
X325Y3742D01*
X349Y3742D02*
X358Y3742D01*
X204Y3741D02*
X213Y3741D01*
X244Y3741D02*
X253Y3741D01*
X276Y3741D02*
X286Y3741D01*
X316Y3741D02*
X325Y3741D01*
X349Y3741D02*
X358Y3741D01*
X204Y3740D02*
X213Y3740D01*
X244Y3740D02*
X253Y3740D01*
X276Y3740D02*
X286Y3740D01*
X316Y3740D02*
X325Y3740D01*
X349Y3740D02*
X358Y3740D01*
X204Y3739D02*
X213Y3739D01*
X244Y3739D02*
X253Y3739D01*
X276Y3739D02*
X286Y3739D01*
X316Y3739D02*
X325Y3739D01*
X349Y3739D02*
X358Y3739D01*
X204Y3738D02*
X213Y3738D01*
X244Y3738D02*
X253Y3738D01*
X276Y3738D02*
X286Y3738D01*
X316Y3738D02*
X325Y3738D01*
X349Y3738D02*
X358Y3738D01*
X204Y3737D02*
X213Y3737D01*
X244Y3737D02*
X253Y3737D01*
X276Y3737D02*
X286Y3737D01*
X316Y3737D02*
X325Y3737D01*
X349Y3737D02*
X358Y3737D01*
X204Y3736D02*
X213Y3736D01*
X244Y3736D02*
X253Y3736D01*
X276Y3736D02*
X286Y3736D01*
X316Y3736D02*
X325Y3736D01*
X349Y3736D02*
X358Y3736D01*
X204Y3735D02*
X213Y3735D01*
X244Y3735D02*
X253Y3735D01*
X276Y3735D02*
X286Y3735D01*
X316Y3735D02*
X325Y3735D01*
X349Y3735D02*
X358Y3735D01*
X204Y3734D02*
X213Y3734D01*
X244Y3734D02*
X253Y3734D01*
X276Y3734D02*
X286Y3734D01*
X316Y3734D02*
X325Y3734D01*
X349Y3734D02*
X358Y3734D01*
X204Y3733D02*
X213Y3733D01*
X244Y3733D02*
X253Y3733D01*
X276Y3733D02*
X286Y3733D01*
X316Y3733D02*
X325Y3733D01*
X349Y3733D02*
X358Y3733D01*
X204Y3732D02*
X213Y3732D01*
X244Y3732D02*
X253Y3732D01*
X276Y3732D02*
X286Y3732D01*
X316Y3732D02*
X325Y3732D01*
X349Y3732D02*
X358Y3732D01*
X204Y3731D02*
X213Y3731D01*
X244Y3731D02*
X253Y3731D01*
X276Y3731D02*
X286Y3731D01*
X316Y3731D02*
X325Y3731D01*
X349Y3731D02*
X358Y3731D01*
X204Y3730D02*
X213Y3730D01*
X244Y3730D02*
X253Y3730D01*
X276Y3730D02*
X286Y3730D01*
X316Y3730D02*
X325Y3730D01*
X349Y3730D02*
X358Y3730D01*
X204Y3729D02*
X213Y3729D01*
X244Y3729D02*
X253Y3729D01*
X276Y3729D02*
X286Y3729D01*
X316Y3729D02*
X325Y3729D01*
X349Y3729D02*
X358Y3729D01*
X204Y3728D02*
X213Y3728D01*
X244Y3728D02*
X253Y3728D01*
X276Y3728D02*
X286Y3728D01*
X316Y3728D02*
X325Y3728D01*
X349Y3728D02*
X358Y3728D01*
X204Y3727D02*
X213Y3727D01*
X244Y3727D02*
X253Y3727D01*
X276Y3727D02*
X286Y3727D01*
X316Y3727D02*
X325Y3727D01*
X349Y3727D02*
X358Y3727D01*
X204Y3726D02*
X213Y3726D01*
X244Y3726D02*
X253Y3726D01*
X276Y3726D02*
X286Y3726D01*
X316Y3726D02*
X325Y3726D01*
X349Y3726D02*
X358Y3726D01*
X204Y3725D02*
X213Y3725D01*
X244Y3725D02*
X253Y3725D01*
X276Y3725D02*
X286Y3725D01*
X316Y3725D02*
X325Y3725D01*
X349Y3725D02*
X359Y3725D01*
X204Y3724D02*
X213Y3724D01*
X244Y3724D02*
X253Y3724D01*
X276Y3724D02*
X286Y3724D01*
X316Y3724D02*
X325Y3724D01*
X349Y3724D02*
X360Y3724D01*
X204Y3723D02*
X214Y3723D01*
X244Y3723D02*
X253Y3723D01*
X276Y3723D02*
X325Y3723D01*
X350Y3723D02*
X384Y3723D01*
X204Y3722D02*
X214Y3722D01*
X244Y3722D02*
X253Y3722D01*
X276Y3722D02*
X325Y3722D01*
X350Y3722D02*
X386Y3722D01*
X205Y3721D02*
X215Y3721D01*
X244Y3721D02*
X253Y3721D01*
X276Y3721D02*
X325Y3721D01*
X351Y3721D02*
X387Y3721D01*
X205Y3720D02*
X216Y3720D01*
X244Y3720D02*
X253Y3720D01*
X276Y3720D02*
X325Y3720D01*
X351Y3720D02*
X387Y3720D01*
X205Y3719D02*
X218Y3719D01*
X243Y3719D02*
X253Y3719D01*
X276Y3719D02*
X325Y3719D01*
X352Y3719D02*
X387Y3719D01*
X206Y3718D02*
X253Y3718D01*
X276Y3718D02*
X325Y3718D01*
X352Y3718D02*
X387Y3718D01*
X206Y3717D02*
X253Y3717D01*
X276Y3717D02*
X325Y3717D01*
X352Y3717D02*
X387Y3717D01*
X207Y3716D02*
X253Y3716D01*
X276Y3716D02*
X325Y3716D01*
X351Y3716D02*
X387Y3716D01*
X207Y3715D02*
X253Y3715D01*
X276Y3715D02*
X325Y3715D01*
X350Y3715D02*
X386Y3715D01*
X208Y3714D02*
X253Y3714D01*
X276Y3714D02*
X325Y3714D01*
X350Y3714D02*
X385Y3714D01*
X209Y3713D02*
X253Y3713D01*
X276Y3713D02*
X286Y3713D01*
X316Y3713D02*
X325Y3713D01*
X350Y3713D02*
X362Y3713D01*
X210Y3712D02*
X253Y3712D01*
X276Y3712D02*
X286Y3712D01*
X316Y3712D02*
X325Y3712D01*
X349Y3712D02*
X360Y3712D01*
X212Y3711D02*
X253Y3711D01*
X276Y3711D02*
X286Y3711D01*
X316Y3711D02*
X325Y3711D01*
X349Y3711D02*
X359Y3711D01*
X214Y3710D02*
X253Y3710D01*
X276Y3710D02*
X286Y3710D01*
X316Y3710D02*
X325Y3710D01*
X349Y3710D02*
X358Y3710D01*
X218Y3709D02*
X253Y3709D01*
X276Y3709D02*
X286Y3709D01*
X316Y3709D02*
X325Y3709D01*
X349Y3709D02*
X358Y3709D01*
X244Y3708D02*
X253Y3708D01*
X276Y3708D02*
X286Y3708D01*
X316Y3708D02*
X325Y3708D01*
X349Y3708D02*
X358Y3708D01*
X244Y3707D02*
X253Y3707D01*
X276Y3707D02*
X286Y3707D01*
X316Y3707D02*
X325Y3707D01*
X349Y3707D02*
X358Y3707D01*
X244Y3706D02*
X253Y3706D01*
X276Y3706D02*
X286Y3706D01*
X316Y3706D02*
X325Y3706D01*
X349Y3706D02*
X358Y3706D01*
X244Y3705D02*
X253Y3705D01*
X276Y3705D02*
X286Y3705D01*
X316Y3705D02*
X325Y3705D01*
X349Y3705D02*
X358Y3705D01*
X244Y3704D02*
X253Y3704D01*
X276Y3704D02*
X286Y3704D01*
X316Y3704D02*
X325Y3704D01*
X349Y3704D02*
X358Y3704D01*
X244Y3703D02*
X253Y3703D01*
X276Y3703D02*
X286Y3703D01*
X316Y3703D02*
X325Y3703D01*
X349Y3703D02*
X358Y3703D01*
X244Y3702D02*
X253Y3702D01*
X276Y3702D02*
X286Y3702D01*
X316Y3702D02*
X325Y3702D01*
X349Y3702D02*
X358Y3702D01*
X244Y3701D02*
X253Y3701D01*
X276Y3701D02*
X286Y3701D01*
X316Y3701D02*
X325Y3701D01*
X349Y3701D02*
X358Y3701D01*
X244Y3700D02*
X253Y3700D01*
X276Y3700D02*
X286Y3700D01*
X316Y3700D02*
X325Y3700D01*
X349Y3700D02*
X358Y3700D01*
X244Y3699D02*
X253Y3699D01*
X276Y3699D02*
X286Y3699D01*
X316Y3699D02*
X325Y3699D01*
X349Y3699D02*
X358Y3699D01*
X244Y3698D02*
X253Y3698D01*
X276Y3698D02*
X286Y3698D01*
X316Y3698D02*
X325Y3698D01*
X349Y3698D02*
X358Y3698D01*
X244Y3697D02*
X253Y3697D01*
X276Y3697D02*
X286Y3697D01*
X316Y3697D02*
X325Y3697D01*
X349Y3697D02*
X358Y3697D01*
X244Y3696D02*
X253Y3696D01*
X276Y3696D02*
X286Y3696D01*
X316Y3696D02*
X325Y3696D01*
X349Y3696D02*
X358Y3696D01*
X244Y3695D02*
X253Y3695D01*
X276Y3695D02*
X286Y3695D01*
X316Y3695D02*
X325Y3695D01*
X349Y3695D02*
X358Y3695D01*
X244Y3694D02*
X253Y3694D01*
X276Y3694D02*
X286Y3694D01*
X316Y3694D02*
X325Y3694D01*
X349Y3694D02*
X358Y3694D01*
X244Y3693D02*
X253Y3693D01*
X276Y3693D02*
X286Y3693D01*
X316Y3693D02*
X325Y3693D01*
X349Y3693D02*
X358Y3693D01*
X244Y3692D02*
X253Y3692D01*
X276Y3692D02*
X286Y3692D01*
X316Y3692D02*
X325Y3692D01*
X349Y3692D02*
X358Y3692D01*
X244Y3691D02*
X253Y3691D01*
X276Y3691D02*
X286Y3691D01*
X316Y3691D02*
X325Y3691D01*
X349Y3691D02*
X358Y3691D01*
X244Y3690D02*
X253Y3690D01*
X276Y3690D02*
X286Y3690D01*
X316Y3690D02*
X325Y3690D01*
X349Y3690D02*
X358Y3690D01*
X244Y3689D02*
X253Y3689D01*
X276Y3689D02*
X286Y3689D01*
X316Y3689D02*
X325Y3689D01*
X349Y3689D02*
X394Y3689D01*
X244Y3688D02*
X253Y3688D01*
X276Y3688D02*
X286Y3688D01*
X316Y3688D02*
X325Y3688D01*
X349Y3688D02*
X396Y3688D01*
X244Y3687D02*
X253Y3687D01*
X276Y3687D02*
X286Y3687D01*
X316Y3687D02*
X325Y3687D01*
X349Y3687D02*
X396Y3687D01*
X244Y3686D02*
X253Y3686D01*
X276Y3686D02*
X286Y3686D01*
X316Y3686D02*
X325Y3686D01*
X349Y3686D02*
X397Y3686D01*
X244Y3685D02*
X253Y3685D01*
X276Y3685D02*
X286Y3685D01*
X316Y3685D02*
X325Y3685D01*
X350Y3685D02*
X397Y3685D01*
X244Y3684D02*
X253Y3684D01*
X277Y3684D02*
X286Y3684D01*
X316Y3684D02*
X325Y3684D01*
X350Y3684D02*
X397Y3684D01*
X244Y3683D02*
X253Y3683D01*
X277Y3683D02*
X285Y3683D01*
X316Y3683D02*
X325Y3683D01*
X351Y3683D02*
X397Y3683D01*
X245Y3682D02*
X252Y3682D01*
X277Y3682D02*
X285Y3682D01*
X317Y3682D02*
X325Y3682D01*
X352Y3682D02*
X397Y3682D01*
X245Y3681D02*
X252Y3681D01*
X278Y3681D02*
X284Y3681D01*
X317Y3681D02*
X324Y3681D01*
X353Y3681D02*
X396Y3681D01*
X246Y3680D02*
X251Y3680D01*
X279Y3680D02*
X283Y3680D01*
X319Y3680D02*
X323Y3680D01*
X355Y3680D02*
X395Y3680D01*
D02*
G04 End of Copper0*
M02*