G04 MADE WITH FRITZING*
G04 WWW.FRITZING.ORG*
G04 DOUBLE SIDED*
G04 HOLES PLATED*
G04 CONTOUR ON CENTER OF CONTOUR VECTOR*
%ASAXBY*%
%FSLAX23Y23*%
%MOIN*%
%OFA0B0*%
%SFA1.0B1.0*%
%ADD10R,0.594488X5.055130X0.578488X5.039130*%
%ADD11C,0.008000*%
%ADD12C,0.010185*%
%ADD13C,0.008148*%
%ADD14R,0.001000X0.001000*%
%LNSILK1*%
G90*
G70*
G54D11*
X4Y5051D02*
X590Y5051D01*
X590Y4D01*
X4Y4D01*
X4Y5051D01*
D02*
G54D12*
G36*
X252Y384D02*
X227Y351D01*
X253Y316D01*
X240Y316D01*
X220Y343D01*
X200Y316D01*
X187Y316D01*
X214Y352D01*
X190Y385D01*
X203Y385D01*
X221Y361D01*
X239Y385D01*
X252Y385D01*
G37*
D02*
G54D13*
G36*
X394Y407D02*
X404Y407D01*
X372Y303D01*
X362Y303D01*
X394Y407D01*
G37*
D02*
G54D14*
X289Y3605D02*
X289Y3605D01*
X288Y3604D02*
X290Y3604D01*
X288Y3603D02*
X290Y3603D01*
X287Y3602D02*
X290Y3602D01*
X287Y3601D02*
X291Y3601D01*
X286Y3600D02*
X291Y3600D01*
X286Y3599D02*
X292Y3599D01*
X286Y3598D02*
X292Y3598D01*
X285Y3597D02*
X293Y3597D01*
X285Y3596D02*
X293Y3596D01*
X284Y3595D02*
X294Y3595D01*
X284Y3594D02*
X294Y3594D01*
X283Y3593D02*
X294Y3593D01*
X283Y3592D02*
X295Y3592D01*
X282Y3591D02*
X295Y3591D01*
X282Y3590D02*
X296Y3590D01*
X281Y3589D02*
X296Y3589D01*
X281Y3588D02*
X297Y3588D01*
X280Y3587D02*
X297Y3587D01*
X280Y3586D02*
X298Y3586D01*
X279Y3585D02*
X298Y3585D01*
X279Y3584D02*
X299Y3584D01*
X279Y3583D02*
X299Y3583D01*
X278Y3582D02*
X299Y3582D01*
X278Y3581D02*
X300Y3581D01*
X277Y3580D02*
X300Y3580D01*
X277Y3579D02*
X301Y3579D01*
X276Y3578D02*
X301Y3578D01*
X276Y3577D02*
X288Y3577D01*
X290Y3577D02*
X302Y3577D01*
X275Y3576D02*
X287Y3576D01*
X290Y3576D02*
X302Y3576D01*
X275Y3575D02*
X287Y3575D01*
X291Y3575D02*
X303Y3575D01*
X274Y3574D02*
X286Y3574D01*
X291Y3574D02*
X303Y3574D01*
X274Y3573D02*
X286Y3573D01*
X291Y3573D02*
X303Y3573D01*
X273Y3572D02*
X285Y3572D01*
X292Y3572D02*
X304Y3572D01*
X273Y3571D02*
X285Y3571D01*
X292Y3571D02*
X304Y3571D01*
X273Y3570D02*
X285Y3570D01*
X293Y3570D02*
X305Y3570D01*
X272Y3569D02*
X284Y3569D01*
X293Y3569D02*
X305Y3569D01*
X272Y3568D02*
X284Y3568D01*
X294Y3568D02*
X306Y3568D01*
X271Y3567D02*
X283Y3567D01*
X294Y3567D02*
X306Y3567D01*
X271Y3566D02*
X283Y3566D01*
X295Y3566D02*
X307Y3566D01*
X270Y3565D02*
X282Y3565D01*
X295Y3565D02*
X307Y3565D01*
X270Y3564D02*
X282Y3564D01*
X295Y3564D02*
X307Y3564D01*
X269Y3563D02*
X281Y3563D01*
X296Y3563D02*
X308Y3563D01*
X269Y3562D02*
X281Y3562D01*
X296Y3562D02*
X308Y3562D01*
X268Y3561D02*
X280Y3561D01*
X297Y3561D02*
X309Y3561D01*
X268Y3560D02*
X280Y3560D01*
X297Y3560D02*
X309Y3560D01*
X267Y3559D02*
X280Y3559D01*
X298Y3559D02*
X310Y3559D01*
X267Y3558D02*
X279Y3558D01*
X298Y3558D02*
X310Y3558D01*
X266Y3557D02*
X279Y3557D01*
X298Y3557D02*
X311Y3557D01*
X266Y3556D02*
X278Y3556D01*
X299Y3556D02*
X311Y3556D01*
X266Y3555D02*
X278Y3555D01*
X299Y3555D02*
X312Y3555D01*
X265Y3554D02*
X277Y3554D01*
X300Y3554D02*
X312Y3554D01*
X265Y3553D02*
X277Y3553D01*
X300Y3553D02*
X312Y3553D01*
X264Y3552D02*
X276Y3552D01*
X301Y3552D02*
X313Y3552D01*
X264Y3551D02*
X276Y3551D01*
X301Y3551D02*
X313Y3551D01*
X263Y3550D02*
X276Y3550D01*
X301Y3550D02*
X314Y3550D01*
X263Y3549D02*
X314Y3549D01*
X262Y3548D02*
X315Y3548D01*
X262Y3547D02*
X315Y3547D01*
X261Y3546D02*
X316Y3546D01*
X261Y3545D02*
X316Y3545D01*
X260Y3544D02*
X316Y3544D01*
X260Y3543D02*
X317Y3543D01*
X259Y3542D02*
X317Y3542D01*
X259Y3541D02*
X318Y3541D01*
X259Y3540D02*
X318Y3540D01*
X258Y3539D02*
X319Y3539D01*
X258Y3538D02*
X319Y3538D01*
X257Y3537D02*
X270Y3537D01*
X307Y3537D02*
X320Y3537D01*
X257Y3536D02*
X269Y3536D01*
X308Y3536D02*
X320Y3536D01*
X256Y3535D02*
X269Y3535D01*
X308Y3535D02*
X320Y3535D01*
X256Y3534D02*
X268Y3534D01*
X308Y3534D02*
X321Y3534D01*
X255Y3533D02*
X268Y3533D01*
X309Y3533D02*
X321Y3533D01*
X255Y3532D02*
X267Y3532D01*
X309Y3532D02*
X322Y3532D01*
X254Y3531D02*
X267Y3531D01*
X310Y3531D02*
X322Y3531D01*
X254Y3530D02*
X266Y3530D01*
X310Y3530D02*
X323Y3530D01*
X253Y3529D02*
X266Y3529D01*
X311Y3529D02*
X323Y3529D01*
X253Y3528D02*
X266Y3528D01*
X311Y3528D02*
X324Y3528D01*
X253Y3527D02*
X265Y3527D01*
X311Y3527D02*
X324Y3527D01*
X252Y3526D02*
X265Y3526D01*
X312Y3526D02*
X325Y3526D01*
X252Y3525D02*
X264Y3525D01*
X312Y3525D02*
X325Y3525D01*
X251Y3524D02*
X264Y3524D01*
X313Y3524D02*
X325Y3524D01*
X251Y3523D02*
X263Y3523D01*
X313Y3523D02*
X326Y3523D01*
X250Y3522D02*
X263Y3522D01*
X314Y3522D02*
X326Y3522D01*
X250Y3521D02*
X262Y3521D01*
X314Y3521D02*
X327Y3521D01*
X249Y3520D02*
X262Y3520D01*
X314Y3520D02*
X327Y3520D01*
X249Y3519D02*
X261Y3519D01*
X315Y3519D02*
X328Y3519D01*
X248Y3518D02*
X261Y3518D01*
X315Y3518D02*
X328Y3518D01*
X271Y2299D02*
X288Y2299D01*
X271Y2298D02*
X297Y2298D01*
X271Y2297D02*
X300Y2297D01*
X271Y2296D02*
X302Y2296D01*
X271Y2295D02*
X304Y2295D01*
X271Y2294D02*
X305Y2294D01*
X271Y2293D02*
X307Y2293D01*
X271Y2292D02*
X308Y2292D01*
X271Y2291D02*
X309Y2291D01*
X271Y2290D02*
X309Y2290D01*
X271Y2289D02*
X310Y2289D01*
X271Y2288D02*
X311Y2288D01*
X271Y2287D02*
X311Y2287D01*
X271Y2286D02*
X284Y2286D01*
X296Y2286D02*
X312Y2286D01*
X271Y2285D02*
X284Y2285D01*
X298Y2285D02*
X312Y2285D01*
X271Y2284D02*
X284Y2284D01*
X299Y2284D02*
X313Y2284D01*
X271Y2283D02*
X284Y2283D01*
X300Y2283D02*
X313Y2283D01*
X271Y2282D02*
X284Y2282D01*
X301Y2282D02*
X313Y2282D01*
X271Y2281D02*
X284Y2281D01*
X301Y2281D02*
X314Y2281D01*
X271Y2280D02*
X284Y2280D01*
X302Y2280D02*
X314Y2280D01*
X271Y2279D02*
X284Y2279D01*
X302Y2279D02*
X314Y2279D01*
X271Y2278D02*
X284Y2278D01*
X303Y2278D02*
X314Y2278D01*
X271Y2277D02*
X284Y2277D01*
X303Y2277D02*
X314Y2277D01*
X271Y2276D02*
X284Y2276D01*
X303Y2276D02*
X314Y2276D01*
X271Y2275D02*
X284Y2275D01*
X303Y2275D02*
X315Y2275D01*
X271Y2274D02*
X284Y2274D01*
X303Y2274D02*
X315Y2274D01*
X271Y2273D02*
X284Y2273D01*
X303Y2273D02*
X314Y2273D01*
X271Y2272D02*
X284Y2272D01*
X303Y2272D02*
X314Y2272D01*
X271Y2271D02*
X284Y2271D01*
X303Y2271D02*
X314Y2271D01*
X271Y2270D02*
X284Y2270D01*
X302Y2270D02*
X314Y2270D01*
X271Y2269D02*
X284Y2269D01*
X302Y2269D02*
X314Y2269D01*
X271Y2268D02*
X284Y2268D01*
X302Y2268D02*
X314Y2268D01*
X271Y2267D02*
X284Y2267D01*
X301Y2267D02*
X313Y2267D01*
X271Y2266D02*
X284Y2266D01*
X301Y2266D02*
X313Y2266D01*
X271Y2265D02*
X284Y2265D01*
X300Y2265D02*
X312Y2265D01*
X271Y2264D02*
X284Y2264D01*
X299Y2264D02*
X312Y2264D01*
X271Y2263D02*
X284Y2263D01*
X297Y2263D02*
X311Y2263D01*
X271Y2262D02*
X284Y2262D01*
X294Y2262D02*
X310Y2262D01*
X271Y2261D02*
X310Y2261D01*
X271Y2260D02*
X309Y2260D01*
X271Y2259D02*
X308Y2259D01*
X271Y2258D02*
X309Y2258D01*
X271Y2257D02*
X311Y2257D01*
X271Y2256D02*
X312Y2256D01*
X271Y2255D02*
X314Y2255D01*
X271Y2254D02*
X315Y2254D01*
X271Y2253D02*
X316Y2253D01*
X271Y2252D02*
X317Y2252D01*
X271Y2251D02*
X318Y2251D01*
X271Y2250D02*
X284Y2250D01*
X297Y2250D02*
X318Y2250D01*
X271Y2249D02*
X284Y2249D01*
X301Y2249D02*
X319Y2249D01*
X271Y2248D02*
X284Y2248D01*
X304Y2248D02*
X320Y2248D01*
X271Y2247D02*
X284Y2247D01*
X305Y2247D02*
X320Y2247D01*
X271Y2246D02*
X284Y2246D01*
X307Y2246D02*
X321Y2246D01*
X271Y2245D02*
X284Y2245D01*
X307Y2245D02*
X321Y2245D01*
X271Y2244D02*
X284Y2244D01*
X308Y2244D02*
X321Y2244D01*
X271Y2243D02*
X284Y2243D01*
X309Y2243D02*
X322Y2243D01*
X271Y2242D02*
X284Y2242D01*
X309Y2242D02*
X322Y2242D01*
X271Y2241D02*
X284Y2241D01*
X310Y2241D02*
X322Y2241D01*
X271Y2240D02*
X284Y2240D01*
X310Y2240D02*
X322Y2240D01*
X271Y2239D02*
X284Y2239D01*
X310Y2239D02*
X322Y2239D01*
X271Y2238D02*
X284Y2238D01*
X310Y2238D02*
X322Y2238D01*
X271Y2237D02*
X284Y2237D01*
X310Y2237D02*
X322Y2237D01*
X271Y2236D02*
X284Y2236D01*
X310Y2236D02*
X322Y2236D01*
X271Y2235D02*
X284Y2235D01*
X310Y2235D02*
X322Y2235D01*
X271Y2234D02*
X284Y2234D01*
X310Y2234D02*
X322Y2234D01*
X271Y2233D02*
X284Y2233D01*
X310Y2233D02*
X322Y2233D01*
X271Y2232D02*
X284Y2232D01*
X309Y2232D02*
X322Y2232D01*
X271Y2231D02*
X284Y2231D01*
X309Y2231D02*
X322Y2231D01*
X271Y2230D02*
X284Y2230D01*
X308Y2230D02*
X322Y2230D01*
X271Y2229D02*
X284Y2229D01*
X308Y2229D02*
X321Y2229D01*
X271Y2228D02*
X284Y2228D01*
X307Y2228D02*
X321Y2228D01*
X271Y2227D02*
X284Y2227D01*
X306Y2227D02*
X321Y2227D01*
X271Y2226D02*
X284Y2226D01*
X304Y2226D02*
X320Y2226D01*
X271Y2225D02*
X284Y2225D01*
X302Y2225D02*
X320Y2225D01*
X271Y2224D02*
X284Y2224D01*
X297Y2224D02*
X319Y2224D01*
X271Y2223D02*
X318Y2223D01*
X271Y2222D02*
X318Y2222D01*
X271Y2221D02*
X317Y2221D01*
X271Y2220D02*
X316Y2220D01*
X271Y2219D02*
X315Y2219D01*
X271Y2218D02*
X314Y2218D01*
X271Y2217D02*
X313Y2217D01*
X271Y2216D02*
X312Y2216D01*
X271Y2215D02*
X310Y2215D01*
X271Y2214D02*
X308Y2214D01*
X271Y2213D02*
X306Y2213D01*
X271Y2212D02*
X301Y2212D01*
X133Y410D02*
X138Y410D01*
X306Y410D02*
X313Y410D01*
X125Y409D02*
X145Y409D01*
X299Y409D02*
X320Y409D01*
X121Y408D02*
X148Y408D01*
X295Y408D02*
X324Y408D01*
X443Y408D02*
X458Y408D01*
X118Y407D02*
X151Y407D01*
X293Y407D02*
X326Y407D01*
X442Y407D02*
X458Y407D01*
X114Y406D02*
X153Y406D01*
X290Y406D02*
X329Y406D01*
X442Y406D02*
X459Y406D01*
X112Y405D02*
X155Y405D01*
X288Y405D02*
X331Y405D01*
X442Y405D02*
X459Y405D01*
X109Y404D02*
X156Y404D01*
X287Y404D02*
X332Y404D01*
X441Y404D02*
X459Y404D01*
X108Y403D02*
X158Y403D01*
X285Y403D02*
X334Y403D01*
X441Y403D02*
X460Y403D01*
X108Y402D02*
X159Y402D01*
X284Y402D02*
X335Y402D01*
X441Y402D02*
X460Y402D01*
X108Y401D02*
X160Y401D01*
X282Y401D02*
X336Y401D01*
X440Y401D02*
X460Y401D01*
X108Y400D02*
X161Y400D01*
X281Y400D02*
X338Y400D01*
X440Y400D02*
X461Y400D01*
X108Y399D02*
X162Y399D01*
X280Y399D02*
X339Y399D01*
X439Y399D02*
X461Y399D01*
X108Y398D02*
X162Y398D01*
X279Y398D02*
X340Y398D01*
X439Y398D02*
X462Y398D01*
X108Y397D02*
X129Y397D01*
X141Y397D02*
X163Y397D01*
X278Y397D02*
X302Y397D01*
X317Y397D02*
X341Y397D01*
X439Y397D02*
X462Y397D01*
X108Y396D02*
X124Y396D01*
X144Y396D02*
X164Y396D01*
X277Y396D02*
X298Y396D01*
X321Y396D02*
X341Y396D01*
X438Y396D02*
X462Y396D01*
X108Y395D02*
X121Y395D01*
X146Y395D02*
X164Y395D01*
X277Y395D02*
X296Y395D01*
X323Y395D02*
X342Y395D01*
X438Y395D02*
X463Y395D01*
X108Y394D02*
X118Y394D01*
X147Y394D02*
X165Y394D01*
X276Y394D02*
X294Y394D01*
X324Y394D02*
X343Y394D01*
X437Y394D02*
X463Y394D01*
X108Y393D02*
X116Y393D01*
X149Y393D02*
X165Y393D01*
X275Y393D02*
X293Y393D01*
X326Y393D02*
X344Y393D01*
X437Y393D02*
X464Y393D01*
X108Y392D02*
X114Y392D01*
X150Y392D02*
X165Y392D01*
X274Y392D02*
X292Y392D01*
X327Y392D02*
X345Y392D01*
X437Y392D02*
X464Y392D01*
X108Y391D02*
X112Y391D01*
X150Y391D02*
X166Y391D01*
X274Y391D02*
X291Y391D01*
X328Y391D02*
X345Y391D01*
X436Y391D02*
X449Y391D01*
X451Y391D02*
X464Y391D01*
X108Y390D02*
X110Y390D01*
X151Y390D02*
X166Y390D01*
X273Y390D02*
X290Y390D01*
X329Y390D02*
X346Y390D01*
X436Y390D02*
X449Y390D01*
X452Y390D02*
X465Y390D01*
X108Y389D02*
X108Y389D01*
X152Y389D02*
X166Y389D01*
X272Y389D02*
X289Y389D01*
X330Y389D02*
X346Y389D01*
X436Y389D02*
X449Y389D01*
X452Y389D02*
X465Y389D01*
X152Y388D02*
X167Y388D01*
X272Y388D02*
X288Y388D01*
X331Y388D02*
X347Y388D01*
X435Y388D02*
X448Y388D01*
X452Y388D02*
X465Y388D01*
X152Y387D02*
X167Y387D01*
X271Y387D02*
X287Y387D01*
X332Y387D02*
X347Y387D01*
X435Y387D02*
X448Y387D01*
X453Y387D02*
X466Y387D01*
X153Y386D02*
X167Y386D01*
X271Y386D02*
X287Y386D01*
X332Y386D02*
X348Y386D01*
X434Y386D02*
X448Y386D01*
X453Y386D02*
X466Y386D01*
X153Y385D02*
X167Y385D01*
X270Y385D02*
X286Y385D01*
X333Y385D02*
X348Y385D01*
X434Y385D02*
X447Y385D01*
X453Y385D02*
X467Y385D01*
X153Y384D02*
X167Y384D01*
X270Y384D02*
X285Y384D01*
X333Y384D02*
X349Y384D01*
X434Y384D02*
X447Y384D01*
X454Y384D02*
X467Y384D01*
X153Y383D02*
X167Y383D01*
X270Y383D02*
X285Y383D01*
X334Y383D02*
X349Y383D01*
X433Y383D02*
X446Y383D01*
X454Y383D02*
X467Y383D01*
X153Y382D02*
X167Y382D01*
X269Y382D02*
X284Y382D01*
X335Y382D02*
X349Y382D01*
X433Y382D02*
X446Y382D01*
X455Y382D02*
X468Y382D01*
X153Y381D02*
X167Y381D01*
X269Y381D02*
X284Y381D01*
X335Y381D02*
X350Y381D01*
X432Y381D02*
X446Y381D01*
X455Y381D02*
X468Y381D01*
X153Y380D02*
X167Y380D01*
X269Y380D02*
X283Y380D01*
X335Y380D02*
X350Y380D01*
X432Y380D02*
X445Y380D01*
X455Y380D02*
X468Y380D01*
X153Y379D02*
X167Y379D01*
X268Y379D02*
X283Y379D01*
X336Y379D02*
X350Y379D01*
X432Y379D02*
X445Y379D01*
X456Y379D02*
X469Y379D01*
X153Y378D02*
X167Y378D01*
X268Y378D02*
X283Y378D01*
X336Y378D02*
X351Y378D01*
X431Y378D02*
X445Y378D01*
X456Y378D02*
X469Y378D01*
X153Y377D02*
X166Y377D01*
X268Y377D02*
X282Y377D01*
X336Y377D02*
X351Y377D01*
X431Y377D02*
X444Y377D01*
X456Y377D02*
X470Y377D01*
X152Y376D02*
X166Y376D01*
X268Y376D02*
X282Y376D01*
X337Y376D02*
X351Y376D01*
X431Y376D02*
X444Y376D01*
X457Y376D02*
X470Y376D01*
X152Y375D02*
X166Y375D01*
X267Y375D02*
X282Y375D01*
X337Y375D02*
X351Y375D01*
X430Y375D02*
X443Y375D01*
X457Y375D02*
X470Y375D01*
X151Y374D02*
X166Y374D01*
X267Y374D02*
X282Y374D01*
X337Y374D02*
X352Y374D01*
X430Y374D02*
X443Y374D01*
X457Y374D02*
X471Y374D01*
X151Y373D02*
X165Y373D01*
X267Y373D02*
X281Y373D01*
X337Y373D02*
X352Y373D01*
X429Y373D02*
X443Y373D01*
X458Y373D02*
X471Y373D01*
X150Y372D02*
X165Y372D01*
X267Y372D02*
X281Y372D01*
X338Y372D02*
X352Y372D01*
X429Y372D02*
X442Y372D01*
X458Y372D02*
X472Y372D01*
X150Y371D02*
X165Y371D01*
X267Y371D02*
X281Y371D01*
X338Y371D02*
X352Y371D01*
X429Y371D02*
X442Y371D01*
X459Y371D02*
X472Y371D01*
X149Y370D02*
X164Y370D01*
X267Y370D02*
X281Y370D01*
X338Y370D02*
X352Y370D01*
X428Y370D02*
X442Y370D01*
X459Y370D02*
X472Y370D01*
X148Y369D02*
X164Y369D01*
X266Y369D02*
X281Y369D01*
X338Y369D02*
X352Y369D01*
X428Y369D02*
X441Y369D01*
X459Y369D02*
X473Y369D01*
X148Y368D02*
X163Y368D01*
X266Y368D02*
X281Y368D01*
X338Y368D02*
X352Y368D01*
X428Y368D02*
X441Y368D01*
X460Y368D02*
X473Y368D01*
X147Y367D02*
X162Y367D01*
X266Y367D02*
X281Y367D01*
X338Y367D02*
X353Y367D01*
X427Y367D02*
X441Y367D01*
X460Y367D02*
X473Y367D01*
X146Y366D02*
X162Y366D01*
X266Y366D02*
X280Y366D01*
X338Y366D02*
X353Y366D01*
X427Y366D02*
X440Y366D01*
X460Y366D02*
X474Y366D01*
X145Y365D02*
X161Y365D01*
X266Y365D02*
X280Y365D01*
X338Y365D02*
X353Y365D01*
X426Y365D02*
X440Y365D01*
X461Y365D02*
X474Y365D01*
X145Y364D02*
X160Y364D01*
X266Y364D02*
X280Y364D01*
X339Y364D02*
X353Y364D01*
X426Y364D02*
X439Y364D01*
X461Y364D02*
X475Y364D01*
X144Y363D02*
X160Y363D01*
X266Y363D02*
X280Y363D01*
X339Y363D02*
X353Y363D01*
X426Y363D02*
X439Y363D01*
X462Y363D02*
X475Y363D01*
X143Y362D02*
X159Y362D01*
X266Y362D02*
X280Y362D01*
X339Y362D02*
X353Y362D01*
X425Y362D02*
X439Y362D01*
X462Y362D02*
X475Y362D01*
X142Y361D02*
X158Y361D01*
X266Y361D02*
X280Y361D01*
X339Y361D02*
X353Y361D01*
X425Y361D02*
X438Y361D01*
X462Y361D02*
X476Y361D01*
X141Y360D02*
X158Y360D01*
X266Y360D02*
X280Y360D01*
X339Y360D02*
X353Y360D01*
X424Y360D02*
X438Y360D01*
X463Y360D02*
X476Y360D01*
X140Y359D02*
X157Y359D01*
X266Y359D02*
X280Y359D01*
X339Y359D02*
X353Y359D01*
X424Y359D02*
X438Y359D01*
X463Y359D02*
X476Y359D01*
X139Y358D02*
X156Y358D01*
X266Y358D02*
X280Y358D01*
X339Y358D02*
X353Y358D01*
X424Y358D02*
X437Y358D01*
X463Y358D02*
X477Y358D01*
X138Y357D02*
X155Y357D01*
X266Y357D02*
X280Y357D01*
X338Y357D02*
X353Y357D01*
X423Y357D02*
X437Y357D01*
X464Y357D02*
X477Y357D01*
X137Y356D02*
X154Y356D01*
X266Y356D02*
X280Y356D01*
X338Y356D02*
X353Y356D01*
X423Y356D02*
X436Y356D01*
X464Y356D02*
X478Y356D01*
X136Y355D02*
X153Y355D01*
X266Y355D02*
X281Y355D01*
X338Y355D02*
X353Y355D01*
X423Y355D02*
X436Y355D01*
X464Y355D02*
X478Y355D01*
X135Y354D02*
X152Y354D01*
X266Y354D02*
X281Y354D01*
X338Y354D02*
X353Y354D01*
X422Y354D02*
X436Y354D01*
X465Y354D02*
X478Y354D01*
X134Y353D02*
X151Y353D01*
X266Y353D02*
X281Y353D01*
X338Y353D02*
X352Y353D01*
X422Y353D02*
X435Y353D01*
X465Y353D02*
X479Y353D01*
X133Y352D02*
X150Y352D01*
X267Y352D02*
X281Y352D01*
X338Y352D02*
X352Y352D01*
X421Y352D02*
X435Y352D01*
X466Y352D02*
X479Y352D01*
X132Y351D02*
X149Y351D01*
X267Y351D02*
X281Y351D01*
X338Y351D02*
X352Y351D01*
X421Y351D02*
X435Y351D01*
X466Y351D02*
X480Y351D01*
X131Y350D02*
X148Y350D01*
X267Y350D02*
X281Y350D01*
X338Y350D02*
X352Y350D01*
X421Y350D02*
X435Y350D01*
X466Y350D02*
X480Y350D01*
X130Y349D02*
X147Y349D01*
X267Y349D02*
X281Y349D01*
X337Y349D02*
X352Y349D01*
X420Y349D02*
X480Y349D01*
X129Y348D02*
X146Y348D01*
X267Y348D02*
X282Y348D01*
X337Y348D02*
X352Y348D01*
X420Y348D02*
X481Y348D01*
X128Y347D02*
X145Y347D01*
X267Y347D02*
X282Y347D01*
X337Y347D02*
X351Y347D01*
X420Y347D02*
X481Y347D01*
X128Y346D02*
X144Y346D01*
X268Y346D02*
X282Y346D01*
X337Y346D02*
X351Y346D01*
X419Y346D02*
X481Y346D01*
X127Y345D02*
X143Y345D01*
X268Y345D02*
X282Y345D01*
X336Y345D02*
X351Y345D01*
X419Y345D02*
X482Y345D01*
X126Y344D02*
X142Y344D01*
X268Y344D02*
X283Y344D01*
X336Y344D02*
X351Y344D01*
X418Y344D02*
X482Y344D01*
X125Y343D02*
X141Y343D01*
X268Y343D02*
X283Y343D01*
X336Y343D02*
X350Y343D01*
X418Y343D02*
X483Y343D01*
X124Y342D02*
X140Y342D01*
X269Y342D02*
X283Y342D01*
X335Y342D02*
X350Y342D01*
X418Y342D02*
X483Y342D01*
X123Y341D02*
X140Y341D01*
X269Y341D02*
X284Y341D01*
X335Y341D02*
X350Y341D01*
X417Y341D02*
X483Y341D01*
X122Y340D02*
X139Y340D01*
X269Y340D02*
X284Y340D01*
X335Y340D02*
X350Y340D01*
X417Y340D02*
X484Y340D01*
X121Y339D02*
X138Y339D01*
X270Y339D02*
X285Y339D01*
X334Y339D02*
X349Y339D01*
X416Y339D02*
X484Y339D01*
X120Y338D02*
X137Y338D01*
X270Y338D02*
X285Y338D01*
X333Y338D02*
X349Y338D01*
X416Y338D02*
X484Y338D01*
X119Y337D02*
X136Y337D01*
X270Y337D02*
X286Y337D01*
X333Y337D02*
X348Y337D01*
X416Y337D02*
X430Y337D01*
X471Y337D02*
X485Y337D01*
X118Y336D02*
X135Y336D01*
X271Y336D02*
X287Y336D01*
X332Y336D02*
X348Y336D01*
X415Y336D02*
X429Y336D01*
X472Y336D02*
X485Y336D01*
X117Y335D02*
X134Y335D01*
X271Y335D02*
X287Y335D01*
X332Y335D02*
X347Y335D01*
X415Y335D02*
X429Y335D01*
X472Y335D02*
X486Y335D01*
X116Y334D02*
X133Y334D01*
X272Y334D02*
X288Y334D01*
X331Y334D02*
X347Y334D01*
X415Y334D02*
X428Y334D01*
X472Y334D02*
X486Y334D01*
X115Y333D02*
X132Y333D01*
X272Y333D02*
X289Y333D01*
X330Y333D02*
X346Y333D01*
X414Y333D02*
X428Y333D01*
X473Y333D02*
X486Y333D01*
X114Y332D02*
X131Y332D01*
X273Y332D02*
X290Y332D01*
X329Y332D02*
X346Y332D01*
X414Y332D02*
X428Y332D01*
X473Y332D02*
X487Y332D01*
X113Y331D02*
X130Y331D01*
X274Y331D02*
X291Y331D01*
X328Y331D02*
X345Y331D01*
X413Y331D02*
X427Y331D01*
X473Y331D02*
X487Y331D01*
X112Y330D02*
X129Y330D01*
X274Y330D02*
X292Y330D01*
X327Y330D02*
X345Y330D01*
X413Y330D02*
X427Y330D01*
X474Y330D02*
X487Y330D01*
X111Y329D02*
X128Y329D01*
X275Y329D02*
X293Y329D01*
X326Y329D02*
X344Y329D01*
X413Y329D02*
X427Y329D01*
X474Y329D02*
X488Y329D01*
X110Y328D02*
X127Y328D01*
X276Y328D02*
X294Y328D01*
X324Y328D02*
X343Y328D01*
X412Y328D02*
X426Y328D01*
X474Y328D02*
X488Y328D01*
X109Y327D02*
X126Y327D01*
X276Y327D02*
X296Y327D01*
X323Y327D02*
X342Y327D01*
X412Y327D02*
X426Y327D01*
X475Y327D02*
X489Y327D01*
X108Y326D02*
X167Y326D01*
X277Y326D02*
X298Y326D01*
X321Y326D02*
X342Y326D01*
X412Y326D02*
X426Y326D01*
X475Y326D02*
X489Y326D01*
X108Y325D02*
X167Y325D01*
X278Y325D02*
X301Y325D01*
X318Y325D02*
X341Y325D01*
X411Y325D02*
X425Y325D01*
X475Y325D02*
X489Y325D01*
X108Y324D02*
X167Y324D01*
X279Y324D02*
X340Y324D01*
X411Y324D02*
X425Y324D01*
X476Y324D02*
X490Y324D01*
X108Y323D02*
X167Y323D01*
X280Y323D02*
X339Y323D01*
X410Y323D02*
X425Y323D01*
X476Y323D02*
X490Y323D01*
X108Y322D02*
X167Y322D01*
X281Y322D02*
X338Y322D01*
X410Y322D02*
X424Y322D01*
X477Y322D02*
X491Y322D01*
X108Y321D02*
X167Y321D01*
X282Y321D02*
X336Y321D01*
X410Y321D02*
X424Y321D01*
X477Y321D02*
X491Y321D01*
X108Y320D02*
X167Y320D01*
X284Y320D02*
X335Y320D01*
X409Y320D02*
X423Y320D01*
X477Y320D02*
X491Y320D01*
X108Y319D02*
X167Y319D01*
X285Y319D02*
X334Y319D01*
X409Y319D02*
X423Y319D01*
X478Y319D02*
X492Y319D01*
X108Y318D02*
X167Y318D01*
X287Y318D02*
X332Y318D01*
X408Y318D02*
X423Y318D01*
X478Y318D02*
X492Y318D01*
X108Y317D02*
X167Y317D01*
X288Y317D02*
X331Y317D01*
X408Y317D02*
X422Y317D01*
X478Y317D02*
X492Y317D01*
X108Y316D02*
X167Y316D01*
X290Y316D02*
X329Y316D01*
X408Y316D02*
X422Y316D01*
X479Y316D02*
X493Y316D01*
X108Y315D02*
X167Y315D01*
X293Y315D02*
X326Y315D01*
X407Y315D02*
X422Y315D01*
X479Y315D02*
X493Y315D01*
X108Y314D02*
X167Y314D01*
X295Y314D02*
X324Y314D01*
X407Y314D02*
X421Y314D01*
X479Y314D02*
X493Y314D01*
X299Y313D02*
X320Y313D01*
X306Y312D02*
X313Y312D01*
D02*
G04 End of Silk1*
M02*