G04 MADE WITH FRITZING*
G04 WWW.FRITZING.ORG*
G04 DOUBLE SIDED*
G04 HOLES PLATED*
G04 CONTOUR ON CENTER OF CONTOUR VECTOR*
%ASAXBY*%
%FSLAX23Y23*%
%MOIN*%
%OFA0B0*%
%SFA1.0B1.0*%
%ADD10C,0.075000*%
%ADD11C,0.314961*%
%ADD12C,0.322834*%
%ADD13C,0.165354*%
%ADD14C,0.425197*%
%ADD15C,0.283465*%
%LNCOPPER0*%
G90*
G70*
G54D10*
X109Y4952D03*
G54D11*
X291Y4483D03*
G54D12*
X291Y2533D03*
G54D11*
X291Y3179D03*
G54D12*
X291Y3829D03*
G54D13*
X307Y4931D03*
X307Y120D03*
G54D14*
X291Y1518D03*
G54D15*
X291Y1915D03*
X291Y1112D03*
G54D14*
X291Y714D03*
G36*
X40Y5015D02*
X40Y4839D01*
X290Y4839D01*
X290Y4841D01*
X282Y4841D01*
X282Y4843D01*
X276Y4843D01*
X276Y4845D01*
X270Y4845D01*
X270Y4847D01*
X266Y4847D01*
X266Y4849D01*
X262Y4849D01*
X262Y4851D01*
X258Y4851D01*
X258Y4853D01*
X256Y4853D01*
X256Y4855D01*
X252Y4855D01*
X252Y4857D01*
X250Y4857D01*
X250Y4859D01*
X248Y4859D01*
X248Y4861D01*
X244Y4861D01*
X244Y4863D01*
X242Y4863D01*
X242Y4865D01*
X240Y4865D01*
X240Y4867D01*
X238Y4867D01*
X238Y4871D01*
X236Y4871D01*
X236Y4873D01*
X234Y4873D01*
X234Y4875D01*
X232Y4875D01*
X232Y4877D01*
X230Y4877D01*
X230Y4881D01*
X228Y4881D01*
X228Y4883D01*
X226Y4883D01*
X226Y4887D01*
X224Y4887D01*
X224Y4891D01*
X222Y4891D01*
X222Y4895D01*
X220Y4895D01*
X220Y4901D01*
X218Y4901D01*
X218Y4907D01*
X216Y4907D01*
X216Y4917D01*
X214Y4917D01*
X214Y4945D01*
X216Y4945D01*
X216Y4955D01*
X218Y4955D01*
X218Y4961D01*
X220Y4961D01*
X220Y4967D01*
X222Y4967D01*
X222Y4971D01*
X224Y4971D01*
X224Y4975D01*
X226Y4975D01*
X226Y4979D01*
X228Y4979D01*
X228Y4981D01*
X230Y4981D01*
X230Y4985D01*
X232Y4985D01*
X232Y4987D01*
X234Y4987D01*
X234Y4989D01*
X236Y4989D01*
X236Y4993D01*
X238Y4993D01*
X238Y4995D01*
X240Y4995D01*
X240Y5015D01*
X40Y5015D01*
G37*
D02*
G36*
X372Y5015D02*
X372Y4995D01*
X374Y4995D01*
X374Y4993D01*
X376Y4993D01*
X376Y4991D01*
X378Y4991D01*
X378Y4989D01*
X380Y4989D01*
X380Y4985D01*
X382Y4985D01*
X382Y4983D01*
X384Y4983D01*
X384Y4981D01*
X386Y4981D01*
X386Y4977D01*
X388Y4977D01*
X388Y4973D01*
X390Y4973D01*
X390Y4969D01*
X392Y4969D01*
X392Y4965D01*
X394Y4965D01*
X394Y4959D01*
X396Y4959D01*
X396Y4951D01*
X398Y4951D01*
X398Y4935D01*
X400Y4935D01*
X400Y4927D01*
X398Y4927D01*
X398Y4911D01*
X396Y4911D01*
X396Y4903D01*
X394Y4903D01*
X394Y4897D01*
X392Y4897D01*
X392Y4893D01*
X390Y4893D01*
X390Y4889D01*
X388Y4889D01*
X388Y4885D01*
X386Y4885D01*
X386Y4883D01*
X384Y4883D01*
X384Y4879D01*
X382Y4879D01*
X382Y4877D01*
X380Y4877D01*
X380Y4873D01*
X378Y4873D01*
X378Y4871D01*
X376Y4871D01*
X376Y4869D01*
X374Y4869D01*
X374Y4867D01*
X372Y4867D01*
X372Y4865D01*
X370Y4865D01*
X370Y4863D01*
X368Y4863D01*
X368Y4861D01*
X366Y4861D01*
X366Y4859D01*
X364Y4859D01*
X364Y4857D01*
X360Y4857D01*
X360Y4855D01*
X358Y4855D01*
X358Y4853D01*
X354Y4853D01*
X354Y4851D01*
X352Y4851D01*
X352Y4849D01*
X348Y4849D01*
X348Y4847D01*
X344Y4847D01*
X344Y4845D01*
X338Y4845D01*
X338Y4843D01*
X332Y4843D01*
X332Y4841D01*
X322Y4841D01*
X322Y4839D01*
X554Y4839D01*
X554Y5015D01*
X372Y5015D01*
G37*
D02*
G36*
X40Y4839D02*
X40Y4837D01*
X554Y4837D01*
X554Y4839D01*
X40Y4839D01*
G37*
D02*
G36*
X40Y4839D02*
X40Y4837D01*
X554Y4837D01*
X554Y4839D01*
X40Y4839D01*
G37*
D02*
G36*
X40Y4837D02*
X40Y4649D01*
X314Y4649D01*
X314Y4647D01*
X326Y4647D01*
X326Y4645D01*
X334Y4645D01*
X334Y4643D01*
X342Y4643D01*
X342Y4641D01*
X348Y4641D01*
X348Y4639D01*
X354Y4639D01*
X354Y4637D01*
X358Y4637D01*
X358Y4635D01*
X362Y4635D01*
X362Y4633D01*
X366Y4633D01*
X366Y4631D01*
X370Y4631D01*
X370Y4629D01*
X374Y4629D01*
X374Y4627D01*
X376Y4627D01*
X376Y4625D01*
X380Y4625D01*
X380Y4623D01*
X384Y4623D01*
X384Y4621D01*
X386Y4621D01*
X386Y4619D01*
X390Y4619D01*
X390Y4617D01*
X392Y4617D01*
X392Y4615D01*
X394Y4615D01*
X394Y4613D01*
X398Y4613D01*
X398Y4611D01*
X400Y4611D01*
X400Y4609D01*
X402Y4609D01*
X402Y4607D01*
X404Y4607D01*
X404Y4605D01*
X406Y4605D01*
X406Y4603D01*
X408Y4603D01*
X408Y4601D01*
X410Y4601D01*
X410Y4599D01*
X412Y4599D01*
X412Y4597D01*
X414Y4597D01*
X414Y4595D01*
X416Y4595D01*
X416Y4593D01*
X418Y4593D01*
X418Y4591D01*
X420Y4591D01*
X420Y4589D01*
X422Y4589D01*
X422Y4585D01*
X424Y4585D01*
X424Y4583D01*
X426Y4583D01*
X426Y4581D01*
X428Y4581D01*
X428Y4577D01*
X430Y4577D01*
X430Y4575D01*
X432Y4575D01*
X432Y4571D01*
X434Y4571D01*
X434Y4567D01*
X436Y4567D01*
X436Y4565D01*
X438Y4565D01*
X438Y4561D01*
X440Y4561D01*
X440Y4557D01*
X442Y4557D01*
X442Y4553D01*
X444Y4553D01*
X444Y4549D01*
X446Y4549D01*
X446Y4543D01*
X448Y4543D01*
X448Y4537D01*
X450Y4537D01*
X450Y4533D01*
X452Y4533D01*
X452Y4525D01*
X454Y4525D01*
X454Y4517D01*
X456Y4517D01*
X456Y4505D01*
X458Y4505D01*
X458Y4461D01*
X456Y4461D01*
X456Y4449D01*
X454Y4449D01*
X454Y4441D01*
X452Y4441D01*
X452Y4433D01*
X450Y4433D01*
X450Y4427D01*
X448Y4427D01*
X448Y4421D01*
X446Y4421D01*
X446Y4417D01*
X444Y4417D01*
X444Y4413D01*
X442Y4413D01*
X442Y4409D01*
X440Y4409D01*
X440Y4403D01*
X438Y4403D01*
X438Y4401D01*
X436Y4401D01*
X436Y4397D01*
X434Y4397D01*
X434Y4393D01*
X432Y4393D01*
X432Y4391D01*
X430Y4391D01*
X430Y4387D01*
X428Y4387D01*
X428Y4385D01*
X426Y4385D01*
X426Y4383D01*
X424Y4383D01*
X424Y4379D01*
X422Y4379D01*
X422Y4377D01*
X420Y4377D01*
X420Y4375D01*
X418Y4375D01*
X418Y4373D01*
X416Y4373D01*
X416Y4371D01*
X414Y4371D01*
X414Y4367D01*
X412Y4367D01*
X412Y4365D01*
X410Y4365D01*
X410Y4363D01*
X408Y4363D01*
X408Y4361D01*
X406Y4361D01*
X406Y4359D01*
X402Y4359D01*
X402Y4357D01*
X400Y4357D01*
X400Y4355D01*
X398Y4355D01*
X398Y4353D01*
X396Y4353D01*
X396Y4351D01*
X394Y4351D01*
X394Y4349D01*
X390Y4349D01*
X390Y4347D01*
X388Y4347D01*
X388Y4345D01*
X386Y4345D01*
X386Y4343D01*
X382Y4343D01*
X382Y4341D01*
X378Y4341D01*
X378Y4339D01*
X376Y4339D01*
X376Y4337D01*
X372Y4337D01*
X372Y4335D01*
X368Y4335D01*
X368Y4333D01*
X364Y4333D01*
X364Y4331D01*
X360Y4331D01*
X360Y4329D01*
X356Y4329D01*
X356Y4327D01*
X350Y4327D01*
X350Y4325D01*
X344Y4325D01*
X344Y4323D01*
X338Y4323D01*
X338Y4321D01*
X330Y4321D01*
X330Y4319D01*
X322Y4319D01*
X322Y4317D01*
X308Y4317D01*
X308Y4315D01*
X554Y4315D01*
X554Y4837D01*
X40Y4837D01*
G37*
D02*
G36*
X40Y4649D02*
X40Y4315D01*
X274Y4315D01*
X274Y4317D01*
X260Y4317D01*
X260Y4319D01*
X252Y4319D01*
X252Y4321D01*
X244Y4321D01*
X244Y4323D01*
X238Y4323D01*
X238Y4325D01*
X232Y4325D01*
X232Y4327D01*
X226Y4327D01*
X226Y4329D01*
X222Y4329D01*
X222Y4331D01*
X218Y4331D01*
X218Y4333D01*
X214Y4333D01*
X214Y4335D01*
X210Y4335D01*
X210Y4337D01*
X206Y4337D01*
X206Y4339D01*
X204Y4339D01*
X204Y4341D01*
X200Y4341D01*
X200Y4343D01*
X198Y4343D01*
X198Y4345D01*
X194Y4345D01*
X194Y4347D01*
X192Y4347D01*
X192Y4349D01*
X190Y4349D01*
X190Y4351D01*
X186Y4351D01*
X186Y4353D01*
X184Y4353D01*
X184Y4355D01*
X182Y4355D01*
X182Y4357D01*
X180Y4357D01*
X180Y4359D01*
X178Y4359D01*
X178Y4361D01*
X174Y4361D01*
X174Y4363D01*
X172Y4363D01*
X172Y4365D01*
X170Y4365D01*
X170Y4369D01*
X168Y4369D01*
X168Y4371D01*
X166Y4371D01*
X166Y4373D01*
X164Y4373D01*
X164Y4375D01*
X162Y4375D01*
X162Y4377D01*
X160Y4377D01*
X160Y4379D01*
X158Y4379D01*
X158Y4383D01*
X156Y4383D01*
X156Y4385D01*
X154Y4385D01*
X154Y4387D01*
X152Y4387D01*
X152Y4391D01*
X150Y4391D01*
X150Y4395D01*
X148Y4395D01*
X148Y4397D01*
X146Y4397D01*
X146Y4401D01*
X144Y4401D01*
X144Y4405D01*
X142Y4405D01*
X142Y4409D01*
X140Y4409D01*
X140Y4413D01*
X138Y4413D01*
X138Y4417D01*
X136Y4417D01*
X136Y4423D01*
X134Y4423D01*
X134Y4427D01*
X132Y4427D01*
X132Y4433D01*
X130Y4433D01*
X130Y4441D01*
X128Y4441D01*
X128Y4449D01*
X126Y4449D01*
X126Y4463D01*
X124Y4463D01*
X124Y4503D01*
X126Y4503D01*
X126Y4515D01*
X128Y4515D01*
X128Y4523D01*
X130Y4523D01*
X130Y4531D01*
X132Y4531D01*
X132Y4537D01*
X134Y4537D01*
X134Y4543D01*
X136Y4543D01*
X136Y4547D01*
X138Y4547D01*
X138Y4553D01*
X140Y4553D01*
X140Y4557D01*
X142Y4557D01*
X142Y4561D01*
X144Y4561D01*
X144Y4565D01*
X146Y4565D01*
X146Y4567D01*
X148Y4567D01*
X148Y4571D01*
X150Y4571D01*
X150Y4573D01*
X152Y4573D01*
X152Y4577D01*
X154Y4577D01*
X154Y4579D01*
X156Y4579D01*
X156Y4583D01*
X158Y4583D01*
X158Y4585D01*
X160Y4585D01*
X160Y4587D01*
X162Y4587D01*
X162Y4591D01*
X164Y4591D01*
X164Y4593D01*
X166Y4593D01*
X166Y4595D01*
X168Y4595D01*
X168Y4597D01*
X170Y4597D01*
X170Y4599D01*
X172Y4599D01*
X172Y4601D01*
X174Y4601D01*
X174Y4603D01*
X176Y4603D01*
X176Y4605D01*
X178Y4605D01*
X178Y4607D01*
X180Y4607D01*
X180Y4609D01*
X182Y4609D01*
X182Y4611D01*
X186Y4611D01*
X186Y4613D01*
X188Y4613D01*
X188Y4615D01*
X190Y4615D01*
X190Y4617D01*
X194Y4617D01*
X194Y4619D01*
X196Y4619D01*
X196Y4621D01*
X198Y4621D01*
X198Y4623D01*
X202Y4623D01*
X202Y4625D01*
X206Y4625D01*
X206Y4627D01*
X208Y4627D01*
X208Y4629D01*
X212Y4629D01*
X212Y4631D01*
X216Y4631D01*
X216Y4633D01*
X220Y4633D01*
X220Y4635D01*
X224Y4635D01*
X224Y4637D01*
X230Y4637D01*
X230Y4639D01*
X234Y4639D01*
X234Y4641D01*
X240Y4641D01*
X240Y4643D01*
X248Y4643D01*
X248Y4645D01*
X256Y4645D01*
X256Y4647D01*
X268Y4647D01*
X268Y4649D01*
X40Y4649D01*
G37*
D02*
G36*
X40Y4315D02*
X40Y4313D01*
X554Y4313D01*
X554Y4315D01*
X40Y4315D01*
G37*
D02*
G36*
X40Y4315D02*
X40Y4313D01*
X554Y4313D01*
X554Y4315D01*
X40Y4315D01*
G37*
D02*
G36*
X40Y4313D02*
X40Y4001D01*
X302Y4001D01*
X302Y3999D01*
X318Y3999D01*
X318Y3997D01*
X328Y3997D01*
X328Y3995D01*
X336Y3995D01*
X336Y3993D01*
X344Y3993D01*
X344Y3991D01*
X350Y3991D01*
X350Y3989D01*
X354Y3989D01*
X354Y3987D01*
X360Y3987D01*
X360Y3985D01*
X364Y3985D01*
X364Y3983D01*
X368Y3983D01*
X368Y3981D01*
X372Y3981D01*
X372Y3979D01*
X376Y3979D01*
X376Y3977D01*
X378Y3977D01*
X378Y3975D01*
X382Y3975D01*
X382Y3973D01*
X386Y3973D01*
X386Y3971D01*
X388Y3971D01*
X388Y3969D01*
X390Y3969D01*
X390Y3967D01*
X394Y3967D01*
X394Y3965D01*
X396Y3965D01*
X396Y3963D01*
X398Y3963D01*
X398Y3961D01*
X402Y3961D01*
X402Y3959D01*
X404Y3959D01*
X404Y3957D01*
X406Y3957D01*
X406Y3955D01*
X408Y3955D01*
X408Y3953D01*
X410Y3953D01*
X410Y3951D01*
X412Y3951D01*
X412Y3949D01*
X414Y3949D01*
X414Y3947D01*
X416Y3947D01*
X416Y3945D01*
X418Y3945D01*
X418Y3943D01*
X420Y3943D01*
X420Y3941D01*
X422Y3941D01*
X422Y3939D01*
X424Y3939D01*
X424Y3935D01*
X426Y3935D01*
X426Y3933D01*
X428Y3933D01*
X428Y3931D01*
X430Y3931D01*
X430Y3927D01*
X432Y3927D01*
X432Y3925D01*
X434Y3925D01*
X434Y3921D01*
X436Y3921D01*
X436Y3919D01*
X438Y3919D01*
X438Y3915D01*
X440Y3915D01*
X440Y3911D01*
X442Y3911D01*
X442Y3909D01*
X444Y3909D01*
X444Y3905D01*
X446Y3905D01*
X446Y3899D01*
X448Y3899D01*
X448Y3895D01*
X450Y3895D01*
X450Y3891D01*
X452Y3891D01*
X452Y3885D01*
X454Y3885D01*
X454Y3879D01*
X456Y3879D01*
X456Y3871D01*
X458Y3871D01*
X458Y3863D01*
X460Y3863D01*
X460Y3851D01*
X462Y3851D01*
X462Y3807D01*
X460Y3807D01*
X460Y3795D01*
X458Y3795D01*
X458Y3787D01*
X456Y3787D01*
X456Y3779D01*
X454Y3779D01*
X454Y3773D01*
X452Y3773D01*
X452Y3767D01*
X450Y3767D01*
X450Y3763D01*
X448Y3763D01*
X448Y3757D01*
X446Y3757D01*
X446Y3753D01*
X444Y3753D01*
X444Y3749D01*
X442Y3749D01*
X442Y3745D01*
X440Y3745D01*
X440Y3743D01*
X438Y3743D01*
X438Y3739D01*
X436Y3739D01*
X436Y3737D01*
X434Y3737D01*
X434Y3733D01*
X432Y3733D01*
X432Y3731D01*
X430Y3731D01*
X430Y3727D01*
X428Y3727D01*
X428Y3725D01*
X426Y3725D01*
X426Y3723D01*
X424Y3723D01*
X424Y3719D01*
X422Y3719D01*
X422Y3717D01*
X420Y3717D01*
X420Y3715D01*
X418Y3715D01*
X418Y3713D01*
X416Y3713D01*
X416Y3711D01*
X414Y3711D01*
X414Y3709D01*
X412Y3709D01*
X412Y3707D01*
X410Y3707D01*
X410Y3705D01*
X408Y3705D01*
X408Y3703D01*
X406Y3703D01*
X406Y3701D01*
X404Y3701D01*
X404Y3699D01*
X402Y3699D01*
X402Y3697D01*
X400Y3697D01*
X400Y3695D01*
X396Y3695D01*
X396Y3693D01*
X394Y3693D01*
X394Y3691D01*
X392Y3691D01*
X392Y3689D01*
X388Y3689D01*
X388Y3687D01*
X386Y3687D01*
X386Y3685D01*
X382Y3685D01*
X382Y3683D01*
X378Y3683D01*
X378Y3681D01*
X376Y3681D01*
X376Y3679D01*
X372Y3679D01*
X372Y3677D01*
X368Y3677D01*
X368Y3675D01*
X364Y3675D01*
X364Y3673D01*
X360Y3673D01*
X360Y3671D01*
X356Y3671D01*
X356Y3669D01*
X350Y3669D01*
X350Y3667D01*
X344Y3667D01*
X344Y3665D01*
X336Y3665D01*
X336Y3663D01*
X330Y3663D01*
X330Y3661D01*
X318Y3661D01*
X318Y3659D01*
X302Y3659D01*
X302Y3657D01*
X554Y3657D01*
X554Y4313D01*
X40Y4313D01*
G37*
D02*
G36*
X40Y4001D02*
X40Y3657D01*
X280Y3657D01*
X280Y3659D01*
X264Y3659D01*
X264Y3661D01*
X254Y3661D01*
X254Y3663D01*
X246Y3663D01*
X246Y3665D01*
X238Y3665D01*
X238Y3667D01*
X232Y3667D01*
X232Y3669D01*
X228Y3669D01*
X228Y3671D01*
X222Y3671D01*
X222Y3673D01*
X218Y3673D01*
X218Y3675D01*
X214Y3675D01*
X214Y3677D01*
X210Y3677D01*
X210Y3679D01*
X206Y3679D01*
X206Y3681D01*
X204Y3681D01*
X204Y3683D01*
X200Y3683D01*
X200Y3685D01*
X196Y3685D01*
X196Y3687D01*
X194Y3687D01*
X194Y3689D01*
X192Y3689D01*
X192Y3691D01*
X188Y3691D01*
X188Y3693D01*
X186Y3693D01*
X186Y3695D01*
X184Y3695D01*
X184Y3697D01*
X180Y3697D01*
X180Y3699D01*
X178Y3699D01*
X178Y3701D01*
X176Y3701D01*
X176Y3703D01*
X174Y3703D01*
X174Y3705D01*
X172Y3705D01*
X172Y3707D01*
X170Y3707D01*
X170Y3709D01*
X168Y3709D01*
X168Y3711D01*
X166Y3711D01*
X166Y3713D01*
X164Y3713D01*
X164Y3715D01*
X162Y3715D01*
X162Y3717D01*
X160Y3717D01*
X160Y3719D01*
X158Y3719D01*
X158Y3723D01*
X156Y3723D01*
X156Y3725D01*
X154Y3725D01*
X154Y3727D01*
X152Y3727D01*
X152Y3731D01*
X150Y3731D01*
X150Y3733D01*
X148Y3733D01*
X148Y3737D01*
X146Y3737D01*
X146Y3739D01*
X144Y3739D01*
X144Y3743D01*
X142Y3743D01*
X142Y3747D01*
X140Y3747D01*
X140Y3751D01*
X138Y3751D01*
X138Y3755D01*
X136Y3755D01*
X136Y3759D01*
X134Y3759D01*
X134Y3763D01*
X132Y3763D01*
X132Y3769D01*
X130Y3769D01*
X130Y3773D01*
X128Y3773D01*
X128Y3779D01*
X126Y3779D01*
X126Y3787D01*
X124Y3787D01*
X124Y3797D01*
X122Y3797D01*
X122Y3809D01*
X120Y3809D01*
X120Y3849D01*
X122Y3849D01*
X122Y3861D01*
X124Y3861D01*
X124Y3869D01*
X126Y3869D01*
X126Y3877D01*
X128Y3877D01*
X128Y3885D01*
X130Y3885D01*
X130Y3889D01*
X132Y3889D01*
X132Y3895D01*
X134Y3895D01*
X134Y3899D01*
X136Y3899D01*
X136Y3903D01*
X138Y3903D01*
X138Y3907D01*
X140Y3907D01*
X140Y3911D01*
X142Y3911D01*
X142Y3915D01*
X144Y3915D01*
X144Y3917D01*
X146Y3917D01*
X146Y3921D01*
X148Y3921D01*
X148Y3925D01*
X150Y3925D01*
X150Y3927D01*
X152Y3927D01*
X152Y3929D01*
X154Y3929D01*
X154Y3933D01*
X156Y3933D01*
X156Y3935D01*
X158Y3935D01*
X158Y3937D01*
X160Y3937D01*
X160Y3941D01*
X162Y3941D01*
X162Y3943D01*
X164Y3943D01*
X164Y3945D01*
X166Y3945D01*
X166Y3947D01*
X168Y3947D01*
X168Y3949D01*
X170Y3949D01*
X170Y3951D01*
X172Y3951D01*
X172Y3953D01*
X174Y3953D01*
X174Y3955D01*
X176Y3955D01*
X176Y3957D01*
X178Y3957D01*
X178Y3959D01*
X180Y3959D01*
X180Y3961D01*
X184Y3961D01*
X184Y3963D01*
X186Y3963D01*
X186Y3965D01*
X188Y3965D01*
X188Y3967D01*
X192Y3967D01*
X192Y3969D01*
X194Y3969D01*
X194Y3971D01*
X198Y3971D01*
X198Y3973D01*
X200Y3973D01*
X200Y3975D01*
X204Y3975D01*
X204Y3977D01*
X206Y3977D01*
X206Y3979D01*
X210Y3979D01*
X210Y3981D01*
X214Y3981D01*
X214Y3983D01*
X218Y3983D01*
X218Y3985D01*
X222Y3985D01*
X222Y3987D01*
X228Y3987D01*
X228Y3989D01*
X234Y3989D01*
X234Y3991D01*
X238Y3991D01*
X238Y3993D01*
X246Y3993D01*
X246Y3995D01*
X254Y3995D01*
X254Y3997D01*
X264Y3997D01*
X264Y3999D01*
X282Y3999D01*
X282Y4001D01*
X40Y4001D01*
G37*
D02*
G36*
X40Y3657D02*
X40Y3655D01*
X554Y3655D01*
X554Y3657D01*
X40Y3657D01*
G37*
D02*
G36*
X40Y3657D02*
X40Y3655D01*
X554Y3655D01*
X554Y3657D01*
X40Y3657D01*
G37*
D02*
G36*
X40Y3655D02*
X40Y3347D01*
X306Y3347D01*
X306Y3345D01*
X320Y3345D01*
X320Y3343D01*
X330Y3343D01*
X330Y3341D01*
X338Y3341D01*
X338Y3339D01*
X344Y3339D01*
X344Y3337D01*
X350Y3337D01*
X350Y3335D01*
X356Y3335D01*
X356Y3333D01*
X360Y3333D01*
X360Y3331D01*
X364Y3331D01*
X364Y3329D01*
X368Y3329D01*
X368Y3327D01*
X372Y3327D01*
X372Y3325D01*
X376Y3325D01*
X376Y3323D01*
X378Y3323D01*
X378Y3321D01*
X382Y3321D01*
X382Y3319D01*
X384Y3319D01*
X384Y3317D01*
X388Y3317D01*
X388Y3315D01*
X390Y3315D01*
X390Y3313D01*
X392Y3313D01*
X392Y3311D01*
X396Y3311D01*
X396Y3309D01*
X398Y3309D01*
X398Y3307D01*
X400Y3307D01*
X400Y3305D01*
X402Y3305D01*
X402Y3303D01*
X404Y3303D01*
X404Y3301D01*
X408Y3301D01*
X408Y3299D01*
X410Y3299D01*
X410Y3297D01*
X412Y3297D01*
X412Y3293D01*
X414Y3293D01*
X414Y3291D01*
X416Y3291D01*
X416Y3289D01*
X418Y3289D01*
X418Y3287D01*
X420Y3287D01*
X420Y3285D01*
X422Y3285D01*
X422Y3283D01*
X424Y3283D01*
X424Y3279D01*
X426Y3279D01*
X426Y3277D01*
X428Y3277D01*
X428Y3275D01*
X430Y3275D01*
X430Y3271D01*
X432Y3271D01*
X432Y3267D01*
X434Y3267D01*
X434Y3265D01*
X436Y3265D01*
X436Y3261D01*
X438Y3261D01*
X438Y3257D01*
X440Y3257D01*
X440Y3253D01*
X442Y3253D01*
X442Y3249D01*
X444Y3249D01*
X444Y3245D01*
X446Y3245D01*
X446Y3241D01*
X448Y3241D01*
X448Y3235D01*
X450Y3235D01*
X450Y3229D01*
X452Y3229D01*
X452Y3221D01*
X454Y3221D01*
X454Y3213D01*
X456Y3213D01*
X456Y3201D01*
X458Y3201D01*
X458Y3157D01*
X456Y3157D01*
X456Y3145D01*
X454Y3145D01*
X454Y3137D01*
X452Y3137D01*
X452Y3129D01*
X450Y3129D01*
X450Y3123D01*
X448Y3123D01*
X448Y3119D01*
X446Y3119D01*
X446Y3113D01*
X444Y3113D01*
X444Y3109D01*
X442Y3109D01*
X442Y3105D01*
X440Y3105D01*
X440Y3101D01*
X438Y3101D01*
X438Y3097D01*
X436Y3097D01*
X436Y3095D01*
X434Y3095D01*
X434Y3091D01*
X432Y3091D01*
X432Y3087D01*
X430Y3087D01*
X430Y3085D01*
X428Y3085D01*
X428Y3081D01*
X426Y3081D01*
X426Y3079D01*
X424Y3079D01*
X424Y3077D01*
X422Y3077D01*
X422Y3073D01*
X420Y3073D01*
X420Y3071D01*
X418Y3071D01*
X418Y3069D01*
X416Y3069D01*
X416Y3067D01*
X414Y3067D01*
X414Y3065D01*
X412Y3065D01*
X412Y3063D01*
X410Y3063D01*
X410Y3061D01*
X408Y3061D01*
X408Y3059D01*
X406Y3059D01*
X406Y3057D01*
X404Y3057D01*
X404Y3055D01*
X402Y3055D01*
X402Y3053D01*
X400Y3053D01*
X400Y3051D01*
X398Y3051D01*
X398Y3049D01*
X394Y3049D01*
X394Y3047D01*
X392Y3047D01*
X392Y3045D01*
X390Y3045D01*
X390Y3043D01*
X386Y3043D01*
X386Y3041D01*
X384Y3041D01*
X384Y3039D01*
X380Y3039D01*
X380Y3037D01*
X378Y3037D01*
X378Y3035D01*
X374Y3035D01*
X374Y3033D01*
X370Y3033D01*
X370Y3031D01*
X366Y3031D01*
X366Y3029D01*
X362Y3029D01*
X362Y3027D01*
X358Y3027D01*
X358Y3025D01*
X354Y3025D01*
X354Y3023D01*
X348Y3023D01*
X348Y3021D01*
X342Y3021D01*
X342Y3019D01*
X336Y3019D01*
X336Y3017D01*
X328Y3017D01*
X328Y3015D01*
X316Y3015D01*
X316Y3013D01*
X298Y3013D01*
X298Y3011D01*
X554Y3011D01*
X554Y3655D01*
X40Y3655D01*
G37*
D02*
G36*
X40Y3347D02*
X40Y3011D01*
X286Y3011D01*
X286Y3013D01*
X266Y3013D01*
X266Y3015D01*
X254Y3015D01*
X254Y3017D01*
X248Y3017D01*
X248Y3019D01*
X240Y3019D01*
X240Y3021D01*
X234Y3021D01*
X234Y3023D01*
X228Y3023D01*
X228Y3025D01*
X224Y3025D01*
X224Y3027D01*
X220Y3027D01*
X220Y3029D01*
X216Y3029D01*
X216Y3031D01*
X212Y3031D01*
X212Y3033D01*
X208Y3033D01*
X208Y3035D01*
X204Y3035D01*
X204Y3037D01*
X202Y3037D01*
X202Y3039D01*
X198Y3039D01*
X198Y3041D01*
X196Y3041D01*
X196Y3043D01*
X192Y3043D01*
X192Y3045D01*
X190Y3045D01*
X190Y3047D01*
X188Y3047D01*
X188Y3049D01*
X184Y3049D01*
X184Y3051D01*
X182Y3051D01*
X182Y3053D01*
X180Y3053D01*
X180Y3055D01*
X178Y3055D01*
X178Y3057D01*
X176Y3057D01*
X176Y3059D01*
X174Y3059D01*
X174Y3061D01*
X172Y3061D01*
X172Y3063D01*
X170Y3063D01*
X170Y3065D01*
X168Y3065D01*
X168Y3067D01*
X166Y3067D01*
X166Y3069D01*
X164Y3069D01*
X164Y3071D01*
X162Y3071D01*
X162Y3075D01*
X160Y3075D01*
X160Y3077D01*
X158Y3077D01*
X158Y3079D01*
X156Y3079D01*
X156Y3083D01*
X154Y3083D01*
X154Y3085D01*
X152Y3085D01*
X152Y3087D01*
X150Y3087D01*
X150Y3091D01*
X148Y3091D01*
X148Y3095D01*
X146Y3095D01*
X146Y3097D01*
X144Y3097D01*
X144Y3101D01*
X142Y3101D01*
X142Y3105D01*
X140Y3105D01*
X140Y3109D01*
X138Y3109D01*
X138Y3113D01*
X136Y3113D01*
X136Y3119D01*
X134Y3119D01*
X134Y3125D01*
X132Y3125D01*
X132Y3131D01*
X130Y3131D01*
X130Y3139D01*
X128Y3139D01*
X128Y3147D01*
X126Y3147D01*
X126Y3159D01*
X124Y3159D01*
X124Y3199D01*
X126Y3199D01*
X126Y3211D01*
X128Y3211D01*
X128Y3221D01*
X130Y3221D01*
X130Y3229D01*
X132Y3229D01*
X132Y3233D01*
X134Y3233D01*
X134Y3239D01*
X136Y3239D01*
X136Y3245D01*
X138Y3245D01*
X138Y3249D01*
X140Y3249D01*
X140Y3253D01*
X142Y3253D01*
X142Y3257D01*
X144Y3257D01*
X144Y3261D01*
X146Y3261D01*
X146Y3265D01*
X148Y3265D01*
X148Y3267D01*
X150Y3267D01*
X150Y3271D01*
X152Y3271D01*
X152Y3273D01*
X154Y3273D01*
X154Y3277D01*
X156Y3277D01*
X156Y3279D01*
X158Y3279D01*
X158Y3281D01*
X160Y3281D01*
X160Y3285D01*
X162Y3285D01*
X162Y3287D01*
X164Y3287D01*
X164Y3289D01*
X166Y3289D01*
X166Y3291D01*
X168Y3291D01*
X168Y3293D01*
X170Y3293D01*
X170Y3295D01*
X172Y3295D01*
X172Y3297D01*
X174Y3297D01*
X174Y3299D01*
X176Y3299D01*
X176Y3301D01*
X178Y3301D01*
X178Y3303D01*
X180Y3303D01*
X180Y3305D01*
X182Y3305D01*
X182Y3307D01*
X184Y3307D01*
X184Y3309D01*
X186Y3309D01*
X186Y3311D01*
X190Y3311D01*
X190Y3313D01*
X192Y3313D01*
X192Y3315D01*
X194Y3315D01*
X194Y3317D01*
X198Y3317D01*
X198Y3319D01*
X200Y3319D01*
X200Y3321D01*
X204Y3321D01*
X204Y3323D01*
X208Y3323D01*
X208Y3325D01*
X210Y3325D01*
X210Y3327D01*
X214Y3327D01*
X214Y3329D01*
X218Y3329D01*
X218Y3331D01*
X222Y3331D01*
X222Y3333D01*
X226Y3333D01*
X226Y3335D01*
X232Y3335D01*
X232Y3337D01*
X238Y3337D01*
X238Y3339D01*
X244Y3339D01*
X244Y3341D01*
X252Y3341D01*
X252Y3343D01*
X262Y3343D01*
X262Y3345D01*
X276Y3345D01*
X276Y3347D01*
X40Y3347D01*
G37*
D02*
G36*
X40Y3011D02*
X40Y3009D01*
X554Y3009D01*
X554Y3011D01*
X40Y3011D01*
G37*
D02*
G36*
X40Y3011D02*
X40Y3009D01*
X554Y3009D01*
X554Y3011D01*
X40Y3011D01*
G37*
D02*
G36*
X40Y3009D02*
X40Y2705D01*
X304Y2705D01*
X304Y2703D01*
X320Y2703D01*
X320Y2701D01*
X330Y2701D01*
X330Y2699D01*
X338Y2699D01*
X338Y2697D01*
X344Y2697D01*
X344Y2695D01*
X350Y2695D01*
X350Y2693D01*
X356Y2693D01*
X356Y2691D01*
X360Y2691D01*
X360Y2689D01*
X364Y2689D01*
X364Y2687D01*
X368Y2687D01*
X368Y2685D01*
X372Y2685D01*
X372Y2683D01*
X376Y2683D01*
X376Y2681D01*
X380Y2681D01*
X380Y2679D01*
X382Y2679D01*
X382Y2677D01*
X386Y2677D01*
X386Y2675D01*
X388Y2675D01*
X388Y2673D01*
X392Y2673D01*
X392Y2671D01*
X394Y2671D01*
X394Y2669D01*
X396Y2669D01*
X396Y2667D01*
X400Y2667D01*
X400Y2665D01*
X402Y2665D01*
X402Y2663D01*
X404Y2663D01*
X404Y2661D01*
X406Y2661D01*
X406Y2659D01*
X408Y2659D01*
X408Y2657D01*
X410Y2657D01*
X410Y2655D01*
X412Y2655D01*
X412Y2653D01*
X414Y2653D01*
X414Y2651D01*
X416Y2651D01*
X416Y2649D01*
X418Y2649D01*
X418Y2647D01*
X420Y2647D01*
X420Y2645D01*
X422Y2645D01*
X422Y2643D01*
X424Y2643D01*
X424Y2639D01*
X426Y2639D01*
X426Y2637D01*
X428Y2637D01*
X428Y2635D01*
X430Y2635D01*
X430Y2631D01*
X432Y2631D01*
X432Y2629D01*
X434Y2629D01*
X434Y2625D01*
X436Y2625D01*
X436Y2623D01*
X438Y2623D01*
X438Y2619D01*
X440Y2619D01*
X440Y2617D01*
X442Y2617D01*
X442Y2613D01*
X444Y2613D01*
X444Y2609D01*
X446Y2609D01*
X446Y2605D01*
X448Y2605D01*
X448Y2599D01*
X450Y2599D01*
X450Y2595D01*
X452Y2595D01*
X452Y2589D01*
X454Y2589D01*
X454Y2583D01*
X456Y2583D01*
X456Y2575D01*
X458Y2575D01*
X458Y2567D01*
X460Y2567D01*
X460Y2555D01*
X462Y2555D01*
X462Y2511D01*
X460Y2511D01*
X460Y2499D01*
X458Y2499D01*
X458Y2491D01*
X456Y2491D01*
X456Y2483D01*
X454Y2483D01*
X454Y2477D01*
X452Y2477D01*
X452Y2471D01*
X450Y2471D01*
X450Y2467D01*
X448Y2467D01*
X448Y2463D01*
X446Y2463D01*
X446Y2459D01*
X444Y2459D01*
X444Y2453D01*
X442Y2453D01*
X442Y2451D01*
X440Y2451D01*
X440Y2447D01*
X438Y2447D01*
X438Y2443D01*
X436Y2443D01*
X436Y2441D01*
X434Y2441D01*
X434Y2437D01*
X432Y2437D01*
X432Y2435D01*
X430Y2435D01*
X430Y2431D01*
X428Y2431D01*
X428Y2429D01*
X426Y2429D01*
X426Y2427D01*
X424Y2427D01*
X424Y2423D01*
X422Y2423D01*
X422Y2421D01*
X420Y2421D01*
X420Y2419D01*
X418Y2419D01*
X418Y2417D01*
X416Y2417D01*
X416Y2415D01*
X414Y2415D01*
X414Y2413D01*
X412Y2413D01*
X412Y2411D01*
X410Y2411D01*
X410Y2409D01*
X408Y2409D01*
X408Y2407D01*
X406Y2407D01*
X406Y2405D01*
X404Y2405D01*
X404Y2403D01*
X402Y2403D01*
X402Y2401D01*
X398Y2401D01*
X398Y2399D01*
X396Y2399D01*
X396Y2397D01*
X394Y2397D01*
X394Y2395D01*
X390Y2395D01*
X390Y2393D01*
X388Y2393D01*
X388Y2391D01*
X384Y2391D01*
X384Y2389D01*
X382Y2389D01*
X382Y2387D01*
X378Y2387D01*
X378Y2385D01*
X376Y2385D01*
X376Y2383D01*
X372Y2383D01*
X372Y2381D01*
X368Y2381D01*
X368Y2379D01*
X364Y2379D01*
X364Y2377D01*
X360Y2377D01*
X360Y2375D01*
X354Y2375D01*
X354Y2373D01*
X348Y2373D01*
X348Y2371D01*
X344Y2371D01*
X344Y2369D01*
X336Y2369D01*
X336Y2367D01*
X328Y2367D01*
X328Y2365D01*
X316Y2365D01*
X316Y2363D01*
X300Y2363D01*
X300Y2361D01*
X554Y2361D01*
X554Y3009D01*
X40Y3009D01*
G37*
D02*
G36*
X40Y2705D02*
X40Y2361D01*
X282Y2361D01*
X282Y2363D01*
X266Y2363D01*
X266Y2365D01*
X254Y2365D01*
X254Y2367D01*
X246Y2367D01*
X246Y2369D01*
X238Y2369D01*
X238Y2371D01*
X234Y2371D01*
X234Y2373D01*
X228Y2373D01*
X228Y2375D01*
X222Y2375D01*
X222Y2377D01*
X218Y2377D01*
X218Y2379D01*
X214Y2379D01*
X214Y2381D01*
X210Y2381D01*
X210Y2383D01*
X208Y2383D01*
X208Y2385D01*
X204Y2385D01*
X204Y2387D01*
X200Y2387D01*
X200Y2389D01*
X198Y2389D01*
X198Y2391D01*
X194Y2391D01*
X194Y2393D01*
X192Y2393D01*
X192Y2395D01*
X188Y2395D01*
X188Y2397D01*
X186Y2397D01*
X186Y2399D01*
X184Y2399D01*
X184Y2401D01*
X180Y2401D01*
X180Y2403D01*
X178Y2403D01*
X178Y2405D01*
X176Y2405D01*
X176Y2407D01*
X174Y2407D01*
X174Y2409D01*
X172Y2409D01*
X172Y2411D01*
X170Y2411D01*
X170Y2413D01*
X168Y2413D01*
X168Y2415D01*
X166Y2415D01*
X166Y2417D01*
X164Y2417D01*
X164Y2419D01*
X162Y2419D01*
X162Y2421D01*
X160Y2421D01*
X160Y2425D01*
X158Y2425D01*
X158Y2427D01*
X156Y2427D01*
X156Y2429D01*
X154Y2429D01*
X154Y2433D01*
X152Y2433D01*
X152Y2435D01*
X150Y2435D01*
X150Y2437D01*
X148Y2437D01*
X148Y2441D01*
X146Y2441D01*
X146Y2445D01*
X144Y2445D01*
X144Y2447D01*
X142Y2447D01*
X142Y2451D01*
X140Y2451D01*
X140Y2455D01*
X138Y2455D01*
X138Y2459D01*
X136Y2459D01*
X136Y2463D01*
X134Y2463D01*
X134Y2467D01*
X132Y2467D01*
X132Y2473D01*
X130Y2473D01*
X130Y2479D01*
X128Y2479D01*
X128Y2485D01*
X126Y2485D01*
X126Y2493D01*
X124Y2493D01*
X124Y2501D01*
X122Y2501D01*
X122Y2513D01*
X120Y2513D01*
X120Y2553D01*
X122Y2553D01*
X122Y2565D01*
X124Y2565D01*
X124Y2575D01*
X126Y2575D01*
X126Y2583D01*
X128Y2583D01*
X128Y2589D01*
X130Y2589D01*
X130Y2593D01*
X132Y2593D01*
X132Y2599D01*
X134Y2599D01*
X134Y2603D01*
X136Y2603D01*
X136Y2607D01*
X138Y2607D01*
X138Y2611D01*
X140Y2611D01*
X140Y2615D01*
X142Y2615D01*
X142Y2619D01*
X144Y2619D01*
X144Y2623D01*
X146Y2623D01*
X146Y2625D01*
X148Y2625D01*
X148Y2629D01*
X150Y2629D01*
X150Y2631D01*
X152Y2631D01*
X152Y2635D01*
X154Y2635D01*
X154Y2637D01*
X156Y2637D01*
X156Y2639D01*
X158Y2639D01*
X158Y2643D01*
X160Y2643D01*
X160Y2645D01*
X162Y2645D01*
X162Y2647D01*
X164Y2647D01*
X164Y2649D01*
X166Y2649D01*
X166Y2651D01*
X168Y2651D01*
X168Y2653D01*
X170Y2653D01*
X170Y2655D01*
X172Y2655D01*
X172Y2657D01*
X174Y2657D01*
X174Y2659D01*
X176Y2659D01*
X176Y2661D01*
X178Y2661D01*
X178Y2663D01*
X180Y2663D01*
X180Y2665D01*
X182Y2665D01*
X182Y2667D01*
X186Y2667D01*
X186Y2669D01*
X188Y2669D01*
X188Y2671D01*
X192Y2671D01*
X192Y2673D01*
X194Y2673D01*
X194Y2675D01*
X196Y2675D01*
X196Y2677D01*
X200Y2677D01*
X200Y2679D01*
X204Y2679D01*
X204Y2681D01*
X206Y2681D01*
X206Y2683D01*
X210Y2683D01*
X210Y2685D01*
X214Y2685D01*
X214Y2687D01*
X218Y2687D01*
X218Y2689D01*
X222Y2689D01*
X222Y2691D01*
X226Y2691D01*
X226Y2693D01*
X232Y2693D01*
X232Y2695D01*
X238Y2695D01*
X238Y2697D01*
X244Y2697D01*
X244Y2699D01*
X252Y2699D01*
X252Y2701D01*
X264Y2701D01*
X264Y2703D01*
X278Y2703D01*
X278Y2705D01*
X40Y2705D01*
G37*
D02*
G36*
X40Y2361D02*
X40Y2359D01*
X554Y2359D01*
X554Y2361D01*
X40Y2361D01*
G37*
D02*
G36*
X40Y2361D02*
X40Y2359D01*
X554Y2359D01*
X554Y2361D01*
X40Y2361D01*
G37*
D02*
G36*
X40Y2359D02*
X40Y2067D01*
X306Y2067D01*
X306Y2065D01*
X320Y2065D01*
X320Y2063D01*
X328Y2063D01*
X328Y2061D01*
X336Y2061D01*
X336Y2059D01*
X342Y2059D01*
X342Y2057D01*
X348Y2057D01*
X348Y2055D01*
X352Y2055D01*
X352Y2053D01*
X356Y2053D01*
X356Y2051D01*
X360Y2051D01*
X360Y2049D01*
X364Y2049D01*
X364Y2047D01*
X368Y2047D01*
X368Y2045D01*
X370Y2045D01*
X370Y2043D01*
X374Y2043D01*
X374Y2041D01*
X378Y2041D01*
X378Y2039D01*
X380Y2039D01*
X380Y2037D01*
X382Y2037D01*
X382Y2035D01*
X386Y2035D01*
X386Y2033D01*
X388Y2033D01*
X388Y2031D01*
X390Y2031D01*
X390Y2029D01*
X392Y2029D01*
X392Y2027D01*
X394Y2027D01*
X394Y2025D01*
X396Y2025D01*
X396Y2023D01*
X398Y2023D01*
X398Y2021D01*
X400Y2021D01*
X400Y2019D01*
X402Y2019D01*
X402Y2017D01*
X404Y2017D01*
X404Y2015D01*
X406Y2015D01*
X406Y2013D01*
X408Y2013D01*
X408Y2011D01*
X410Y2011D01*
X410Y2007D01*
X412Y2007D01*
X412Y2005D01*
X414Y2005D01*
X414Y2003D01*
X416Y2003D01*
X416Y1999D01*
X418Y1999D01*
X418Y1997D01*
X420Y1997D01*
X420Y1993D01*
X422Y1993D01*
X422Y1989D01*
X424Y1989D01*
X424Y1987D01*
X426Y1987D01*
X426Y1983D01*
X428Y1983D01*
X428Y1979D01*
X430Y1979D01*
X430Y1973D01*
X432Y1973D01*
X432Y1969D01*
X434Y1969D01*
X434Y1963D01*
X436Y1963D01*
X436Y1957D01*
X438Y1957D01*
X438Y1949D01*
X440Y1949D01*
X440Y1937D01*
X442Y1937D01*
X442Y1893D01*
X440Y1893D01*
X440Y1881D01*
X438Y1881D01*
X438Y1873D01*
X436Y1873D01*
X436Y1867D01*
X434Y1867D01*
X434Y1861D01*
X432Y1861D01*
X432Y1857D01*
X430Y1857D01*
X430Y1853D01*
X428Y1853D01*
X428Y1847D01*
X426Y1847D01*
X426Y1843D01*
X424Y1843D01*
X424Y1841D01*
X422Y1841D01*
X422Y1837D01*
X420Y1837D01*
X420Y1833D01*
X418Y1833D01*
X418Y1831D01*
X416Y1831D01*
X416Y1827D01*
X414Y1827D01*
X414Y1825D01*
X412Y1825D01*
X412Y1823D01*
X410Y1823D01*
X410Y1819D01*
X408Y1819D01*
X408Y1817D01*
X406Y1817D01*
X406Y1815D01*
X404Y1815D01*
X404Y1813D01*
X402Y1813D01*
X402Y1811D01*
X400Y1811D01*
X400Y1809D01*
X398Y1809D01*
X398Y1807D01*
X396Y1807D01*
X396Y1805D01*
X394Y1805D01*
X394Y1803D01*
X392Y1803D01*
X392Y1801D01*
X390Y1801D01*
X390Y1799D01*
X388Y1799D01*
X388Y1797D01*
X384Y1797D01*
X384Y1795D01*
X382Y1795D01*
X382Y1793D01*
X380Y1793D01*
X380Y1791D01*
X376Y1791D01*
X376Y1789D01*
X374Y1789D01*
X374Y1787D01*
X370Y1787D01*
X370Y1785D01*
X368Y1785D01*
X368Y1783D01*
X364Y1783D01*
X364Y1781D01*
X360Y1781D01*
X360Y1779D01*
X356Y1779D01*
X356Y1777D01*
X352Y1777D01*
X352Y1775D01*
X346Y1775D01*
X346Y1773D01*
X342Y1773D01*
X342Y1771D01*
X336Y1771D01*
X336Y1769D01*
X328Y1769D01*
X328Y1767D01*
X318Y1767D01*
X318Y1765D01*
X304Y1765D01*
X304Y1763D01*
X554Y1763D01*
X554Y2359D01*
X40Y2359D01*
G37*
D02*
G36*
X40Y2067D02*
X40Y1763D01*
X278Y1763D01*
X278Y1765D01*
X264Y1765D01*
X264Y1767D01*
X254Y1767D01*
X254Y1769D01*
X246Y1769D01*
X246Y1771D01*
X242Y1771D01*
X242Y1773D01*
X236Y1773D01*
X236Y1775D01*
X230Y1775D01*
X230Y1777D01*
X226Y1777D01*
X226Y1779D01*
X222Y1779D01*
X222Y1781D01*
X218Y1781D01*
X218Y1783D01*
X216Y1783D01*
X216Y1785D01*
X212Y1785D01*
X212Y1787D01*
X208Y1787D01*
X208Y1789D01*
X206Y1789D01*
X206Y1791D01*
X202Y1791D01*
X202Y1793D01*
X200Y1793D01*
X200Y1795D01*
X198Y1795D01*
X198Y1797D01*
X194Y1797D01*
X194Y1799D01*
X192Y1799D01*
X192Y1801D01*
X190Y1801D01*
X190Y1803D01*
X188Y1803D01*
X188Y1805D01*
X186Y1805D01*
X186Y1807D01*
X184Y1807D01*
X184Y1809D01*
X182Y1809D01*
X182Y1811D01*
X180Y1811D01*
X180Y1813D01*
X178Y1813D01*
X178Y1815D01*
X176Y1815D01*
X176Y1817D01*
X174Y1817D01*
X174Y1821D01*
X172Y1821D01*
X172Y1823D01*
X170Y1823D01*
X170Y1825D01*
X168Y1825D01*
X168Y1829D01*
X166Y1829D01*
X166Y1831D01*
X164Y1831D01*
X164Y1835D01*
X162Y1835D01*
X162Y1837D01*
X160Y1837D01*
X160Y1841D01*
X158Y1841D01*
X158Y1845D01*
X156Y1845D01*
X156Y1849D01*
X154Y1849D01*
X154Y1853D01*
X152Y1853D01*
X152Y1857D01*
X150Y1857D01*
X150Y1863D01*
X148Y1863D01*
X148Y1867D01*
X146Y1867D01*
X146Y1875D01*
X144Y1875D01*
X144Y1883D01*
X142Y1883D01*
X142Y1895D01*
X140Y1895D01*
X140Y1935D01*
X142Y1935D01*
X142Y1947D01*
X144Y1947D01*
X144Y1955D01*
X146Y1955D01*
X146Y1963D01*
X148Y1963D01*
X148Y1967D01*
X150Y1967D01*
X150Y1973D01*
X152Y1973D01*
X152Y1977D01*
X154Y1977D01*
X154Y1981D01*
X156Y1981D01*
X156Y1985D01*
X158Y1985D01*
X158Y1989D01*
X160Y1989D01*
X160Y1993D01*
X162Y1993D01*
X162Y1995D01*
X164Y1995D01*
X164Y1999D01*
X166Y1999D01*
X166Y2003D01*
X168Y2003D01*
X168Y2005D01*
X170Y2005D01*
X170Y2007D01*
X172Y2007D01*
X172Y2011D01*
X174Y2011D01*
X174Y2013D01*
X176Y2013D01*
X176Y2015D01*
X178Y2015D01*
X178Y2017D01*
X180Y2017D01*
X180Y2019D01*
X182Y2019D01*
X182Y2021D01*
X184Y2021D01*
X184Y2023D01*
X186Y2023D01*
X186Y2025D01*
X188Y2025D01*
X188Y2027D01*
X190Y2027D01*
X190Y2029D01*
X192Y2029D01*
X192Y2031D01*
X194Y2031D01*
X194Y2033D01*
X198Y2033D01*
X198Y2035D01*
X200Y2035D01*
X200Y2037D01*
X202Y2037D01*
X202Y2039D01*
X206Y2039D01*
X206Y2041D01*
X208Y2041D01*
X208Y2043D01*
X212Y2043D01*
X212Y2045D01*
X214Y2045D01*
X214Y2047D01*
X218Y2047D01*
X218Y2049D01*
X222Y2049D01*
X222Y2051D01*
X226Y2051D01*
X226Y2053D01*
X230Y2053D01*
X230Y2055D01*
X236Y2055D01*
X236Y2057D01*
X240Y2057D01*
X240Y2059D01*
X246Y2059D01*
X246Y2061D01*
X254Y2061D01*
X254Y2063D01*
X262Y2063D01*
X262Y2065D01*
X276Y2065D01*
X276Y2067D01*
X40Y2067D01*
G37*
D02*
G36*
X40Y1763D02*
X40Y1761D01*
X554Y1761D01*
X554Y1763D01*
X40Y1763D01*
G37*
D02*
G36*
X40Y1763D02*
X40Y1761D01*
X554Y1761D01*
X554Y1763D01*
X40Y1763D01*
G37*
D02*
G36*
X40Y1761D02*
X40Y1741D01*
X292Y1741D01*
X292Y1739D01*
X320Y1739D01*
X320Y1737D01*
X334Y1737D01*
X334Y1735D01*
X342Y1735D01*
X342Y1733D01*
X350Y1733D01*
X350Y1731D01*
X358Y1731D01*
X358Y1729D01*
X364Y1729D01*
X364Y1727D01*
X368Y1727D01*
X368Y1725D01*
X374Y1725D01*
X374Y1723D01*
X378Y1723D01*
X378Y1721D01*
X384Y1721D01*
X384Y1719D01*
X388Y1719D01*
X388Y1717D01*
X392Y1717D01*
X392Y1715D01*
X396Y1715D01*
X396Y1713D01*
X400Y1713D01*
X400Y1711D01*
X402Y1711D01*
X402Y1709D01*
X406Y1709D01*
X406Y1707D01*
X408Y1707D01*
X408Y1705D01*
X412Y1705D01*
X412Y1703D01*
X416Y1703D01*
X416Y1701D01*
X418Y1701D01*
X418Y1699D01*
X420Y1699D01*
X420Y1697D01*
X424Y1697D01*
X424Y1695D01*
X426Y1695D01*
X426Y1693D01*
X428Y1693D01*
X428Y1691D01*
X432Y1691D01*
X432Y1689D01*
X434Y1689D01*
X434Y1687D01*
X436Y1687D01*
X436Y1685D01*
X438Y1685D01*
X438Y1683D01*
X440Y1683D01*
X440Y1681D01*
X442Y1681D01*
X442Y1679D01*
X446Y1679D01*
X446Y1677D01*
X448Y1677D01*
X448Y1675D01*
X450Y1675D01*
X450Y1673D01*
X452Y1673D01*
X452Y1669D01*
X454Y1669D01*
X454Y1667D01*
X456Y1667D01*
X456Y1665D01*
X458Y1665D01*
X458Y1663D01*
X460Y1663D01*
X460Y1661D01*
X462Y1661D01*
X462Y1659D01*
X464Y1659D01*
X464Y1657D01*
X466Y1657D01*
X466Y1653D01*
X468Y1653D01*
X468Y1651D01*
X470Y1651D01*
X470Y1649D01*
X472Y1649D01*
X472Y1645D01*
X474Y1645D01*
X474Y1643D01*
X476Y1643D01*
X476Y1639D01*
X478Y1639D01*
X478Y1637D01*
X480Y1637D01*
X480Y1633D01*
X482Y1633D01*
X482Y1629D01*
X484Y1629D01*
X484Y1627D01*
X486Y1627D01*
X486Y1623D01*
X488Y1623D01*
X488Y1619D01*
X490Y1619D01*
X490Y1615D01*
X492Y1615D01*
X492Y1611D01*
X494Y1611D01*
X494Y1607D01*
X496Y1607D01*
X496Y1603D01*
X498Y1603D01*
X498Y1597D01*
X500Y1597D01*
X500Y1591D01*
X502Y1591D01*
X502Y1585D01*
X504Y1585D01*
X504Y1579D01*
X506Y1579D01*
X506Y1571D01*
X508Y1571D01*
X508Y1563D01*
X510Y1563D01*
X510Y1553D01*
X512Y1553D01*
X512Y1535D01*
X514Y1535D01*
X514Y1501D01*
X512Y1501D01*
X512Y1483D01*
X510Y1483D01*
X510Y1471D01*
X508Y1471D01*
X508Y1463D01*
X506Y1463D01*
X506Y1455D01*
X504Y1455D01*
X504Y1449D01*
X502Y1449D01*
X502Y1443D01*
X500Y1443D01*
X500Y1437D01*
X498Y1437D01*
X498Y1433D01*
X496Y1433D01*
X496Y1429D01*
X494Y1429D01*
X494Y1423D01*
X492Y1423D01*
X492Y1419D01*
X490Y1419D01*
X490Y1415D01*
X488Y1415D01*
X488Y1411D01*
X486Y1411D01*
X486Y1409D01*
X484Y1409D01*
X484Y1405D01*
X482Y1405D01*
X482Y1401D01*
X480Y1401D01*
X480Y1399D01*
X478Y1399D01*
X478Y1395D01*
X476Y1395D01*
X476Y1393D01*
X474Y1393D01*
X474Y1389D01*
X472Y1389D01*
X472Y1387D01*
X470Y1387D01*
X470Y1385D01*
X468Y1385D01*
X468Y1381D01*
X466Y1381D01*
X466Y1379D01*
X464Y1379D01*
X464Y1377D01*
X462Y1377D01*
X462Y1373D01*
X460Y1373D01*
X460Y1371D01*
X458Y1371D01*
X458Y1369D01*
X456Y1369D01*
X456Y1367D01*
X454Y1367D01*
X454Y1365D01*
X452Y1365D01*
X452Y1363D01*
X450Y1363D01*
X450Y1361D01*
X448Y1361D01*
X448Y1359D01*
X446Y1359D01*
X446Y1357D01*
X444Y1357D01*
X444Y1355D01*
X442Y1355D01*
X442Y1353D01*
X440Y1353D01*
X440Y1351D01*
X438Y1351D01*
X438Y1349D01*
X436Y1349D01*
X436Y1347D01*
X434Y1347D01*
X434Y1345D01*
X430Y1345D01*
X430Y1343D01*
X428Y1343D01*
X428Y1341D01*
X426Y1341D01*
X426Y1339D01*
X422Y1339D01*
X422Y1337D01*
X420Y1337D01*
X420Y1335D01*
X418Y1335D01*
X418Y1333D01*
X414Y1333D01*
X414Y1331D01*
X410Y1331D01*
X410Y1329D01*
X408Y1329D01*
X408Y1327D01*
X404Y1327D01*
X404Y1325D01*
X400Y1325D01*
X400Y1323D01*
X398Y1323D01*
X398Y1321D01*
X394Y1321D01*
X394Y1319D01*
X390Y1319D01*
X390Y1317D01*
X386Y1317D01*
X386Y1315D01*
X382Y1315D01*
X382Y1313D01*
X376Y1313D01*
X376Y1311D01*
X372Y1311D01*
X372Y1309D01*
X366Y1309D01*
X366Y1307D01*
X360Y1307D01*
X360Y1305D01*
X354Y1305D01*
X354Y1303D01*
X348Y1303D01*
X348Y1301D01*
X338Y1301D01*
X338Y1299D01*
X328Y1299D01*
X328Y1297D01*
X314Y1297D01*
X314Y1295D01*
X554Y1295D01*
X554Y1761D01*
X40Y1761D01*
G37*
D02*
G36*
X40Y1741D02*
X40Y1295D01*
X270Y1295D01*
X270Y1297D01*
X254Y1297D01*
X254Y1299D01*
X244Y1299D01*
X244Y1301D01*
X236Y1301D01*
X236Y1303D01*
X228Y1303D01*
X228Y1305D01*
X222Y1305D01*
X222Y1307D01*
X216Y1307D01*
X216Y1309D01*
X210Y1309D01*
X210Y1311D01*
X206Y1311D01*
X206Y1313D01*
X200Y1313D01*
X200Y1315D01*
X196Y1315D01*
X196Y1317D01*
X192Y1317D01*
X192Y1319D01*
X188Y1319D01*
X188Y1321D01*
X184Y1321D01*
X184Y1323D01*
X182Y1323D01*
X182Y1325D01*
X178Y1325D01*
X178Y1327D01*
X174Y1327D01*
X174Y1329D01*
X172Y1329D01*
X172Y1331D01*
X168Y1331D01*
X168Y1333D01*
X166Y1333D01*
X166Y1335D01*
X162Y1335D01*
X162Y1337D01*
X160Y1337D01*
X160Y1339D01*
X158Y1339D01*
X158Y1341D01*
X154Y1341D01*
X154Y1343D01*
X152Y1343D01*
X152Y1345D01*
X150Y1345D01*
X150Y1347D01*
X148Y1347D01*
X148Y1349D01*
X144Y1349D01*
X144Y1351D01*
X142Y1351D01*
X142Y1353D01*
X140Y1353D01*
X140Y1355D01*
X138Y1355D01*
X138Y1357D01*
X136Y1357D01*
X136Y1359D01*
X134Y1359D01*
X134Y1361D01*
X132Y1361D01*
X132Y1363D01*
X130Y1363D01*
X130Y1365D01*
X128Y1365D01*
X128Y1367D01*
X126Y1367D01*
X126Y1369D01*
X124Y1369D01*
X124Y1371D01*
X122Y1371D01*
X122Y1375D01*
X120Y1375D01*
X120Y1377D01*
X118Y1377D01*
X118Y1379D01*
X116Y1379D01*
X116Y1381D01*
X114Y1381D01*
X114Y1385D01*
X112Y1385D01*
X112Y1387D01*
X110Y1387D01*
X110Y1389D01*
X108Y1389D01*
X108Y1393D01*
X106Y1393D01*
X106Y1395D01*
X104Y1395D01*
X104Y1399D01*
X102Y1399D01*
X102Y1403D01*
X100Y1403D01*
X100Y1405D01*
X98Y1405D01*
X98Y1409D01*
X96Y1409D01*
X96Y1413D01*
X94Y1413D01*
X94Y1417D01*
X92Y1417D01*
X92Y1421D01*
X90Y1421D01*
X90Y1425D01*
X88Y1425D01*
X88Y1429D01*
X86Y1429D01*
X86Y1433D01*
X84Y1433D01*
X84Y1439D01*
X82Y1439D01*
X82Y1445D01*
X80Y1445D01*
X80Y1451D01*
X78Y1451D01*
X78Y1457D01*
X76Y1457D01*
X76Y1465D01*
X74Y1465D01*
X74Y1473D01*
X72Y1473D01*
X72Y1485D01*
X70Y1485D01*
X70Y1505D01*
X68Y1505D01*
X68Y1531D01*
X70Y1531D01*
X70Y1551D01*
X72Y1551D01*
X72Y1561D01*
X74Y1561D01*
X74Y1571D01*
X76Y1571D01*
X76Y1577D01*
X78Y1577D01*
X78Y1585D01*
X80Y1585D01*
X80Y1591D01*
X82Y1591D01*
X82Y1597D01*
X84Y1597D01*
X84Y1601D01*
X86Y1601D01*
X86Y1607D01*
X88Y1607D01*
X88Y1611D01*
X90Y1611D01*
X90Y1615D01*
X92Y1615D01*
X92Y1619D01*
X94Y1619D01*
X94Y1623D01*
X96Y1623D01*
X96Y1627D01*
X98Y1627D01*
X98Y1629D01*
X100Y1629D01*
X100Y1633D01*
X102Y1633D01*
X102Y1635D01*
X104Y1635D01*
X104Y1639D01*
X106Y1639D01*
X106Y1643D01*
X108Y1643D01*
X108Y1645D01*
X110Y1645D01*
X110Y1647D01*
X112Y1647D01*
X112Y1651D01*
X114Y1651D01*
X114Y1653D01*
X116Y1653D01*
X116Y1655D01*
X118Y1655D01*
X118Y1659D01*
X120Y1659D01*
X120Y1661D01*
X122Y1661D01*
X122Y1663D01*
X124Y1663D01*
X124Y1665D01*
X126Y1665D01*
X126Y1667D01*
X128Y1667D01*
X128Y1669D01*
X130Y1669D01*
X130Y1671D01*
X132Y1671D01*
X132Y1675D01*
X136Y1675D01*
X136Y1677D01*
X138Y1677D01*
X138Y1679D01*
X140Y1679D01*
X140Y1681D01*
X142Y1681D01*
X142Y1683D01*
X144Y1683D01*
X144Y1685D01*
X146Y1685D01*
X146Y1687D01*
X148Y1687D01*
X148Y1689D01*
X150Y1689D01*
X150Y1691D01*
X154Y1691D01*
X154Y1693D01*
X156Y1693D01*
X156Y1695D01*
X158Y1695D01*
X158Y1697D01*
X162Y1697D01*
X162Y1699D01*
X164Y1699D01*
X164Y1701D01*
X166Y1701D01*
X166Y1703D01*
X170Y1703D01*
X170Y1705D01*
X174Y1705D01*
X174Y1707D01*
X176Y1707D01*
X176Y1709D01*
X180Y1709D01*
X180Y1711D01*
X184Y1711D01*
X184Y1713D01*
X186Y1713D01*
X186Y1715D01*
X190Y1715D01*
X190Y1717D01*
X194Y1717D01*
X194Y1719D01*
X198Y1719D01*
X198Y1721D01*
X204Y1721D01*
X204Y1723D01*
X208Y1723D01*
X208Y1725D01*
X214Y1725D01*
X214Y1727D01*
X220Y1727D01*
X220Y1729D01*
X226Y1729D01*
X226Y1731D01*
X232Y1731D01*
X232Y1733D01*
X240Y1733D01*
X240Y1735D01*
X250Y1735D01*
X250Y1737D01*
X262Y1737D01*
X262Y1739D01*
X290Y1739D01*
X290Y1741D01*
X40Y1741D01*
G37*
D02*
G36*
X40Y1295D02*
X40Y1293D01*
X554Y1293D01*
X554Y1295D01*
X40Y1295D01*
G37*
D02*
G36*
X40Y1295D02*
X40Y1293D01*
X554Y1293D01*
X554Y1295D01*
X40Y1295D01*
G37*
D02*
G36*
X40Y1293D02*
X40Y1263D01*
X312Y1263D01*
X312Y1261D01*
X324Y1261D01*
X324Y1259D01*
X332Y1259D01*
X332Y1257D01*
X338Y1257D01*
X338Y1255D01*
X344Y1255D01*
X344Y1253D01*
X350Y1253D01*
X350Y1251D01*
X354Y1251D01*
X354Y1249D01*
X358Y1249D01*
X358Y1247D01*
X362Y1247D01*
X362Y1245D01*
X366Y1245D01*
X366Y1243D01*
X368Y1243D01*
X368Y1241D01*
X372Y1241D01*
X372Y1239D01*
X376Y1239D01*
X376Y1237D01*
X378Y1237D01*
X378Y1235D01*
X380Y1235D01*
X380Y1233D01*
X384Y1233D01*
X384Y1231D01*
X386Y1231D01*
X386Y1229D01*
X388Y1229D01*
X388Y1227D01*
X390Y1227D01*
X390Y1225D01*
X394Y1225D01*
X394Y1223D01*
X396Y1223D01*
X396Y1221D01*
X398Y1221D01*
X398Y1219D01*
X400Y1219D01*
X400Y1217D01*
X402Y1217D01*
X402Y1215D01*
X404Y1215D01*
X404Y1211D01*
X406Y1211D01*
X406Y1209D01*
X408Y1209D01*
X408Y1207D01*
X410Y1207D01*
X410Y1205D01*
X412Y1205D01*
X412Y1201D01*
X414Y1201D01*
X414Y1199D01*
X416Y1199D01*
X416Y1197D01*
X418Y1197D01*
X418Y1193D01*
X420Y1193D01*
X420Y1189D01*
X422Y1189D01*
X422Y1187D01*
X424Y1187D01*
X424Y1183D01*
X426Y1183D01*
X426Y1179D01*
X428Y1179D01*
X428Y1175D01*
X430Y1175D01*
X430Y1171D01*
X432Y1171D01*
X432Y1165D01*
X434Y1165D01*
X434Y1159D01*
X436Y1159D01*
X436Y1153D01*
X438Y1153D01*
X438Y1145D01*
X440Y1145D01*
X440Y1135D01*
X442Y1135D01*
X442Y1089D01*
X440Y1089D01*
X440Y1079D01*
X438Y1079D01*
X438Y1071D01*
X436Y1071D01*
X436Y1065D01*
X434Y1065D01*
X434Y1059D01*
X432Y1059D01*
X432Y1053D01*
X430Y1053D01*
X430Y1049D01*
X428Y1049D01*
X428Y1045D01*
X426Y1045D01*
X426Y1041D01*
X424Y1041D01*
X424Y1037D01*
X422Y1037D01*
X422Y1033D01*
X420Y1033D01*
X420Y1031D01*
X418Y1031D01*
X418Y1027D01*
X416Y1027D01*
X416Y1025D01*
X414Y1025D01*
X414Y1021D01*
X412Y1021D01*
X412Y1019D01*
X410Y1019D01*
X410Y1017D01*
X408Y1017D01*
X408Y1015D01*
X406Y1015D01*
X406Y1011D01*
X404Y1011D01*
X404Y1009D01*
X402Y1009D01*
X402Y1007D01*
X400Y1007D01*
X400Y1005D01*
X398Y1005D01*
X398Y1003D01*
X396Y1003D01*
X396Y1001D01*
X394Y1001D01*
X394Y999D01*
X392Y999D01*
X392Y997D01*
X388Y997D01*
X388Y995D01*
X386Y995D01*
X386Y993D01*
X384Y993D01*
X384Y991D01*
X382Y991D01*
X382Y989D01*
X378Y989D01*
X378Y987D01*
X376Y987D01*
X376Y985D01*
X372Y985D01*
X372Y983D01*
X370Y983D01*
X370Y981D01*
X366Y981D01*
X366Y979D01*
X362Y979D01*
X362Y977D01*
X358Y977D01*
X358Y975D01*
X354Y975D01*
X354Y973D01*
X350Y973D01*
X350Y971D01*
X344Y971D01*
X344Y969D01*
X338Y969D01*
X338Y967D01*
X332Y967D01*
X332Y965D01*
X324Y965D01*
X324Y963D01*
X312Y963D01*
X312Y961D01*
X554Y961D01*
X554Y1293D01*
X40Y1293D01*
G37*
D02*
G36*
X40Y1263D02*
X40Y961D01*
X270Y961D01*
X270Y963D01*
X258Y963D01*
X258Y965D01*
X250Y965D01*
X250Y967D01*
X244Y967D01*
X244Y969D01*
X238Y969D01*
X238Y971D01*
X232Y971D01*
X232Y973D01*
X228Y973D01*
X228Y975D01*
X224Y975D01*
X224Y977D01*
X220Y977D01*
X220Y979D01*
X216Y979D01*
X216Y981D01*
X214Y981D01*
X214Y983D01*
X210Y983D01*
X210Y985D01*
X206Y985D01*
X206Y987D01*
X204Y987D01*
X204Y989D01*
X202Y989D01*
X202Y991D01*
X198Y991D01*
X198Y993D01*
X196Y993D01*
X196Y995D01*
X194Y995D01*
X194Y997D01*
X192Y997D01*
X192Y999D01*
X188Y999D01*
X188Y1001D01*
X186Y1001D01*
X186Y1003D01*
X184Y1003D01*
X184Y1005D01*
X182Y1005D01*
X182Y1007D01*
X180Y1007D01*
X180Y1009D01*
X178Y1009D01*
X178Y1013D01*
X176Y1013D01*
X176Y1015D01*
X174Y1015D01*
X174Y1017D01*
X172Y1017D01*
X172Y1019D01*
X170Y1019D01*
X170Y1023D01*
X168Y1023D01*
X168Y1025D01*
X166Y1025D01*
X166Y1027D01*
X164Y1027D01*
X164Y1031D01*
X162Y1031D01*
X162Y1035D01*
X160Y1035D01*
X160Y1037D01*
X158Y1037D01*
X158Y1041D01*
X156Y1041D01*
X156Y1045D01*
X154Y1045D01*
X154Y1049D01*
X152Y1049D01*
X152Y1053D01*
X150Y1053D01*
X150Y1059D01*
X148Y1059D01*
X148Y1065D01*
X146Y1065D01*
X146Y1071D01*
X144Y1071D01*
X144Y1079D01*
X142Y1079D01*
X142Y1091D01*
X140Y1091D01*
X140Y1133D01*
X142Y1133D01*
X142Y1145D01*
X144Y1145D01*
X144Y1151D01*
X146Y1151D01*
X146Y1159D01*
X148Y1159D01*
X148Y1165D01*
X150Y1165D01*
X150Y1171D01*
X152Y1171D01*
X152Y1175D01*
X154Y1175D01*
X154Y1179D01*
X156Y1179D01*
X156Y1183D01*
X158Y1183D01*
X158Y1187D01*
X160Y1187D01*
X160Y1189D01*
X162Y1189D01*
X162Y1193D01*
X164Y1193D01*
X164Y1197D01*
X166Y1197D01*
X166Y1199D01*
X168Y1199D01*
X168Y1201D01*
X170Y1201D01*
X170Y1205D01*
X172Y1205D01*
X172Y1207D01*
X174Y1207D01*
X174Y1209D01*
X176Y1209D01*
X176Y1211D01*
X178Y1211D01*
X178Y1213D01*
X180Y1213D01*
X180Y1217D01*
X182Y1217D01*
X182Y1219D01*
X184Y1219D01*
X184Y1221D01*
X186Y1221D01*
X186Y1223D01*
X190Y1223D01*
X190Y1225D01*
X192Y1225D01*
X192Y1227D01*
X194Y1227D01*
X194Y1229D01*
X196Y1229D01*
X196Y1231D01*
X198Y1231D01*
X198Y1233D01*
X202Y1233D01*
X202Y1235D01*
X204Y1235D01*
X204Y1237D01*
X206Y1237D01*
X206Y1239D01*
X210Y1239D01*
X210Y1241D01*
X214Y1241D01*
X214Y1243D01*
X216Y1243D01*
X216Y1245D01*
X220Y1245D01*
X220Y1247D01*
X224Y1247D01*
X224Y1249D01*
X228Y1249D01*
X228Y1251D01*
X232Y1251D01*
X232Y1253D01*
X238Y1253D01*
X238Y1255D01*
X244Y1255D01*
X244Y1257D01*
X250Y1257D01*
X250Y1259D01*
X258Y1259D01*
X258Y1261D01*
X270Y1261D01*
X270Y1263D01*
X40Y1263D01*
G37*
D02*
G36*
X40Y961D02*
X40Y959D01*
X554Y959D01*
X554Y961D01*
X40Y961D01*
G37*
D02*
G36*
X40Y961D02*
X40Y959D01*
X554Y959D01*
X554Y961D01*
X40Y961D01*
G37*
D02*
G36*
X40Y959D02*
X40Y937D01*
X310Y937D01*
X310Y935D01*
X326Y935D01*
X326Y933D01*
X338Y933D01*
X338Y931D01*
X346Y931D01*
X346Y929D01*
X354Y929D01*
X354Y927D01*
X360Y927D01*
X360Y925D01*
X366Y925D01*
X366Y923D01*
X372Y923D01*
X372Y921D01*
X376Y921D01*
X376Y919D01*
X380Y919D01*
X380Y917D01*
X386Y917D01*
X386Y915D01*
X390Y915D01*
X390Y913D01*
X394Y913D01*
X394Y911D01*
X398Y911D01*
X398Y909D01*
X400Y909D01*
X400Y907D01*
X404Y907D01*
X404Y905D01*
X408Y905D01*
X408Y903D01*
X410Y903D01*
X410Y901D01*
X414Y901D01*
X414Y899D01*
X416Y899D01*
X416Y897D01*
X420Y897D01*
X420Y895D01*
X422Y895D01*
X422Y893D01*
X424Y893D01*
X424Y891D01*
X428Y891D01*
X428Y889D01*
X430Y889D01*
X430Y887D01*
X432Y887D01*
X432Y885D01*
X434Y885D01*
X434Y883D01*
X438Y883D01*
X438Y881D01*
X440Y881D01*
X440Y879D01*
X442Y879D01*
X442Y877D01*
X444Y877D01*
X444Y875D01*
X446Y875D01*
X446Y873D01*
X448Y873D01*
X448Y871D01*
X450Y871D01*
X450Y869D01*
X452Y869D01*
X452Y867D01*
X454Y867D01*
X454Y865D01*
X456Y865D01*
X456Y863D01*
X458Y863D01*
X458Y861D01*
X460Y861D01*
X460Y857D01*
X462Y857D01*
X462Y855D01*
X464Y855D01*
X464Y853D01*
X466Y853D01*
X466Y851D01*
X468Y851D01*
X468Y847D01*
X470Y847D01*
X470Y845D01*
X472Y845D01*
X472Y843D01*
X474Y843D01*
X474Y839D01*
X476Y839D01*
X476Y837D01*
X478Y837D01*
X478Y833D01*
X480Y833D01*
X480Y829D01*
X482Y829D01*
X482Y827D01*
X484Y827D01*
X484Y823D01*
X486Y823D01*
X486Y819D01*
X488Y819D01*
X488Y817D01*
X490Y817D01*
X490Y813D01*
X492Y813D01*
X492Y809D01*
X494Y809D01*
X494Y803D01*
X496Y803D01*
X496Y799D01*
X498Y799D01*
X498Y793D01*
X500Y793D01*
X500Y789D01*
X502Y789D01*
X502Y783D01*
X504Y783D01*
X504Y775D01*
X506Y775D01*
X506Y769D01*
X508Y769D01*
X508Y761D01*
X510Y761D01*
X510Y749D01*
X512Y749D01*
X512Y731D01*
X514Y731D01*
X514Y697D01*
X512Y697D01*
X512Y679D01*
X510Y679D01*
X510Y669D01*
X508Y669D01*
X508Y661D01*
X506Y661D01*
X506Y653D01*
X504Y653D01*
X504Y647D01*
X502Y647D01*
X502Y641D01*
X500Y641D01*
X500Y635D01*
X498Y635D01*
X498Y629D01*
X496Y629D01*
X496Y625D01*
X494Y625D01*
X494Y621D01*
X492Y621D01*
X492Y617D01*
X490Y617D01*
X490Y613D01*
X488Y613D01*
X488Y609D01*
X486Y609D01*
X486Y605D01*
X484Y605D01*
X484Y601D01*
X482Y601D01*
X482Y599D01*
X480Y599D01*
X480Y595D01*
X478Y595D01*
X478Y591D01*
X476Y591D01*
X476Y589D01*
X474Y589D01*
X474Y587D01*
X472Y587D01*
X472Y583D01*
X470Y583D01*
X470Y581D01*
X468Y581D01*
X468Y579D01*
X466Y579D01*
X466Y575D01*
X464Y575D01*
X464Y573D01*
X462Y573D01*
X462Y571D01*
X460Y571D01*
X460Y569D01*
X458Y569D01*
X458Y567D01*
X456Y567D01*
X456Y565D01*
X454Y565D01*
X454Y561D01*
X452Y561D01*
X452Y559D01*
X450Y559D01*
X450Y557D01*
X448Y557D01*
X448Y555D01*
X446Y555D01*
X446Y553D01*
X444Y553D01*
X444Y551D01*
X440Y551D01*
X440Y549D01*
X438Y549D01*
X438Y547D01*
X436Y547D01*
X436Y545D01*
X434Y545D01*
X434Y543D01*
X432Y543D01*
X432Y541D01*
X430Y541D01*
X430Y539D01*
X426Y539D01*
X426Y537D01*
X424Y537D01*
X424Y535D01*
X422Y535D01*
X422Y533D01*
X418Y533D01*
X418Y531D01*
X416Y531D01*
X416Y529D01*
X412Y529D01*
X412Y527D01*
X410Y527D01*
X410Y525D01*
X406Y525D01*
X406Y523D01*
X402Y523D01*
X402Y521D01*
X400Y521D01*
X400Y519D01*
X396Y519D01*
X396Y517D01*
X392Y517D01*
X392Y515D01*
X388Y515D01*
X388Y513D01*
X384Y513D01*
X384Y511D01*
X380Y511D01*
X380Y509D01*
X374Y509D01*
X374Y507D01*
X370Y507D01*
X370Y505D01*
X364Y505D01*
X364Y503D01*
X358Y503D01*
X358Y501D01*
X352Y501D01*
X352Y499D01*
X344Y499D01*
X344Y497D01*
X334Y497D01*
X334Y495D01*
X322Y495D01*
X322Y493D01*
X302Y493D01*
X302Y491D01*
X554Y491D01*
X554Y959D01*
X40Y959D01*
G37*
D02*
G36*
X40Y937D02*
X40Y491D01*
X280Y491D01*
X280Y493D01*
X260Y493D01*
X260Y495D01*
X248Y495D01*
X248Y497D01*
X238Y497D01*
X238Y499D01*
X232Y499D01*
X232Y501D01*
X224Y501D01*
X224Y503D01*
X218Y503D01*
X218Y505D01*
X212Y505D01*
X212Y507D01*
X208Y507D01*
X208Y509D01*
X202Y509D01*
X202Y511D01*
X198Y511D01*
X198Y513D01*
X194Y513D01*
X194Y515D01*
X190Y515D01*
X190Y517D01*
X186Y517D01*
X186Y519D01*
X182Y519D01*
X182Y521D01*
X180Y521D01*
X180Y523D01*
X176Y523D01*
X176Y525D01*
X172Y525D01*
X172Y527D01*
X170Y527D01*
X170Y529D01*
X166Y529D01*
X166Y531D01*
X164Y531D01*
X164Y533D01*
X160Y533D01*
X160Y535D01*
X158Y535D01*
X158Y537D01*
X156Y537D01*
X156Y539D01*
X154Y539D01*
X154Y541D01*
X150Y541D01*
X150Y543D01*
X148Y543D01*
X148Y545D01*
X146Y545D01*
X146Y547D01*
X144Y547D01*
X144Y549D01*
X142Y549D01*
X142Y551D01*
X140Y551D01*
X140Y553D01*
X136Y553D01*
X136Y555D01*
X134Y555D01*
X134Y557D01*
X132Y557D01*
X132Y559D01*
X130Y559D01*
X130Y563D01*
X128Y563D01*
X128Y565D01*
X126Y565D01*
X126Y567D01*
X124Y567D01*
X124Y569D01*
X122Y569D01*
X122Y571D01*
X120Y571D01*
X120Y573D01*
X118Y573D01*
X118Y575D01*
X116Y575D01*
X116Y579D01*
X114Y579D01*
X114Y581D01*
X112Y581D01*
X112Y583D01*
X110Y583D01*
X110Y587D01*
X108Y587D01*
X108Y589D01*
X106Y589D01*
X106Y593D01*
X104Y593D01*
X104Y595D01*
X102Y595D01*
X102Y599D01*
X100Y599D01*
X100Y603D01*
X98Y603D01*
X98Y605D01*
X96Y605D01*
X96Y609D01*
X94Y609D01*
X94Y613D01*
X92Y613D01*
X92Y617D01*
X90Y617D01*
X90Y621D01*
X88Y621D01*
X88Y625D01*
X86Y625D01*
X86Y631D01*
X84Y631D01*
X84Y635D01*
X82Y635D01*
X82Y641D01*
X80Y641D01*
X80Y647D01*
X78Y647D01*
X78Y653D01*
X76Y653D01*
X76Y661D01*
X74Y661D01*
X74Y669D01*
X72Y669D01*
X72Y681D01*
X70Y681D01*
X70Y701D01*
X68Y701D01*
X68Y727D01*
X70Y727D01*
X70Y747D01*
X72Y747D01*
X72Y759D01*
X74Y759D01*
X74Y767D01*
X76Y767D01*
X76Y775D01*
X78Y775D01*
X78Y781D01*
X80Y781D01*
X80Y787D01*
X82Y787D01*
X82Y793D01*
X84Y793D01*
X84Y799D01*
X86Y799D01*
X86Y803D01*
X88Y803D01*
X88Y807D01*
X90Y807D01*
X90Y811D01*
X92Y811D01*
X92Y815D01*
X94Y815D01*
X94Y819D01*
X96Y819D01*
X96Y823D01*
X98Y823D01*
X98Y827D01*
X100Y827D01*
X100Y829D01*
X102Y829D01*
X102Y833D01*
X104Y833D01*
X104Y837D01*
X106Y837D01*
X106Y839D01*
X108Y839D01*
X108Y841D01*
X110Y841D01*
X110Y845D01*
X112Y845D01*
X112Y847D01*
X114Y847D01*
X114Y849D01*
X116Y849D01*
X116Y853D01*
X118Y853D01*
X118Y855D01*
X120Y855D01*
X120Y857D01*
X122Y857D01*
X122Y859D01*
X124Y859D01*
X124Y863D01*
X126Y863D01*
X126Y865D01*
X128Y865D01*
X128Y867D01*
X130Y867D01*
X130Y869D01*
X132Y869D01*
X132Y871D01*
X134Y871D01*
X134Y873D01*
X136Y873D01*
X136Y875D01*
X138Y875D01*
X138Y877D01*
X140Y877D01*
X140Y879D01*
X142Y879D01*
X142Y881D01*
X146Y881D01*
X146Y883D01*
X148Y883D01*
X148Y885D01*
X150Y885D01*
X150Y887D01*
X152Y887D01*
X152Y889D01*
X154Y889D01*
X154Y891D01*
X158Y891D01*
X158Y893D01*
X160Y893D01*
X160Y895D01*
X162Y895D01*
X162Y897D01*
X166Y897D01*
X166Y899D01*
X168Y899D01*
X168Y901D01*
X172Y901D01*
X172Y903D01*
X176Y903D01*
X176Y905D01*
X178Y905D01*
X178Y907D01*
X182Y907D01*
X182Y909D01*
X186Y909D01*
X186Y911D01*
X190Y911D01*
X190Y913D01*
X192Y913D01*
X192Y915D01*
X198Y915D01*
X198Y917D01*
X202Y917D01*
X202Y919D01*
X206Y919D01*
X206Y921D01*
X212Y921D01*
X212Y923D01*
X216Y923D01*
X216Y925D01*
X222Y925D01*
X222Y927D01*
X230Y927D01*
X230Y929D01*
X236Y929D01*
X236Y931D01*
X244Y931D01*
X244Y933D01*
X256Y933D01*
X256Y935D01*
X272Y935D01*
X272Y937D01*
X40Y937D01*
G37*
D02*
G36*
X40Y491D02*
X40Y489D01*
X554Y489D01*
X554Y491D01*
X40Y491D01*
G37*
D02*
G36*
X40Y491D02*
X40Y489D01*
X554Y489D01*
X554Y491D01*
X40Y491D01*
G37*
D02*
G36*
X40Y489D02*
X40Y213D01*
X318Y213D01*
X318Y211D01*
X330Y211D01*
X330Y209D01*
X336Y209D01*
X336Y207D01*
X342Y207D01*
X342Y205D01*
X346Y205D01*
X346Y203D01*
X350Y203D01*
X350Y201D01*
X354Y201D01*
X354Y199D01*
X356Y199D01*
X356Y197D01*
X360Y197D01*
X360Y195D01*
X362Y195D01*
X362Y193D01*
X366Y193D01*
X366Y191D01*
X368Y191D01*
X368Y189D01*
X370Y189D01*
X370Y187D01*
X372Y187D01*
X372Y185D01*
X374Y185D01*
X374Y183D01*
X376Y183D01*
X376Y181D01*
X378Y181D01*
X378Y177D01*
X380Y177D01*
X380Y175D01*
X382Y175D01*
X382Y173D01*
X384Y173D01*
X384Y169D01*
X386Y169D01*
X386Y167D01*
X388Y167D01*
X388Y163D01*
X390Y163D01*
X390Y159D01*
X392Y159D01*
X392Y153D01*
X394Y153D01*
X394Y147D01*
X396Y147D01*
X396Y139D01*
X398Y139D01*
X398Y125D01*
X400Y125D01*
X400Y115D01*
X398Y115D01*
X398Y101D01*
X396Y101D01*
X396Y93D01*
X394Y93D01*
X394Y87D01*
X392Y87D01*
X392Y83D01*
X390Y83D01*
X390Y79D01*
X388Y79D01*
X388Y75D01*
X386Y75D01*
X386Y71D01*
X384Y71D01*
X384Y69D01*
X382Y69D01*
X382Y65D01*
X380Y65D01*
X380Y63D01*
X378Y63D01*
X378Y61D01*
X376Y61D01*
X376Y41D01*
X554Y41D01*
X554Y489D01*
X40Y489D01*
G37*
D02*
G36*
X40Y213D02*
X40Y41D01*
X236Y41D01*
X236Y61D01*
X234Y61D01*
X234Y65D01*
X232Y65D01*
X232Y67D01*
X230Y67D01*
X230Y69D01*
X228Y69D01*
X228Y73D01*
X226Y73D01*
X226Y77D01*
X224Y77D01*
X224Y81D01*
X222Y81D01*
X222Y85D01*
X220Y85D01*
X220Y91D01*
X218Y91D01*
X218Y97D01*
X216Y97D01*
X216Y107D01*
X214Y107D01*
X214Y133D01*
X216Y133D01*
X216Y143D01*
X218Y143D01*
X218Y151D01*
X220Y151D01*
X220Y155D01*
X222Y155D01*
X222Y161D01*
X224Y161D01*
X224Y165D01*
X226Y165D01*
X226Y167D01*
X228Y167D01*
X228Y171D01*
X230Y171D01*
X230Y173D01*
X232Y173D01*
X232Y177D01*
X234Y177D01*
X234Y179D01*
X236Y179D01*
X236Y181D01*
X238Y181D01*
X238Y183D01*
X240Y183D01*
X240Y185D01*
X242Y185D01*
X242Y187D01*
X244Y187D01*
X244Y189D01*
X246Y189D01*
X246Y191D01*
X248Y191D01*
X248Y193D01*
X250Y193D01*
X250Y195D01*
X254Y195D01*
X254Y197D01*
X256Y197D01*
X256Y199D01*
X260Y199D01*
X260Y201D01*
X264Y201D01*
X264Y203D01*
X268Y203D01*
X268Y205D01*
X272Y205D01*
X272Y207D01*
X276Y207D01*
X276Y209D01*
X284Y209D01*
X284Y211D01*
X294Y211D01*
X294Y213D01*
X40Y213D01*
G37*
D02*
G04 End of Copper0*
M02*